<?xml version="1.0" encoding="UTF-8"?><svg id="CYBERWORKS" xmlns="http://www.w3.org/2000/svg" viewBox="0 0 512 482.33"><defs><style>.cls-1{fill:#e79f58;}.cls-2{fill:#221e1f;}.cls-3{fill:#307c4a;}.cls-4{fill:#a5533a;}.cls-5{fill:#634649;}.cls-6{fill:#eba258;}.cls-7{fill:#6c8648;}.cls-8{fill:#0a984b;}.cls-9{fill:#ae7f3e;}.cls-10{fill:#a6553c;}.cls-11{fill:#f07e32;}.cls-12{fill:#383463;}.cls-13{fill:#9e3122;}.cls-14{fill:#211d1e;}.cls-15{fill:#3a3947;}.cls-16{fill:#5d86bc;}.cls-17{fill:#e7512a;}.cls-18{fill:#4cb656;}.cls-19{fill:#de7454;}.cls-20{fill:#24548d;}.cls-21{fill:#d87355;}.cls-22{fill:#ed6127;}.cls-23{fill:#9fc56e;}.cls-24{fill:#ab4626;}.cls-25{fill:#ea6139;}</style></defs><path class="cls-2" d="M204.91,202.36h11.04c2.27,7.44,4.5,14.75,7,22.94,2.85-8.49,5.42-16.17,7.97-23.76h9.02c.74,1.55,2.04,3.18,2.26,4.95,.48,3.85,2.62,7.09,3.41,10.81,.48,2.27,1.79,4.36,2.11,6.73,.02,.18,.6,.29,.92,.43,2.22-7.4,4.41-14.72,6.61-22.07h10.48c.77,1.85-.36,3.48-.89,5.11-2.36,7.26-4.85,14.48-7.31,21.71-1.21,3.56-2.47,7.1-3.67,10.66-.19,.56-.17,1.19-.26,1.9h-9.58c-1.98-2.05-2.19-5.05-3.2-7.66-1.82-4.71-3.34-9.53-5.01-14.29-.01-.04-.24,0-.68,0-2.47,7.15-4.98,14.41-7.57,21.9-3.24,0-6.72,0-10.2,0-1.03-4.49-2.72-8.78-4.17-13.13-1.4-4.22-3.13-8.39-4.29-12.66-1.21-4.45-3.79-8.49-4-13.56Z"/><path class="cls-2" d="M84.73,241.88v-39.6h6.72c5.83,0,11.65,.01,17.48,0,2.5,0,4.69,.86,6.62,2.36,2.49,1.94,3.91,4.4,3.4,7.71-.11,.74-.02,1.52-.02,2.28-1.39,1.98-1.7,4.85-4.54,5.5v1.31c1.53,1.09,2.95,1.97,4.22,3.03,1.38,1.15,1.95,2.7,1.86,4.54-.09,1.89-.02,3.79-.02,5.44-2.05,4.04-5.23,5.93-9.45,6.78-2.34,.47-4.6,.63-6.93,.64-6.33,.02-12.67,0-19.35,0Zm22.95-8.93l2.01-2.01v-3.4l-2.79-1.65c-1.91,0-3.8-.01-5.7,0-1.97,.02-3.94-.08-5.88,.05v6.42l1.32,1.32,11.03-.74Zm-1.4-15.55l-.35-.26,2.33-1.4v-2.56c-1.03-.76-2.18-1.62-3.29-2.43h-9.55v6.5l1.03,1.03c1.59,0,3.23,.11,4.85-.03,1.67-.15,3.31-.55,4.96-.85Z"/><path class="cls-2" d="M333.52,229.71h-4.26c-.34,1.79-.1,3.65-.14,5.49-.04,1.88,0,3.77,0,5.54l-1.03,1.03h-10.22v-39.49h13.54c2.79,0,5.58,.07,8.36-.02,3.87-.11,7.11,1.05,9.77,4,1.57,1.74,2.93,3.41,3.53,5.79,.52,2.11,.66,4.12,.09,6.14-1.3,4.57-2.18,5.82-5.9,8.95-.34,.29-.86,.36-1.48,.61,.17,.66,.19,1.44,.55,1.99,1.83,2.8,3.73,5.56,5.64,8.31,.56,.8,1.26,1.5,1.84,2.29,.25,.34,.36,.8,.63,1.42h-12.49c-2.67-3.82-5.57-7.97-8.41-12.04Zm-4.29-18.23v9.84c2.38,0,4.65,.09,6.9-.02,2.33-.11,4.53-.66,5.85-2.69v-4.82c-1.15-.8-2.34-1.62-3.34-2.31h-9.41Z"/><path class="cls-2" d="M310.83,215.82c.06,1.26-.26,2.9,.76,4.29,.11,5.89-1.39,11.18-5.57,15.56-2.55,2.66-5.38,4.78-8.95,5.92-8.31,2.66-17.74,.38-23.46-5.39-3.48-3.51-5.47-7.84-5.43-12.93,.01-1.39-.1-2.8,.03-4.18,.11-1.17,.3-2.4,.77-3.47,.95-2.14,1.78-4.48,3.25-6.22,4.05-4.8,9.08-7.99,15.69-7.88,1.77,.03,3.55,0,5.32,0,1.7,.01,6.17,1.17,7.77,2.31,2.24,1.59,4.56,2.99,6.12,5.55,1.24,2.02,2.24,4.18,3.69,6.43Zm-31.19,3.16c-.6,5.96,.83,11.22,7.56,13.76,1.26,0,2.66,.07,4.05-.02,2.52-.16,4.93-1.09,6.24-3.15,2.21-3.46,3.73-7.13,1.98-11.52-1.63-4.08-4.57-6.61-8.86-6.63-1.52,0-3.04,0-4.16,0-3.56,1.5-5.37,4.18-6.81,7.56Z"/><path class="cls-2" d="M193.95,227.87c3.27,4.78,6.32,9.23,9.48,13.85-4.21,.35-8.43,.06-12.66,.19-2.71-4.08-5.36-8.06-8.05-12.11h-5.11v12.01h-10.57v-39.52c7.82,0,15.53-.07,23.25,.03,4.64,.06,10.4,4.15,11.39,8.63,.66,2.99,.13,6.24,.1,9.37,0,.18-.43,.33-.5,.54-1.12,3.49-3.63,5.58-7.33,7.02Zm-16.27-16.39v9.77h9.75l3.78-3.19v-3.52c-1.38-1.05-2.83-2.14-4.04-3.06h-9.49Z"/><path class="cls-2" d="M374.78,226.95c-1.44,1.86-2.56,3.3-3.79,4.88v10.05c-1.84,0-3.69,0-5.55,0-1.88,0-3.77,0-5.76,0v-39.42h11.36v15.51c4.85-5.55,9.33-10.67,13.63-15.58h12.37c-.94,2.52-3.29,3.58-4.53,5.47-1.38,2.11-3.22,3.75-4.87,5.59-1.56,1.73-2.99,3.57-4.47,5.34,0,.41-.16,.9,.02,1.16,5.01,7.2,10.05,14.37,15.23,21.75-4.15,.39-8.26,.04-12.51,.22-4.57-4.09-6.87-10.02-11.13-14.98Z"/><path class="cls-2" d="M127.44,202.36h31.74v8.99h-21.12v6.01h18.83c.04,1.46,.09,2.8,.11,4.14,.02,1.38,0,2.76,0,4.27h-18.86v6.9h20.99v9.13h-31.69v-39.44Z"/><path class="cls-2" d="M432.86,206.76c-1.76,2.47-3.42,4.8-4.83,6.78-2.34,.76-2.96-2.06-4.83-1.36-1.25-1.06-2.63-1.64-4.32-1.54-1.64,.1-3.28,.02-4.77,.02l-1.98,1.98v1.53c2.16,2.07,5.12,2.56,7.78,3.2,2.46,.59,4.87,1,7.04,2.37,.36,.23,.99,.03,1.49,.03,1.61,1.64,3.21,3.26,4.87,4.94,.22,1.69,1.01,3.33,.94,5.24-.14,4.12-1.95,7.24-5.14,9.62-2.07,1.55-7.2,2.9-9.76,3.1-3.99,.32-7.8-.66-11.53-1.65-3.27-.87-6.22-2.73-8.94-5.08,2.2-2.47,4.21-4.74,6.33-7.13,4.55,3.6,9.73,5.21,15.77,4.6l1.69-1.99v-2.62c-2.2-.71-4.42-1.49-6.67-2.14-2.61-.75-5.39-1.01-7.78-2.34-2.23-1.24-4.76-2.13-5.98-4.8-1.02-2.25-2.07-4.63-1.41-6.92,.44-1.54,.35-3.4,1.49-4.68,1.43-1.61,2.84-3.35,4.6-4.52,1.85-1.23,4.13-1.82,6.44-1.86,2.66-.05,5.33-.08,7.99,0,2.66,.08,4.98,1.41,7.43,2.25,1.66,.57,2.94,1.56,4.06,2.96Z"/><path class="cls-2" d="M38.64,209.19c-3.13,2.22-5.72,4.67-8.94,6.39-3.12-3.96-7.11-4.63-12.12-3.99l-4.75,4.12c-1.77,3.44-1.12,6.68-1.26,9.02,1.34,4.31,3.75,6.68,8.09,8.06,3.79,.63,7.6-.87,10.68-4.92,2.73,2.03,5.4,4.02,8.28,6.15-3.53,4.09-7.22,6.83-12.44,8.02-4.92,1.12-9.38,.32-13.9-1-1.65-.48-3.2-1.59-4.56-2.7-2.87-2.33-5.22-5.15-6.45-8.71-.54-1.56-.84-3.22-1.1-4.86-.16-.99,.08-2.04-.05-3.03-.55-4.2,.97-7.98,3.17-11.21,2.54-3.72,5.94-6.82,10.46-8.25,1.75-.55,3.52-.92,5.39-.78,1.13,.09,2.29,.09,3.42,0,5.92-.45,10.49,2.26,14.56,6.16,.43,.41,.85,.85,1.52,1.52Z"/><path class="cls-2" d="M39.44,202.43h12.49c2.48,4.3,5.14,8.92,7.99,13.85,3.2-4.55,5.52-9.33,8.44-13.93h11.89c-1.25,3.02-3.34,5.33-4.59,8.01-1.37,2.92-3.55,5.27-4.84,8.25-1.21,2.81-3.42,5.18-5.22,7.78v15.31h-11.33v-14.91c-5.08-8.35-9.87-16.22-14.83-24.37Z"/><path class="cls-14" d="M246.22,245.69c6.03,0,11.96-.2,17.87,.08,3.41,.16,6.57,1.4,7.9,5.11,.16,.44,.39,.86,.76,1.67,0,.18-.06,.82,.01,1.43,.27,2.39-.57,4.3-2.35,5.87-1.19,1.05-1.14,1.1-1.43,2.63,1.79,1.61,3.51,3.16,5.22,4.68,.03,.46-.07,.9,.1,1.17,1.68,2.58,.25,4.82-.81,7.02-.99,2.05-2.79,3.13-4.96,3.91-1.69,.61-3.42,.32-5.01,.75-5.44,1.45-10.92,.24-16.2,.77l-1.09-1.09v-34.01Zm3.77,31.22c4.72,0,9.37,.17,13.99-.1,1.5-.09,3.3-.52,4.45-2.01,.6-.78,1.48-1.34,2-1.79v-4.61c-1.02-1.09-1.87-2-2.71-2.9-5.9-1.48-11.84-.45-17.74-.8v12.22Zm15.68-27.28c-5.49-1.61-10.59-.57-15.69-.94v12.11h14.18c6.25-3.87,6.13-7.29,1.51-11.17Z"/><path class="cls-14" d="M236.95,257.76c.21,1.33-.46,3.13,.75,4.67,.18,.24,.19,.92,0,1.09-1.51,1.37-.34,3.14-.9,4.54-1.93,5.45-5.36,9.58-10.76,11.73-3.53,1.4-7.34,1.4-10.94,.68-9.81-1.98-14.29-10.8-13.87-18.57,.32-6,3.4-14.13,13.84-16.65,4.51-1.09,9.06-.44,13.44,1.87,4.41,2.33,6.17,6.42,8.44,10.64Zm-4.09,.96c-.55-1.04-1.18-2.45-2.01-3.73-2.43-3.75-5.52-6.47-10.38-6.27-2.01,.08-4.03,.01-5.91,.01-6.51,3.55-6.6,5.36-8.14,8.78-1.81,3.99-1.26,7.91,.18,11.66,.98,2.56,2.84,4.71,5.34,6.25,4.59,2.83,9.24,2.46,13.88,.48,6.11-3.99,8.52-9.69,7.04-17.18Z"/><path class="cls-14" d="M194.28,252.2v7.16c-1.72,3.77-4.59,5.71-8.34,6.34,0,.52-.15,1.01,.02,1.26,2.66,3.75,5.37,7.47,8.25,11.45v2.22h-2.83c-3.33-4.25-6.91-8.82-10.6-13.53h-10v12.4l-1.21,1.21h-2.28c-.52-.49-.7-24.41-.26-35.03,6.16,0,12.36-.29,18.51,.12,3.39,.22,6.39,2.07,8.01,5.43,.16,.32,.44,.59,.72,.96Zm-23.44-3.47v14.47c3.67,0,7.21,.11,10.74-.03,3.74-.14,7.25-.92,8.92-5.34v-3.85c-.89-1.89-1.78-3.49-3.72-4.01-1.6-.43-3.2-1.1-4.82-1.18-3.66-.18-7.33-.06-11.12-.06Z"/><path class="cls-14" d="M316.91,262.92c.4,5.21-1.67,9.31-5.36,13-3.88,3.87-8.43,4.7-13.64,4.91-7.58,.31-17.47-7.67-16.9-18.64,.44-8.49,7.79-18.72,19.31-17.25,7.71-.73,17.89,8.54,16.59,17.99Zm-22.18-14.18c-1.16,.63-2.01,1.03-2.81,1.53-1.99,1.25-3.62,2.79-4.75,4.94-1.91,3.62-2.71,7.15-1.59,11.33,1.09,4.05,3.28,6.75,6.64,9.03,1.79,1.21,3.82,1.18,5.65,2,1.25,.56,2.8-.3,4.22-.6,6.04-1.27,9.8-5.93,10.93-11.97,.65-3.48-.23-7-2.21-10.04-2.44-3.74-5.53-6.47-10.41-6.24-1.9,.09-3.8,.01-5.67,.01Z"/><path class="cls-14" d="M431.83,249.36c-1.28,1.04-2.04,1.67-2.94,2.4-1.51-.91-3.23-1.95-5.03-3.03-2.32,0-4.73,0-7.13,0-1.56,0-2.72,.8-3.81,1.83-1.15,1.08-1.4,2.71-1.43,3.92-.04,1.75,1.19,3.19,2.93,4.2,2.11,1.23,4.44,1.56,6.69,2.23,2.03,.6,4.13,1.03,6.09,1.83,2.46,1,4.08,3,5.46,5.6,0,.69,0,1.68,0,2.68,0,4.94-3.32,8.93-9.25,9.66-1.62,.2-3.3,.13-4.94,0-1.55-.12-3.12-.36-4.62-.77-1.23-.33-2.44-.87-3.54-1.52-1.24-.74-2.34-1.7-3.49-2.55-.22-1.1-.08-2.1,.97-2.61,1.03-.5,1.76,.15,2.62,.78,2.6,1.9,5.64,2.95,8.76,3.57,1.19,.24,2.68,.61,3.94-.54,.43-.39,1.45-.13,2.5-.19,1.02-1.22,2.18-2.62,3.32-3.99-.33-1.32,.05-2.47-.5-3.76-1.06-2.53-3.31-2.91-5.36-3.59-2.8-.93-5.75-1.4-8.53-2.37-2.69-.94-5.07-2.22-6.34-5.26-1.17-2.8-.7-5.27,.53-7.59,1.92-3.65,5.3-5.26,9.44-5.4,4.45-.15,7.03,.61,10.15,2.15,.53,.26,1.07,.5,1.56,.81,.53,.34,1,.76,1.95,1.49Z"/><path class="cls-14" d="M397.63,273.11c.38,0,.8-.11,1.13,.02,.58,.23,1.1,.6,1.35,.74-.25,.88-.25,1.16-.38,1.32-2.16,2.58-4.79,4.51-8.15,5.07-2.19,.37-4.44,.32-6.66,.46-2.11,.13-3.97-.49-5.88-1.4-4.26-2.02-8.09-5.89-9.59-10.76-1.47-4.77-.93-9.41,.86-13.86,1.21-3.02,3.71-5.4,6.3-7.19,2.38-1.65,5.23-2.91,8.41-2.59,.88,.09,1.78,.07,2.66,0,3.67-.26,6.79,1.15,9.71,3.17,.87,.6,1.76,1.18,2.88,1.92-.84,.98-1.54,1.8-2.37,2.76-1.69-1.03-3.42-1.86-4.88-3.03-1.66-1.34-3.68-.95-5.49-1.42-1.7-.44-3.72,.31-5.65,.55-10.9,5.53-10.8,14.97-7.05,22.36,5.9,6.93,13.15,9.1,22.81,1.88Z"/><path class="cls-16" d="M471.51,266.25c2.48,1.34,4.93,2.75,7.46,3.99,1.67,.82,3.41,1.61,5.21,2.05,1.99,.49,4.07,.66,6.12,.79,2,.13,4.02,.03,6.37,.03-.28,1.61-.55,3.09-.79,4.58-.22,1.41-.41,2.82-.59,4.12-3.73,1.79-7.53,1.49-11.13,1.07-3.45-.4-6.93-1.28-10.15-2.89-3.08-1.54-6.08-3.1-8.88-5.17-3.56-2.62-6.56-5.78-9.51-8.97-2.42-2.62-4.33-5.71-6.56-8.73,1.7-1.87,3.67-2.17,5.7-2.3h.76c0,.37-.15,.85,.02,1.08,1.06,1.41,2.23,2.74,3.27,4.16,.32,.43,.35,1.07,.51,1.61-1.06,.37-2.13,.73-3.8,1.31,3.01,2.53,5.19,4.96,7.81,7.08,3.49,2.82,7.06,5.3,11.13,7.17,3.86,1.77,7.78,3.04,12.23,2.64-.34-1.87,1.76-3.38,.43-5.25-.66,0-1.38,.2-1.91-.03-3.56-1.51-7.53-1.95-10.79-4.25-.36-.25-.92-.2-1.39-.29-.3-1.2-1.1-1.65-2.28-1.52-.3-1.2-1.1-1.65-2.28-1.52v-.76c.25-.25,.51-.51,.76-.76l2.28,.76Z"/><path class="cls-23" d="M479.12,205.33c.63,0,1.6,.27,1.84-.04,1.47-1.83,3.85-1.82,5.68-2.91,1.56-.93,3.6-1.03,5.38-1.63,1.76-.6,3.75-.3,5.34-.87,2.74-.99,5.47-.81,8.06-.47,1.77,.23,3.57,.53,5.29,.61,.43,.42,.79,.78,1.28,1.26-1.14,4.26-2.3,8.6-3.54,13.25-12.93-3.78-24.46-.82-34.5,8.32-.56-.19-1.56,.51-1.69-.75v-1.52c1.27-1.27,2.54-2.54,3.81-3.81l1.57,.81c7.35-5.77,15.87-7.26,24.85-6.89,.34-2.91,.65-5.62,.97-8.39h-4.5c-1.65,0-3.47-.45-4.9,.11-2.2,.86-4.58,1.08-6.71,2.16-2.19,1.11-4.47,2.05-6.71,3.07h-.76v-.76c-.25-.51-.51-1.02-.76-1.52Z"/><path class="cls-14" d="M336.85,279.37c-1.59,1.9-2.71,1.6-3.93,.19v-30.12c-.81-.24-1.59-.66-2.37-.67-3.16-.08-6.33-.03-9.66-.03v-2.96h27.1v2.7c-.14,.05-.47,.24-.79,.24-3.41,.02-6.82,.01-10.35,.01v30.63Z"/><path class="cls-2" d="M355.89,245.77h3.54v34.12h-3.54v-34.12Z"/><path class="cls-6" d="M479.12,205.33c.25,.51,.51,1.02,.76,1.52-.58,.11-1.46-.38-1.52,.76-1.18-.12-1.99,.32-2.28,1.52-.66,.06-1.58-.34-1.56,.94,0,.19-.47,.39-.73,.58-1.05-1.25-1.51-2.98-3.16-4.15-1.18,1.45-2.2,2.81-3.34,3.99-4.21,4.4-5.48,10.18-7.94,15.4-.2,.41-.03,1-.03,1.51h-1.52v-.76c-.46-3.02,.86-5.7,1.93-8.32,2.5-6.12,6.22-11.5,11.28-15.78,1.26-1.07,2.46-2.84,4.92-2.51,.99,1.65,2.09,3.47,3.19,5.29Z"/><path class="cls-19" d="M457.8,226.65v4.57c-1.47,.36-.47,1.54-.76,2.28v.76l-5.5-.91c.35,2.58,.81,4.71,.88,6.84,.1,2.67,.82,5.13,1.74,7.58,.77,2.07,1.41,4.19,2.11,6.28-.25,.25-.51,.51-.76,.76h-.76c-2.18-3.4-2.99-7.37-4.46-11.06-.78-1.96-.73-4.3-.84-6.48-.13-2.52,.02-5.06-.05-7.59-.05-1.62,.09-3.15,1.06-4.46,1.3,.22,2.58,.41,3.85,.66,1.17,.22,2.32,.5,3.48,.76Z"/><path class="cls-21" d="M471.51,266.25l-2.28-.76c-1.11-1.24-2.26-2.44-3.3-3.73-.33-.41-.34-1.06-.5-1.6l2.46-.8c-.79-1.16-1.46-1.99-1.95-2.91-2.34-4.36-4.73-8.71-5.07-13.81h3.05c-.28,3.22,.83,6,2.19,8.9,1.96,4.17,4.31,7.96,7.59,11.19-.5,1.3-2.54,1.67-2.17,3.52Z"/><path class="cls-1" d="M463.89,242.65h-1.52v-6.85l2.04,.54c.3-1.38,.72-2.97,.99-4.58,.61-3.6,1.7-7.05,3.87-9.99,.69-.94,.67-1.77,.71-2.72,.25,.19,.73,.39,.73,.58-.02,1.28,.9,.88,1.56,.94v1.52c-3.34,3.29-4.06,7.73-5.37,11.95-.86,2.76-.65,5.56-.74,8.62h-2.27Z"/><path class="cls-20" d="M473.03,270.06c.47,.09,1.04,.04,1.39,.29,3.25,2.29,7.23,2.73,10.79,4.25,.54,.23,1.25,.03,1.91,.03,1.33,1.87-.77,3.38-.43,5.25-4.46,.4-8.37-.87-12.23-2.64-4.07-1.87-7.64-4.36-11.13-7.17-2.62-2.12-4.8-4.55-7.81-7.08,1.67-.58,2.74-.94,3.8-1.31h.76c1.27,1.52,2.54,3.05,3.81,4.57-.23,.4-.47,.8-.7,1.2,5.17,5.24,11.27,9.01,15.79,9.5,.36-.82,.75-1.74,1.09-2.5-2.59-1.15-4.83-2.15-7.03-3.13v-1.26Z"/><path class="cls-5" d="M460.08,261.68h-.76c-.16-.54-.2-1.18-.51-1.61-1.04-1.42-2.21-2.75-3.27-4.16-.18-.23-.02-.71-.02-1.08,.25-.25,.51-.51,.76-.76,.75-.29,1.93,.71,2.28-.76,1.3-.06,2.62-.16,3.05,1.52,1.1,1.9,1.83,4.06,3.81,5.33,.16,.54,.18,1.19,.5,1.6,1.04,1.29,2.19,2.49,3.3,3.73-.25,.25-.51,.51-.76,.76-2.01-1.99-4.01-3.98-6.16-6.11-.94-.08-1.87,.25-2.21,1.54Z"/><path class="cls-15" d="M460.08,261.68c.34-1.3,1.27-1.62,2.21-1.54,2.15,2.13,4.16,4.12,6.16,6.11v.76c-.25,.25-.51,.51-.76,.76h-1.73c-.75-.55-1.41-1.03-2.08-1.52-1.27-1.52-2.54-3.05-3.81-4.57Z"/><path class="cls-20" d="M467.7,267.78c.25-.25,.51-.51,.76-.76,1.18-.12,1.99,.32,2.28,1.52-1.1,.09-2.15-.04-3.05-.76Z"/><path class="cls-20" d="M470.74,268.54c1.18-.12,1.99,.32,2.28,1.52h-2.28v-1.52Z"/><path class="cls-18" d="M480.64,207.62c2.24-1.02,4.52-1.96,6.71-3.07,2.13-1.07,4.5-1.3,6.71-2.16,1.43-.56,3.25-.11,4.9-.11h4.5c-.32,2.77-.64,5.48-.97,8.39-8.98-.37-17.5,1.11-24.85,6.89l-1.57-.81v-.76c1.78-1.27,3.55-2.54,5.33-3.81l.56,1c4.48-3.17,9.83-3.45,14.52-5.07v-3.33c-2.41-.78-4.44,.25-6.54,.76-.45,.11-.85,.45-1.3,.52-2.46,.41-4.6,1.47-6.49,3.06h-.76c-.25-.51-.51-1.02-.76-1.52Z"/><path class="cls-9" d="M476.07,215.99v.76c-1.27,1.27-2.54,2.54-3.81,3.81-.66-.06-1.58,.34-1.56-.94,0-.19-.47-.39-.73-.58-.25-.25-.51-.51-.76-.76-.98-1.27-.98-2.54,0-3.81l4.57-3.81c.25-.19,.73-.39,.73-.58-.02-1.28,.9-.88,1.56-.94,.52,1.55-1.45,1.9-1.56,3.44,.61,.93,.34,2.48,1.56,3.42Z"/><path class="cls-7" d="M476.07,215.99c-1.22-.94-.95-2.49-1.56-3.42,.11-1.54,2.08-1.89,1.56-3.44h2.28v-1.52h2.28c.25,.51,.51,1.02,.76,1.52-.25,.18-.75,.4-.72,.52,.18,.86,.47,1.69,.72,2.53-1.78,1.27-3.55,2.54-5.33,3.81Z"/><path class="cls-9" d="M479.88,207.62h-1.52c.06-1.14,.95-.65,1.52-.76v.76Z"/><path class="cls-11" d="M473.79,210.66l-4.57,3.81-2.08-1.01c-1.38,2.72-2.77,5.26-3.98,7.88-.67,1.46-1.08,3.04-1.53,4.59-.13,.46-.02,.99-.02,1.49l-.76,.76h-1.52v-.76c0-.51-.17-1.09,.03-1.51,2.46-5.21,3.73-11,7.94-15.4,1.13-1.18,2.16-2.54,3.34-3.99,1.66,1.17,2.11,2.9,3.16,4.15Z"/><path class="cls-25" d="M459.32,227.42v.76c-.06,.76-.12,1.52-.17,2.28l-1.35-.75v-2.28h1.52Z"/><path class="cls-9" d="M478.36,207.62v1.52h-2.28c.3-1.2,1.1-1.65,2.28-1.52Z"/><path class="cls-10" d="M458.56,253.31c-.36,1.47-1.54,.47-2.28,.76-.7-2.1-1.35-4.21-2.11-6.28-.91-2.46-1.64-4.92-1.74-7.58-.08-2.14-.53-4.26-.88-6.84l5.5,.91v6.09h-2.17c0,1.6-.37,3.09,.07,4.27,1.11,2.92,1.93,5.99,3.62,8.67Z"/><path class="cls-17" d="M457.8,229.7l1.35,.75c.06-.76,.12-1.52,.17-2.28h1.52c.08,.21,.17,.42,.25,.63l.51-.63h.76c.11,.58-.38,1.46,.76,1.52,0,1.01,.1,2.02-.03,3.01-.13,1.04-.48,2.05-.73,3.08v6.85h-1.52v-8.13c-.55-.36-1.04-.69-1.52-1.01v-2.28h-1.52v-1.52Z"/><path class="cls-24" d="M459.32,233.51c.49,.32,.97,.65,1.52,1.01v7.36h-.76l-1.52-.76c-.06-1.14-.95-.65-1.52-.76v-6.85h2.28Z"/><path class="cls-25" d="M459.32,233.51h-2.28c.29-.75-.71-1.93,.76-2.28h1.52v2.28Z"/><path class="cls-4" d="M458.56,241.12l1.52,.76,.76,.76c.34,5.1,2.73,9.45,5.07,13.81,.49,.92,1.16,1.74,1.95,2.91l-2.46,.8c-1.98-1.27-2.71-3.43-3.81-5.33,1.36-.58,.77-1.44,.36-2.31-.64-1.36-1.44-2.69-1.84-4.13-.66-2.38-1.06-4.84-1.56-7.27Z"/><path class="cls-11" d="M462.37,235.79c.25-1.03,.6-2.04,.73-3.08,.13-.99,.03-2.01,.03-3.01,1.14-.06,.65-.95,.76-1.52,.25-.2,.63-.35,.74-.61,.32-.76,.42-1.61,.8-2.33,1.24-2.33,1.94-4.96,3.79-6.96,.25,.25,.51,.51,.76,.76-.04,.95-.02,1.78-.71,2.72-2.17,2.95-3.27,6.39-3.87,9.99-.27,1.61-.69,3.2-.99,4.58l-2.04-.54Z"/><path class="cls-12" d="M470.74,268.54v1.52h2.28v1.26c2.2,.98,4.44,1.98,7.03,3.13-.33,.77-.73,1.68-1.09,2.5-4.52-.49-10.62-4.26-15.79-9.5,.24-.4,.47-.8,.7-1.2,.67,.49,1.33,.98,2.08,1.52h1.73c.9,.72,1.94,.85,3.05,.76Z"/><path class="cls-13" d="M458.56,241.12c.51,2.43,.9,4.88,1.56,7.27,.4,1.44,1.2,2.76,1.84,4.13,.41,.87,1,1.73-.36,2.31-.43-1.69-1.75-1.58-3.05-1.52-1.7-2.68-2.51-5.75-3.62-8.67-.45-1.18-.07-2.67-.07-4.27h2.17c.58,.11,1.46-.38,1.52,.76Z"/><path class="cls-8" d="M482.17,209.14c1.89-1.59,4.03-2.65,6.49-3.06,.45-.08,.85-.42,1.3-.52,2.1-.51,4.13-1.54,6.54-.76v3.33c-4.69,1.62-10.04,1.9-14.52,5.07l-.56-1c.51-.37,1.02-.73,1.3-.93-.22-.88-.38-1.5-.53-2.12Z"/><path class="cls-3" d="M482.17,209.14c.16,.62,.31,1.23,.53,2.12-.27,.2-.78,.56-1.3,.93-.25-.84-.54-1.67-.72-2.53-.02-.12,.47-.34,.72-.52h.76Z"/><path class="cls-22" d="M469.22,218.28c-1.84,2-2.54,4.63-3.79,6.96-.38,.71-.49,1.57-.8,2.33-.11,.26-.48,.41-.74,.61h-2.28v-.76c0-.5-.11-1.03,.02-1.49,.45-1.55,.86-3.13,1.53-4.59,1.21-2.62,2.6-5.17,3.98-7.88l2.08,1.01c-.98,1.27-.98,2.54,0,3.81Z"/><path class="cls-25" d="M461.61,227.42v.76l-.51,.63c-.08-.21-.17-.42-.25-.63l.76-.76Z"/><path class="cls-25" d="M462.37,228.18h1.52c-.11,.58,.38,1.46-.76,1.52-1.14-.06-.65-.95-.76-1.52Z"/><path class="cls-21" d="M460.84,242.65l-.76-.76h.76v.76Z"/></svg>