<?xml version="1.0" encoding="UTF-8"?><svg id="GLOBE" xmlns="http://www.w3.org/2000/svg" viewBox="0 0 512 379.56"><defs><style>.cls-1{fill:#a1a1a1;}.cls-2{fill:#d2d2d2;}</style></defs><path d="M26.39,211.52c-1.29-7.74-4.21-15.37-1.71-23.38,.94-.2,1.87-.39,2.81-.59,.83,.09,1.65,.18,2.48,.26,1.23,0,2.45,0,3.68,0h2.74c1.32,.4,2.65,.86,3.51-.78,5.04-8.34,10.12-16.66,15.09-25.04,4.85-8.17,8.03-9.71,17.18-7.98,1.26,.85,2.52,1.7,3.77,2.55,2.52,3.57,3.18,7.76,4.02,11.91,2.76,13.76,5.56,27.52,8.74,43.25,4.55-8.06,8.15-14.43,11.75-20.8,1.62-2.59,3.23-5.19,4.85-7.78,5.34-8.8,11.01-17.4,15.51-26.68,6.03-3.86,12.04-4.88,18.03,.09,.57,.79,1.15,1.57,1.72,2.36,2.79,6.16,2.32,13.11,4.72,19.36,.62,4.27,.69,8.65,2.63,12.65,.15,1.33,.3,2.65,.46,3.98,.76,4.05,1.5,8.11,2.28,12.16,.19,.98,.43,2.39,1.58,2.25,1.34-.16,1.52-1.7,1.83-2.87,1.72-2.64,3.74-5.14,5.11-7.95,3.74-7.67,9.26-11.03,18.21-10.74,13.32,.43,26.71,1.35,40.05-.16,.82,.08,1.63,.15,2.45,.23,17.7,.04,35.4,.02,53.11,.18,3.07,.03,3.95-1.73,4.86-4.03,3.73-9.49,7.29-19.05,11.39-28.38,3.53-8.04,5.31-16.78,9.83-24.39,4.25-7.17,14.09-9.51,18.09-3.17,4.65,7.38,8.76,4.53,13.84,2.25,.97-.43,1.98-.79,3.01-1.04,8.47-2.08,17.63-2.71,22.99,4.75,4.91,6.84,7.79,4.99,13.13,1.39,9.67-6.53,20.2-10.2,31.89-4.85,5.98,3.58,8.74,9.26,10.3,15.71,.04,1.25,.07,2.5,.1,3.75,.14,6.69-2.74,12.73-4.1,19.1-1.22,1.58-2.36,3.2-2.47,5.3-1.31,2.81-2.42,5.74-3.98,8.41-2.43,4.17-1.75,6.1,3.37,5.52,1.03-.12,2.07-.18,3.1-.27l3.92-.02c3.14,.89,4.98-.07,6.2-3.32,4.2-11.17,8.68-22.23,13.05-33.33,.71-1.79,1.42-3.57,2.12-5.36,2.43-5.57,3.91-11.87,10.76-14.1,2.92,.17,5.83,.34,8.75,.51,0,0-.18-.1-.18-.1,.18,.84,.78,1.09,1.55,1.1,1.2,1.11,2.41,2.22,3.62,3.33,.5,1.48,1,2.96,1.5,4.43-.02,1.63-.03,3.27-.05,4.9-.42,1.32-.85,2.65-1.27,3.97-3.89,8.3-7.31,16.78-10.23,25.46-.84,2.15-1.68,4.29-2.51,6.44-.56,2.06-4.55,4.14,.03,6.18,2.1,0,4.2,0,6.3,0,11.11-.07,22.23-.14,33.34-.22,.85,.09,1.7,.18,2.56,.28,.94,8.31,.81,16.5-2.61,24.35-1.21,.05-2.42,.09-3.63,.14-11.53-.28-23.05-.73-34.57,.2-.91-.06-1.83-.12-2.74-.18-11.5-.47-23-.54-34.5,.07-.91-.01-1.83-.03-2.74-.04-4.04-.12-8.08-.16-12.12-.36-7.14-.36-14.52,1.42-21.31-2.27l-3.48-4.28c-1.08-3.65-.97-7.31-.15-10.99,1.56-3.46,3.13-6.91,4.69-10.37,1.48-3.74,3.81-7.16,4.36-11.27,2.85-4.22,4.77-8.9,6.24-13.72,1.35-4.41-.58-6.98-5.3-7.14-7.11-.24-11.92,3.88-16.07,8.87-5.08,6.11-7.59,13.58-10.47,20.84-.95,2.11-1.91,4.22-2.86,6.33-.88,2.08-1.76,4.15-2.64,6.23-3.9,6.2-4.78,14.58-12.87,17.76-1.21,.09-2.43,.17-3.64,.26-10.45-3.35-12.73-7.6-10.17-18.99,.24-.56,.49-1.11,.73-1.67,4.07-7.66,7.62-15.53,10.16-23.84,.93-.77,1.78-1.58,1.66-2.94,1.27-2.79,3.75-5.23,2.64-8.73-2.08-6.47-7.1-4.48-11.01-3.14-8.22,2.82-12.87,9.56-16.12,17.15-4.35,10.14-8.36,20.43-12.39,30.7-3.34,8.51-6.07,10.42-15.2,10.69-9.15,.27-18.31-1.09-27.44,.33-1.72-.05-3.43-.1-5.15-.15-22.38-1.2-44.77,.14-67.16-.16-1.6-.02-2.9,.46-3.69,1.99-2.71,5.28-6.77,9.81-8.68,15.53-2.06,1.56-3.19,3.68-3.77,6.14-1.08,.52-1.28,1.55-1.49,2.57-3.13,3.91-5.88,8.04-7.62,12.77-1.29,1.24-2.58,2.47-3.87,3.71-10.29,4.12-17.03,.51-19-10.1-.38-2.05-1.02-4.06-1.54-6.08-.24-.97-.49-1.95-.73-2.92-1.65-12.09-3.95-24.03-7.64-36.87-5.38,9.37-9.98,17.39-14.59,25.4-1.22,.73-1.3,1.91-1.23,3.14-2.72,2.2-4.15,5.22-5.32,8.4-.5,.83-1,1.65-1.5,2.48-3.56,4.33-6.05,9.32-8.68,14.21-.86,.8-1.72,1.61-2.58,2.41-11.07,3.92-16.74,.7-19.28-10.89-.32-1.45-.79-2.86-1.18-4.3-.09-1.79,0-3.62-1.06-5.22-2.2-11.52-4.41-23.03-6.82-35.67-4.33,5.83-6.56,12.46-13.93,13.32-4.63-.5-9.25-.65-13.86,.13-1.26,.03-2.52,.07-3.78,.1-1.24-.21-2.48-.42-3.72-.62Z"/><path class="cls-1" d="M217.42,187.57c-13.34,1.51-26.72,.6-40.05,.16-8.95-.29-14.47,3.07-18.21,10.74-1.37,2.81-3.39,5.31-5.11,7.95-1.96-2.91-.78-6.15-.91-9.23-.17-3.99-1.84-4.31-4.78-2.3-.15-1.33-.3-2.65-.46-3.98,3.73,.22,7.56,.35,7.39-4.94-.15-4.57-5.5-10.27-9-9.81-.43,.06-.69,1.37-1.02,2.1-2.41-6.25-1.94-13.2-4.72-19.36,5.13,.26,4.26-4.32,5.61-7.05,.38-.76-.25-1.8-1.27-1.68-3.08,.36-4.65,2.56-5.82,5.13-.17,.37-.17,.82-.25,1.24-5.98-4.97-12-3.95-18.03-.09-.7-.75-1.56-1.4-2.08-2.25-.8-1.32,.14-3.82-2.24-4.01-2.37-.19-3.03,2.02-3.78,3.71-2.3,5.19-4.85,10.29-5.93,15.95-.84,4.4-4.13,8.51-1.48,13.29-1.62,2.59-3.23,5.19-4.85,7.78,.27-12.26,2.95-24.06,8.26-35.03,2.95-6.09,.28-6.17-4.43-6.01-6.19,.2-12.41,.34-18.58-.04-5.32-.33-8.59,1.48-9.76,6.73-1.26-.85-2.52-1.7-3.78-2.55,1.61-.31,3.01-1.17,2.89-2.84-.13-1.8-1.91-1.22-3.04-1.23-8.06-.05-16.12,.03-24.18-.05-2.32-.02-4.2,.69-5.5,2.55-7.46,10.64-13.7,21.8-14.84,35.1-.94,.2-1.87,.39-2.81,.59,1.99-21.52,12.91-37.91,29.53-51.02,.43,3.68-4.32,5.12-3.94,9.12,8.22,0,16.33-.05,24.43,.03,2.3,.02,4.23-.53,5.65-2.37,8.35-10.85,18.73-19.55,30.65-27.93-4.88-1.08-5.57-4.39-6.07-7.89-8.37,3.7-16.24,7.31-23.65,11.85-7.63,4.67-15.18,9.47-21.91,15.41-1.52,1.34-3.05,2.32-5.17,1.81,8.94-10.7,20.97-17.28,32.95-23.68,35.27-18.84,73.35-28.59,112.79-33.66,33.21-4.27,66.61-4.29,99.79-1.25,49.54,4.53,97.16,16.36,139.86,43.35,4.84,3.06,9.78,6.06,13.55,10.52-2.92-.17-5.83-.34-8.75-.51,3.41-2.65-.31-3.43-1.42-4.23-12.08-8.75-25.59-14.95-38.98-21.35-.89-.43-1.92-1.31-2.81-.12-.72,.95-.16,1.96,.19,2.98,1.07,3.17,4.28,4.66,5.79,7.48,0,0-.13,.15-.13,.15-1.27-.02-2.53-.05-3.8-.07-.18-.19-.37-.38-.55-.57,.03,.12,.02,.29,.09,.35,.13,.11,.31,.15,.47,.22,10.86,9,21.52,18.22,30.39,29.27-.71,1.79-1.42,3.57-2.12,5.36-6.16-3.18-12.75-.65-19.09-1.39-.03-1.25-.07-2.5-.11-3.75,4.27,0,8.55,.03,12.82,0,1.22-.01,2.89,.34,3.16-1.29,.13-.79-.74-1.94-1.44-2.64-5.44-5.42-10.69-11.07-16.54-16.01-3-2.53-5.89-5.89-11-6.59,1.37,3.93,3.38,7.1,2.69,10.82-11.69-5.35-22.22-1.67-31.89,4.85-5.34,3.6-8.22,5.45-13.13-1.39-5.36-7.47-14.52-6.84-22.99-4.75-1.03,.25-2.05,.61-3.01,1.04-5.08,2.29-9.19,5.14-13.84-2.25-4-6.34-13.84-4-18.09,3.17-4.51,7.61-6.29,16.35-9.83,24.39-4.1,9.33-7.67,18.89-11.39,28.38-.9,2.3-1.79,4.06-4.86,4.03-17.7-.16-35.4-.14-53.11-.18,6.32-1.89,12.95,.16,19.89-1.26-4.06-4.27-3.56-10.3-7.85-14.03-1.44-1.25-.57-3.53,.65-5.27,1.21-1.73,2.28-3.61,3.11-5.55,4.94-11.5,4.72-11.82-7.4-11.78-.85,0-1.72,.08-2.56,0-4.52-.47-5.46,1.83-6.09,5.98-1.6,10.53-.34,21.21-2.19,31.69Zm181.98-73.42c.07,.15,.11,.32,.22,.44,.06,.07,.21,.06,.32,.09-.2-.16-.39-.32-.59-.47-.06-.15-.08-.32-.18-.44-.05-.07-.2-.08-.31-.11,.18,.17,.36,.33,.54,.5Zm-192.48-28.14c-3.25-.04-6.35,.41-8.95,2.6-3.53-.13-6.55,1.68-9.79,2.63-1.33,.39-3.3,.53-3.32,2.33-.01,1.07,.91,2.38,1.79,3.17,1.61,1.45,3.07,.33,4.55-.66,2.89-1.95,4.76-4.77,6.75-7.5,3.53,1.04,6.85,1.31,9.03-2.51,.58-.16,1.15-.33,1.73-.49-.11-.17-.32-.49-.33-.48-.5,.28-.98,.6-1.46,.91Zm-17.93,1.33c-4.27-.31-8.16,.7-11.66,3.04,4.44,.88,8.29-.25,11.62-3.09,.94-.15,1.88-.31,2.81-.46-.11-.16-.19-.43-.33-.47-1.07-.32-1.89,.02-2.44,.99Zm12.18,62.58c-16.06,0-16.14-.02-19.34,15.8-.66,3.28-.54,6.74-.62,10.12-.02,.98,.16,2.4,.81,2.91,5.01,3.88,8.75,10.07,16.78,8.41,3.47-.72,7.23-.33,10.83-.07,3.96,.29,4.96-1.32,5.15-5.12,.42-8.63,1.28-17.26,2.31-25.84,.56-4.67-.67-6.78-5.7-6.27-3.37,.34-6.81,.06-10.21,.07Zm26.84-44.05c-3.82-.33-4.04-.61-5.49,.55-1.64,1.32-2.77,1.07-4.56,.3-9.78-4.23-17.35,1.49-16.3,12.01,.2,1.98,1.35,5.82-2.28,5.14-3.51-.65-3.72,1.26-4.95,3.13-3.09,4.69-4.52,10.04-6.57,15.15-1.12,2.79-.66,4.24,2.92,4.14,7.68-.21,15.37-.16,23.05-.02,3.14,.06,4.38-.93,4.88-4.22,1.89-12.33,5.45-24.28,9.3-36.18Zm26.46,13.2c0-2.57-.01-4,0-5.44q.07-8.4-8.14-8.42c-3.2,0-6.43,.23-9.61-.05-3.89-.34-5.71,1.26-6.88,4.92-3.35,10.51-6.13,21.13-8.16,31.98-.63,3.4,.36,3.91,3.35,4.25,9.26,1.06,17.96-1.7,26.8-3.52,1.36-.28,2.95-1.02,2.15-3.08-.19-.14-.37-.37-.54-.37-3.35,.04-7.55,2.42-9.14-2.77-1.29-4.2-1.75-7.96,3.98-10.05,2.6-.95,4.98-3.97,1.95-7.75-2.08-2.59-1.01-5.77-.56-8.84,4.85,1.38,2.48,5.69,4.79,9.13Zm-121.46-11.89c-12.3,3.98-42.21,26.6-47.88,35.72-2.34,3.76,.68,3.27,2.69,3.29,7.47,.07,14.95-.14,22.42,.1,3.85,.12,6.19-2.39,6.34-5.04,.43-7.84,.3-15.51,9.95-18.16,.16-.04,.38-.33,.36-.49-.41-5.7,4.24-9.5,6.12-15.42Zm18.8,64.39c.2,3.68,.58,6.46,6.28,5.72,4.44-.58,8.57-4.75,12.75-2.65,7.69,3.88,7.51-1.65,7.71-5.93,.24-5.16,2.31-9.86,2.83-14.91,.24-2.33,.57-4.56-2.78-3.84-7.02,1.51-15.08-3.7-21.29,3.27-.27,.3-1.52-.27-2.31-.44-1.84-.38-2.96-4.46-5.06-1.76-1.58,2.02-2.06,4.65-1.01,8.1,1.17,3.86,4.87,7.49,2.89,12.44Zm102.67-80.35c0-2.56,.08-5.12-.03-7.67-.07-1.54,.48-3.97-2.39-3.24-1.8,.46-4.95,.5-3.61,3.82,1.27,3.14-.85,4.22-2.77,5.55-1.92,1.34-4.14,2.36-5.78,3.98-2.2,2.17-6.51,4-5.49,7.2,1.15,3.61,5.57,1.63,8.48,1.68,11.58,.21,11.58,.08,11.58-11.32Zm12.5,39.62c-2.69-.07-4.94,1.14-7.14,2.48-2.06,1.25-2.09,3.35-1.33,5.07,.94,2.11,2.65,.57,3.76-.08,2.64-1.54,5.31-1.21,7.05,.76,4.2,4.75,9.9,5.24,15.48,6.37,1.66,.34,3.44,1.41,4.74-.13,1.49-1.76,.94-4.1,.53-6.13-.54-2.65-2.97-2.13-4.73-1.95-5.42,.57-9.99-.97-13.69-4.91-1.34-1.43-2.95-1.51-4.68-1.48Zm-9.86-33.74c-.03,2.26-.1,4.04,1.72,5.01,1.4,.74,3.22,.94,4.23-.15,3.05-3.27,4.09-8.65,9.85-8.98-.06-.79,.16-1.76-.23-2.34-2.85-4.26-5.96-8.16-11.07-10.11-3.63-1.38-4.44-.13-4.61,3.29-.24,4.62,2.52,9.2,.11,13.28Zm-67.31,31.25c-2.42,0-4.19-.54-5.29,.09-6.26,3.55-12.22,7.62-16.75,13.26-1.34,1.67-.99,4.32,2.22,4.46,3.59,.15,7.2,0,10.8,.06,2.14,.04,2.82-1.28,3.43-3.01,1.7-4.74,3.53-9.43,5.59-14.86Zm78.74-47.73c2.77,3.57,5.11,5.94,6.7,8.74,3.81,6.75,10.8,7.4,17.11,9.35,1.15,.36,2.67,.12,3.39-1.14,.86-1.52-.6-2.3-1.45-3.06-7.16-6.33-15.31-10.85-25.75-13.89Zm13.9,2.27c2.8,1.77,5.54,3.65,8.43,5.26,3.25,1.81,5.35,4.89,8.24,7.05,3.21,2.39,5.7-.28,7.99-1.86,1.64-1.13-.06-2.16-1.15-2.7-7.42-3.67-15.15-6.49-23.5-7.76Zm-67.98,4.33c-2.87,1.42-7.34,1.25-8.2,5.32-.36,1.72,1.98,4.65,4.52,4.12,3.81-.79,5.45-4.58,6.96-7.62,1.02-2.06-1.78-1.38-3.28-1.82Zm49.92,26.62c-.89-1.76-2.1-3.44-4.2-3.23-2.89,.29-1.82,2.81-1.94,4.51-.12,1.65,.51,3.12,2.51,2.64,1.93-.46,3.29-1.78,3.64-3.92Zm9.73-4.23c-1.89-1.93-2.86-5.23-6.02-3.74-1.35,.64-1.35,2.94-.63,4.04,2.03,3.1,4.34-.68,6.65-.3Zm-126.78-16.56c.1,.59,.19,1.18,.29,1.77,4.53,.18,8.4-1.8,11.94-4.92-4.08,1.05-8.15,2.1-12.23,3.15Zm155.64-7.59c3.37,1.5,6.32,5.44,11.8,3.02-4.25-3.03-8.19-2.28-11.8-3.02Zm85.64,26.94c2.3,2.71,4.77,5.09,9.34,5.4-2.66-3.71-5.91-4.7-9.34-5.4Zm-52.12-21.89c-3.14-1.1-5.94-3.07-9.93-2.79,3.02,3.57,6.4,3.67,9.93,2.79Zm-122.59,8.75c-1.43,.19-1.66,.96-1.62,1.82,.05,1.04,.84,1.35,1.71,1.34,1.03,0,1.55-.71,1.24-1.59-.24-.66-.96-1.15-1.33-1.58Zm13.14,2.82c1.76,.98,2.89,.17,3.63-1.31,.15-.3-.42-1.38-.61-1.36-1.63,.1-2.65,1.02-3.02,2.67Zm119.05-12.99c-1.37-1.66-2.77-2.21-5.57-.74,2.3,.17,3.28,2.17,5.57,.74Zm-4.25,2.91c-.29-.25-.5-.5-.77-.64-.16-.08-.44-.05-.62,.04-.54,.26-.51,.62,.11,.77,.36,.08,.79-.09,1.28-.17Z"/><path class="cls-1" d="M331.41,212.63c1.21-.09,2.43-.17,3.64-.26-1.09,6.23-2.09,12.48-3.29,18.7-.54,2.78-.3,4.61,3.17,4.59,8.53-.06,17.06-.03,25.59-.03,2.19,0,3.57-.91,4.13-3.15,2.17-8.82,5.66-17.36,5.47-26.65,1.16,1.43,2.32,2.85,3.48,4.28-1.98,7.11-3.98,14.22-5.93,21.33-.4,1.46-.71,3.68,1.03,3.8,7.83,.54,16.61,2.8,23.3-.71,7.96-4.18,15.12-11.05,15.02-21.79,.91,.01,1.83,.03,2.74,.04-.73,3.57-1.45,7.15-2.44,12,5.54-3.53,9.93-6.38,14.37-9.16,2.82-1.76,5.26-2.5,7.05,1.56,1.96,4.44,4.6,4.32,7.49,.52,1.07-1.4,2.06-3.7,4.3-3.13,2.2,.55,.13,3.51,1.93,4.66,1.91-1.86,1.85-4.19,1.79-6.52,.91,.06,1.83,.12,2.74,.18-.15,6.66-3.85,12.03-6.58,17.74-1.6,3.34-1.48,5.14,2.92,5.06,7.67-.14,15.34-.09,23.01,0,2.35,.03,4.25-.71,5.51-2.58,4.22-6.33,8.93-12.45,9.72-20.41,1.21-.05,2.42-.09,3.63-.14-5.14,18.75-17.63,32.24-32.23,44.02-25.88,20.88-56.1,32.94-87.8,41.56-29.41,8-59.45,11.78-89.94,13.31-46.9,2.34-92.86-2.87-137.74-16.11-32.76-9.66-63.62-23.57-88.51-48.01-10.34-10.15-18.2-21.89-22.58-35.79,1.24,.21,2.48,.42,3.72,.63,1.64,7.13,5.31,13.31,9.33,19.28,1.03,1.52,2.66,3.67,4.09,3.72,8.33,.33,16.75,1.93,24.98-.89,1.05,1.6,.97,3.43,1.06,5.22-7.65-2.57-15.42-.61-24.43-1.37,3.57,4.24,5.9,7.8,8.98,10.53,12.46,11.05,26.55,19.7,41.3,27.4,7.96,4.15,16.07,3.23,25.49,2.87-11.31-8.14-22.5-14.44-30.87-24.25,.86-.8,1.72-1.61,2.58-2.41,15.01,14.91,29.7,30.47,54.87,26.53-12.59-9.25-23.06-19.7-30.66-32.17-4.09-6.7-8.25-9.45-15.53-8.58,.5-.83,1-1.65,1.5-2.48,2.29-.06,4.62,.56,7.13-.55-.62-2.61-2.52-4.99-1.81-7.85-.07-1.23,.01-2.41,1.23-3.14,1.9,11.1,2.52,11.65,13.44,11.63,2.93,0,5.86-.11,8.79-.16,.24,.97,.49,1.95,.73,2.92-3.84-.05-7.69,.05-11.52-.19-5.56-.35-5.13,1.95-2.66,5.42,5.42,7.63,11.01,15.11,17.81,21.6,10.24,9.77,21.01,18.07,37.46,12.8-6.84-7.25-12.75-15.14-18.73-22.96-.3-.39-1.2-.34-1.82-.49,1.29-1.24,2.58-2.47,3.87-3.71,3.53,7.11,8.91,12.92,13.38,19.36,7.87,11.32,18.63,9.2,29.81,8.67-4.02-7.96-7.7-15.35-11.51-22.68-.75-1.43-.5-4.72-3.39-3.32-2.12,1.03-1.15,3.47-.14,5.09,2.56,4.1,2.88,8.85,4.07,13.33,.32,1.19,.43,2.73-.84,3.48-1.54,.91-3,.13-3.91-1.16-1.22-1.73-2.21-3.62-3.23-5.48-2.85-5.2-3.96-11.31-8.09-15.85-2.28-2.51-3.56-5.35-3.13-8.73,.54-4.22-1.27-5.94-5.4-5.48,.21-1.02,.41-2.05,1.49-2.57,5.43,.5,3.56-3.46,3.77-6.15,1.91-5.73,5.97-10.25,8.68-15.53,.79-1.54,2.09-2.01,3.69-1.99,22.39,.3,44.78-1.04,67.16,.16-5.02,1.49-10.15,.57-15.22,.62-15.42,.15-15.42,.05-14.2,15.04,.07,.85,.11,1.71,.05,2.55-.3,4.22,1.83,5.55,5.83,5.46,7.89-.18,15.8-.2,23.69,0,3.75,.09,5.49-.95,5.28-5.01-.32-6.15-.21-12.33-.28-18.5,9.13-1.41,18.3-.06,27.44-.33,9.12-.27,11.85-2.18,15.2-10.69,4.04-10.27,8.05-20.56,12.39-30.7,3.25-7.58,7.91-14.33,16.12-17.15,3.91-1.34,8.93-3.33,11.01,3.14-9.26,.4-2.29,5.66-2.63,8.73,.12,1.36-.74,2.17-1.66,2.94-6.01,1.43-10.78,6.63-17.94,4.74,.96,2.95,2.93,3.56,4.32,3.57,6.6,.07,4.63,3.31,2.75,6.67-.51,.92-.78,2.05-1.48,2.78-3.41,3.57-1.7,5.18,2.19,6.08-.24,.56-.49,1.11-.73,1.66-8.88-.2-16.27,6.74-15.37,15.79,.8,8.01,2.49,15.66-6.21,20.58-.31,.18-.43,.72-.6,1.11-.59,1.34-1.69,3.03,.01,3.95,2.31,1.24,5.04,.76,7.53,.32,1.85-.33,1.14-1.87,.78-3.07-1.99-6.61,3.22-10.01,6.49-14.22,1.06-1.37,2.69-2.23,4.49-.94,1.61,1.16,1.98,3,1.42,4.59-.84,2.36-2.3,4.49-3.39,6.77-.9,1.88-2.82,4.19-1.14,5.87,2.64,2.64,6.44,.98,9.74,1.17,2.22,.13,3.53-1.17,3.79-3.45,.74-6.51,3.28-12.78,2.65-19.47Zm-76.93,46.69c0-5.31-.17-10.64,.06-15.94,.17-3.8-1.09-5.34-5.08-5.22-7.88,.24-15.78,.23-23.67,0-4.2-.12-5.33,1.62-4.51,5.38,1.26,5.78,2.11,11.69,3.79,17.35,6.95,23.34,.33,17.46,24.46,18.39,4.1,.16,5.15-1.61,4.99-5.29-.21-4.88-.05-9.78-.05-14.67Zm68.99,19.91c3.34-.68,7.75,1.56,11.18-1.52,10.9-9.8,18.89-21.81,25.61-34.69,1.59-3.04,.42-4.82-3.25-4.78-6.83,.07-13.68,.28-20.49-.07-4.57-.24-6.9,1.11-8.2,5.74-2.53,9.01-6.37,17.57-10.9,25.79q-5.26,9.54,6.04,9.54Zm-26.17,.02c3.49-1.11,8.45,2.28,11.8-2.53,7.21-10.34,12.53-21.55,16.28-33.59,1.19-3.83,.34-4.99-3.55-4.92-5.47,.1-10.91,.53-16.42,.16-8.3-.55-11.43,2.33-12.46,10.47-.82,6.53-2.32,12.9-4.23,19.17-3.41,11.24-3.44,11.23,8.56,11.23Zm51.99,.16c3.34-.66,7,.92,10.06-.95,11.97-7.32,21.13-17.67,30.25-28.09,2.16-2.47-1.92-6.23,2.24-8.03,1.01-.43,2.27-1.59,1.71-3.04-.58-1.51-2.18-1.03-3.37-1.04-7.04-.04-14.08,.12-21.12-.08-2.93-.08-3.89,1.35-5.04,3.69-5.04,10.31-10.56,20.33-18.41,28.9-2.11,2.3-6.65,4.57-5.62,7.06,1.38,3.36,6.13,.58,9.31,1.59Zm118.14-41.15c-9.45,0-17.54,.04-25.63-.02-2.27-.02-3.96,.68-5.62,2.35-12.63,12.79-24.6,26.34-40.51,35.42-1.06,.61-2.87,1.09-2.69,2.78,11.29,1.91,21.21-.8,31.1-6.53,15.72-9.11,30.64-18.93,43.35-34Zm-253.41,40.98c3.17,0,5.11-.2,7,.04,4.98,.64,6.36-.73,4.44-5.78-3.7-9.71-5.86-19.85-7-30.18-.39-3.52-1.96-5.3-5.78-5.12-6.73,.31-12.49-.69-18.09,6.74-4.35,5.76-4.37,8.8-1.69,13.89,1.98,3.76,3.92,7.53,5.81,11.33,3.42,6.87,8.04,11.51,15.32,9.08Zm44.16-20.7v1.91c0,19.51,0,19.4,19.45,18.89,3.4-.09,5.07-1.28,5.85-4.35,1.98-7.78,3.93-15.57,6.04-23.31,.78-2.88-.31-4.06-2.68-2.57-5.72,3.6-9.09-.29-10.55-4.21-2.66-7.17-7.83-6.86-13.64-6.73-3.26,.07-4.62,1.11-4.52,4.45,.17,5.3,.05,10.61,.04,15.92Zm107.25,19.93c13.83,3.08,24.88-.78,34.69-9.11,3.24-2.75,6.66-5.32,10.21-7.64,3.38-2.21,5.83-4.48,3.51-8.8-2.33-4.34-4.33-9-10.71-8.25-5.5,.64-8.65,3.73-11.83,8.2-7.01,9.85-15.98,18.03-25.87,25.61Zm-107.25-54.78c0,12.95,0,12.82,10.36,12.02,3.7-.29,4.75-1.94,3.15-4.88-2.14-3.94-2.69-7.9-1.9-12.23,.76-4.19-.67-6.07-5.43-6.04-4.57,.04-6.96,1.01-6.23,6.02,.24,1.67,.04,3.4,.04,5.1Zm-51.32,11.96v-.02c2.13,0,4.27,.04,6.4-.01,2.19-.05,4.26-1.09,3.62-3.35-1.41-5.03-.26-10.21-1.44-15.17-.44-1.87-.49-4.58-3.67-4.27-2.69,.27-4.26,1.91-4.68,4.46-.27,1.66-.23,3.4-.12,5.09,.21,3.26,.07,5.82-4.4,5.9-3.09,.05-4.44,2.94-4.18,5.48,.32,3.12,3.38,1.52,5.25,1.87,1.03,.19,2.13,.03,3.19,.03Zm1.02,47.29c4.19,4.93,7.48,8.52,11.91,10.63,3.79,1.81,8.32,2.13,11.4-.66,2.8-2.54-1.23-5.11-1.98-7.72-.54-1.87-2.22-2.29-4.08-2.27-5.25,.05-10.49,.02-17.25,.02Zm-47.39,0c6.65,5.07,12.9,7.82,19.24,10.4,2.73,1.11,5.32,2.95,8.49,2.28,.96-.2,2.03-.75,2.64-1.48,.84-.99,.16-2.17-.76-2.7-6.2-3.59-10.89-10.49-19.64-8.59-2.64,.57-5.52,.09-9.97,.09Zm1.67,14.53c-16.35-3.09-29.22-17.79-49.11-13.89,16.75,6.78,32.6,11.53,49.11,13.89Zm10.77-3.2c-16.77-11.21-23.15-13.08-36.71-10.15,12.9,3.62,22.88,12.4,36.71,10.15Zm226.08-10.53c-12.24-3.36-21.49,2.29-31.04,6.64-1.1,.5-2.8,.92-2.35,2.44,.51,1.72,2.19,1.72,3.75,1.26,9.71-2.88,19.37-5.91,29.64-10.34Zm-71.6-.75c-6.29,0-11.57-.1-16.84,.04-2.33,.06-4.21,1.47-4.37,3.82-.14,2.16,2.08,2.27,3.65,2.8,6.16,2.05,11.65,.2,17.56-6.67Zm-23.78,1.59c-.12-.54-.24-1.09-.37-1.63-5.49,0-10.97,.01-16.46,0-3.25-.01-4.86,2.26-4.85,4.8,0,2.6,2.94,3.04,4.9,2.75,5.96-.91,11.8-2.4,16.78-5.9Zm-58.04,3.49c1.82,0,2.88,.07,3.93-.01,1.94-.15,4.73,.8,4.71-2.54-.02-3.3-2.8-2.5-4.75-2.56-4.02-.11-8.05-.1-12.07,0-1.55,.04-3.84-.81-4.29,1.42-.24,1.2,.93,2.7,1.52,4.04,1.1,2.47,2.79,1.19,4.2,.49,2.42-1.2,4.98-.7,6.73-.84Zm82.49-.05c8.49,3.59,16.6,1.81,22.96-5.53-8.11,1.87-17.01-3-22.96,5.53Zm-143.39-5.05c5.21,6.83,10.87,8.47,17.72,4.24,.97-.6,2.89-.19,2.67-2.02-.21-1.79-1.82-2.19-3.35-2.21-5.49-.05-10.98-.02-17.04-.02Zm190.19,.02c-5.07,0-10.14-.14-15.2,.06-2.42,.09-5.01,1.29-4.68,4.04,.31,2.55,3.17,2.55,5.21,2.37,5.37-.5,9.84-3.47,14.67-6.46Zm-103.83,.08c3.14,2.15,4.62,4.81,7.58,2.99,.52-.32,1-1.85,.77-2.07-2.1-2.01-4.65-.8-8.34-.92Zm-11.49-.04c-1.15,.04-2.11,.46-2.21,1.71-.09,1.21,.56,1.97,1.88,1.84,1.16-.11,2.05-.81,2.27-1.86,.29-1.4-.81-1.67-1.94-1.69Z"/><path d="M473.63,113.12c.11,8.18-6.16,14.9-14.05,15.06-7.87,.16-14.18-6.01-14.25-13.94-.08-8.23,6.17-15.07,13.95-15.26,7.47-.19,14.25,6.49,14.35,14.14Z"/><path class="cls-1" d="M487.8,188.19c-.85-.09-1.7-.18-2.56-.28-1.06-8.29-3.66-16.21-7.64-23.42-4.11-7.45-7.26-17.13-19.29-14.45,.42-1.32,.85-2.65,1.27-3.97,1.49,.53,3.24,2.2,4.46,.41,.97-1.41-1-2.47-1.95-3.46-.7-.73-1.64-1.24-2.47-1.85-.5-1.48-1-2.95-1.5-4.43,16.41,13.41,27.65,29.78,29.68,51.44Z"/><path class="cls-1" d="M454.51,133.41c-.77,0-1.37-.26-1.55-1.1,.85-.09,1.33,.33,1.55,1.1Z"/><path class="cls-2" d="M370.11,205.82c.19,9.3-3.3,17.84-5.47,26.65-.55,2.24-1.94,3.15-4.13,3.15-8.53,0-17.06-.03-25.59,.03-3.46,.02-3.7-1.81-3.17-4.59,1.2-6.21,2.21-12.46,3.29-18.7,8.09-3.18,8.97-11.56,12.87-17.76,7.35,.08,14.69,.15,22.04,.23-.82,3.67-.94,7.34,.15,10.99Z"/><path class="cls-2" d="M75.94,156.55c1.17-5.25,4.44-7.07,9.76-6.73,6.17,.39,12.39,.24,18.58,.04,4.71-.15,7.38-.07,4.43,6.01-5.32,10.97-8,22.77-8.26,35.03-3.6,6.37-7.19,12.74-11.75,20.8-3.18-15.73-5.98-29.49-8.74-43.25-.83-4.14-1.5-8.33-4.02-11.91Z"/><path class="cls-2" d="M458.31,150.04c12.03-2.68,15.18,7,19.29,14.45,3.98,7.21,6.58,15.13,7.64,23.42-11.11,.07-22.23,.14-33.34,.22-4.35-3.28-1.59-8.7-3.82-12.62,2.92-8.68,6.34-17.17,10.23-25.46Z"/><path class="cls-2" d="M101.29,238.04c7.27-.87,11.44,1.88,15.53,8.58,7.61,12.47,18.07,22.92,30.66,32.17-25.17,3.94-39.87-11.62-54.87-26.53,2.63-4.89,5.12-9.88,8.68-14.21Z"/><path class="cls-2" d="M90.03,254.66c8.37,9.81,19.56,16.11,30.87,24.25-9.41,.37-17.53,1.29-25.49-2.87-14.75-7.7-28.84-16.35-41.3-27.4-3.07-2.73-5.41-6.28-8.98-10.53,9.01,.75,16.78-1.2,24.43,1.37,.4,1.43,.87,2.85,1.18,4.3,2.54,11.59,8.21,14.8,19.28,10.89Z"/><path class="cls-2" d="M152.84,254.59c.62,.15,1.52,.09,1.82,.49,5.99,7.82,11.89,15.71,18.73,22.96-16.45,5.27-27.23-3.03-37.46-12.8-6.8-6.49-12.39-13.98-17.81-21.6-2.46-3.47-2.9-5.77,2.66-5.42,3.83,.24,7.68,.14,11.52,.19,.52,2.03,1.16,4.03,1.54,6.08,1.97,10.61,8.71,14.22,19,10.1Z"/><path class="cls-2" d="M68.51,234.26c-8.22,2.81-16.65,1.21-24.98,.89-1.43-.06-3.07-2.2-4.09-3.72-4.02-5.97-7.69-12.15-9.33-19.28,1.26-.03,2.52-.07,3.78-.1,4.63,1.01,9.25,1.19,13.86-.13,7.37-.87,9.6-7.49,13.93-13.32,2.42,12.64,4.62,24.16,6.82,35.67Z"/><path class="cls-2" d="M254.26,212.19c.07,6.17-.04,12.34,.28,18.5,.21,4.06-1.53,5.11-5.28,5.01-7.89-.2-15.8-.18-23.69,0-4,.09-6.13-1.24-5.83-5.46,.06-.85,.02-1.7-.05-2.55-1.22-14.99-1.23-14.89,14.2-15.04,5.07-.05,10.21,.87,15.22-.62,1.71,.05,3.43,.1,5.15,.15Z"/><path class="cls-2" d="M481.56,212.68c-.79,7.96-5.5,14.08-9.72,20.41-1.25,1.88-3.15,2.61-5.51,2.58-7.67-.1-15.34-.14-23.01,0-4.4,.08-4.52-1.72-2.92-5.06,2.73-5.7,6.43-11.07,6.58-17.74,11.52-.93,23.05-.48,34.58-.2Z"/><path class="cls-2" d="M407.01,212.73c.1,10.74-7.06,17.61-15.02,21.79-6.69,3.51-15.47,1.25-23.3,.71-1.74-.12-1.43-2.34-1.03-3.8,1.95-7.12,3.95-14.22,5.93-21.33,6.79,3.69,14.16,1.92,21.31,2.27,4.03,.2,8.08,.25,12.12,.36Z"/><path class="cls-2" d="M331.41,212.63c.64,6.7-1.9,12.96-2.65,19.47-.26,2.28-1.57,3.58-3.79,3.45-3.29-.19-7.1,1.46-9.74-1.17-1.68-1.68,.23-3.99,1.14-5.87,1.1-2.28,2.56-4.41,3.39-6.77,.56-1.58,.19-3.43-1.42-4.59-1.81-1.3-3.43-.43-4.49,.94-3.27,4.21-8.48,7.61-6.49,14.22,.36,1.2,1.07,2.74-.78,3.07-2.49,.44-5.22,.92-7.53-.32-1.7-.91-.6-2.61-.01-3.95,.17-.39,.29-.93,.6-1.11,8.7-4.92,7.01-12.57,6.21-20.58-.9-9.04,6.49-15.99,15.37-15.79-2.56,11.39-.28,15.64,10.17,18.99Z"/><path class="cls-2" d="M27.49,187.55c1.14-13.3,7.37-24.47,14.84-35.1,1.3-1.86,3.18-2.57,5.5-2.55,8.06,.07,16.12,0,24.18,.05,1.13,0,2.92-.57,3.04,1.23,.12,1.67-1.28,2.53-2.89,2.84-9.15-1.73-12.33-.19-17.17,7.98-4.97,8.38-10.06,16.69-15.09,25.04-1.22,.02-2.51-.21-3.51,.78-.91,0-1.83,0-2.74,0-1.23-1.06-2.45-1.03-3.68,0-.83-.09-1.65-.18-2.48-.26Z"/><path class="cls-2" d="M164.32,238.11c4.13-.46,5.94,1.26,5.4,5.48-.43,3.38,.85,6.22,3.13,8.73,4.13,4.54,5.24,10.64,8.09,15.85,1.02,1.86,2.02,3.75,3.23,5.48,.91,1.29,2.36,2.07,3.91,1.16,1.28-.75,1.16-2.29,.84-3.48-1.19-4.49-1.5-9.23-4.07-13.33-1.01-1.62-1.98-4.06,.14-5.09,2.89-1.4,2.64,1.88,3.39,3.32,3.81,7.33,7.49,14.72,11.51,22.68-11.18,.53-21.95,2.65-29.81-8.67-4.47-6.44-9.86-12.25-13.38-19.36,1.74-4.73,4.49-8.86,7.62-12.77Z"/><path class="cls-2" d="M403.22,116.74c1.27,.02,2.53,.05,3.8,.07,.46,.3,.91,.6,1.38,.87,.03,.02,.23-.28,.36-.43-.53-.2-1.07-.39-1.6-.59-1.51-2.81-4.71-4.3-5.79-7.48-.34-1.02-.9-2.02-.19-2.98,.89-1.18,1.92-.3,2.81,.12,13.39,6.4,26.9,12.6,38.98,21.35,1.11,.81,4.83,1.58,1.42,4.23-6.85,2.23-8.33,8.52-10.76,14.1-8.88-11.05-19.53-20.27-30.39-29.27,0,0,0,0,0,0Z"/><path class="cls-2" d="M217.42,187.57c1.85-10.48,.59-21.15,2.19-31.69,.63-4.15,1.57-6.45,6.09-5.98,.84,.09,1.71,0,2.56,0,12.11-.04,12.33,.28,7.4,11.78-.83,1.94-1.9,3.82-3.11,5.55-1.21,1.74-2.08,4.02-.65,5.27,4.3,3.74,3.79,9.77,7.85,14.03-6.94,1.41-13.57-.63-19.89,1.26-.82-.08-1.63-.15-2.45-.23Z"/><path class="cls-2" d="M412.41,149.97c6.34,.75,12.92-1.79,19.09,1.39-4.37,11.1-8.85,22.17-13.05,33.33-1.22,3.25-3.05,4.21-6.2,3.32-1.58-6.26-1.18-12.93-3.95-18.94,1.36-6.37,4.24-12.41,4.1-19.1Z"/><path class="cls-1" d="M369.96,194.83c-7.35-.08-14.69-.15-22.04-.23,.88-2.08,1.76-4.15,2.64-6.23,.32,1.3,.85,2.21,2.41,2.52,16.05,3.15,19.39,.17,16.73-15.54-.42-2.47,.14-6.56-2.98-7-3.54-.5-6.25,2.29-7.6,5.75-.85,2.17-1.54,4.41-2.27,6.62-.61,1.87-1.77,2.21-3.44,1.32,2.87-7.26,5.39-14.73,10.47-20.84,4.15-4.99,8.96-9.11,16.07-8.87,4.72,.16,6.65,2.73,5.3,7.14-1.47,4.81-3.4,9.49-6.24,13.71-2.72-1-3.66-4.62-7.79-4.92,1.66,5.53,.4,11.21,3.44,16.19-1.56,3.46-3.13,6.91-4.69,10.37Z"/><path class="cls-2" d="M131.57,235.48c-2.93,.06-5.86,.16-8.79,.16-10.92,.02-11.54-.53-13.44-11.63,4.6-8.02,9.21-16.03,14.59-25.4,3.69,12.83,5.98,24.78,7.64,36.87Z"/><path class="cls-2" d="M353.41,182.05c1.66,.89,2.82,.54,3.44-1.32,.73-2.22,1.42-4.45,2.27-6.62,1.35-3.46,4.05-6.25,7.6-5.75,3.12,.44,2.56,4.53,2.98,7,2.66,15.71-.68,18.69-16.73,15.54-1.56-.31-2.09-1.22-2.41-2.52,.95-2.11,1.91-4.22,2.86-6.33Z"/><path class="cls-2" d="M402,130.5c.69-3.72-1.31-6.9-2.69-10.82,5.11,.69,8,4.05,11,6.59,5.85,4.95,11.1,10.6,16.54,16.01,.7,.7,1.57,1.85,1.44,2.64-.27,1.63-1.95,1.28-3.16,1.29-4.27,.04-8.55,0-12.82,0-1.57-6.45-4.32-12.13-10.3-15.71Z"/><path class="cls-2" d="M105.29,183.13c-2.65-4.78,.64-8.89,1.48-13.29,1.08-5.65,3.63-10.76,5.93-15.95,.75-1.69,1.41-3.9,3.78-3.71,2.38,.19,1.44,2.69,2.24,4.01,.52,.86,1.38,1.51,2.08,2.25-4.49,9.29-10.17,17.89-15.51,26.68Z"/><path class="cls-2" d="M444.25,212.7c.06,2.33,.12,4.66-1.79,6.52-1.8-1.15,.27-4.11-1.93-4.66-2.24-.56-3.23,1.73-4.3,3.13-2.9,3.8-5.53,3.92-7.49-.52-1.8-4.07-4.24-3.33-7.05-1.56-4.44,2.78-8.83,5.62-14.37,9.16,.98-4.85,1.71-8.42,2.44-12,11.5-.62,23-.55,34.5-.07Z"/><path class="cls-2" d="M321.96,191.98c-3.88-.89-5.6-2.51-2.19-6.08,.7-.73,.96-1.86,1.48-2.78,1.88-3.36,3.85-6.6-2.75-6.67-1.39-.01-3.36-.62-4.32-3.57,7.16,1.9,11.93-3.31,17.94-4.74-2.54,8.31-6.09,16.18-10.16,23.84Z"/><path class="cls-2" d="M145.27,178.26c.34-.73,.6-2.05,1.02-2.1,3.5-.46,8.85,5.24,9,9.81,.17,5.29-3.66,5.16-7.39,4.94-1.94-4-2.01-8.38-2.63-12.65Z"/><path class="cls-2" d="M408.33,188.03c-1.03,.09-2.07,.15-3.1,.27-5.12,.58-5.8-1.35-3.37-5.52,1.56-2.67,2.67-5.6,3.98-8.41,3.36,4.1,2.43,8.97,2.49,13.67Z"/><path class="cls-2" d="M374.65,184.47c-3.03-4.98-1.78-10.66-3.44-16.19,4.14,.3,5.08,3.92,7.79,4.92-.54,4.11-2.87,7.52-4.36,11.27Z"/><path class="cls-2" d="M148.36,194.88c2.94-2.01,4.61-1.69,4.78,2.3,.13,3.08-1.05,6.32,.91,9.23-.31,1.17-.49,2.71-1.83,2.87-1.14,.14-1.39-1.27-1.58-2.25-.78-4.05-1.52-8.1-2.28-12.16Z"/><path class="cls-1" d="M408.33,188.03c-.06-4.7,.87-9.57-2.49-13.67,.11-2.09,1.25-3.71,2.47-5.29,2.77,6.01,2.36,12.68,3.95,18.94-1.31,0-2.62,.01-3.92,.02Z"/><path class="cls-2" d="M138.83,156.54c.08-.41,.08-.86,.25-1.24,1.17-2.58,2.74-4.78,5.82-5.13,1.02-.12,1.65,.92,1.27,1.68-1.35,2.73-.48,7.31-5.61,7.05-.57-.79-1.15-1.57-1.72-2.36Z"/><path class="cls-1" d="M448.08,175.51c2.23,3.92-.53,9.34,3.82,12.62-2.1,0-4.2,0-6.3,0,1.13-2.07,2.22-4.13-.03-6.18,.84-2.15,1.68-4.29,2.51-6.44Z"/><path class="cls-2" d="M108.11,227.16c-.7,2.87,1.19,5.24,1.81,7.85-2.51,1.11-4.84,.49-7.13,.55,1.17-3.18,2.6-6.2,5.32-8.4Z"/><path class="cls-2" d="M333.78,165.2c.34-3.07-6.63-8.34,2.63-8.73,1.11,3.51-1.36,5.94-2.63,8.73Z"/><path class="cls-2" d="M459.62,141.17c.83,.61,1.76,1.12,2.47,1.85,.96,.99,2.92,2.05,1.95,3.46-1.23,1.8-2.98,.12-4.46-.41,.02-1.63,.03-3.27,.05-4.9Z"/><path class="cls-2" d="M445.57,181.94c2.25,2.05,1.16,4.11,.03,6.18-4.58-2.04-.59-4.12-.03-6.18Z"/><path class="cls-2" d="M169.58,229.4c-.21,2.69,1.66,6.64-3.77,6.15,.58-2.46,1.71-4.59,3.77-6.15Z"/><path class="cls-1" d="M47.75,211.91c-4.61,1.31-9.23,1.13-13.86,.13,4.62-.78,9.24-.63,13.86-.13Z"/><path class="cls-1" d="M29.97,187.81c1.22-1.04,2.45-1.06,3.68,0-1.23,0-2.45,0-3.68,0Z"/><path class="cls-1" d="M36.39,187.8c1.01-1,2.29-.76,3.51-.78-.86,1.64-2.19,1.19-3.51,.78Z"/><path class="cls-2" d="M201.17,149.92c3.41,0,6.84,.28,10.21-.07,5.03-.51,6.26,1.6,5.7,6.27-1.03,8.58-1.89,17.21-2.31,25.84-.18,3.8-1.19,5.41-5.15,5.12-3.6-.26-7.36-.65-10.83,.07-8.03,1.66-11.77-4.53-16.78-8.41-.65-.5-.83-1.92-.81-2.91,.08-3.38-.04-6.84,.62-10.12,3.2-15.82,3.28-15.8,19.34-15.8Z"/><path class="cls-2" d="M228.01,105.87c-3.85,11.91-7.4,23.85-9.3,36.18-.51,3.29-1.74,4.28-4.88,4.22-7.68-.15-15.37-.2-23.05,.02-3.57,.1-4.03-1.35-2.92-4.14,2.04-5.11,3.48-10.47,6.57-15.15,1.23-1.87,1.44-3.78,4.95-3.13,3.63,.68,2.48-3.17,2.28-5.14-1.04-10.53,6.52-16.24,16.3-12.01,1.78,.77,2.91,1.02,4.56-.3,1.45-1.16,1.68-.88,5.49-.55Z"/><path class="cls-2" d="M254.46,119.07c-2.31-3.44,.06-7.75-4.79-9.13-.45,3.07-1.52,6.25,.56,8.84,3.04,3.78,.66,6.8-1.95,7.75-5.73,2.09-5.27,5.85-3.98,10.05,1.59,5.18,5.79,2.8,9.14,2.77,.17,0,.35,.23,.54,.37,.8,2.06-.79,2.8-2.15,3.08-8.84,1.82-17.54,4.57-26.8,3.52-2.98-.34-3.98-.86-3.35-4.25,2.02-10.85,4.81-21.47,8.16-31.98,1.16-3.66,2.99-5.26,6.88-4.92,3.18,.28,6.4,.05,9.61,.05q8.21,.02,8.14,8.42c-.01,1.44,0,2.87,0,5.44Z"/><path class="cls-2" d="M54.19,137.14c2.12,.51,3.65-.47,5.17-1.81,6.73-5.94,14.28-10.74,21.91-15.41,7.41-4.53,15.28-8.15,23.65-11.85,.5,3.5,1.19,6.81,6.07,7.89-11.92,8.38-22.3,17.08-30.65,27.93-1.42,1.84-3.35,2.39-5.65,2.37-8.11-.07-16.22-.03-24.43-.03-.38-3.99,4.37-5.44,3.94-9.12,0,0-.02,.02-.02,.02Z"/><path class="cls-2" d="M133,107.19c-1.88,5.92-6.53,9.72-6.12,15.42,.01,.16-.2,.44-.36,.49-9.66,2.65-9.53,10.32-9.95,18.16-.14,2.65-2.48,5.17-6.34,5.04-7.46-.24-14.94-.03-22.42-.1-2.01-.02-5.03,.47-2.69-3.29,5.67-9.12,35.58-31.74,47.88-35.72Z"/><path class="cls-2" d="M151.8,171.57c1.98-4.95-1.72-8.58-2.89-12.44-1.05-3.45-.57-6.07,1.01-8.1,2.1-2.7,3.23,1.39,5.06,1.76,.79,.16,2.05,.74,2.31,.44,6.21-6.97,14.27-1.76,21.29-3.27,3.35-.72,3.02,1.51,2.78,3.84-.52,5.05-2.59,9.75-2.83,14.91-.2,4.28-.02,9.81-7.71,5.93-4.18-2.11-8.31,2.07-12.75,2.65-5.69,.74-6.08-2.04-6.28-5.72Zm13.06-6.58c-4.01-8.4-6.26-9.57-12.29-7.32,4.18,2.49,8.24,4.9,12.29,7.32Z"/><path class="cls-2" d="M254.48,91.22c0,11.4,0,11.53-11.58,11.32-2.92-.05-7.33,1.93-8.48-1.68-1.02-3.2,3.29-5.04,5.49-7.2,1.64-1.61,3.85-2.64,5.78-3.98,1.91-1.33,4.04-2.41,2.77-5.55-1.34-3.32,1.81-3.36,3.61-3.82,2.87-.74,2.33,1.7,2.39,3.24,.11,2.55,.03,5.11,.03,7.67Z"/><path class="cls-2" d="M266.98,130.84c1.73-.03,3.34,.05,4.68,1.48,3.7,3.94,8.27,5.48,13.69,4.91,1.75-.18,4.19-.7,4.73,1.95,.41,2.02,.96,4.37-.53,6.13-1.3,1.54-3.08,.47-4.74,.13-5.58-1.13-11.28-1.62-15.48-6.37-1.74-1.97-4.42-2.3-7.05-.76-1.1,.64-2.82,2.19-3.76,.08-.77-1.72-.73-3.81,1.33-5.07,2.2-1.34,4.45-2.54,7.14-2.47Z"/><path class="cls-2" d="M257.12,97.1c2.41-4.07-.35-8.66-.11-13.28,.18-3.42,.99-4.67,4.61-3.29,5.1,1.94,8.22,5.85,11.07,10.11,.38,.58,.17,1.55,.23,2.34-5.76,.33-6.8,5.71-9.85,8.98-1.01,1.09-2.83,.89-4.23,.15-1.82-.96-1.75-2.75-1.72-5.01Z"/><path class="cls-2" d="M189.81,128.35c-2.06,5.43-3.89,10.12-5.59,14.86-.62,1.73-1.29,3.05-3.43,3.01-3.6-.07-7.2,.09-10.8-.06-3.21-.14-3.57-2.79-2.22-4.46,4.53-5.64,10.5-9.71,16.75-13.26,1.1-.63,2.87-.09,5.29-.09Z"/><path class="cls-2" d="M268.54,80.62c10.43,3.04,18.59,7.56,25.75,13.89,.85,.75,2.32,1.54,1.45,3.06-.72,1.26-2.24,1.5-3.39,1.14-6.31-1.95-13.3-2.6-17.11-9.35-1.58-2.8-3.92-5.18-6.7-8.74Z"/><path class="cls-2" d="M282.44,82.88c8.35,1.26,16.08,4.08,23.5,7.76,1.09,.54,2.79,1.56,1.15,2.7-2.28,1.58-4.78,4.25-7.99,1.86-2.89-2.16-4.99-5.24-8.24-7.05-2.89-1.61-5.62-3.5-8.43-5.26Z"/><path class="cls-2" d="M214.46,87.21c1.5,.44,4.3-.24,3.28,1.82-1.51,3.04-3.15,6.83-6.96,7.62-2.54,.52-4.89-2.4-4.52-4.12,.86-4.07,5.32-3.9,8.2-5.32Z"/><path class="cls-2" d="M197.94,88.58c-2,2.73-3.86,5.55-6.75,7.5-1.47,.99-2.94,2.12-4.55,.66-.88-.79-1.8-2.11-1.79-3.17,.02-1.8,2-1.94,3.32-2.33,3.24-.94,6.26-2.76,9.79-2.63,0,0-.02-.03-.02-.03Z"/><path class="cls-2" d="M264.38,113.83c-.34,2.14-1.71,3.46-3.64,3.92-2,.48-2.63-.99-2.51-2.64,.12-1.7-.95-4.22,1.94-4.51,2.1-.21,3.31,1.47,4.2,3.23Z"/><path class="cls-2" d="M274.11,109.6c-2.31-.38-4.62,3.4-6.65,.3-.72-1.11-.72-3.41,.63-4.04,3.16-1.49,4.13,1.81,6.02,3.74Z"/><path class="cls-2" d="M147.32,93.04c4.08-1.05,8.15-2.1,12.23-3.15-3.55,3.12-7.41,5.1-11.94,4.92-.1-.59-.19-1.18-.29-1.77Z"/><path class="cls-2" d="M302.96,85.45c3.6,.74,7.54-.02,11.8,3.02-5.48,2.42-8.43-1.51-11.8-3.02Z"/><path class="cls-2" d="M188.95,87.29c-3.33,2.84-7.18,3.97-11.62,3.09,3.5-2.34,7.39-3.35,11.66-3.04l-.04-.05Z"/><path class="cls-2" d="M388.6,112.39c3.42,.7,6.68,1.69,9.34,5.4-4.56-.31-7.04-2.69-9.34-5.4Z"/><path class="cls-2" d="M336.48,90.5c-3.53,.88-6.91,.77-9.93-2.79,3.99-.27,6.79,1.69,9.93,2.79Z"/><path class="cls-2" d="M206.97,86.08c-2.18,3.82-5.5,3.55-9.03,2.51,0,0,.02,.03,.02,.03,2.6-2.19,5.7-2.64,8.95-2.6l.06,.06Z"/><path class="cls-2" d="M213.9,99.26c.38,.42,1.1,.91,1.33,1.58,.32,.89-.2,1.59-1.24,1.59-.88,0-1.66-.31-1.71-1.34-.04-.86,.18-1.63,1.62-1.82Z"/><path class="cls-2" d="M227.04,102.07c.37-1.66,1.39-2.57,3.02-2.67,.19-.01,.76,1.06,.61,1.36-.74,1.48-1.87,2.29-3.63,1.31Z"/><path class="cls-2" d="M346.09,89.08c-2.29,1.43-3.26-.57-5.57-.74,2.79-1.47,4.2-.93,5.57,.74Z"/><path class="cls-2" d="M341.84,91.99c-.49,.07-.92,.25-1.28,.17-.62-.15-.65-.5-.11-.77,.18-.09,.46-.12,.62-.04,.27,.14,.48,.39,.77,.64Z"/><path class="cls-2" d="M188.99,87.34c.55-.97,1.38-1.31,2.44-.99,.14,.04,.22,.31,.33,.47-.94,.15-1.88,.31-2.81,.46,0,0,.04,.05,.04,.05Z"/><path class="cls-2" d="M206.92,86.01c.48-.31,.96-.62,1.46-.91,.01,0,.21,.31,.33,.48-.58,.16-1.15,.33-1.73,.49,0,0-.06-.06-.06-.06Z"/><path class="cls-2" d="M399.39,114.15c-.18-.17-.36-.33-.54-.5,.11,.03,.26,.04,.31,.11,.09,.12,.12,.29,.18,.44,0,0,.05-.05,.05-.05Z"/><path class="cls-2" d="M399.34,114.2c.2,.16,.39,.32,.59,.47-.11-.03-.26-.02-.32-.09-.1-.12-.15-.29-.22-.44,0,0-.05,.05-.05,.05Z"/><path class="cls-2" d="M403.23,116.73c-.16-.07-.34-.11-.47-.22-.08-.06-.07-.23-.09-.35,.18,.19,.37,.38,.55,.57,0,0,0,0,0,0Z"/><path class="cls-2" d="M254.47,259.32c0,4.89-.16,9.79,.05,14.67,.16,3.69-.89,5.45-4.99,5.29-24.13-.93-17.51,4.95-24.46-18.39-1.69-5.66-2.53-11.56-3.79-17.35-.82-3.76,.31-5.5,4.51-5.38,7.88,.23,15.78,.24,23.67,0,3.99-.12,5.25,1.42,5.08,5.22-.23,5.3-.06,10.63-.06,15.94Z"/><path class="cls-2" d="M323.46,279.23q-11.31,0-6.04-9.54c4.53-8.22,8.37-16.78,10.9-25.79,1.3-4.63,3.63-5.98,8.2-5.74,6.81,.36,13.66,.15,20.49,.07,3.67-.04,4.83,1.74,3.25,4.78-6.73,12.87-14.71,24.88-25.61,34.69-3.43,3.08-7.84,.84-11.18,1.52Z"/><path class="cls-2" d="M297.29,279.25c-12.01,0-11.97,0-8.56-11.23,1.9-6.28,3.4-12.64,4.23-19.17,1.03-8.15,4.16-11.03,12.46-10.47,5.51,.37,10.95-.06,16.42-.16,3.89-.07,4.74,1.1,3.55,4.92-3.75,12.03-9.07,23.24-16.28,33.59-3.35,4.81-8.31,1.42-11.8,2.53Z"/><path class="cls-2" d="M349.28,279.41c-3.19-1-7.93,1.78-9.31-1.59-1.02-2.49,3.51-4.76,5.62-7.06,7.85-8.56,13.37-18.59,18.41-28.9,1.15-2.34,2.11-3.78,5.04-3.69,7.03,.2,14.08,.04,21.12,.08,1.2,0,2.79-.47,3.37,1.04,.56,1.45-.71,2.61-1.71,3.04-4.16,1.79-.08,5.56-2.24,8.03-9.12,10.42-18.28,20.78-30.25,28.09-3.06,1.87-6.72,.3-10.06,.95Z"/><path class="cls-2" d="M467.43,238.26c-12.71,15.08-27.63,24.9-43.35,34-9.9,5.73-19.82,8.44-31.1,6.53-.18-1.69,1.63-2.18,2.69-2.78,15.92-9.08,27.89-22.63,40.51-35.42,1.66-1.68,3.35-2.37,5.62-2.35,8.09,.06,16.18,.02,25.63,.02Z"/><path class="cls-2" d="M214.01,279.24c-7.28,2.42-11.89-2.21-15.32-9.08-1.89-3.8-3.83-7.57-5.81-11.33-2.68-5.09-2.66-8.13,1.69-13.89,5.6-7.42,11.36-6.42,18.09-6.74,3.82-.18,5.39,1.61,5.78,5.12,1.14,10.33,3.3,20.47,7,30.18,1.92,5.05,.54,6.42-4.44,5.78-1.88-.24-3.83-.04-7-.04Z"/><path class="cls-2" d="M258.17,258.54c0-5.31,.13-10.62-.04-15.92-.11-3.33,1.26-4.38,4.52-4.45,5.81-.13,10.99-.45,13.64,6.73,1.45,3.92,4.82,7.81,10.55,4.21,2.37-1.49,3.47-.31,2.68,2.57-2.11,7.74-4.06,15.53-6.04,23.31-.78,3.07-2.45,4.26-5.85,4.35-19.46,.52-19.45,.62-19.45-18.89,0-.64,0-1.27,0-1.91Z"/><path class="cls-2" d="M365.42,278.47c9.89-7.57,18.86-15.76,25.87-25.61,3.18-4.47,6.33-7.56,11.83-8.2,6.38-.75,8.38,3.9,10.71,8.25,2.32,4.33-.13,6.59-3.51,8.8-3.55,2.32-6.98,4.89-10.21,7.64-9.82,8.34-20.86,12.19-34.69,9.11Z"/><path class="cls-2" d="M258.17,223.68c0-1.7,.2-3.44-.04-5.1-.73-5.01,1.66-5.98,6.23-6.02,4.75-.04,6.19,1.85,5.43,6.04-.79,4.33-.24,8.29,1.9,12.23,1.6,2.94,.55,4.59-3.15,4.88-10.37,.8-10.36,.93-10.36-12.02Z"/><path class="cls-2" d="M206.86,235.64c-1.07,0-2.16,.16-3.19-.03-1.88-.35-4.93,1.25-5.25-1.87-.26-2.54,1.08-5.42,4.18-5.48,4.47-.08,4.61-2.64,4.4-5.9-.11-1.69-.16-3.43,.12-5.09,.42-2.55,1.99-4.19,4.68-4.46,3.18-.31,3.22,2.4,3.67,4.27,1.18,4.96,.02,10.14,1.44,15.17,.64,2.26-1.44,3.3-3.62,3.35-2.13,.05-4.27,.01-6.4,.01v.02Z"/><path class="cls-2" d="M207.88,282.93c6.75,0,12,.03,17.25-.02,1.85-.02,3.54,.4,4.08,2.27,.75,2.62,4.78,5.19,1.98,7.72-3.08,2.79-7.6,2.47-11.4,.66-4.43-2.11-7.72-5.7-11.91-10.63Z"/><path class="cls-2" d="M160.49,282.93c4.45,0,7.33,.49,9.97-.09,8.75-1.9,13.44,5,19.64,8.59,.92,.53,1.6,1.71,.76,2.7-.62,.73-1.69,1.28-2.64,1.48-3.17,.66-5.76-1.17-8.49-2.28-6.34-2.58-12.59-5.32-19.24-10.4Z"/><path class="cls-2" d="M162.16,297.46c-16.51-2.36-32.36-7.1-49.11-13.89,19.89-3.9,32.76,10.79,49.11,13.89Z"/><path class="cls-2" d="M172.93,294.27c-13.83,2.25-23.81-6.52-36.71-10.15,13.56-2.93,19.95-1.07,36.71,10.15Z"/><path class="cls-2" d="M399.02,283.73c-10.27,4.44-19.93,7.46-29.64,10.34-1.56,.46-3.24,.46-3.75-1.26-.45-1.52,1.24-1.94,2.35-2.44,9.55-4.35,18.8-10,31.04-6.64Z"/><path class="cls-2" d="M327.41,282.99c-5.91,6.86-11.39,8.72-17.56,6.67-1.58-.53-3.8-.64-3.65-2.8,.16-2.35,2.03-3.76,4.37-3.82,5.27-.14,10.55-.04,16.84-.04Z"/><path class="cls-2" d="M303.63,284.58c-4.98,3.51-10.82,5-16.78,5.9-1.95,.3-4.89-.15-4.9-2.75,0-2.54,1.6-4.81,4.85-4.8,5.49,.02,10.97,0,16.46,0,.12,.54,.24,1.09,.37,1.63Z"/><path class="cls-2" d="M245.59,288.07c-1.75,.14-4.31-.36-6.73,.84-1.41,.7-3.1,1.98-4.2-.49-.6-1.34-1.76-2.84-1.52-4.04,.45-2.23,2.74-1.38,4.29-1.42,4.02-.11,8.05-.11,12.07,0,1.94,.05,4.73-.74,4.75,2.56,.02,3.35-2.77,2.39-4.71,2.54-1.05,.08-2.12,.01-3.93,.01Z"/><path class="cls-2" d="M328.08,288.02c5.95-8.53,14.85-3.67,22.96-5.54-6.36,7.35-14.46,9.12-22.96,5.54Z"/><path class="cls-2" d="M184.69,282.97c6.06,0,11.55-.03,17.04,.02,1.53,.01,3.13,.41,3.35,2.21,.22,1.83-1.7,1.42-2.67,2.02-6.85,4.23-12.51,2.59-17.72-4.24Z"/><path class="cls-2" d="M374.89,282.99c-4.83,2.99-9.3,5.97-14.67,6.46-2.05,.19-4.9,.19-5.21-2.37-.33-2.75,2.26-3.94,4.68-4.04,5.06-.2,10.13-.06,15.2-.06Z"/><path class="cls-2" d="M271.06,283.07c3.7,.11,6.25-1.09,8.34,.92,.23,.22-.24,1.75-.77,2.07-2.96,1.82-4.43-.84-7.58-2.99Z"/><path class="cls-2" d="M259.57,283.04c1.14,.02,2.23,.3,1.94,1.69-.22,1.05-1.11,1.75-2.27,1.86-1.32,.12-1.97-.64-1.88-1.84,.1-1.24,1.06-1.67,2.21-1.7Z"/><path class="cls-1" d="M407.15,116.65c.53,.2,1.07,.39,1.6,.59-.12,.15-.33,.45-.36,.43-.47-.27-.92-.57-1.38-.87,0,0,.13-.15,.13-.15Z"/><path class="cls-1" d="M164.86,164.99c-4.06-2.41-8.11-4.83-12.29-7.32,6.03-2.25,8.28-1.08,12.29,7.32Z"/></svg>