<?xml version="1.0" encoding="UTF-8"?><svg id="GLOBE" xmlns="http://www.w3.org/2000/svg" viewBox="0 0 509.79 482.33"><defs><style>.cls-1{fill:#a1a1a1;}.cls-2{fill:#d2d2d2;}</style></defs><path d="M4.28,260.07c-1.4-8.45-4.6-16.77-1.87-25.52,1.02-.21,2.04-.43,3.06-.64,.9,.1,1.8,.19,2.71,.29h7.01c1.44,.43,2.89,.93,3.83-.86,5.5-9.11,11.05-18.18,16.47-27.33,5.29-8.92,8.76-10.59,18.75-8.71l4.12,2.78c2.75,3.9,3.48,8.47,4.38,13,3.02,15.02,6.07,30.04,9.54,47.21,4.97-8.8,8.9-15.75,12.82-22.7,1.76-2.83,3.53-5.66,5.29-8.49,5.83-9.6,12.02-18.99,16.92-29.12,6.58-4.21,13.15-5.33,19.68,.1l1.88,2.57c3.04,6.72,2.53,14.31,5.16,21.14,.68,4.66,.76,9.44,2.87,13.8,.17,1.45,.33,2.89,.5,4.34,.83,4.42,1.63,8.85,2.49,13.27,.21,1.07,.47,2.6,1.72,2.45,1.46-.18,1.66-1.85,2-3.13,1.88-2.88,4.08-5.61,5.58-8.68,4.08-8.37,10.1-12.04,19.88-11.72,14.54,.47,29.15,1.47,43.71-.18l2.67,.25c19.32,.04,38.64,.02,57.97,.19,3.35,.03,4.31-1.89,5.3-4.4,4.07-10.36,7.96-20.8,12.43-30.98,3.86-8.78,5.8-18.31,10.73-26.62,4.64-7.82,15.38-10.38,19.75-3.46,5.08,8.06,9.56,4.95,15.1,2.45,1.05-.47,2.17-.86,3.29-1.14,9.24-2.27,19.24-2.96,25.09,5.19,5.36,7.47,8.5,5.45,14.33,1.52,10.55-7.12,22.05-11.14,34.81-5.3,6.53,3.9,9.54,10.1,11.25,17.15,.04,1.37,.08,2.73,.11,4.1,.15,7.3-2.99,13.9-4.48,20.85-1.33,1.73-2.57,3.49-2.7,5.78-1.43,3.07-2.65,6.27-4.35,9.18-2.65,4.55-1.91,6.65,3.68,6.03,1.12-.13,2.26-.19,3.38-.29l4.28-.02c3.43,.97,5.43-.08,6.76-3.62,4.58-12.19,9.47-24.27,14.24-36.38l2.32-5.85c2.66-6.08,4.27-12.96,11.75-15.39l9.55,.55-.19-.11c.2,.92,.85,1.19,1.7,1.2,1.32,1.21,2.63,2.42,3.95,3.64,.55,1.62,1.09,3.23,1.64,4.84-.02,1.78-.03,3.56-.05,5.35-.46,1.44-.92,2.89-1.38,4.33-4.24,9.05-7.98,18.31-11.16,27.79-.91,2.34-1.83,4.69-2.74,7.03-.61,2.25-4.97,4.52,.03,6.75,2.29,0,4.59,0,6.88,0,12.13-.08,24.26-.16,36.39-.24l2.79,.3c1.02,9.07,.88,18.01-2.85,26.58-1.32,.05-2.64,.1-3.96,.15-12.58-.31-25.16-.79-37.74,.22l-2.99-.2c-12.55-.52-25.1-.59-37.65,.08l-2.99-.04c-4.41-.13-8.82-.18-13.22-.39-7.8-.39-15.85,1.55-23.26-2.48l-3.8-4.67c-1.18-3.98-1.06-7.98-.16-11.99,1.71-3.77,3.41-7.54,5.12-11.32,1.62-4.09,4.16-7.82,4.75-12.3,3.11-4.61,5.21-9.72,6.82-14.97,1.47-4.81-.63-7.62-5.78-7.79-7.76-.26-13.01,4.24-17.54,9.68-5.55,6.67-8.29,14.82-11.43,22.74-1.04,2.3-2.08,4.61-3.12,6.91-.96,2.27-1.92,4.53-2.88,6.8-4.25,6.77-5.21,15.91-14.05,19.39-1.33,.09-2.65,.19-3.98,.28-11.41-3.66-13.9-8.29-11.1-20.72,.27-.61,.53-1.21,.8-1.82,4.44-8.36,8.32-16.95,11.09-26.02,1.01-.84,1.94-1.73,1.82-3.21,1.39-3.05,4.09-5.7,2.88-9.53-2.27-7.06-7.75-4.89-12.02-3.43-8.97,3.08-14.05,10.44-17.6,18.72-4.74,11.07-9.12,22.29-13.52,33.5-3.65,9.29-6.63,11.38-16.59,11.67-9.98,.29-19.99-1.19-29.95,.36l-5.62-.17c-24.43-1.31-48.87,.15-73.31-.18-1.74-.02-3.17,.5-4.03,2.17-2.96,5.76-7.39,10.7-9.47,16.95-2.25,1.7-3.48,4.02-4.11,6.71-1.18,.57-1.39,1.69-1.63,2.8-3.41,4.26-6.42,8.77-8.31,13.94-1.41,1.35-2.81,2.7-4.22,4.05-11.23,4.49-18.59,.56-20.74-11.03-.42-2.24-1.11-4.43-1.68-6.64l-.8-3.19c-1.81-13.2-4.31-26.23-8.34-40.24-5.87,10.23-10.9,18.98-15.92,27.73-1.33,.8-1.42,2.08-1.34,3.43-2.97,2.41-4.53,5.7-5.8,9.17l-1.64,2.71c-3.89,4.73-6.6,10.17-9.48,15.51l-2.81,2.63c-12.08,4.27-18.27,.77-21.04-11.88-.35-1.58-.86-3.13-1.29-4.69-.1-1.96,0-3.95-1.16-5.7-2.4-12.57-4.81-25.14-7.45-38.94-4.73,6.36-7.16,13.59-15.21,14.54-5.05-.55-10.09-.71-15.13,.14l-4.13,.11c-1.35-.23-2.71-.45-4.06-.68Z"/><path class="cls-1" d="M212.78,233.94c-14.56,1.65-29.17,.65-43.71,.18-9.77-.32-15.8,3.35-19.88,11.72-1.5,3.07-3.7,5.79-5.58,8.67-2.14-3.18-.85-6.71-.99-10.08-.19-4.36-2.01-4.7-5.22-2.51-.17-1.45-.33-2.89-.5-4.34,4.07,.24,8.25,.39,8.06-5.39-.16-4.98-6.01-11.21-9.82-10.71-.46,.06-.75,1.5-1.12,2.3-2.63-6.83-2.11-14.41-5.16-21.14,5.6,.28,4.65-4.71,6.13-7.69,.41-.83-.27-1.96-1.39-1.83-3.36,.39-5.08,2.79-6.35,5.6-.18,.41-.19,.9-.27,1.35-6.53-5.42-13.1-4.31-19.68-.1-.77-.81-1.7-1.53-2.27-2.46-.88-1.44,.15-4.17-2.44-4.38-2.59-.21-3.31,2.21-4.12,4.05-2.51,5.67-5.3,11.23-6.47,17.4-.92,4.8-4.51,9.29-1.61,14.51-1.76,2.83-3.53,5.66-5.29,8.49,.29-13.38,3.21-26.26,9.02-38.24,3.22-6.64,.31-6.73-4.83-6.56-6.75,.22-13.54,.37-20.28-.05-5.81-.36-9.37,1.62-10.65,7.35-1.37-.93-2.75-1.85-4.12-2.78,1.76-.33,3.29-1.28,3.16-3.1-.14-1.96-2.09-1.33-3.32-1.34-8.8-.05-17.6,.03-26.4-.05-2.54-.02-4.58,.75-6.01,2.78-8.15,11.61-14.95,23.8-16.19,38.32-1.02,.21-2.04,.43-3.06,.64,2.17-23.49,14.1-41.38,32.23-55.68,.47,4.02-4.72,5.59-4.3,9.95,8.97,0,17.82-.05,26.67,.03,2.51,.02,4.62-.58,6.16-2.59,9.11-11.84,20.44-21.34,33.45-30.49-5.32-1.17-6.08-4.79-6.63-8.61-9.14,4.03-17.73,7.98-25.82,12.93-8.33,5.1-16.57,10.34-23.91,16.82-1.66,1.46-3.33,2.53-5.65,1.97,9.76-11.68,22.89-18.87,35.96-25.85,38.49-20.57,80.06-31.2,123.11-36.74,36.25-4.66,72.7-4.68,108.92-1.37,54.07,4.94,106.05,17.86,152.66,47.31,5.28,3.34,10.67,6.62,14.79,11.49-3.18-.18-6.37-.37-9.55-.55,3.72-2.89-.33-3.74-1.55-4.62-13.18-9.55-27.93-16.32-42.54-23.3-.98-.47-2.1-1.42-3.07-.13-.78,1.04-.17,2.14,.2,3.25,1.17,3.46,4.67,5.09,6.32,8.16l-.14,.17c-1.38-.02-2.76-.05-4.15-.07-.2-.21-.4-.42-.61-.63,.03,.13,.02,.31,.1,.38,.14,.12,.34,.16,.51,.24,11.86,9.82,23.49,19.89,33.17,31.95-.77,1.95-1.55,3.9-2.32,5.85-6.73-3.47-13.91-.7-20.83-1.52-.04-1.37-.08-2.73-.11-4.1,4.66,0,9.33,.03,14,0,1.33-.01,3.15,.37,3.45-1.41,.14-.86-.81-2.11-1.57-2.88-5.94-5.91-11.67-12.08-18.05-17.48-3.27-2.77-6.42-6.43-12-7.19,1.5,4.29,3.69,7.75,2.93,11.81-12.76-5.84-24.26-1.83-34.81,5.3-5.83,3.93-8.97,5.95-14.33-1.52-5.85-8.15-15.85-7.46-25.09-5.19-1.12,.28-2.23,.66-3.29,1.14-5.54,2.5-10.03,5.61-15.1-2.45-4.36-6.92-15.11-4.37-19.75,3.46-4.93,8.31-6.87,17.85-10.73,26.62-4.48,10.18-8.37,20.62-12.43,30.98-.99,2.52-1.95,4.43-5.3,4.4-19.32-.17-38.64-.15-57.97-.19,6.9-2.06,14.13,.17,21.7-1.37-4.43-4.66-3.88-11.24-8.57-15.32-1.57-1.37-.62-3.85,.71-5.75,1.32-1.89,2.49-3.94,3.4-6.06,5.39-12.55,5.15-12.9-8.07-12.86-.93,0-1.87,.09-2.8,0-4.93-.51-5.96,2-6.64,6.52-1.75,11.49-.38,23.15-2.39,34.58Zm198.63-80.14c.07,.16,.12,.35,.24,.48,.07,.08,.23,.07,.35,.1l-.64-.52c-.06-.16-.09-.34-.19-.48-.06-.08-.22-.08-.34-.12,.19,.18,.39,.36,.58,.54Zm-210.09-30.71c-3.54-.04-6.94,.45-9.77,2.84-3.86-.15-7.15,1.84-10.69,2.87-1.45,.42-3.6,.58-3.63,2.54-.02,1.16,.99,2.6,1.95,3.46,1.76,1.59,3.36,.36,4.97-.72,3.16-2.13,5.19-5.21,7.37-8.18,3.86,1.14,7.48,1.43,9.86-2.74l1.89-.54c-.12-.18-.34-.53-.36-.52-.54,.31-1.06,.65-1.59,.99Zm-19.57,1.45c-4.67-.34-8.91,.77-12.73,3.32,4.85,.96,9.04-.27,12.68-3.38l3.07-.51c-.12-.18-.2-.47-.36-.52-1.16-.35-2.06,.02-2.66,1.08Zm13.29,68.3c-17.53,0-17.62-.02-21.11,17.25-.72,3.59-.59,7.36-.68,11.05-.03,1.07,.18,2.62,.88,3.17,5.46,4.23,9.55,10.99,18.31,9.18,3.79-.78,7.89-.36,11.82-.07,4.32,.32,5.42-1.44,5.62-5.59,.46-9.42,1.39-18.84,2.52-28.21,.61-5.1-.73-7.4-6.22-6.85-3.68,.37-7.43,.07-11.15,.07Zm29.29-48.08c-4.16-.36-4.42-.67-6,.6-1.8,1.44-3.03,1.17-4.97,.33-10.67-4.62-18.93,1.62-17.79,13.11,.21,2.16,1.48,6.35-2.49,5.61-3.83-.71-4.06,1.37-5.4,3.41-3.37,5.11-4.94,10.96-7.17,16.54-1.22,3.05-.72,4.63,3.18,4.52,8.38-.23,16.78-.18,25.16-.02,3.42,.06,4.78-1.02,5.33-4.61,2.07-13.45,5.95-26.5,10.15-39.49Zm28.88,14.41c0-2.8-.01-4.37,0-5.94q.08-9.17-8.88-9.19c-3.5,0-7.02,.25-10.49-.06-4.24-.38-6.23,1.37-7.5,5.37-3.65,11.47-6.69,23.06-8.9,34.91-.69,3.71,.4,4.27,3.65,4.64,10.11,1.16,19.61-1.85,29.26-3.84,1.49-.31,3.22-1.11,2.35-3.36-.21-.15-.4-.4-.59-.4-3.66,.04-8.24,2.64-9.97-3.02-1.41-4.59-1.91-8.68,4.34-10.97,2.84-1.04,5.44-4.33,2.12-8.46-2.27-2.83-1.1-6.3-.61-9.65,5.29,1.5,2.7,6.21,5.23,9.96Zm-132.58-12.98c-13.43,4.34-46.08,29.03-52.27,38.99-2.55,4.11,.74,3.57,2.94,3.59,8.16,.08,16.32-.15,24.47,.11,4.2,.13,6.76-2.61,6.92-5.5,.47-8.56,.33-16.93,10.87-19.82,.17-.05,.41-.36,.4-.53-.45-6.22,4.63-10.37,6.68-16.83Zm20.52,70.28c.22,4.02,.64,7.05,6.85,6.24,4.84-.63,9.35-5.19,13.92-2.89,8.39,4.23,8.19-1.81,8.41-6.48,.26-5.63,2.52-10.76,3.09-16.28,.26-2.55,.62-4.98-3.04-4.19-7.66,1.65-16.46-4.04-23.23,3.57-.29,.33-1.66-.3-2.52-.48-2-.41-3.23-4.87-5.53-1.93-1.72,2.21-2.24,5.08-1.1,8.84,1.28,4.21,5.31,8.18,3.15,13.58Zm112.07-87.7c0-2.79,.09-5.59-.03-8.37-.07-1.68,.52-4.34-2.61-3.53-1.96,.5-5.4,.54-3.94,4.17,1.38,3.43-.93,4.6-3.02,6.06-2.1,1.46-4.52,2.58-6.31,4.34-2.4,2.36-7.1,4.37-5.99,7.86,1.26,3.94,6.08,1.77,9.26,1.83,12.64,.23,12.64,.09,12.64-12.35Zm13.64,43.24c-2.94-.07-5.39,1.24-7.79,2.7-2.24,1.37-2.29,3.65-1.45,5.53,1.03,2.3,2.9,.62,4.1-.08,2.88-1.68,5.79-1.32,7.7,.83,4.59,5.19,10.81,5.72,16.9,6.95,1.81,.37,3.75,1.54,5.18-.14,1.63-1.92,1.03-4.48,.58-6.69-.59-2.89-3.25-2.32-5.16-2.12-5.91,.62-10.9-1.06-14.94-5.36-1.46-1.56-3.22-1.65-5.11-1.62Zm-10.76-36.83c-.03,2.46-.11,4.41,1.88,5.46,1.53,.81,3.51,1.03,4.62-.16,3.32-3.57,4.47-9.44,10.75-9.8-.07-.86,.17-1.93-.25-2.55-3.11-4.65-6.51-8.91-12.08-11.03-3.96-1.51-4.84-.15-5.04,3.59-.26,5.04,2.75,10.05,.12,14.49Zm-73.47,34.11c-2.64,0-4.57-.59-5.78,.1-6.83,3.87-13.34,8.32-18.29,14.47-1.46,1.82-1.08,4.72,2.43,4.86,3.92,.16,7.86,0,11.79,.07,2.34,.04,3.07-1.4,3.75-3.29,1.85-5.17,3.86-10.29,6.1-16.22Zm85.94-52.1c3.03,3.89,5.58,6.49,7.31,9.54,4.16,7.37,11.79,8.07,18.68,10.21,1.26,.39,2.92,.13,3.7-1.25,.94-1.66-.65-2.52-1.58-3.34-7.82-6.91-16.71-11.84-28.1-15.16Zm15.17,2.47c3.06,1.93,6.04,3.99,9.2,5.74,3.55,1.98,5.84,5.34,8.99,7.7,3.51,2.61,6.23-.3,8.72-2.03,1.79-1.24-.07-2.35-1.26-2.94-8.1-4.01-16.54-7.09-25.65-8.47Zm-74.2,4.73c-3.14,1.55-8.01,1.37-8.95,5.81-.4,1.88,2.16,5.07,4.94,4.5,4.16-.86,5.95-5,7.59-8.32,1.11-2.25-1.94-1.51-3.58-1.99Zm54.48,29.05c-.97-1.93-2.3-3.76-4.59-3.53-3.16,.31-1.98,3.07-2.12,4.92-.13,1.8,.56,3.4,2.74,2.88,2.1-.5,3.59-1.94,3.97-4.28Zm10.62-4.62c-2.07-2.11-3.12-5.71-6.58-4.08-1.47,.69-1.48,3.2-.69,4.41,2.22,3.39,4.74-.74,7.26-.33Zm-138.38-18.07l.31,1.93c4.95,.2,9.17-1.97,13.04-5.37-4.45,1.15-8.9,2.29-13.35,3.44Zm169.88-8.28c3.68,1.64,6.9,5.94,12.88,3.29-4.64-3.31-8.94-2.49-12.88-3.29Zm93.48,29.41c2.51,2.95,5.21,5.55,10.19,5.9-2.9-4.05-6.45-5.14-10.19-5.9Zm-56.89-23.89c-3.43-1.2-6.48-3.35-10.84-3.05,3.29,3.89,6.99,4.01,10.84,3.05Zm-133.81,9.56c-1.56,.21-1.81,1.05-1.77,1.99,.06,1.13,.91,1.47,1.87,1.47,1.13,0,1.69-.77,1.35-1.74-.26-.72-1.04-1.26-1.45-1.72Zm14.34,3.08c1.92,1.07,3.15,.18,3.96-1.43,.16-.33-.46-1.5-.66-1.49-1.78,.11-2.89,1.11-3.3,2.92Zm129.94-14.18c-1.49-1.81-3.03-2.41-6.07-.8,2.51,.19,3.58,2.36,6.07,.8Zm-4.64,3.17c-.32-.27-.55-.55-.84-.69-.18-.09-.48-.05-.68,.04-.59,.29-.56,.68,.12,.84,.4,.09,.86-.1,1.4-.18Z"/><path class="cls-1" d="M337.2,261.29c1.33-.09,2.65-.19,3.98-.28-1.18,6.8-2.29,13.63-3.59,20.41-.58,3.03-.32,5.03,3.46,5.01,9.31-.06,18.62-.03,27.93-.03,2.39,0,3.9-.99,4.5-3.44,2.37-9.62,6.18-18.95,5.97-29.09,1.27,1.56,2.53,3.11,3.8,4.67-2.16,7.76-4.34,15.52-6.47,23.29-.44,1.59-.77,4.02,1.13,4.15,8.55,.59,18.13,3.06,25.43-.77,8.69-4.56,16.51-12.07,16.39-23.78,1,.01,1.99,.03,2.99,.04-.79,3.9-1.58,7.8-2.66,13.09,6.04-3.86,10.84-6.96,15.68-10,3.07-1.93,5.74-2.73,7.7,1.71,2.14,4.84,5.02,4.71,8.18,.57,1.17-1.53,2.25-4.03,4.69-3.42,2.4,.6,.15,3.83,2.11,5.09,2.09-2.03,2.02-4.57,1.95-7.12,1,.07,1.99,.13,2.99,.2-.16,7.27-4.2,13.13-7.18,19.36-1.74,3.64-1.62,5.61,3.19,5.52,8.37-.16,16.74-.1,25.11,0,2.57,.03,4.64-.77,6.01-2.82,4.61-6.91,9.74-13.59,10.61-22.27,1.32-.05,2.64-.1,3.96-.15-5.61,20.47-19.24,35.19-35.18,48.05-28.25,22.79-61.24,35.95-95.83,45.37-32.1,8.73-64.89,12.86-98.17,14.52-51.2,2.56-101.36-3.14-150.34-17.59-35.76-10.55-69.44-25.73-96.61-52.4-11.28-11.08-19.87-23.9-24.65-39.07,1.35,.23,2.71,.46,4.06,.68,1.79,7.79,5.79,14.53,10.18,21.05,1.12,1.66,2.91,4,4.47,4.06,9.09,.36,18.29,2.1,27.26-.97,1.15,1.74,1.06,3.74,1.16,5.7-8.35-2.8-16.83-.67-26.66-1.49,3.9,4.63,6.44,8.51,9.8,11.49,13.6,12.06,28.98,21.5,45.08,29.91,8.68,4.53,17.55,3.53,27.82,3.13-12.35-8.89-24.56-15.76-33.7-26.47,.94-.88,1.87-1.75,2.81-2.63,16.38,16.28,32.42,33.26,59.89,28.96-13.74-10.1-25.17-21.5-33.47-35.11-4.46-7.31-9.01-10.31-16.95-9.36,.55-.9,1.09-1.8,1.64-2.71,2.49-.06,5.04,.61,7.78-.6-.68-2.85-2.75-5.44-1.98-8.57-.07-1.34,.01-2.63,1.34-3.43,2.07,12.12,2.75,12.72,14.67,12.7,3.2,0,6.4-.12,9.6-.18,.27,1.06,.53,2.12,.8,3.18-4.19-.06-8.4,.06-12.58-.21-6.07-.38-5.59,2.13-2.91,5.92,5.91,8.33,12.02,16.49,19.44,23.58,11.17,10.67,22.93,19.72,40.89,13.97-7.47-7.92-13.91-16.53-20.45-25.06-.33-.43-1.31-.37-1.99-.53,1.41-1.35,2.81-2.7,4.22-4.05,3.85,7.76,9.72,14.11,14.6,21.13,8.59,12.36,20.34,10.04,32.54,9.46-4.39-8.69-8.41-16.76-12.56-24.76-.81-1.56-.54-5.15-3.7-3.62-2.31,1.12-1.26,3.79-.15,5.56,2.8,4.48,3.14,9.65,4.44,14.55,.34,1.3,.47,2.97-.92,3.8-1.69,.99-3.27,.14-4.26-1.26-1.33-1.89-2.42-3.95-3.53-5.98-3.12-5.68-4.32-12.34-8.83-17.3-2.49-2.74-3.89-5.84-3.42-9.52,.59-4.61-1.38-6.48-5.89-5.99,.23-1.11,.45-2.24,1.63-2.8,5.93,.55,3.88-3.78,4.12-6.71,2.08-6.25,6.52-11.19,9.47-16.95,.86-1.68,2.28-2.2,4.03-2.17,24.43,.33,48.87-1.13,73.31,.18-5.48,1.63-11.08,.62-16.62,.68-16.84,.16-16.83,.06-15.5,16.42,.08,.92,.12,1.86,.05,2.78-.32,4.61,2,6.06,6.36,5.96,8.62-.2,17.24-.22,25.86,0,4.09,.1,5.99-1.04,5.76-5.47-.35-6.72-.23-13.46-.31-20.19,9.97-1.54,19.97-.06,29.95-.36,9.96-.29,12.94-2.38,16.59-11.67,4.4-11.21,8.78-22.44,13.52-33.5,3.55-8.28,8.63-15.64,17.6-18.72,4.27-1.47,9.74-3.63,12.02,3.43-10.11,.43-2.5,6.18-2.88,9.53,.13,1.48-.8,2.37-1.82,3.21-6.56,1.56-11.77,7.24-19.58,5.17,1.05,3.22,3.2,3.89,4.72,3.9,7.21,.07,5.05,3.61,3,7.28-.56,1-.85,2.24-1.61,3.04-3.72,3.9-1.85,5.66,2.39,6.63-.27,.61-.53,1.21-.8,1.82-9.7-.22-17.76,7.36-16.78,17.23,.87,8.74,2.72,17.1-6.78,22.46-.34,.19-.47,.79-.65,1.21-.64,1.46-1.84,3.31,.01,4.31,2.52,1.35,5.5,.83,8.21,.35,2.02-.36,1.25-2.04,.85-3.35-2.17-7.21,3.51-10.93,7.08-15.52,1.16-1.5,2.93-2.44,4.9-1.02,1.76,1.26,2.16,3.28,1.55,5.01-.92,2.57-2.51,4.9-3.71,7.39-.99,2.05-3.07,4.58-1.24,6.41,2.88,2.88,7.03,1.07,10.63,1.28,2.43,.14,3.85-1.28,4.14-3.77,.81-7.11,3.58-13.95,2.89-21.26Zm-83.97,50.97c0-5.8-.19-11.61,.06-17.4,.18-4.15-1.19-5.83-5.55-5.7-8.6,.26-17.23,.25-25.83,0-4.58-.13-5.81,1.77-4.92,5.87,1.38,6.31,2.3,12.76,4.14,18.93,7.59,25.48,.36,19.05,26.7,20.07,4.48,.17,5.62-1.75,5.45-5.78-.23-5.33-.06-10.67-.05-16.01Zm75.3,21.73c3.64-.74,8.46,1.71,12.2-1.66,11.9-10.7,20.61-23.81,27.95-37.86,1.73-3.32,.46-5.27-3.54-5.22-7.46,.08-14.93,.31-22.37-.08-4.99-.26-7.53,1.21-8.95,6.26-2.76,9.84-6.95,19.18-11.9,28.15q-5.74,10.42,6.6,10.41Zm-28.57,.02c3.81-1.21,9.22,2.49,12.88-2.76,7.87-11.29,13.68-23.53,17.77-36.66,1.3-4.18,.37-5.45-3.87-5.37-5.97,.1-11.9,.58-17.92,.17-9.06-.61-12.48,2.54-13.6,11.43-.9,7.13-2.54,14.08-4.61,20.93-3.72,12.27-3.76,12.26,9.35,12.26Zm56.75,.18c3.64-.72,7.64,1,10.98-1.04,13.07-7.99,23.06-19.29,33.02-30.66,2.35-2.69-2.1-6.8,2.44-8.76,1.1-.47,2.48-1.74,1.87-3.32-.64-1.64-2.38-1.13-3.68-1.13-7.68-.05-15.37,.13-23.05-.09-3.19-.09-4.25,1.48-5.5,4.03-5.5,11.25-11.53,22.19-20.1,31.54-2.3,2.51-7.25,4.98-6.14,7.7,1.51,3.67,6.69,.64,10.17,1.73Zm128.96-44.92c-10.31,0-19.14,.04-27.97-.03-2.48-.02-4.33,.74-6.13,2.57-13.78,13.96-26.85,28.75-44.22,38.66-1.16,.66-3.13,1.19-2.94,3.04,12.32,2.09,23.15-.87,33.95-7.13,17.16-9.94,33.44-20.66,47.31-37.12Zm-276.6,44.73c3.46,0,5.58-.22,7.64,.04,5.44,.7,6.95-.8,4.84-6.31-4.04-10.59-6.39-21.66-7.64-32.94-.43-3.84-2.14-5.79-6.31-5.59-7.35,.34-13.63-.75-19.75,7.35-4.74,6.29-4.77,9.61-1.84,15.16,2.16,4.1,4.28,8.22,6.34,12.36,3.73,7.5,8.77,12.56,16.72,9.92Zm48.2-22.6v2.09c0,21.29,0,21.18,21.23,20.61,3.71-.1,5.53-1.4,6.39-4.74,2.16-8.49,4.29-16.99,6.6-25.45,.86-3.14-.34-4.43-2.93-2.81-6.25,3.93-9.93-.31-11.51-4.59-2.9-7.83-8.55-7.48-14.89-7.34-3.55,.08-5.04,1.21-4.93,4.85,.18,5.79,.05,11.58,.04,17.38Zm117.07,21.75c15.1,3.36,27.15-.85,37.87-9.95,3.53-3,7.27-5.8,11.15-8.34,3.69-2.41,6.36-4.89,3.83-9.61-2.54-4.74-4.73-9.82-11.69-9-6,.7-9.44,4.07-12.91,8.95-7.65,10.75-17.44,19.68-28.24,27.95Zm-117.06-59.8c0,14.13,0,13.99,11.31,13.12,4.04-.31,5.18-2.11,3.44-5.32-2.34-4.3-2.93-8.62-2.07-13.35,.83-4.57-.74-6.63-5.92-6.59-4.99,.04-7.59,1.1-6.8,6.57,.27,1.82,.04,3.71,.05,5.57Zm-56.01,13.05v-.02c2.33,0,4.66,.05,6.99-.01,2.39-.06,4.65-1.19,3.96-3.66-1.54-5.49-.28-11.15-1.57-16.56-.48-2.04-.53-5-4-4.66-2.93,.29-4.65,2.08-5.11,4.87-.3,1.81-.25,3.71-.13,5.56,.23,3.55,.08,6.35-4.8,6.44-3.38,.06-4.84,3.21-4.56,5.98,.35,3.41,3.68,1.66,5.73,2.04,1.13,.21,2.32,.04,3.49,.04Zm1.11,51.62c4.57,5.38,8.16,9.3,13,11.6,4.14,1.97,9.08,2.33,12.44-.72,3.06-2.77-1.34-5.57-2.16-8.43-.59-2.04-2.43-2.49-4.45-2.48-5.73,.06-11.45,.02-18.83,.02Zm-51.72,0c7.25,5.54,14.08,8.53,21,11.35,2.98,1.21,5.81,3.22,9.26,2.49,1.05-.22,2.21-.82,2.88-1.62,.92-1.08,.17-2.37-.83-2.95-6.77-3.92-11.89-11.45-21.44-9.38-2.89,.63-6.03,.1-10.88,.1Zm1.83,15.86c-17.85-3.38-31.9-19.42-53.61-15.16,18.28,7.41,35.58,12.58,53.61,15.16Zm11.76-3.49c-18.3-12.24-25.27-14.28-40.07-11.07,14.08,3.96,24.97,13.53,40.07,11.07Zm246.77-11.5c-13.36-3.66-23.46,2.5-33.88,7.25-1.2,.55-3.05,1-2.56,2.66,.56,1.88,2.39,1.88,4.09,1.38,10.6-3.15,21.15-6.45,32.35-11.29Zm-78.16-.81c-6.87,0-12.63-.11-18.39,.05-2.54,.07-4.59,1.61-4.76,4.17-.16,2.36,2.27,2.48,3.99,3.05,6.73,2.24,12.71,.22,19.16-7.28Zm-25.96,1.74l-.4-1.78c-5.99,0-11.98,.02-17.96,0-3.54-.01-5.3,2.47-5.3,5.24,0,2.84,3.21,3.32,5.35,3,6.51-.99,12.88-2.62,18.31-6.44Zm-63.35,3.81c1.98,0,3.14,.07,4.29-.02,2.12-.17,5.16,.88,5.14-2.78-.02-3.6-3.06-2.73-5.18-2.79-4.39-.12-8.79-.11-13.18,0-1.69,.04-4.19-.89-4.68,1.55-.26,1.31,1.01,2.95,1.66,4.41,1.2,2.69,3.05,1.3,4.59,.53,2.64-1.31,5.44-.77,7.35-.92Zm90.04-.06c9.27,3.91,18.12,1.98,25.06-6.04-8.85,2.04-18.56-3.27-25.06,6.04Zm-156.51-5.51c5.69,7.46,11.86,9.25,19.34,4.63,1.06-.65,3.15-.21,2.91-2.2-.23-1.96-1.99-2.39-3.66-2.41-5.99-.06-11.99-.02-18.6-.02Zm207.6,.02c-5.53,0-11.07-.15-16.59,.07-2.64,.1-5.47,1.4-5.11,4.4,.34,2.78,3.46,2.79,5.69,2.58,5.86-.54,10.74-3.79,16.01-7.05Zm-113.33,.09c3.43,2.34,5.04,5.25,8.27,3.26,.57-.35,1.09-2.02,.84-2.26-2.29-2.19-5.07-.88-9.11-1Zm-12.55-.04c-1.26,.04-2.3,.51-2.41,1.86-.1,1.32,.61,2.15,2.05,2.01,1.26-.12,2.24-.89,2.48-2.03,.31-1.52-.88-1.82-2.12-1.85Z"/><path d="M492.44,152.67c.12,8.93-6.72,16.27-15.33,16.44-8.59,.17-15.47-6.56-15.56-15.22-.09-8.99,6.73-16.45,15.23-16.66,8.16-.21,15.55,7.08,15.66,15.44Z"/><path class="cls-1" d="M507.9,234.61l-2.79-.3c-1.16-9.05-4-17.7-8.34-25.56-4.49-8.13-7.93-18.69-21.06-15.77,.46-1.44,.92-2.89,1.38-4.33,1.62,.58,3.53,2.41,4.87,.44,1.05-1.54-1.09-2.69-2.13-3.78-.77-.8-1.78-1.35-2.69-2.02-.54-1.61-1.09-3.22-1.64-4.84,17.91,14.64,30.18,32.51,32.39,56.15Z"/><path class="cls-1" d="M471.56,174.82c-.84,0-1.5-.28-1.7-1.2,.92-.1,1.45,.36,1.7,1.2Z"/><path class="cls-2" d="M379.44,253.86c.21,10.15-3.6,19.47-5.97,29.09-.6,2.45-2.12,3.44-4.5,3.44-9.31,0-18.62-.03-27.93,.03-3.78,.03-4.04-1.98-3.46-5.01,1.31-6.78,2.41-13.6,3.59-20.41,8.83-3.48,9.79-12.62,14.05-19.39,8.02,.08,16.04,.16,24.06,.25-.9,4.01-1.02,8.01,.16,11.99Z"/><path class="cls-2" d="M58.36,200.08c1.28-5.73,4.85-7.71,10.65-7.35,6.74,.42,13.52,.27,20.28,.05,5.14-.17,8.05-.08,4.83,6.56-5.8,11.98-8.73,24.86-9.02,38.24-3.93,6.95-7.85,13.9-12.82,22.7-3.47-17.17-6.52-32.18-9.54-47.21-.91-4.52-1.63-9.1-4.38-13Z"/><path class="cls-2" d="M475.71,192.98c13.13-2.92,16.57,7.64,21.06,15.77,4.34,7.87,7.18,16.52,8.34,25.56-12.13,.08-24.26,.16-36.39,.24-4.75-3.58-1.73-9.5-4.17-13.78,3.19-9.48,6.92-18.74,11.16-27.79Z"/><path class="cls-2" d="M86.03,289.02c7.94-.95,12.49,2.05,16.95,9.36,8.31,13.61,19.73,25.01,33.47,35.11-27.48,4.3-43.51-12.68-59.89-28.96,2.87-5.34,5.59-10.78,9.48-15.51Z"/><path class="cls-2" d="M73.74,307.17c9.14,10.71,21.35,17.58,33.7,26.47-10.27,.4-19.13,1.41-27.82-3.13-16.1-8.41-31.48-17.85-45.08-29.91-3.36-2.97-5.9-6.86-9.8-11.49,9.83,.82,18.31-1.31,26.66,1.49,.43,1.56,.95,3.11,1.29,4.69,2.77,12.65,8.97,16.16,21.04,11.88Z"/><path class="cls-2" d="M142.29,307.09c.68,.17,1.66,.1,1.99,.53,6.53,8.54,12.98,17.15,20.45,25.06-17.96,5.75-29.72-3.3-40.89-13.97-7.42-7.09-13.53-15.26-19.44-23.58-2.69-3.78-3.16-6.3,2.91-5.92,4.18,.26,8.38,.15,12.58,.21,.57,2.21,1.26,4.4,1.68,6.64,2.15,11.58,9.51,15.52,20.74,11.03Z"/><path class="cls-2" d="M50.25,284.9c-8.97,3.07-18.17,1.32-27.26,.97-1.56-.06-3.35-2.4-4.47-4.06-4.39-6.52-8.4-13.26-10.18-21.05,1.38-.04,2.75-.07,4.13-.11,5.05,1.1,10.1,1.29,15.13-.14,8.04-.95,10.48-8.18,15.21-14.54,2.64,13.8,5.04,26.37,7.45,38.94Z"/><path class="cls-2" d="M252.99,260.81c.08,6.73-.04,13.47,.31,20.19,.23,4.43-1.67,5.57-5.76,5.47-8.61-.21-17.24-.19-25.86,0-4.36,.1-6.69-1.35-6.36-5.96,.06-.92,.02-1.86-.05-2.78-1.34-16.36-1.34-16.25,15.5-16.42,5.53-.05,11.14,.95,16.62-.68,1.87,.06,3.74,.11,5.62,.17Z"/><path class="cls-2" d="M501.1,261.34c-.87,8.69-6,15.37-10.61,22.27-1.37,2.05-3.44,2.85-6.01,2.82-8.37-.1-16.74-.16-25.11,0-4.81,.09-4.93-1.87-3.19-5.52,2.98-6.23,7.02-12.09,7.18-19.36,12.58-1.01,25.16-.53,37.74-.22Z"/><path class="cls-2" d="M419.72,261.4c.11,11.72-7.7,19.22-16.39,23.78-7.3,3.83-16.88,1.36-25.43,.77-1.9-.13-1.56-2.56-1.13-4.15,2.13-7.77,4.31-15.52,6.47-23.29,7.41,4.03,15.46,2.09,23.26,2.48,4.4,.22,8.82,.27,13.22,.39Z"/><path class="cls-2" d="M337.2,261.29c.7,7.31-2.08,14.15-2.89,21.26-.28,2.49-1.71,3.91-4.14,3.77-3.59-.21-7.75,1.6-10.63-1.28-1.83-1.83,.25-4.36,1.24-6.41,1.2-2.48,2.79-4.81,3.71-7.39,.61-1.73,.21-3.74-1.55-5.01-1.97-1.42-3.74-.47-4.9,1.02-3.57,4.59-9.25,8.31-7.08,15.52,.4,1.31,1.17,3-.85,3.35-2.72,.48-5.7,1-8.21-.35-1.86-1-.66-2.85-.01-4.31,.19-.42,.31-1.02,.65-1.21,9.5-5.37,7.65-13.72,6.78-22.46-.98-9.87,7.09-17.45,16.78-17.23-2.79,12.43-.31,17.07,11.1,20.72Z"/><path class="cls-2" d="M5.47,233.91c1.24-14.52,8.05-26.7,16.19-38.32,1.42-2.03,3.47-2.81,6.01-2.78,8.8,.08,17.6,0,26.4,.05,1.24,0,3.18-.62,3.32,1.34,.13,1.82-1.4,2.76-3.16,3.1-9.98-1.89-13.45-.21-18.75,8.71-5.43,9.15-10.98,18.22-16.47,27.33-1.34,.02-2.74-.23-3.83,.86h-2.99c-1.34-1.15-2.68-1.13-4.02,0-.9-.1-1.8-.19-2.71-.29Z"/><path class="cls-2" d="M154.83,289.1c4.51-.5,6.48,1.38,5.89,5.99-.47,3.69,.93,6.79,3.42,9.52,4.51,4.96,5.72,11.62,8.83,17.3,1.11,2.03,2.2,4.09,3.53,5.98,.99,1.41,2.58,2.26,4.26,1.26,1.39-.82,1.27-2.5,.92-3.8-1.3-4.9-1.64-10.08-4.44-14.55-1.11-1.77-2.16-4.43,.15-5.56,3.16-1.53,2.88,2.06,3.7,3.62,4.16,8,8.17,16.07,12.56,24.76-12.2,.58-23.95,2.9-32.54-9.46-4.88-7.02-10.76-13.37-14.6-21.13,1.9-5.16,4.9-9.67,8.31-13.93Z"/><path class="cls-2" d="M415.58,156.63c1.38,.02,2.76,.05,4.15,.07,.5,.32,.99,.66,1.5,.95,.03,.02,.25-.31,.39-.47l-1.75-.64c-1.64-3.07-5.15-4.7-6.32-8.16-.38-1.11-.99-2.21-.2-3.25,.97-1.29,2.1-.33,3.07,.13,14.62,6.98,29.36,13.75,42.54,23.3,1.21,.88,5.27,1.72,1.55,4.62-7.47,2.43-9.09,9.3-11.74,15.39-9.69-12.06-21.32-22.13-33.17-31.95h-.01Z"/><path class="cls-2" d="M212.78,233.94c2.02-11.43,.65-23.09,2.39-34.58,.69-4.53,1.71-7.04,6.64-6.52,.92,.1,1.86,.01,2.8,0,13.22-.04,13.46,.3,8.07,12.86-.91,2.12-2.08,4.17-3.4,6.06-1.32,1.9-2.27,4.38-.71,5.75,4.69,4.08,4.14,10.66,8.57,15.32-7.57,1.54-14.81-.69-21.7,1.37-.89-.08-1.78-.17-2.67-.25Z"/><path class="cls-2" d="M425.61,192.89c6.92,.82,14.11-1.95,20.83,1.52-4.77,12.12-9.66,24.19-14.24,36.38-1.33,3.54-3.33,4.6-6.76,3.62-1.73-6.83-1.28-14.11-4.31-20.68,1.49-6.95,4.63-13.55,4.48-20.85Z"/><path class="cls-1" d="M379.28,241.87c-8.02-.08-16.04-.16-24.06-.25,.96-2.27,1.92-4.53,2.88-6.8,.35,1.42,.92,2.41,2.63,2.75,17.52,3.44,21.16,.19,18.26-16.96-.46-2.7,.15-7.16-3.25-7.65-3.87-.55-6.82,2.5-8.29,6.28-.93,2.37-1.68,4.81-2.47,7.23-.67,2.04-1.94,2.42-3.75,1.44,3.14-7.92,5.88-16.07,11.43-22.74,4.53-5.44,9.78-9.94,17.54-9.68,5.15,.17,7.25,2.98,5.78,7.79-1.6,5.25-3.71,10.36-6.82,14.97-2.97-1.1-3.99-5.04-8.51-5.37,1.81,6.04,.44,12.24,3.75,17.67-1.71,3.77-3.41,7.54-5.12,11.32Z"/><path class="cls-2" d="M119.08,286.23c-3.2,.06-6.4,.17-9.6,.18-11.92,.03-12.6-.58-14.67-12.7,5.02-8.75,10.05-17.5,15.92-27.73,4.02,14.01,6.53,27.04,8.34,40.24Z"/><path class="cls-2" d="M361.22,227.92c1.81,.97,3.08,.59,3.75-1.44,.8-2.42,1.55-4.86,2.47-7.23,1.47-3.78,4.43-6.82,8.29-6.28,3.4,.48,2.79,4.95,3.25,7.65,2.9,17.14-.74,20.4-18.26,16.96-1.71-.34-2.29-1.33-2.63-2.75,1.04-2.3,2.08-4.6,3.12-6.91Z"/><path class="cls-2" d="M414.25,171.65c.76-4.06-1.44-7.53-2.93-11.81,5.58,.76,8.73,4.42,12,7.19,6.38,5.4,12.12,11.57,18.05,17.48,.77,.76,1.72,2.02,1.57,2.88-.3,1.78-2.12,1.4-3.45,1.41-4.66,.04-9.33,0-14,0-1.71-7.05-4.72-13.24-11.25-17.15Z"/><path class="cls-2" d="M90.4,229.09c-2.9-5.22,.7-9.71,1.61-14.51,1.18-6.17,3.96-11.74,6.47-17.4,.82-1.84,1.54-4.26,4.12-4.05,2.6,.21,1.57,2.94,2.44,4.38,.57,.93,1.5,1.65,2.27,2.46-4.9,10.14-11.1,19.52-16.92,29.12Z"/><path class="cls-2" d="M460.37,261.37c.07,2.54,.13,5.09-1.95,7.12-1.96-1.25,.3-4.49-2.11-5.09-2.45-.61-3.53,1.89-4.69,3.42-3.16,4.15-6.04,4.28-8.18-.57-1.96-4.44-4.63-3.63-7.7-1.71-4.84,3.03-9.64,6.14-15.68,10,1.07-5.29,1.87-9.19,2.66-13.09,12.55-.67,25.1-.6,37.65-.08Z"/><path class="cls-2" d="M326.89,238.75c-4.24-.98-6.11-2.74-2.39-6.63,.76-.8,1.05-2.04,1.61-3.04,2.05-3.67,4.2-7.2-3-7.28-1.52-.02-3.67-.68-4.72-3.9,7.82,2.07,13.02-3.61,19.58-5.17-2.77,9.07-6.64,17.66-11.09,26.02Z"/><path class="cls-2" d="M134.04,223.78c.37-.8,.65-2.23,1.12-2.3,3.82-.5,9.66,5.72,9.82,10.71,.19,5.78-4,5.63-8.06,5.39-2.12-4.36-2.19-9.14-2.87-13.8Z"/><path class="cls-2" d="M421.16,234.44c-1.13,.1-2.26,.16-3.38,.29-5.59,.63-6.34-1.48-3.68-6.03,1.7-2.91,2.91-6.11,4.35-9.18,3.67,4.47,2.65,9.79,2.72,14.92Z"/><path class="cls-2" d="M384.4,230.55c-3.31-5.43-1.94-11.63-3.75-17.67,4.51,.33,5.54,4.28,8.51,5.37-.59,4.48-3.14,8.21-4.76,12.3Z"/><path class="cls-2" d="M137.41,241.92c3.2-2.19,5.03-1.85,5.22,2.51,.14,3.36-1.15,6.9,.99,10.08-.34,1.28-.54,2.96-2,3.14-1.25,.15-1.51-1.39-1.72-2.45-.86-4.42-1.66-8.85-2.49-13.27Z"/><path class="cls-1" d="M421.16,234.44c-.07-5.13,.95-10.45-2.72-14.92,.12-2.29,1.36-4.05,2.7-5.78,3.03,6.56,2.58,13.85,4.31,20.68-1.43,0-2.86,.01-4.28,.02Z"/><path class="cls-2" d="M127,200.07c.09-.45,.09-.94,.27-1.35,1.27-2.81,2.99-5.21,6.35-5.6,1.11-.13,1.8,1,1.39,1.83-1.47,2.98-.52,7.98-6.13,7.69-.63-.86-1.25-1.71-1.88-2.57Z"/><path class="cls-1" d="M464.55,220.77c2.44,4.28-.58,10.2,4.17,13.78h-6.88c1.24-2.26,2.42-4.51-.03-6.75,.91-2.34,1.83-4.69,2.74-7.03Z"/><path class="cls-2" d="M93.48,277.15c-.77,3.13,1.3,5.72,1.98,8.57-2.74,1.21-5.29,.54-7.78,.6,1.27-3.47,2.84-6.76,5.8-9.17Z"/><path class="cls-2" d="M339.8,209.52c.37-3.35-7.24-9.1,2.88-9.53,1.21,3.83-1.49,6.48-2.88,9.53Z"/><path class="cls-2" d="M477.15,183.3c.91,.66,1.92,1.22,2.69,2.02,1.04,1.08,3.19,2.23,2.13,3.78-1.34,1.96-3.25,.13-4.87-.44,.02-1.78,.03-3.57,.05-5.35Z"/><path class="cls-2" d="M461.81,227.8c2.45,2.24,1.27,4.49,.03,6.75-5-2.22-.65-4.49-.03-6.75Z"/><path class="cls-2" d="M160.57,279.59c-.23,2.93,1.82,7.25-4.12,6.71,.63-2.69,1.87-5.01,4.12-6.71Z"/><path class="cls-1" d="M27.59,260.51c-5.03,1.43-10.08,1.24-15.13,.14,5.04-.85,10.08-.69,15.13-.14Z"/><path class="cls-1" d="M8.18,234.2c1.34-1.13,2.68-1.16,4.02,0-1.34,0-2.68,0-4.02,0Z"/><path class="cls-1" d="M15.19,234.19c1.1-1.09,2.5-.83,3.83-.86-.94,1.79-2.39,1.29-3.83,.86Z"/><path class="cls-2" d="M195.05,192.84c3.72,0,7.47,.3,11.15-.07,5.5-.56,6.84,1.75,6.22,6.85-1.13,9.37-2.06,18.78-2.52,28.21-.2,4.15-1.3,5.91-5.62,5.59-3.93-.29-8.03-.71-11.82,.07-8.77,1.81-12.85-4.94-18.31-9.18-.71-.55-.91-2.1-.88-3.17,.09-3.69-.04-7.46,.68-11.05,3.49-17.27,3.58-17.25,21.11-17.25Z"/><path class="cls-2" d="M224.34,144.77c-4.2,12.99-8.08,26.04-10.15,39.49-.55,3.59-1.9,4.67-5.33,4.61-8.39-.16-16.78-.21-25.16,.02-3.9,.11-4.4-1.47-3.18-4.52,2.23-5.58,3.8-11.43,7.17-16.54,1.35-2.04,1.57-4.12,5.4-3.41,3.96,.74,2.7-3.46,2.49-5.61-1.14-11.49,7.12-17.73,17.79-13.11,1.95,.84,3.18,1.11,4.97-.33,1.58-1.27,1.83-.96,6-.6Z"/><path class="cls-2" d="M253.22,159.18c-2.52-3.75,.07-8.46-5.23-9.96-.49,3.35-1.66,6.83,.61,9.65,3.31,4.13,.72,7.42-2.12,8.46-6.25,2.28-5.75,6.38-4.34,10.97,1.73,5.66,6.31,3.06,9.97,3.02,.19,0,.38,.25,.59,.4,.87,2.25-.86,3.05-2.35,3.36-9.65,1.99-19.15,4.99-29.26,3.84-3.25-.37-4.34-.93-3.65-4.64,2.21-11.85,5.25-23.44,8.9-34.91,1.27-3.99,3.26-5.74,7.5-5.37,3.47,.31,6.99,.05,10.49,.06q8.96,.02,8.88,9.19c-.01,1.57,0,3.13,0,5.94Z"/><path class="cls-2" d="M34.62,178.89c2.31,.56,3.99-.51,5.65-1.97,7.35-6.48,15.58-11.73,23.91-16.82,8.09-4.95,16.68-8.9,25.82-12.93,.55,3.82,1.3,7.44,6.63,8.61-13.01,9.15-24.34,18.65-33.45,30.49-1.55,2.01-3.66,2.61-6.16,2.59-8.85-.08-17.7-.03-26.67-.03-.42-4.36,4.78-5.93,4.3-9.95l-.03,.02Z"/><path class="cls-2" d="M120.64,146.2c-2.05,6.46-7.13,10.61-6.68,16.83,.01,.17-.22,.49-.4,.53-10.54,2.89-10.4,11.27-10.87,19.82-.16,2.9-2.71,5.64-6.92,5.5-8.15-.26-16.31-.03-24.47-.11-2.2-.02-5.49,.51-2.94-3.59,6.19-9.96,38.84-34.65,52.27-38.99Z"/><path class="cls-2" d="M141.16,216.48c2.16-5.41-1.87-9.37-3.15-13.58-1.14-3.76-.62-6.63,1.1-8.84,2.29-2.95,3.52,1.51,5.53,1.93,.87,.18,2.23,.8,2.52,.48,6.78-7.61,15.57-1.92,23.23-3.57,3.66-.79,3.3,1.65,3.04,4.19-.56,5.51-2.82,10.64-3.09,16.28-.22,4.67-.02,10.71-8.41,6.48-4.56-2.3-9.07,2.26-13.92,2.89-6.21,.81-6.63-2.22-6.85-6.24Zm14.25-7.19c-4.38-9.16-6.83-10.44-13.42-7.99,4.57,2.72,8.99,5.35,13.42,7.99Z"/><path class="cls-2" d="M253.23,128.78c0,12.44,0,12.59-12.64,12.35-3.18-.06-8,2.1-9.26-1.83-1.12-3.5,3.59-5.5,5.99-7.86,1.79-1.76,4.21-2.88,6.31-4.34,2.09-1.45,4.4-2.63,3.02-6.06-1.46-3.62,1.98-3.66,3.94-4.17,3.13-.8,2.54,1.85,2.61,3.53,.12,2.79,.03,5.58,.03,8.37Z"/><path class="cls-2" d="M266.88,172.02c1.88-.03,3.64,.06,5.11,1.61,4.04,4.3,9.03,5.98,14.94,5.36,1.92-.2,4.57-.76,5.16,2.12,.45,2.21,1.05,4.77-.58,6.69-1.42,1.68-3.37,.51-5.18,.14-6.09-1.23-12.31-1.77-16.9-6.95-1.9-2.15-4.82-2.51-7.7-.83-1.21,.7-3.08,2.39-4.1,.08-.84-1.88-.79-4.16,1.45-5.53,2.4-1.46,4.85-2.78,7.79-2.7Z"/><path class="cls-2" d="M256.12,135.19c2.63-4.45-.39-9.45-.12-14.49,.19-3.74,1.08-5.1,5.04-3.59,5.57,2.12,8.97,6.38,12.08,11.03,.42,.63,.18,1.69,.25,2.55-6.28,.36-7.43,6.23-10.75,9.8-1.1,1.19-3.09,.97-4.62,.16-1.98-1.05-1.91-3-1.88-5.46Z"/><path class="cls-2" d="M182.65,169.3c-2.24,5.93-4.25,11.04-6.1,16.22-.67,1.88-1.41,3.33-3.75,3.29-3.93-.07-7.86,.1-11.79-.07-3.51-.15-3.89-3.04-2.43-4.86,4.95-6.15,11.46-10.6,18.29-14.47,1.2-.68,3.13-.1,5.78-.1Z"/><path class="cls-2" d="M268.59,117.2c11.39,3.32,20.29,8.25,28.1,15.16,.93,.82,2.53,1.68,1.58,3.34-.78,1.38-2.44,1.64-3.7,1.25-6.89-2.13-14.52-2.84-18.68-10.21-1.73-3.06-4.28-5.65-7.31-9.54Z"/><path class="cls-2" d="M283.75,119.67c9.12,1.38,17.55,4.46,25.65,8.47,1.19,.59,3.04,1.71,1.26,2.94-2.49,1.73-5.21,4.64-8.72,2.03-3.16-2.35-5.44-5.72-8.99-7.7-3.15-1.76-6.14-3.82-9.2-5.74Z"/><path class="cls-2" d="M209.55,124.4c1.64,.48,4.7-.26,3.58,1.99-1.65,3.32-3.43,7.46-7.59,8.32-2.77,.57-5.33-2.62-4.94-4.5,.94-4.44,5.81-4.26,8.95-5.81Z"/><path class="cls-2" d="M191.52,125.89c-2.18,2.97-4.21,6.06-7.37,8.18-1.61,1.08-3.21,2.31-4.97,.72-.96-.86-1.97-2.3-1.95-3.46,.03-1.96,2.18-2.12,3.63-2.54,3.54-1.03,6.83-3.01,10.69-2.87l-.03-.03Z"/><path class="cls-2" d="M264.04,153.45c-.37,2.34-1.86,3.78-3.97,4.28-2.18,.52-2.87-1.08-2.74-2.88,.13-1.86-1.04-4.61,2.12-4.92,2.29-.23,3.61,1.6,4.59,3.53Z"/><path class="cls-2" d="M274.66,148.83c-2.52-.42-5.04,3.72-7.26,.33-.79-1.21-.78-3.72,.69-4.41,3.45-1.63,4.51,1.98,6.58,4.08Z"/><path class="cls-2" d="M136.28,130.76c4.45-1.15,8.9-2.29,13.35-3.44-3.87,3.4-8.09,5.57-13.04,5.37l-.31-1.93Z"/><path class="cls-2" d="M306.15,122.48c3.93,.8,8.24-.02,12.88,3.29-5.98,2.64-9.2-1.65-12.88-3.29Z"/><path class="cls-2" d="M181.71,124.48c-3.64,3.1-7.83,4.33-12.68,3.38,3.82-2.55,8.06-3.66,12.73-3.32l-.05-.06Z"/><path class="cls-2" d="M399.63,151.88c3.74,.76,7.29,1.84,10.19,5.9-4.98-.34-7.68-2.94-10.19-5.9Z"/><path class="cls-2" d="M342.74,127.99c-3.85,.96-7.54,.84-10.84-3.05,4.35-.3,7.41,1.84,10.84,3.05Z"/><path class="cls-2" d="M201.38,123.16c-2.38,4.17-6,3.87-9.86,2.73l.03,.03c2.83-2.39,6.23-2.88,9.77-2.84l.06,.07Z"/><path class="cls-2" d="M208.94,137.54c.41,.46,1.2,1,1.45,1.72,.35,.97-.22,1.74-1.35,1.74-.96,0-1.81-.34-1.87-1.47-.05-.94,.2-1.78,1.77-1.99Z"/><path class="cls-2" d="M223.28,140.62c.4-1.81,1.52-2.81,3.3-2.92,.21-.01,.83,1.16,.66,1.49-.81,1.61-2.04,2.5-3.96,1.43Z"/><path class="cls-2" d="M353.22,126.44c-2.5,1.56-3.56-.62-6.07-.8,3.05-1.61,4.58-1.01,6.07,.8Z"/><path class="cls-2" d="M348.59,129.61c-.53,.08-1,.27-1.4,.18-.68-.16-.71-.55-.12-.84,.19-.09,.5-.13,.68-.04,.29,.15,.52,.42,.84,.69Z"/><path class="cls-2" d="M181.76,124.54c.6-1.06,1.5-1.43,2.66-1.08,.16,.05,.24,.34,.36,.52-1.02,.17-2.05,.34-3.07,.51l.05,.06Z"/><path class="cls-2" d="M201.32,123.09c.53-.34,1.05-.68,1.59-.99,.01,0,.23,.34,.36,.52-.63,.18-1.26,.36-1.89,.54l-.06-.07Z"/><path class="cls-2" d="M411.41,153.8l-.58-.54c.12,.04,.28,.04,.34,.12,.1,.13,.13,.32,.19,.48l.05-.05Z"/><path class="cls-2" d="M411.35,153.85l.64,.52c-.12-.03-.29-.02-.35-.1-.11-.13-.16-.31-.23-.48l-.05,.05Z"/><path class="cls-2" d="M415.59,156.61c-.17-.07-.37-.12-.51-.24-.08-.07-.07-.25-.1-.38,.2,.21,.4,.42,.61,.63h.01Z"/><path class="cls-2" d="M253.23,312.26c0,5.34-.17,10.68,.05,16.01,.17,4.03-.97,5.95-5.45,5.78-26.34-1.02-19.11,5.4-26.7-20.07-1.84-6.18-2.76-12.62-4.14-18.93-.9-4.1,.34-6.01,4.92-5.87,8.61,.25,17.23,.26,25.83,0,4.36-.13,5.73,1.55,5.55,5.7-.25,5.79-.06,11.6-.07,17.4Z"/><path class="cls-2" d="M328.53,333.99q-12.34,0-6.6-10.41c4.94-8.97,9.14-18.31,11.9-28.15,1.42-5.05,3.96-6.52,8.95-6.26,7.44,.39,14.91,.16,22.37,.08,4-.04,5.28,1.9,3.54,5.22-7.34,14.05-16.05,27.16-27.95,37.86-3.74,3.37-8.56,.91-12.2,1.66Z"/><path class="cls-2" d="M299.97,334.01c-13.1,0-13.06,0-9.35-12.26,2.08-6.85,3.71-13.8,4.61-20.93,1.12-8.89,4.54-12.04,13.6-11.43,6.02,.4,11.95-.07,17.92-.17,4.24-.07,5.17,1.2,3.87,5.37-4.09,13.13-9.91,25.37-17.77,36.66-3.66,5.26-9.07,1.55-12.88,2.76Z"/><path class="cls-2" d="M356.71,334.18c-3.48-1.09-8.66,1.94-10.17-1.73-1.12-2.72,3.84-5.19,6.14-7.7,8.57-9.34,14.6-20.29,20.1-31.54,1.25-2.55,2.31-4.12,5.5-4.03,7.68,.22,15.37,.04,23.05,.09,1.31,0,3.05-.51,3.68,1.13,.61,1.58-.77,2.85-1.87,3.32-4.54,1.96-.09,6.07-2.44,8.76-9.95,11.37-19.95,22.68-33.02,30.66-3.34,2.04-7.34,.32-10.98,1.04Z"/><path class="cls-2" d="M485.67,289.27c-13.87,16.46-30.15,27.17-47.31,37.12-10.8,6.26-21.63,9.21-33.95,7.13-.19-1.85,1.78-2.38,2.94-3.04,17.37-9.91,30.44-24.7,44.22-38.66,1.81-1.83,3.65-2.59,6.13-2.57,8.83,.07,17.66,.03,27.97,.03Z"/><path class="cls-2" d="M209.07,334c-7.94,2.65-12.98-2.42-16.72-9.92-2.06-4.15-4.18-8.27-6.34-12.36-2.92-5.55-2.9-8.88,1.84-15.16,6.12-8.1,12.4-7.01,19.75-7.35,4.17-.19,5.89,1.75,6.31,5.59,1.25,11.28,3.6,22.35,7.64,32.94,2.1,5.51,.59,7.01-4.84,6.31-2.06-.27-4.18-.04-7.64-.04Z"/><path class="cls-2" d="M257.27,311.4c0-5.79,.14-11.59-.05-17.38-.12-3.64,1.37-4.78,4.93-4.85,6.34-.14,11.99-.49,14.89,7.34,1.58,4.28,5.26,8.52,11.51,4.59,2.58-1.62,3.78-.33,2.93,2.81-2.3,8.45-4.43,16.95-6.6,25.45-.85,3.35-2.67,4.64-6.39,4.74-21.24,.57-21.23,.68-21.23-20.61,0-.7,0-1.39,0-2.09Z"/><path class="cls-2" d="M374.33,333.15c10.8-8.27,20.59-17.2,28.24-27.95,3.47-4.88,6.91-8.25,12.91-8.95,6.97-.82,9.15,4.26,11.69,9,2.53,4.72-.14,7.2-3.83,9.61-3.88,2.54-7.62,5.34-11.15,8.34-10.71,9.1-22.77,13.31-37.87,9.95Z"/><path class="cls-2" d="M257.26,273.36c0-1.86,.22-3.75-.04-5.57-.8-5.47,1.81-6.53,6.8-6.57,5.19-.04,6.75,2.02,5.92,6.59-.86,4.73-.26,9.05,2.07,13.35,1.75,3.21,.6,5.01-3.44,5.32-11.32,.87-11.3,1.01-11.31-13.12Z"/><path class="cls-2" d="M201.25,286.41c-1.16,0-2.36,.17-3.49-.04-2.05-.38-5.38,1.37-5.73-2.04-.29-2.77,1.18-5.92,4.56-5.98,4.88-.08,5.03-2.88,4.8-6.44-.12-1.85-.17-3.74,.13-5.56,.46-2.78,2.17-4.58,5.11-4.87,3.47-.34,3.52,2.62,4,4.66,1.29,5.41,.03,11.07,1.57,16.56,.69,2.47-1.57,3.6-3.96,3.66-2.33,.06-4.66,.01-6.99,.01v.02Z"/><path class="cls-2" d="M202.37,338.03c7.37,0,13.1,.04,18.83-.02,2.02-.02,3.86,.43,4.45,2.48,.82,2.86,5.22,5.66,2.16,8.43-3.36,3.05-8.3,2.69-12.44,.72-4.84-2.31-8.43-6.22-13-11.6Z"/><path class="cls-2" d="M150.64,338.02c4.86,0,8,.53,10.88-.1,9.55-2.07,14.67,5.45,21.44,9.38,1,.58,1.74,1.86,.83,2.95-.67,.79-1.84,1.4-2.88,1.62-3.46,.72-6.29-1.28-9.26-2.49-6.92-2.81-13.75-5.81-21-11.35Z"/><path class="cls-2" d="M152.47,353.89c-18.03-2.57-35.32-7.75-53.61-15.16,21.71-4.26,35.76,11.78,53.61,15.16Z"/><path class="cls-2" d="M164.23,350.4c-15.1,2.46-25.99-7.12-40.07-11.07,14.8-3.2,21.77-1.17,40.07,11.07Z"/><path class="cls-2" d="M411,338.9c-11.21,4.84-21.75,8.14-32.35,11.29-1.7,.51-3.53,.5-4.09-1.38-.49-1.66,1.36-2.12,2.56-2.66,10.42-4.75,20.52-10.91,33.88-7.25Z"/><path class="cls-2" d="M332.84,338.09c-6.45,7.49-12.44,9.52-19.16,7.28-1.72-.57-4.15-.7-3.99-3.05,.17-2.57,2.22-4.11,4.76-4.17,5.75-.15,11.52-.05,18.39-.05Z"/><path class="cls-2" d="M306.88,339.82c-5.44,3.83-11.81,5.45-18.31,6.44-2.13,.33-5.34-.16-5.35-3,0-2.77,1.75-5.25,5.3-5.24,5.99,.02,11.98,0,17.96,0l.4,1.78Z"/><path class="cls-2" d="M243.53,343.63c-1.91,.15-4.71-.39-7.35,.92-1.54,.77-3.39,2.16-4.59-.53-.65-1.46-1.92-3.1-1.66-4.41,.49-2.44,2.99-1.51,4.68-1.55,4.39-.12,8.79-.12,13.18,0,2.12,.06,5.16-.81,5.18,2.79,.02,3.65-3.02,2.61-5.14,2.78-1.15,.09-2.31,.02-4.29,.02Z"/><path class="cls-2" d="M333.57,343.58c6.5-9.31,16.21-4.01,25.06-6.04-6.94,8.02-15.79,9.95-25.06,6.04Z"/><path class="cls-2" d="M177.06,338.07c6.61,0,12.61-.03,18.6,.02,1.67,.02,3.42,.45,3.66,2.41,.24,1.99-1.85,1.55-2.91,2.2-7.48,4.62-13.66,2.83-19.34-4.63Z"/><path class="cls-2" d="M384.66,338.09c-5.27,3.27-10.15,6.51-16.01,7.05-2.23,.21-5.35,.2-5.69-2.58-.36-3,2.46-4.3,5.11-4.4,5.52-.22,11.06-.07,16.59-.07Z"/><path class="cls-2" d="M271.33,338.18c4.04,.12,6.82-1.19,9.11,1,.25,.24-.27,1.91-.84,2.26-3.23,1.99-4.84-.92-8.27-3.26Z"/><path class="cls-2" d="M258.79,338.14c1.24,.02,2.44,.32,2.12,1.84-.24,1.14-1.22,1.91-2.48,2.03-1.44,.14-2.16-.7-2.05-2.01,.1-1.36,1.15-1.82,2.41-1.86Z"/><path class="cls-1" d="M419.87,156.53l1.75,.64c-.13,.16-.36,.49-.39,.47-.51-.29-1.01-.63-1.5-.95l.14-.16Z"/><path class="cls-1" d="M155.42,209.29c-4.43-2.63-8.85-5.27-13.42-7.99,6.58-2.46,9.04-1.18,13.42,7.99Z"/></svg>