<?xml version="1.0" encoding="UTF-8"?><svg id="IBM" xmlns="http://www.w3.org/2000/svg" viewBox="0 0 509.79 482.33"><defs><style>.cls-1{fill:#8f8f8f;}</style></defs><path class="cls-1" d="M394.9,232.16c.47-.5,.55-1.16,.77-1.75,1.02-2.76,2.05-5.51,2.99-8.3,.32-.96,.81-1.28,1.81-1.28,10.85,.03,21.71,.02,32.56,.02,14.71,0,29.43,0,44.14,0q1.8,0,1.8,1.82c0,3.55-.03,7.11,.02,10.66,.01,.93-.27,1.27-1.23,1.27-13.34-.02-26.68-.02-40.02,0-.93,0-1.3-.29-1.27-1.25,.05-1.9,.02-3.8,.02-5.69l-.31-.07c-.49,1.29-.98,2.57-1.47,3.86q-1.18,3.14-4.51,3.14c-24.27,0-48.54,0-72.81,0-2.07,0-1.71,.15-2.38-1.7-.63-1.75-1.24-3.51-1.86-5.26l-.3,.03c0,1.49,.02,2.98,0,4.48-.04,2.76,.39,2.46-2.42,2.46-12.77,.01-25.53,0-38.3,0-1.75,0-1.75,0-1.75-1.75,0-3.48,0-6.96,0-10.43,0-1.55,0-1.55,1.6-1.55,10.59,0,21.17,0,31.76,0,15.06,0,30.12,.02,45.18-.03,1.29,0,1.88,.38,2.28,1.62,.96,2.94,2.08,5.82,3.15,8.72,.13,.34,.14,.76,.53,1Z"/><path class="cls-1" d="M192.88,301.46c25.3,0,50.61,0,75.91,0,.42,0,.84,.02,1.26,0,.54-.02,.8,.2,.68,.76-.88,4.19-1.79,8.37-4.07,12.09-.53,.86-1.25,.95-2.14,.95-23.2-.01-46.4-.01-69.61-.01-26.15,0-52.29,0-78.44,0q-1.73,0-1.73-1.74c0-3.52,0-7.03,0-10.55,0-1.49,0-1.5,1.53-1.5,25.53,0,51.07,0,76.6,0Z"/><path class="cls-1" d="M192.74,180.87c-25.26,0-50.52,0-75.78,0-.46,0-.92-.02-1.38,0-.57,.02-.83-.2-.83-.8,.01-4.05,.01-8.1,0-12.15,0-.53,.23-.78,.75-.77,.34,0,.69-.01,1.03-.01,49.3,0,98.59,0,147.89-.03,1.18,0,1.94,.34,2.51,1.36,2.04,3.62,2.96,7.59,3.8,11.59,.13,.6-.12,.85-.73,.82-.38-.02-.76,0-1.15,0-25.37,0-50.75,0-76.12,0Z"/><path class="cls-1" d="M254.17,153.88c-.38,.26-.81,.15-1.22,.15-45.53,0-91.06,0-136.58,0q-1.62,0-1.62-1.62c0-3.59,.04-7.19-.03-10.78-.02-1.13,.35-1.4,1.43-1.39,14.64,.03,29.28,.02,43.92,.02,19.72,0,39.45,.12,59.17-.04,13.17-.11,24.34,4.71,34.32,12.88,.25,.2,.6,.36,.59,.79Z"/><path class="cls-1" d="M254.17,328.47c-.03,.43-.37,.59-.62,.8-7.19,5.93-15.2,10.21-24.41,12.03-2.78,.55-5.6,.78-8.43,.78-34.78,0-69.57,0-104.35,0q-1.61,0-1.62-1.62c0-3.52,0-7.03,0-10.55q0-1.59,1.65-1.59c33.45,0,66.89,0,100.34,0,12,0,24,0,36.01,0,.47,0,.98-.14,1.43,.15Z"/><path class="cls-1" d="M203.29,220.85c19.46,0,38.91,0,58.37,0,1.95,0,2,.06,1,1.74-2.73,4.61-6.54,8.24-10.59,11.65-.31,.26-.67,.34-1.06,.34-.46,0-.92,0-1.38,0-34.79,0-69.57,0-104.36,0-.34,0-.69-.03-1.03,0-1,.11-1.32-.29-1.3-1.3,.05-3.71,.06-7.42,0-11.12-.02-1.12,.42-1.34,1.41-1.33,4.59,.03,9.17,.01,13.76,.01,15.06,0,30.12,0,45.18,0Z"/><path class="cls-1" d="M203.18,261.5c-19.27,0-38.53,0-57.8,0-.42,0-.84-.03-1.26,0-.89,.07-1.18-.31-1.17-1.2,.04-3.78,.04-7.57,0-11.35,0-.9,.29-1.27,1.18-1.19,.3,.03,.61,0,.92,0,34.94,0,69.88,0,104.81-.03,1.27,0,2.25,.32,3.19,1.16,3.31,2.97,6.49,6.04,8.95,9.79,.38,.57,.7,1.18,1.05,1.77,.41,.69,.28,1.06-.59,1.04-.42-.01-.84,0-1.26,0-19.34,0-38.68,0-58.03,0Z"/><path class="cls-1" d="M51.8,140.25c15.78,0,31.57,0,47.35,0q1.63,0,1.63,1.61c0,3.59-.04,7.19,.02,10.78,.02,1.12-.33,1.41-1.43,1.41-10.89-.04-21.78-.02-32.67-.02-20.79,0-41.58,0-62.37,0q-1.74,0-1.74-1.73c0-3.55,.04-7.11-.03-10.66-.02-1.12,.32-1.41,1.42-1.4,15.94,.03,31.87,.02,47.81,.02Z"/><path class="cls-1" d="M51.67,180.87c-15.82,0-31.64,0-47.46,0q-1.61,0-1.62-1.62c0-3.59,.04-7.18-.03-10.78-.02-1.13,.35-1.4,1.43-1.39,16.05,.03,32.1,.02,48.15,.02,15.67,0,31.33,0,47,0q1.62,0,1.62,1.62c0,3.59-.04,7.18,.03,10.78,.02,1.13-.36,1.4-1.44,1.4-15.9-.03-31.79-.02-47.69-.02Z"/><path class="cls-1" d="M52.6,328.32c15.75,0,31.49,0,47.24,0,1.69,0,1.69,0,1.7,1.7,0,3.59-.02,7.19,.02,10.78,.01,.97-.28,1.32-1.3,1.32-31.88-.02-63.75-.02-95.63,0-.97,0-1.25-.33-1.25-1.25,.03-3.75,.04-7.49,0-11.24-.01-1.08,.4-1.33,1.41-1.32,15.94,.03,31.88,.02,47.81,.02Z"/><path class="cls-1" d="M52.43,315.25c-15.79,0-31.57,0-47.36,0-1.68,0-1.68,0-1.68-1.7,0-3.44,0-6.88,0-10.32q0-1.77,1.74-1.77c27.29,0,54.58,0,81.87,0,4.4,0,8.79,.03,13.19-.02,1.08-.01,1.37,.37,1.36,1.39-.04,3.63-.01,7.26-.02,10.89,0,1.52-.01,1.53-1.52,1.53-15.86,0-31.72,0-47.58,0Z"/><path class="cls-1" d="M329.13,180.87c-15.09,0-30.18,0-45.28,0q-1.66,0-1.67-1.69c0-3.59,.03-7.18-.02-10.77-.02-1.03,.34-1.29,1.32-1.29,28.92,.02,57.85,.02,86.77,0,.95,0,1.34,.36,1.61,1.2,1.22,3.74,2.49,7.46,3.74,11.18,.46,1.36,.45,1.37-.97,1.37-15.17,0-30.34,0-45.51,0Z"/><path class="cls-1" d="M459.61,180.87c-14.82,0-29.65,0-44.47,0-.38,0-.77-.03-1.15,0-.87,.08-1.06-.24-.77-1.05,.87-2.49,1.69-4.99,2.53-7.48,.46-1.37,.97-2.73,1.38-4.13,.25-.85,.71-1.2,1.57-1.09,.26,.03,.53,0,.8,0,28.27,0,56.55,0,84.82,0,.23,0,.46,.03,.69,0,1.14-.16,1.43,.38,1.41,1.44-.05,3.59-.01,7.18-.02,10.77,0,1.52-.01,1.53-1.52,1.53-15.09,0-30.18,0-45.28,0Z"/><path class="cls-1" d="M324.39,154.03c-13.53,0-27.06,0-40.59,0q-1.61,0-1.61-1.63c0-3.63,.02-7.26-.02-10.89-.01-.91,.21-1.27,1.2-1.27,25.8,.02,51.6,.02,77.4,0,.8,0,1.14,.29,1.4,1.01,1.37,3.85,2.79,7.68,4.18,11.52,.45,1.23,.42,1.26-.91,1.26-13.68,0-27.37,0-41.05,0Z"/><path class="cls-1" d="M464.42,154.03c-13.42,0-26.83,0-40.25,0q-1.61,0-1.05-1.55c1.36-3.73,2.73-7.46,4.06-11.2,.28-.78,.69-1.03,1.5-1.03,25.5,.02,50.99,.02,76.49,0,.96,0,1.26,.31,1.25,1.24-.03,3.75-.04,7.49,0,11.24,.01,1.07-.39,1.33-1.41,1.33-13.53-.03-27.06-.02-40.59-.02Z"/><path class="cls-1" d="M441.02,207.73c-11.85,0-23.69,0-35.54,0-.38,0-.77-.03-1.15,0-.9,.07-1.02-.29-.73-1.07,1.04-2.75,2.03-5.52,3.04-8.28,.43-1.18,.88-2.36,1.28-3.56,.22-.65,.6-.93,1.27-.87,.3,.03,.61,0,.92,0,22.28,0,44.56,0,66.84,0,.38,0,.76,.02,1.15,0,.62-.02,.89,.25,.88,.89-.02,4.01-.01,8.03,0,12.04,0,.58-.24,.85-.81,.83-.42,0-.84,0-1.26,0-11.96,0-23.92,0-35.88,0Z"/><path class="cls-1" d="M347.96,207.73c-12,0-24,0-36,0-1.56,0-1.56,0-1.56-1.58,0-3.55,0-7.11,0-10.66,0-1.52,0-1.53,1.5-1.53,10.66,0,21.33,0,31.99,0,11.77,0,23.54,.02,35.31-.03,1.22,0,1.73,.4,2.11,1.51,1.22,3.58,2.56,7.11,3.85,10.67q.59,1.62-1.2,1.63c-12,0-24,0-36,0Z"/><path class="cls-1" d="M471.76,315.25c-11.2,0-22.4,0-33.6,0q-1.66,0-1.67-1.71c0-3.59,.03-7.19-.02-10.78-.01-1,.31-1.31,1.31-1.31,22.7,.02,45.41,.02,68.11,0,.98,0,1.33,.25,1.32,1.28-.06,3.71-.06,7.42,0,11.12,.02,1.1-.29,1.43-1.4,1.42-11.35-.04-22.7-.02-34.06-.02Z"/><path class="cls-1" d="M471.87,342.09c-11.24,0-22.48,0-33.71,0q-1.66,0-1.67-1.71c0-3.59,.03-7.19-.02-10.78-.01-1,.3-1.31,1.31-1.31,22.7,.03,45.41,.03,68.11,0,1.11,0,1.33,.4,1.31,1.39-.05,3.67-.06,7.34,0,11.01,.02,1.1-.29,1.42-1.4,1.42-11.31-.04-22.63-.02-33.94-.02Z"/><path class="cls-1" d="M317.84,315.25c-11.12,0-22.24,0-33.36,0-1.56,0-1.56,0-1.57-1.58,0-3.63,.03-7.26-.02-10.89-.01-.97,.25-1.34,1.29-1.33,22.47,.03,44.94,.03,67.4,0,1.03,0,1.3,.35,1.29,1.33-.05,3.71-.06,7.41,0,11.12,.02,1.15-.39,1.39-1.46,1.38-11.2-.03-22.39-.02-33.59-.02Z"/><path class="cls-1" d="M317.86,342.09c-11.12,0-22.24,0-33.36,0-1.58,0-1.58,0-1.58-1.55,0-3.63,.03-7.26-.02-10.89-.02-1.07,.35-1.35,1.38-1.35,22.39,.02,44.79,.03,67.18,0,1.09,0,1.45,.3,1.43,1.41-.06,3.71-.06,7.41,0,11.12,.01,1.02-.33,1.29-1.32,1.28-11.23-.03-22.47-.02-33.7-.02Z"/><path class="cls-1" d="M394.93,247.76c10.7,0,21.41,0,32.11,0,.34,0,.69,.02,1.03,0,.97-.05,.82,.48,.6,1.09-1.15,3.24-2.29,6.48-3.44,9.72q-1.04,2.93-4.17,2.93c-17.85,0-35.7-.01-53.55,.03-1.26,0-1.89-.32-2.32-1.57-1.25-3.65-2.66-7.24-4-10.86-.47-1.28-.44-1.34,.94-1.34,10.93,0,21.86,0,32.8,0Z"/><path class="cls-1" d="M249.5,193.96c7.07,0,14.13,0,21.2,0,1.41,0,1.46,.06,1.36,1.39-.3,3.86-1.14,7.61-2.28,11.31-.24,.78-.63,1.08-1.46,1.08-13.41-.02-26.81-.02-40.22,0-.98,0-1.22-.37-1.21-1.28,.04-3.74,.05-7.49,0-11.23-.01-1.02,.32-1.3,1.31-1.3,7.1,.03,14.21,.02,21.31,.02Z"/><path class="cls-1" d="M249.47,288.36c-7.03,0-14.06-.02-21.09,.02-1.12,0-1.53-.26-1.51-1.47,.08-3.67,.06-7.34,0-11-.01-1,.29-1.32,1.3-1.31,13.37,.03,26.75,.02,40.12,0,.82,0,1.23,.28,1.48,1.07,1.15,3.69,1.96,7.45,2.3,11.31,.09,1.04-.2,1.41-1.29,1.4-7.11-.04-14.21-.02-21.32-.02Z"/><path class="cls-1" d="M394.93,274.61c7.64,0,15.28,0,22.92,0,1.57,0,1.58,0,1.04,1.48-1.34,3.69-2.71,7.38-4.02,11.09-.3,.84-.69,1.2-1.63,1.2-12.26-.03-24.52-.03-36.79,0-.87,0-1.29-.31-1.57-1.12-1.34-3.82-2.71-7.62-4.12-11.41-.38-1.01-.1-1.24,.9-1.24,7.75,.03,15.51,.01,23.26,.01Z"/><path class="cls-1" d="M52.14,193.96c6.57,0,13.15,.02,19.72-.02,1.07,0,1.48,.28,1.46,1.41-.06,3.71-.04,7.41,0,11.12,0,.92-.27,1.28-1.24,1.27-13.34-.02-26.68-.02-40.02,0-.92,0-1.27-.26-1.26-1.23,.05-3.78,.05-7.57,0-11.35-.01-.99,.37-1.22,1.28-1.22,6.69,.03,13.38,.01,20.07,.01Z"/><path class="cls-1" d="M164.15,193.96c6.61,0,13.23,.03,19.84-.03,1.18,0,1.49,.37,1.47,1.51-.06,3.67-.06,7.34,0,11.01,.01,1.02-.34,1.3-1.33,1.3-13.3-.03-26.6-.03-39.91,0-1.03,0-1.29-.35-1.28-1.33,.05-3.75,.05-7.49,0-11.24-.01-.96,.31-1.24,1.25-1.24,6.65,.03,13.3,.02,19.95,.02Z"/><path class="cls-1" d="M331.73,247.76c6.54,0,13.07,0,19.61,0,1.51,0,1.52,.01,1.52,1.53,0,3.63-.03,7.26,.02,10.89,.01,1-.31,1.33-1.3,1.33-13.3-.02-26.6-.02-39.91,0-.99,0-1.32-.31-1.3-1.32,.06-3.59,.02-7.19,.02-10.78,0-1.65,0-1.65,1.61-1.66,6.57,0,13.15,0,19.72,0Z"/><path class="cls-1" d="M51.9,288.36c-6.49,0-12.99,0-19.48,0-1.6,0-1.61,0-1.61-1.55,0-3.67,.02-7.33-.02-11,0-.88,.25-1.21,1.16-1.21,13.37,.02,26.74,.02,40.11,0,.96,0,1.25,.34,1.24,1.27-.04,3.74-.05,7.49,0,11.23,.01,1.05-.41,1.28-1.36,1.28-6.68-.03-13.37-.01-20.05-.01Z"/><path class="cls-1" d="M164.3,274.61c6.57,0,13.14,.02,19.71-.02,1.08,0,1.47,.29,1.45,1.41-.06,3.7-.05,7.41,0,11.12,.01,.95-.32,1.25-1.26,1.25-13.33-.02-26.66-.02-40,0-.93,0-1.27-.27-1.25-1.24,.05-3.74,.05-7.49,0-11.23-.01-1.01,.3-1.31,1.3-1.31,6.68,.04,13.37,.02,20.06,.02Z"/><path class="cls-1" d="M331.5,288.36c-6.53,0-13.06,0-19.6,0-1.5,0-1.5,0-1.51-1.53,0-3.63,.03-7.26-.02-10.89-.01-.95,.2-1.35,1.26-1.35,13.33,.03,26.66,.03,39.99,0,.94,0,1.26,.3,1.25,1.25-.04,3.74-.05,7.49,0,11.23,.01,1.03-.36,1.3-1.33,1.3-6.68-.03-13.37-.02-20.05-.02Z"/><path class="cls-1" d="M457.71,274.61c6.57,0,13.14,0,19.71,0,1.55,0,1.55,0,1.55,1.59,0,3.59-.03,7.18,.02,10.77,.02,1.03-.27,1.4-1.34,1.4-13.29-.03-26.59-.03-39.88,0-1.01,0-1.32-.35-1.3-1.33,.04-3.63,.01-7.26,.02-10.89,0-1.53,.01-1.54,1.51-1.54,6.57,0,13.14,0,19.71,0Z"/><path class="cls-1" d="M457.67,261.5c-6.5,0-13,0-19.5,0-1.68,0-1.68,0-1.68-1.73,0-3.56,.03-7.11-.02-10.66-.02-1.07,.37-1.36,1.4-1.36,13.26,.02,26.53,.03,39.79,0,1.08,0,1.35,.38,1.34,1.4-.05,3.67-.06,7.34,0,11.01,.02,1.07-.35,1.37-1.38,1.36-6.65-.03-13.3-.02-19.95-.02Z"/><path class="cls-1" d="M52.02,261.5c-6.57,0-13.15-.02-19.72,.02-1.1,0-1.54-.24-1.52-1.46,.08-3.67,.06-7.34,0-11.01-.02-1.03,.34-1.3,1.32-1.3,13.3,.02,26.61,.03,39.91,0,1.03,0,1.31,.37,1.3,1.34-.04,3.67-.05,7.34,0,11.01,.02,1.13-.39,1.43-1.46,1.42-6.61-.04-13.23-.02-19.84-.02Z"/><path class="cls-1" d="M52.02,234.59c-6.57,0-13.15-.02-19.72,.02-1.11,0-1.54-.26-1.51-1.46,.08-3.67,.06-7.34,0-11.01-.02-1.03,.35-1.3,1.32-1.3,13.26,.02,26.53,.03,39.79,0,1.14,0,1.43,.4,1.41,1.47-.05,3.63-.06,7.26,0,10.89,.02,1.13-.39,1.42-1.46,1.42-6.61-.04-13.23-.02-19.84-.02Z"/><path class="cls-1" d="M394.95,301.46c4.54,0,9.09,.02,13.63-.02,.98,0,1.16,.27,.83,1.19-1.39,3.88-2.73,7.77-4.07,11.67-.23,.67-.56,.96-1.31,.96-6-.03-11.99-.02-17.99,0-.69,0-1.02-.26-1.25-.88-1.44-3.94-2.89-7.88-4.38-11.8-.33-.87-.15-1.13,.78-1.12,4.58,.03,9.16,.01,13.75,.01Z"/><path class="cls-1" d="M395.11,328.32c1.41,0,2.82,.02,4.23,0,.74-.01,1.06,.14,.76,.98-1.48,4-2.92,8.02-4.38,12.02-.11,.31-.18,.69-.63,.71-.52,.02-.59-.42-.72-.76-1.43-3.98-2.84-7.97-4.29-11.94-.33-.89,0-1.05,.8-1.03,1.41,.04,2.82,.01,4.23,.01Z"/></svg>