<?xml version="1.0" encoding="UTF-8"?><svg id="NORTHLINE" xmlns="http://www.w3.org/2000/svg" viewBox="0 0 509.79 432.63"><path d="M161.3,138.68v155.24H2.58c-.12-1.72-.37-3.59-.38-5.45-.02-39.52-.06-79.04,0-118.56,.03-18.6,12.59-31.34,31.27-31.4,41.28-.13,82.55-.04,123.83-.03,1.08,0,2.17,.11,3.99,.2Zm-12.09,72.26v-60.56h-59.21c19.38,19.82,38.89,39.77,59.21,60.56Z"/><path d="M266.87,248.63v45.31h-13.96c-.18-1.48-.54-3.12-.55-4.76-.04-18.78,0-37.56-.04-56.34,0-4.14,.27-8.32,5.26-9.21,5.06-.91,9.95-1.85,13.45,4.44,7.93,14.25,16.66,28.05,26.57,41.91,0-4.82,0-9.65,0-14.47,0-8.52,.33-17.05-.12-25.55-.29-5.54,1.62-7.56,7.04-6.87,2.35,.3,4.77,.05,7.73,.05v71.14c-4.64,0-9.43,.43-14.08-.21-1.81-.25-3.71-2.66-4.85-4.52-8.42-13.71-16.65-27.53-24.94-41.32l-1.5,.41Z"/><path d="M218.22,187.95v-48.96h14.05v71.68c-4.36,0-8.74,.44-12.94-.2-1.87-.28-3.89-2.44-5.01-4.25-8.03-12.97-15.83-26.08-23.73-39.13-.85-1.4-1.84-2.71-3.84-5.64v48.84h-14.62v-6.18c0-18.11,.06-36.23-.04-54.34-.03-4.85,.23-9.76,5.84-11.02,5.68-1.28,10.56-.65,14.06,5.9,7.08,13.24,15.3,25.87,23.07,38.74,.63,1.05,1.4,2.02,3.16,4.55Z"/><path d="M366.85,176.16c11.68,9.02,5.74,22.58,9.01,33.84-.81,.25-1.43,.61-2.04,.61-15.7,.07-14.43,2.09-14.58-13.4-.12-12.33-2.21-14.26-14.7-14.26-3.94,0-7.89,0-12.56,0v27.19h-14.93c0-3.35,0-6.76,0-10.17,0-17.23-.02-34.47,.01-51.7,.02-7.53,2.24-9.77,9.66-9.81,8.99-.04,17.99-.03,26.98,0,11.11,.04,18.27,3.96,20.95,11.42,3.77,10.5,1.12,19.42-7.79,26.27Zm-35.01-6.33c7.43,0,14.19,.29,20.91-.1,4.98-.29,7.83-3.18,7.91-8.52,.08-5.2-1.47-9.37-7.18-9.74-7.1-.46-14.26-.11-21.65-.11v18.47Z"/><path d="M274.48,138.46c22.95,0,34.69,12.44,34.69,36.72,0,23.03-12.97,36.63-34.93,36.65-22.22,.02-35.03-13.59-35.03-37.21,0-23.92,11.94-36.16,35.27-36.16Zm20.44,36.44c-.61-3.63-.9-7.34-1.89-10.86-2.39-8.49-9.17-13.66-17.66-13.88-9.93-.26-16.08,3.59-19.31,12.36-3.05,8.26-3.04,16.6,.17,24.82,3.72,9.54,12.13,13.92,21.98,11.65,11.11-2.56,16.3-10.16,16.72-24.08Z"/><path d="M507.61,210.43h-14.77v-31.04h-30.23v30.93h-15.06v-27.47c0-10.47,0-20.94,0-31.41,0-12.03,1.58-13.47,14.86-12.63v26.55h30.07v-26.59h15.13v71.66Z"/><path d="M319.74,293.84c0-21.61-.02-42.76,.02-63.92,0-4.18,2.32-6.58,6.51-6.61,15.12-.09,30.24-.04,45.87-.04v11.93h-37.44v15.68h27.57c1.84,10.33,.29,12.33-9.02,12.54-5.7,.13-11.41,.16-17.11,.27-.39,0-.78,.34-1.53,.7v17.99h37.65v11.45h-52.53Z"/><path d="M440.79,138.46v12.89h-21.88v58.8h-14.64v-58.46h-21.25c-2.04-9.52,.65-13.19,9.19-13.21,15.98-.04,31.96-.01,48.58-.01Z"/><path d="M186.9,223.71v58.59h36.04v11.49h-50.81c0-14.43,0-28.76,0-43.09,0-5.02,0-10.04,0-15.05,0-11.29,2.32-13.31,14.77-11.94Z"/><path d="M244.36,223.77v70.08h-13.72c-.23-.27-.73-.58-.73-.9-.11-20.92-.39-41.85-.15-62.77,.08-6.6,3.56-7.9,14.6-6.41Z"/></svg>