<?xml version="1.0" encoding="UTF-8"?><svg id="QA" xmlns="http://www.w3.org/2000/svg" viewBox="0 0 509.79 482.33"><defs><style>.cls-1{fill:#bebebe;}.cls-2{fill:#353535;}</style></defs><path class="cls-1" d="M90.95,157.96c1.39,.35,2.82,.19,4.23,.32,7.14,.65,14.09,2.16,20.84,4.58,6.42,2.3,12.44,5.38,18.11,9.14,3.65,2.43,7.05,5.18,10.28,8.16,5.81,5.36,10.71,11.43,14.79,18.19,4.7,7.8,8.01,16.15,9.95,25.04,1.04,4.75,1.58,9.55,1.83,14.41,.18,3.56-.05,7.09-.25,10.63,0,.05-.06,.09-.1,.16-.34-.19-.41-.56-.55-.87-4.71-10.04-9.42-20.09-14.13-30.14-3.25-6.94-6.5-13.88-9.76-20.82-.77-1.63-1.55-3.26-2.29-4.91-.28-.62-.7-.88-1.38-.86-1.69,.03-3.38,.03-5.06,0-.61,0-.97,.23-1.25,.77-2.3,4.47-4.62,8.93-6.94,13.4-4.59,8.85-9.18,17.7-13.77,26.56-3.31,6.38-6.6,12.78-9.91,19.16-5.84,11.27-11.69,22.54-17.51,33.82-.36,.7-.57,.65-.99,.05-2.12-2.99-4.27-5.97-6.43-8.94-.28-.39-.25-.64,.04-1,4.56-5.57,7.8-11.84,9.71-18.78,1.8-6.52,2.21-13.14,1.48-19.87-.66-6.11-2.41-11.88-5.18-17.34-4.11-8.11-9.97-14.7-17.64-19.64-5.97-3.84-12.44-6.32-19.48-7.25-11-1.45-21.33,.55-30.92,6.16-.99,.58-1.97,1.19-3.02,1.82-.04-.34,.15-.57,.28-.8,2.92-4.85,6.22-9.42,10.01-13.64,5-5.56,10.65-10.35,16.93-14.39,7.5-4.83,15.59-8.34,24.24-10.55,5.41-1.38,10.89-2.26,16.47-2.45,.26,0,.52-.1,.77-.15h6.58Z"/><path class="cls-1" d="M4.59,239.82c.23-1.72,.38-3.46,.71-5.17,1.68-8.74,5.76-16.18,12.36-22.16,6.15-5.57,13.38-8.88,21.68-9.62,11.2-1,20.98,2.33,29.27,9.91,6.86,6.26,10.89,14.09,12.32,23.22,1.13,7.18,.33,14.23-2.29,21.02-1.13,2.93-2.65,5.68-4.45,8.27-.39,.56-.65,.65-1.1,.02-2.09-2.95-4.22-5.86-6.31-8.8-.44-.62-.92-.88-1.69-.87-4.17,.03-8.35,.01-12.53,.02-.31,0-.73-.15-.89,.2-.15,.33,.21,.58,.39,.83,4.14,5.73,8.28,11.47,12.44,17.18,.46,.64,.29,.92-.29,1.31-5.66,3.78-11.84,5.99-18.65,6.45-8.12,.55-15.65-1.31-22.52-5.63-7.82-4.92-13.18-11.85-16.25-20.56-1.12-3.17-1.78-6.43-2.06-9.78-.02-.23-.11-.46-.16-.68v-5.15Z"/><path class="cls-2" d="M17.76,285.9c2.34,1.28,4.68,2.54,7.17,3.49,16,6.09,31.14,4.38,45.42-5.03,1.19-.78,1.18-.81,2.02,.34,4.22,5.82,8.44,11.64,12.63,17.48,.43,.6,.88,.83,1.61,.81,1.95-.05,3.91-.05,5.86,0,.71,.02,1.05-.19,1.29-.87,3.97-11.25,9.86-21.41,17.68-30.42,11.09-12.79,24.66-21.99,40.62-27.67,.58-.2,.76-.03,.99,.45,4.05,8.61,8.12,17.22,12.19,25.82,.24,.5,.22,.92,.01,1.43-6.47,16.05-16.87,28.93-31.22,38.6-9.6,6.47-20.13,10.68-31.52,12.71-8.77,1.57-17.59,1.75-26.42,.44-20.64-3.05-37.74-12.55-51.45-28.21-2.55-2.92-4.85-6.04-6.87-9.38Z"/><path class="cls-1" d="M205.72,242.6c-.08-5.07,1.67-9.47,5.18-13.1,3.17-3.27,7.13-5,11.69-5.32,3.66-.25,7.2,.18,10.54,1.81,1.66,.81,3.15,1.87,4.5,3.13,.38,.36,.52,.69,.14,1.13-1.07,1.23-2.13,2.46-3.18,3.7-.38,.45-.65,.17-.95-.09-1.61-1.42-3.37-2.6-5.43-3.29-7.15-2.43-14.46,1.93-15.67,9.38-.75,4.62,.21,8.79,3.55,12.21,3.6,3.68,9.72,4.37,14.3,1.74,1.24-.71,2.36-1.58,3.41-2.54,.47-.43,.79-.47,1.25,.02,.93,.99,1.89,1.96,2.88,2.89,.54,.5,.43,.83-.04,1.3-3.38,3.32-7.33,5.28-12.12,5.61-4.87,.33-9.29-.76-13.16-3.76-3.75-2.91-5.85-6.82-6.67-11.46-.2-1.12-.2-2.24-.2-3.36Z"/><path class="cls-1" d="M419.36,257.65c-.48,.04-.63,.33-.83,.53-3.6,3.54-10.31,4.06-14.36,1.09-2.42-1.78-3.37-4.2-3.18-7.18,.19-2.96,1.49-5.2,4.04-6.66,1.72-.99,3.65-1.4,5.61-1.5,2.7-.14,5.39,0,7.99,.84,.7,.22,.9,.05,.81-.69-.43-3.38-2.12-5.01-5.54-5.32-2.77-.25-5.42,.23-7.98,1.27-.73,.3-1.06,.15-1.28-.61-.32-1.11-.71-2.19-1.1-3.28-.18-.5-.11-.82,.43-1.05,4.37-1.81,8.87-2.52,13.54-1.52,4.41,.94,6.94,3.64,7.75,8.07,.19,1.02,.29,2.04,.29,3.08-.01,4.91-.02,9.82,.01,14.73,0,.88-.23,1.22-1.15,1.18-1.3-.07-2.6-.01-3.91-.02-1.15,0-1.16-.02-1.17-1.22,0-.58,0-1.15,0-1.75Zm-6.87-1.14c.58,.07,1.25-.08,1.91-.2,3.32-.62,5.19-2.87,5.13-6.11-.01-.62-.2-.96-.82-1.16-1.88-.6-3.81-.87-5.77-.83-1.42,.03-2.83,.29-4.07,1.08-2.44,1.57-2.34,5.01,.18,6.45,1.04,.59,2.15,.81,3.43,.77Z"/><path class="cls-1" d="M271.33,247.16c.14,7.25-5.64,14.06-14.41,14.09-8.91,.02-14.38-6.89-14.43-13.88-.06-7.75,5.9-14.42,14.41-14.41,8.98,0,14.65,6.87,14.44,14.2Zm-6.21-.03c.02-.61-.05-1.4-.21-2.19-1.27-5.91-8.26-8.53-13.03-4.83-2.56,1.99-3.32,4.75-3.12,7.89,.33,5.27,5.3,8.91,10.41,7.58,3.57-.93,5.92-4.18,5.96-8.46Z"/><path class="cls-1" d="M352.85,256.72c-.87,1.12-1.8,2.17-3,2.96-5.9,3.9-13.65,.52-14.73-6.43-.13-.82-.19-1.64-.19-2.47,0-5.32,0-10.65,0-15.97,0-1.21,.02-1.22,1.26-1.22,1.3,0,2.61,.04,3.91-.01,.83-.03,1.07,.28,1.07,1.08-.02,4.97-.02,9.94,0,14.91,0,1.55,.4,3.02,1.44,4.19,2.9,3.25,8.65,2,9.98-2.15,.31-.96,.48-1.95,.48-2.96-.01-4.61,0-9.23,0-13.84,0-1.17,.03-1.2,1.18-1.21,1.27,0,2.55,0,3.82,0,1.17,0,1.21,.03,1.21,1.18,0,3.31,0,6.63,0,9.94,0,4.91-.02,9.82,.02,14.73,0,.87-.22,1.24-1.15,1.18-1.24-.07-2.49-.02-3.73-.02q-1.35,0-1.35-1.31c0-.82,0-1.65,0-2.47l-.21-.1Z"/><path class="cls-1" d="M283.93,237.63c1.15-1.41,2.18-2.54,3.51-3.36,6.11-3.74,13.99,.24,14.44,7.33,.39,6.06,.07,12.12,.17,18.18,0,.62-.27,.83-.86,.82-1.45-.02-2.9-.04-4.35,0-.78,.02-1.02-.27-1.02-1.03,.03-4.59,0-9.17,.01-13.76,0-.8-.06-1.59-.19-2.38-.7-4.38-4.49-5.51-7.62-4.5-2.54,.81-4.08,3.04-4.09,5.83-.03,4.85-.01,9.7-.02,14.55q0,1.28-1.28,1.28c-1.33,0-2.66-.02-4,0-.66,.01-.96-.2-.95-.91,.02-8.4,.01-16.8,0-25.2,0-.63,.2-.92,.87-.91,1.51,.03,3.02,.02,4.53,0,.62-.01,.85,.26,.84,.85-.02,.97,0,1.95,0,3.2Z"/><path class="cls-1" d="M439.31,237.49c1.09-1.51,2.37-2.81,4.09-3.58,4.94-2.22,12.29-.7,13.62,6.72,.14,.79,.2,1.58,.2,2.38,0,5.44,0,10.89,0,16.33,0,1.26,0,1.27-1.3,1.27-1.3,0-2.61-.03-3.91,.01-.7,.02-.9-.21-.89-.92,.03-4.29,.01-8.58,.02-12.87,0-1.25-.09-2.48-.33-3.7-.52-2.68-2.31-4.28-5.08-4.53-2.6-.24-5.11,1.29-6.02,3.65-.51,1.32-.61,2.71-.61,4.1-.03,4.35,0,8.7-.01,13.05,0,1.17-.04,1.2-1.19,1.2-1.33,0-2.67-.02-4,.01-.67,.02-.92-.16-.92-.89,.03-7.72,.02-15.44,.02-23.16,0-.68-.04-1.36-.08-2.04-.04-.62,.19-.95,.85-.94,1.51,.02,3.02,.01,4.53,0,.57,0,.8,.25,.79,.81-.01,1,0,2,0,3l.22,.09Z"/><path class="cls-1" d="M318.78,261.15c-3.99-.08-7.6-1.3-10.86-3.61-.48-.34-.51-.63-.18-1.09,.65-.92,1.27-1.86,1.86-2.81,.35-.57,.63-.68,1.24-.25,2.66,1.86,5.57,2.99,8.89,2.78,1.03-.07,1.99-.32,2.73-1.1,1.14-1.2,.99-2.83-.38-3.74-1.78-1.18-3.88-1.57-5.88-2.2-1.81-.58-3.54-1.26-5.09-2.43-3.22-2.42-3.11-7.78-.49-10.57,2.35-2.5,5.33-3.19,8.57-3.02,2.81,.15,5.46,.99,7.93,2.36,1.17,.65,1.18,.67,.56,1.8-.49,.88-1.01,1.74-1.47,2.63-.26,.5-.5,.61-1.03,.31-1.5-.85-3.06-1.57-4.76-1.92-1.58-.33-3.16-.53-4.68,.28-1.71,.91-1.86,2.8-.32,3.98,.84,.64,1.83,.96,2.8,1.32,2.11,.76,4.3,1.31,6.32,2.35,3.24,1.67,4.65,3.99,4.35,7.32-.3,3.3-2.47,5.96-5.64,6.93-1.45,.44-2.93,.71-4.46,.68Z"/><path class="cls-1" d="M495.08,261.14c-3.99-.07-7.6-1.28-10.86-3.59-.46-.33-.54-.61-.21-1.08,.61-.87,1.22-1.75,1.76-2.67,.41-.71,.73-.85,1.49-.33,2.61,1.82,5.48,2.9,8.73,2.69,1-.06,1.93-.29,2.67-1.02,1.24-1.23,1.09-2.89-.36-3.86-1.45-.97-3.15-1.35-4.79-1.84-1.56-.47-3.1-.98-4.57-1.7-5.41-2.65-5-9.65-.89-12.68,2.21-1.63,4.74-2.12,7.4-1.95,2.81,.18,5.46,.99,7.93,2.36,1.17,.65,1.19,.65,.58,1.79-.49,.91-1.04,1.79-1.52,2.71-.26,.49-.52,.52-.98,.25-1.47-.83-3.01-1.53-4.67-1.91-1.43-.32-2.86-.48-4.29,.01-1.05,.36-1.71,1.1-1.85,2.18-.14,1.04,.51,1.71,1.32,2.24,1.46,.95,3.15,1.34,4.78,1.88,1.58,.52,3.12,1.08,4.59,1.88,3.89,2.12,4.54,5.72,3.25,9.34-.86,2.41-2.72,3.88-5.15,4.64-1.42,.44-2.87,.72-4.37,.66Z"/><path class="cls-1" d="M121.75,246.16c.74-1.57,1.47-3.14,2.22-4.7,4.39-9.25,8.79-18.49,13.19-27.73,.18-.38,.25-1.04,.69-1.03,.46,0,.48,.67,.66,1.05,2.62,5.53,5.24,11.07,7.85,16.61,.25,.53,.45,1.1,.75,1.61,.47,.78,.21,1.12-.58,1.41-4.29,1.56-8.45,3.42-12.49,5.53-4.04,2.12-7.93,4.5-11.67,7.11-.14,.1-.29,.19-.43,.28l-.19-.13Z"/><path class="cls-1" d="M383.08,247.13c0-2.4-.02-4.79,.01-7.19,0-.76-.24-1.1-1.02-1.04-.59,.04-1.18,0-1.78,0-.52,0-.75-.24-.74-.76,.01-1.27,0-2.54,0-3.82,0-.52,.24-.76,.76-.75,.59,.01,1.19-.03,1.78,0,.72,.04,1.01-.27,1-.99-.02-1.8,.02-3.61-.02-5.41-.02-.82,.29-1.09,1.09-1.07,1.36,.05,2.72,.05,4.08,0,.84-.03,1.08,.31,1.06,1.09-.04,1.74-.02,3.49,0,5.23,0,1.09,.06,1.14,1.17,1.14,1.66,0,3.32,0,4.97,0,1.02,0,1.15,.16,1.07,1.13-.09,1-.09,2.01,0,3.01,.09,.96-.09,1.17-1.05,1.18-1.72,.01-3.43,.03-5.15,0-.78-.02-1.04,.28-1.03,1.04,.03,3.4,0,6.8,.02,10.2,0,.85-.13,1.69-.05,2.56,.2,2.23,1.83,3.03,3.91,2.84,.85-.08,1.7-.23,2.5-.59,.53-.24,.77-.08,.76,.51-.01,1.21-.01,2.43,0,3.64,0,.44-.2,.73-.59,.9-3.07,1.34-6.22,1.66-9.28,.21-2.39-1.13-3.37-3.33-3.44-5.9-.07-2.39-.02-4.79-.02-7.19h-.01Z"/><path class="cls-1" d="M466.08,247.05c0-2.37-.02-4.73,.01-7.1,.01-.76-.24-1.04-1.02-1.05-2.38-.01-2.37-.04-2.39-2.4,0-.71-.05-1.42-.1-2.12-.04-.51,.15-.79,.69-.78,.59,0,1.19-.03,1.78,0,.76,.05,1.06-.24,1.04-1.02-.04-1.8,.01-3.61-.02-5.41-.02-.76,.24-1.07,1.02-1.04,1.39,.04,2.78,.04,4.17,0,.76-.02,1.06,.23,1.04,1.02-.04,1.77,.02,3.55-.03,5.33-.02,.84,.24,1.16,1.11,1.14,1.72-.05,3.43,0,5.15-.03,.75-.02,1.09,.21,1.05,1.01-.05,1.09-.05,2.19,0,3.28,.04,.84-.31,1.07-1.1,1.05-1.69-.04-3.38,.02-5.06-.03-.82-.02-1.16,.22-1.15,1.1,.04,4.08,0,8.17,.02,12.25,.01,2.39,1.49,3.62,3.88,3.3,.85-.12,1.71-.22,2.5-.56,.59-.25,.74,0,.74,.54-.01,1.15-.01,2.31,0,3.46,0,.5-.18,.85-.65,1.05-3.01,1.34-6.11,1.56-9.13,.22-2.63-1.17-3.47-3.6-3.56-6.28-.07-2.31-.02-4.62-.02-6.92h0Z"/><path class="cls-1" d="M367.45,241.77c0-5.8,0-11.6,0-17.4,0-1.22,.01-1.23,1.25-1.23,1.24,0,2.49,0,3.73,0,1.18,0,1.23,.05,1.23,1.27,0,1.92,0,3.85,0,5.77v28.68c0,1.95,.11,1.74-1.79,1.75-1.07,0-2.13,0-3.2,0-1.2,0-1.22-.01-1.22-1.26,0-5.86,0-11.72,0-17.58Z"/></svg>