<?xml version="1.0" encoding="UTF-8"?><svg id="QNX" xmlns="http://www.w3.org/2000/svg" viewBox="0 0 509.79 482.33"><path d="M386.26,253.39c2.59,.79,4.71,1.44,7.11,2.17v5.07c-5.88,.9-10.79-1.38-15.77-3.4-10.71,2.15-21.37,2.6-31.8-1.47-7.62-2.97-11.54-8.72-10.84-15.92,.67-6.91,5.19-10.98,11.22-13.06,11.35-3.93,22.97-3.96,34.34-.07,8.98,3.07,13.09,10.48,10.9,18.64-.4,1.48-1.14,2.91-1.95,4.22-.72,1.16-1.76,2.12-3.22,3.83Zm-8.84-6.49c3-6.54,1.15-12.93-4.42-15.43-6.35-2.85-12.89-2.83-19.2,.08-6.76,3.12-8.01,13.15-2.46,18.07,4.1,3.64,13.58,4.56,19.63,1.5l-7.06-2.42v-5.29c4.98-.17,9.15,1.51,13.51,3.48Z"/><path d="M450.83,257.9h-12.52c-9.03-7.5-18.35-15.25-27.96-23.23v23.08h-11.41v-32.98h13.76c8.27,7.19,17.17,14.92,26.32,22.87v-22.91h11.84c.06,10.96,.08,21.94-.05,33.18Z"/><path d="M505.44,257.94h-13.44c-3.32-3.6-7.08-7.66-11.12-12.04l-13.01,12.06h-12.67c3.66-3.28,6.51-5.86,9.37-8.41,2.98-2.65,5.98-5.28,9.48-8.38-3.06-2.86-5.89-5.56-8.76-8.2-2.79-2.57-5.63-5.08-9.12-8.23h13.66c3.35,3.08,7.16,6.59,11.17,10.28,4.07-3.65,7.92-7.11,11.55-10.37h12.39c-6.06,5.52-11.54,10.51-17.45,15.89,6.27,5.61,12.28,11,18.29,16.39-.11,.33-.23,.66-.34,.99Z"/><path d="M187.06,224.27c5.59,.28,10.46,.34,15.29,.83,3.75,.38,6.72,2.35,7.43,6.28,.69,3.82-1.11,6.7-4.46,8.63-.41,.24-.74,.61-.96,.79,1.37,2.31,2.67,4.49,3.7,6.22-1.9,7.88-5.19,10.71-12.43,11.05-2.43,.11-4.91,.14-7.31-.21-3.94-.57-6.4-3.59-6.53-7.56-.02-.69-.06-1.41,.08-2.08,1.67-7.78,3.37-15.55,5.2-23.95Zm.68,27.39c3.55,0,6.17,.28,8.7-.07,3.74-.51,4.46-2.03,3.47-6.4-3.34-1.6-6.84-1.5-10.48-.65l-1.69,7.11Zm15.13-19.03c-3.37-2.65-6.86-1.95-10.66-1.35-.38,2.05-.73,3.96-1.09,5.88,8.57,1.21,10.69,.41,11.75-4.53Z"/><path d="M64.72,224.24c5.54,.34,10.72,.47,15.85,1.04,3.55,.39,6.26,2.32,6.76,6.17,.5,3.83-.91,6.8-4.48,8.59-.3,.15-.55,.4-.82,.61,.04,.32-.04,.74,.13,.95,5.4,6.39,2.9,14.28-5.42,16.03-3.51,.74-7.32,.58-10.92,.17-4.3-.5-7.18-4.3-6.4-8.64,1.46-8.14,3.42-16.19,5.3-24.91Zm12.99,20.36c-3.58-.2-7.02-.4-10.59-.6-.66,2.82-1.15,4.95-1.76,7.56,3.32,0,6.39,.33,9.35-.09,3.02-.43,3.49-1.72,3-6.87Zm-9.21-7.49c8,1.35,10.41,.57,12.19-4.01-2.91-3.57-6.79-2.02-10.6-2.07l-1.59,6.09Z"/><path d="M271.8,234.38c-.91,1.53-1.47,2.49-1.89,3.18-2.05,.73-3.83,1.36-6.22,2.22-1.44,5.87-2.91,11.86-4.44,18.07h-6c1.08-5.18,1.94-10.07,3.14-14.87,1.79-7.13,5.47-10.23,12.8-10.91,2.74-.25,5.52-.04,8.67-.04,.75,5.37,1.45,10.43,2.15,15.49l.89,.27c3.1-5.22,6.2-10.43,9.3-15.65h6.24c-3.06,6.66-6.98,12.29-10.32,18.2-3.33,5.88-6.88,11.65-10.46,17.68h-6.62c2.06-3.65,3.97-7.05,6.3-11.18-1.08-6.83-2.26-14.32-3.54-22.46Z"/><path d="M235.12,250.83c-3.25,6.97-10.78,9.87-17.44,6.86-7.23-3.27-7.76-11.32-5.6-17.01,2.67-6.99,10.72-10.41,17.63-7.79,6.03,2.28,8.69,8.08,6.31,14.82h-18.46c2.01,6.09,5.41,6.8,11.16,3.12h6.4Zm-4.5-8.68c-1.57-3.73-3.84-4.47-6.58-4.18-2.48,.26-4.33,1.41-5.13,4.18h11.71Z"/><path d="M104.01,239.94c3.28-7.08,12.54-10.15,18.9-6.46,2.31,1.34,3.64,3.29,3.36,5.99-.21,2.05-.76,4.07-1.08,6.12-.62,3.92-1.18,7.85-1.82,12.13-2.38,.81-4.81,.69-6.31-.34-3.62,.47-6.52,1.28-9.36,1.12-3.6-.21-6.29-3.11-6.73-6.25-.51-3.65,.73-6.19,4.6-7.82,2.68-1.13,5.65-1.59,8.52-2.24,2.13-.48,4.53-.29,5.84-2.6-3.41-2.8-4.44-2.76-9.99,.53-.7,0-1.74,.02-2.78,0-1.03-.03-2.06-.1-3.16-.16Zm3.28,10.28c1.31,3.12,3.61,2.99,5.85,2.47,3.09-.71,5.01-2.64,5.58-6.38-4.19,1-8.62-.09-11.43,3.91Z"/><path d="M168.32,224.75c-.67,3.03-1.23,5.54-1.78,8.06-.54,2.52-1.07,5.04-.81,8.18,3.43-2.92,6.87-5.84,10.43-8.87h8.39c-4.61,3.97-8.48,7.31-12.74,10.98,2.32,4.77,4.63,9.51,7.17,14.73h-6.83c-1.71-3.42-3.4-6.8-5.14-10.3-5.59,1.36-4.22,6.65-6.19,10.27h-5.98c2.42-11.17,4.77-22.05,7.15-33.06h6.34Z"/><path d="M154.41,242.05h-5.17c-1.95-1.38-4.01-2.83-5.78-4.09-4.64,.71-7.41,2.61-7.99,6.88-.48,3.51,.5,5.74,3.04,7.11,3.56,1.91,5.87-.47,8.3-2.43h6.26c-2.7,8.38-11.91,11.82-19.2,7.37-5.94-3.63-7.21-12.46-2.71-18.89,4.2-6,12.76-7.85,19.04-4.04,2.81,1.71,4.79,3.98,4.21,8.08Z"/><path d="M97.47,258.61c-7.61-.12-9.91-2.11-8.9-8.6,1.32-8.48,3.36-16.85,5.07-25.22h6.27c-1.92,9.18-3.77,18.05-5.65,27.07l4.88,2.43-1.67,4.33Z"/><path d="M256.9,232.81l-.93,4.5c-.43,.2-.87,.52-1.34,.61-4.95,.89-6.6,2.36-7.65,7.03-.93,4.18-1.78,8.38-2.73,12.92l-5.65,.27c0-1.35-.17-2.35,.03-3.28,.92-4.38,1.78-8.79,2.96-13.11,1.96-7.17,7.89-10.65,15.31-8.93Z"/><path d="M5.74,229.84c4.1,.17,8.49-1.64,11.18,2.85-1.58,5.44-2.87,5.93-12.91,4.99,.21-1.26,.38-2.53,.66-3.78,.29-1.32,.68-2.61,1.07-4.07Z"/><path d="M18.72,219.08c.25,4.61-.76,6.04-4.76,6.38-2.41,.2-4.85,.04-7.85,.04l1.72-7.89c3.88-.31,7.68-1.47,10.9,1.48Z"/><path d="M23.36,225.56l1.59-8.02c3.68-.37,7.23-1.07,10.98,1.29l.18,3.97c-3.67,4.14-7.99,2.33-12.75,2.76Z"/><path d="M33.97,231.91l-.27,3.82c-3.86,3.55-8.05,1.89-12.6,2.31,.57-3.04,1.01-5.37,1.49-7.95,3.75-.38,7.49-1.43,11.39,1.81Z"/><path d="M31.95,246.06c-2.18,5.19-4.71,6.06-13.26,4.68l1.47-7.47c4.37,.12,8.7-1.8,11.79,2.79Z"/><path d="M49.48,240.35c-.74,5.64-2.16,6.29-12.71,5.7l1.5-8.03c4.11,.36,8.31-1.77,11.21,2.33Z"/><path d="M39.1,232.59l1.7-7.59c3.63-.63,7.13-1.14,10.8,1.35l.23,4.19c-3.98,3.47-8.24,2.27-12.73,2.04Z"/><path d="M315.63,212.28v57.76h-.13v-57.76h.13Z"/></svg>