<?xml version="1.0" encoding="UTF-8"?><svg id="RTEMSOFT_RESDESIGNED" xmlns="http://www.w3.org/2000/svg" xmlns:xlink="http://www.w3.org/1999/xlink" viewBox="0 0 512 482.33"><defs><style>.cls-1{fill:url(#linear-gradient);}</style><linearGradient id="linear-gradient" x1="3.64" y1="241.16" x2="508.36" y2="241.16" gradientTransform="matrix(1, 0, 0, 1, 0, 0)" gradientUnits="userSpaceOnUse"><stop offset="0" stop-color="#65439b"/><stop offset=".16" stop-color="#8b4f9f"/><stop offset=".31" stop-color="#a959a2"/><stop offset=".39" stop-color="#b55da4"/><stop offset=".4" stop-color="#b65fa5"/><stop offset=".55" stop-color="#ca79b2"/><stop offset=".69" stop-color="#d78cbc"/><stop offset=".84" stop-color="#e098c2"/><stop offset="1" stop-color="#e39cc4"/></linearGradient></defs><path class="cls-1" d="M487.71,189.05c11.38,0,20.65-9.26,20.65-20.65s-9.26-20.65-20.65-20.65-20.65,9.26-20.65,20.65c0,3.29,.79,6.39,2.17,9.16l-41.17,36.79c-1.41-.58-2.96-.9-4.58-.9-3.27,0-6.24,1.31-8.41,3.42l-58.99-35.94c.45-1.66,.72-3.4,.72-5.21,0-10.92-8.88-19.8-19.8-19.8-4.52,0-8.67,1.54-12.01,4.09l-54-42.63c.67-1.85,1.06-3.84,1.06-5.93,0-9.6-7.81-17.42-17.42-17.42s-17.42,7.81-17.42,17.42c0,4.94,2.08,9.4,5.4,12.58l-27.07,57.22c-1.86-.44-3.8-.7-5.8-.7-7.66,0-14.51,3.44-19.14,8.84l-68.26-36.33c.49-1.89,.78-3.86,.78-5.9,0-12.98-10.56-23.54-23.54-23.54s-23.54,10.56-23.54,23.54,10.56,23.54,23.54,23.54c7,0,13.28-3.09,17.6-7.96l68.26,36.33c-.59,2.14-.94,4.39-.94,6.72,0,5.12,1.54,9.88,4.17,13.87l-36.47,37.66c-6.03-4.31-13.38-6.88-21.34-6.88-13.14,0-24.65,6.94-31.16,17.33l-55.84-24.18c.16-1.03,.27-2.08,.27-3.15,0-11.17-9.08-20.25-20.25-20.25s-20.25,9.08-20.25,20.25,9.08,20.25,20.25,20.25c6.16,0,11.68-2.78,15.4-7.14l56.06,24.28c-.8,3.01-1.27,6.16-1.27,9.41,0,10.17,4.15,19.38,10.84,26.05l-28.63,41.56s-1.58-.19-2.45-.19c-7.31,0-13.25,5.94-13.25,13.25s5.95,13.25,13.25,13.25,13.25-5.94,13.25-13.25c0-2.58-1.77-6.84-1.77-6.84l28.44-41.29c5.12,2.7,10.94,4.25,17.12,4.25,10.26,0,19.55-4.23,26.23-11.03l30.51,23.19s-1.22,4.84-1.22,7.49c0,12.88,10.48,23.37,23.37,23.37s23.37-10.48,23.37-23.37c0-.71-.04-1.41-.11-2.1l.47,2.19,77.69-16.72c5.47,8.23,14.81,13.67,25.43,13.67,7.24,0,13.87-2.53,19.1-6.74l33.59,29.07c-.94,2.19-1.47,4.6-1.47,7.14,0,9.98,8.12,18.1,18.1,18.1s18.1-8.12,18.1-18.1-8.12-18.1-18.1-18.1c-3.46,0-6.68,.99-9.43,2.68l-33.62-29.1c2.68-4.54,4.25-9.82,4.25-15.48,0-14.85-10.6-27.2-24.65-29.94v-85.54c2.98-.86,5.66-2.4,7.88-4.45l61.24,37.31c.98,5.66,5.9,9.97,11.83,9.99l46.75,67.28c-.91,1.69-1.43,3.62-1.43,5.67,0,6.6,5.37,11.98,11.98,11.98s11.98-5.37,11.98-11.98-5.37-11.98-11.98-11.98c-.51,0-1.01,.04-1.5,.1l-45.66-66.54c1.25-1.9,1.98-4.17,1.98-6.61,0-.98-.13-1.93-.35-2.84l41.33-36.93c3.22,2.09,7.06,3.31,11.17,3.31Zm-180.91,127.62l-75.81,16.31,.66,3.07c-3.15-9.18-11.85-15.8-22.09-15.8-6.31,0-12.03,2.52-16.23,6.6l-29.99-22.8c2.63-5.06,4.14-10.79,4.14-16.88,0-8.38-2.85-16.09-7.58-22.28l36.49-37.68c3.84,2.36,8.34,3.75,13.17,3.75,5.85,0,11.22-2.02,15.51-5.37l84.84,69.84c-2.43,4.38-3.82,9.41-3.82,14.77,0,2.22,.25,4.38,.7,6.47Zm24.53-36.5c-5.45,.95-10.41,3.34-14.46,6.78l-84.82-69.83c1.75-3.43,2.76-7.3,2.76-11.41,0-8-3.75-15.13-9.58-19.75l27.11-57.3c.69,.08,1.39,.14,2.11,.14,3.53,0,6.82-1.06,9.57-2.88l54.26,42.83c-.8,2.15-1.26,4.46-1.26,6.89,0,9.01,6.06,16.62,14.31,19.01v85.52Z"/></svg>