<?xml version="1.0" encoding="UTF-8"?><svg id="RTEMSOFT_RESDESIGNED" xmlns="http://www.w3.org/2000/svg" xmlns:xlink="http://www.w3.org/1999/xlink" viewBox="0 0 512 482.33"><defs><style>.cls-1{letter-spacing:0em;}.cls-2{fill:#282828;font-family:Aspira-Bold, Aspira;font-size:63.95px;}.cls-3{letter-spacing:-.03em;}.cls-4{fill:url(#linear-gradient);}</style><linearGradient id="linear-gradient" x1=".67" y1="238.99" x2="137.94" y2="238.99" gradientTransform="matrix(1, 0, 0, 1, 0, 0)" gradientUnits="userSpaceOnUse"><stop offset="0" stop-color="#65439b"/><stop offset=".16" stop-color="#8b4f9f"/><stop offset=".31" stop-color="#a959a2"/><stop offset=".39" stop-color="#b55da4"/><stop offset=".4" stop-color="#b65fa5"/><stop offset=".55" stop-color="#ca79b2"/><stop offset=".69" stop-color="#d78cbc"/><stop offset=".84" stop-color="#e098c2"/><stop offset="1" stop-color="#e39cc4"/></linearGradient></defs><path class="cls-4" d="M132.33,224.81c3.1,0,5.62-2.52,5.62-5.62s-2.52-5.62-5.62-5.62-5.62,2.52-5.62,5.62c0,.9,.22,1.74,.59,2.49l-11.2,10.01c-.38-.16-.8-.25-1.25-.25-.89,0-1.7,.36-2.29,.93l-16.05-9.78c.12-.45,.2-.93,.2-1.42,0-2.97-2.42-5.38-5.38-5.38-1.23,0-2.36,.42-3.27,1.11l-14.69-11.59c.18-.5,.29-1.05,.29-1.61,0-2.61-2.13-4.74-4.74-4.74s-4.74,2.13-4.74,4.74c0,1.34,.57,2.56,1.47,3.42l-7.36,15.56c-.51-.12-1.03-.19-1.58-.19-2.08,0-3.95,.94-5.21,2.4l-18.57-9.88c.13-.51,.21-1.05,.21-1.61,0-3.53-2.87-6.4-6.4-6.4s-6.4,2.87-6.4,6.4,2.87,6.4,6.4,6.4c1.9,0,3.61-.84,4.79-2.17l18.57,9.88c-.16,.58-.25,1.19-.25,1.83,0,1.39,.42,2.69,1.14,3.77l-9.92,10.24c-1.64-1.17-3.64-1.87-5.81-1.87-3.57,0-6.71,1.89-8.48,4.71l-15.19-6.58c.04-.28,.07-.56,.07-.86,0-3.04-2.47-5.51-5.51-5.51s-5.51,2.47-5.51,5.51,2.47,5.51,5.51,5.51c1.68,0,3.18-.76,4.19-1.94l15.25,6.6c-.22,.82-.34,1.67-.34,2.56,0,2.77,1.13,5.27,2.95,7.09l-7.79,11.3s-.43-.05-.67-.05c-1.99,0-3.6,1.62-3.6,3.6s1.62,3.6,3.6,3.6,3.6-1.62,3.6-3.6c0-.7-.48-1.86-.48-1.86l7.73-11.23c1.39,.74,2.97,1.16,4.66,1.16,2.79,0,5.32-1.15,7.13-3l8.3,6.31s-.33,1.32-.33,2.04c0,3.5,2.85,6.36,6.36,6.36s6.36-2.85,6.36-6.36c0-.19-.01-.38-.03-.57l.13,.6,21.13-4.55c1.49,2.24,4.03,3.72,6.92,3.72,1.97,0,3.77-.69,5.2-1.83l9.14,7.91c-.26,.6-.4,1.25-.4,1.94,0,2.71,2.21,4.92,4.92,4.92s4.92-2.21,4.92-4.92-2.21-4.92-4.92-4.92c-.94,0-1.82,.27-2.57,.73l-9.14-7.91c.73-1.24,1.16-2.67,1.16-4.21,0-4.04-2.88-7.4-6.7-8.14v-23.27c.81-.23,1.54-.65,2.14-1.21l16.66,10.15c.27,1.54,1.6,2.71,3.22,2.72l12.72,18.3c-.25,.46-.39,.99-.39,1.54,0,1.8,1.46,3.26,3.26,3.26s3.26-1.46,3.26-3.26-1.46-3.26-3.26-3.26c-.14,0-.27,.01-.41,.03l-12.42-18.1c.34-.52,.54-1.13,.54-1.8,0-.27-.04-.52-.1-.77l11.24-10.04c.88,.57,1.92,.9,3.04,.9Zm-49.21,34.71l-20.62,4.44,.18,.83c-.86-2.5-3.22-4.3-6.01-4.3-1.72,0-3.27,.69-4.42,1.79l-8.16-6.2c.71-1.38,1.13-2.94,1.13-4.59,0-2.28-.77-4.38-2.06-6.06l9.93-10.25c1.04,.64,2.27,1.02,3.58,1.02,1.59,0,3.05-.55,4.22-1.46l23.08,19c-.66,1.19-1.04,2.56-1.04,4.02,0,.6,.07,1.19,.19,1.76Zm6.67-9.93c-1.48,.26-2.83,.91-3.93,1.84l-23.07-18.99c.48-.93,.75-1.99,.75-3.1,0-2.18-1.02-4.11-2.6-5.37l7.37-15.59c.19,.02,.38,.04,.57,.04,.96,0,1.85-.29,2.6-.78l14.76,11.65c-.22,.58-.34,1.21-.34,1.87,0,2.45,1.65,4.52,3.89,5.17v23.26Z"/><text class="cls-2" transform="translate(161.42 264.8) scale(1.06 1)"><tspan class="cls-1" x="0" y="0">R</tspan><tspan x="39.77" y="0">TEMSOF</tspan><tspan class="cls-3" x="294.1" y="0">T</tspan></text></svg>