<svg id="SMARTCONE" xmlns="http://www.w3.org/2000/svg" viewBox="0 0 509.79 432.63"><defs><style>.cls-1{fill:#353535;}.cls-2{fill:#333;}.cls-3{fill:#323232;}.cls-4{fill:#6b6b6b;}.cls-5{fill:#414141;}.cls-6{fill:#313131;}.cls-7{fill:#2c2c2c;}.cls-8{fill:#2d2d2d;}.cls-9{fill:#2b2b2b;}.cls-10{fill:#d7d7d7;}.cls-11{fill:#fdfdfd;}.cls-12{fill:#424242;}.cls-13{fill:#a4a4a4;}.cls-14{fill:#f5f5f5;}</style></defs><path class="cls-1" d="M248.15,38.42a22.05,22.05,0,0,0,1.66,2.63A59.59,59.59,0,0,0,263.43,52.5a121.76,121.76,0,0,0,40.42,16,91,91,0,0,0,21.71,2,13,13,0,0,1,1.4,0,2.34,2.34,0,0,1,.58.22c0,.54.12,1.19.12,1.83q0,41.91,0,83.83a77.71,77.71,0,0,1-2.8,20c-.19.71-.3,1.43-.45,2.15a6.73,6.73,0,0,0-.32.73,74.71,74.71,0,0,1-6.5,15.06c-12.69,21.85-31.37,35.35-56.27,40-4.44.83-9,.91-13.55,1.34-4.39-.34-8.83-.37-13.16-1.08a79.31,79.31,0,0,1-49.46-28.41,80.28,80.28,0,0,1-14.61-27c-.75-3.18-1.6-6.35-2.22-9.55a77.29,77.29,0,0,1-1.32-15q0-41,0-82c0-.66.07-1.31.12-2.06a10.62,10.62,0,0,1,1.47-.14c15.58.63,30.4-2.82,44.78-8.5,9.37-3.7,18.27-8.32,26-14.82A96.17,96.17,0,0,0,246.6,40a5.87,5.87,0,0,0,.75-1.55Zm-.42,189.51a54.69,54.69,0,0,0,14.15-1.3,73.2,73.2,0,0,0,58.52-71c.12-25.36,0-50.72,0-76.08,0-.59-.06-1.17-.09-1.75-3.62-.31-7.1-.49-10.54-1a126.87,126.87,0,0,1-34-9.59c-10-4.37-19.36-9.73-27.33-17.31a2.79,2.79,0,0,0-.67-.33,11,11,0,0,0-1,.66c-2.38,1.94-4.66,4-7.14,5.83a108.5,108.5,0,0,1-27.37,14.13,118,118,0,0,1-33,7.21c-1.64.1-3.28.25-5,.38,0,.7-.08,1.23-.08,1.76,0,25.48,0,51,0,76.46a66.89,66.89,0,0,0,6.21,28.4q16.33,35,54.3,42.54A48.6,48.6,0,0,0,247.73,227.93Z"/><path class="cls-2" d="M114.28,298.58v56.66c-1.48.55-10,.65-12.34.11V312.46a2.73,2.73,0,0,0-1.22,2q-6.66,19.35-13.28,38.72a11.72,11.72,0,0,0-.38,1.14,1.63,1.63,0,0,1-1.88,1.38c-2.2-.05-4.42-.07-6.62,0a1.9,1.9,0,0,1-2.14-1.59c-1.64-5.1-3.35-10.17-5-15.25q-4-12.19-8-24.39a5.8,5.8,0,0,0-.9-1.79c-.24,3.51-.22,7-.22,10.49s0,7.23,0,10.84v21.19c-1.63.59-10.23.67-12.39.15V298.92c1.56-.42,15-.57,19-.2C73.13,310.92,77.49,323.24,82,336c.42-1.05.68-1.64.9-2.25q5.88-16.54,11.74-33.1c.74-2.08.74-2.08,3-2.08h16.66Z"/><path class="cls-3" d="M403.63,298.58h6.29c2.95,0,5.89.06,8.84,0a2.73,2.73,0,0,1,2.71,1.56c5.92,9.78,11.91,19.53,17.87,29.29q2.25,3.69,4.51,7.36a2.44,2.44,0,0,0,1.14,1V298.72h12.17c.42,1.51.58,53.64.15,56.8-.65.06-1.35.16-2.05.16-4.08,0-8.17-.06-12.25,0a3.07,3.07,0,0,1-3-1.74q-10.44-17.14-21-34.23c-.83-1.35-1.68-2.7-2.74-4.39a25.61,25.61,0,0,0-.29,5.87c-.05,1.93,0,3.87,0,5.81v28.19c-1.6.54-9.81.66-12.31.25C403.21,354.05,403.1,301,403.63,298.58Z"/><path class="cls-2" d="M397.29,327c-.1,7.55-2.07,14.42-7.06,20.23a27.43,27.43,0,0,1-14.91,8.91c-8.54,2-16.91,1.53-24.8-2.56-8.82-4.58-13.44-12.12-14.8-21.82a32.33,32.33,0,0,1,.58-12.36c2.94-11.93,10.67-19,22.57-21.52a34.38,34.38,0,0,1,21.25,2c9.62,4.2,15,11.7,16.66,22C397.05,323.5,397.13,325.24,397.29,327Zm-13.26.27c0-.47,0-.94,0-1.41s0-.8-.07-1.2c-.82-6.83-4.06-11.94-10.56-14.67a19.07,19.07,0,0,0-8.46-1.3,17,17,0,0,0-15.48,12,22.1,22.1,0,0,0-.36,11.69,16.61,16.61,0,0,0,8.22,11.12A18.64,18.64,0,0,0,368,345.57a16.58,16.58,0,0,0,10.51-4.43C382.51,337.39,384.11,332.63,384,327.24Z"/><path class="cls-2" d="M229.39,355.69H223.8c-2.34,0-4.69-.08-7,0a2.51,2.51,0,0,1-2.66-1.6c-2.55-5-5.16-10-7.76-15-.9-1.72-1.85-3.41-2.7-5.15a1.93,1.93,0,0,0-2-1.23c-1.51.06-3,0-4.77,0v22.36c-1.62.6-10.06.71-12.29.24-.37-1.46-.52-53.48-.13-56.67a14.77,14.77,0,0,1,1.67-.16c7.42,0,14.85-.09,22.28,0a25.28,25.28,0,0,1,11.61,2.7,14.11,14.11,0,0,1,7.49,9.89,20.12,20.12,0,0,1-.13,9.54,13.72,13.72,0,0,1-9.88,10.36l-1.8.58c4.63,8,9.52,15.65,14.05,23.52ZM196.9,322.13c3.93,0,7.59,0,11.26,0a9.33,9.33,0,0,0,2.72-.62,5.31,5.31,0,0,0,4-5c.2-2.71-.62-4.89-3.16-6.15a7.46,7.46,0,0,0-2.84-.88c-3.72-.2-7.45-.26-11.18-.34a2.12,2.12,0,0,0-.76.27Z"/><path class="cls-4" d="M247.74,235.69c4.52-.43,9.11-.51,13.55-1.34,24.9-4.63,43.58-18.13,56.27-40a74.71,74.71,0,0,0,6.5-15.06,6.73,6.73,0,0,1,.32-.73l11.9,12.1a18.32,18.32,0,0,0-1.72,1.36q-42.53,42.47-85,85c-.56.55-1.21,1-1.81,1.5q0-14.92,0-29.87c0-.47-.06-.93-.07-1.4-.09-3.47-.18-6.93-.23-10.4A4.09,4.09,0,0,1,247.74,235.69Z"/><path class="cls-5" d="M247.74,235.69a4.09,4.09,0,0,0-.33,1.14c.05,3.47.14,6.93.23,10.4,0,.47.07.93.07,1.4q0,14.94,0,29.87a16.26,16.26,0,0,1-1.53-1.21L160.64,191.8c-.43-.43-.83-.87-1.21-1.27,0-.2,0-.36.11-.44l11-10.86a80.28,80.28,0,0,0,14.61,27,79.31,79.31,0,0,0,49.46,28.41C238.91,235.32,243.35,235.35,247.74,235.69Z"/><path class="cls-2" d="M469.32,298.66h38.24c.33,3.76.15,7.45.11,11.44-8.71.06-17.24,0-25.71,0-.5,1.59-.61,8-.2,10.73.73,0,1.5.12,2.28.12h22.19v11.37H481.7c-.32,4-.14,7.78-.11,11.77,4.63.31,9.15.1,13.67.14s9.09,0,13.92,0c.16,3.8.05,7.43.07,11-1.71.47-37.5.58-39.86.19C468.92,354,468.81,301,469.32,298.66Z"/><path class="cls-2" d="M154.5,298.59c8.24,18.94,16.44,37.79,24.76,56.93-1,.07-1.61.16-2.24.16h-9.64c-2.25,0-2.25,0-3.07-2-1.18-2.91-2.4-5.81-3.53-8.74a1.81,1.81,0,0,0-1.93-1.34q-9.73,0-19.47,0a1.79,1.79,0,0,0-1.91,1.35c-1.18,3.13-2.45,6.22-3.68,9.33-.27.69-.49,1.4-1.45,1.4H119.58c.3-.89.48-1.56.75-2.18q6.56-15.19,13.13-30.37,4.77-11,9.53-22.09a7.4,7.4,0,0,1,.77-1.63,1.91,1.91,0,0,1,1.23-.78C148.12,298.56,151.26,298.59,154.5,298.59ZM155.56,333c-.16-1.89-5.83-16.11-6.78-17.11-2,3.95-6.39,15.72-6.36,17.11Z"/><path class="cls-3" d="M41,303.09c-2.86,3.13-5.6,6.13-8.43,9.21-.52-.42-.91-.76-1.34-1.05-4.18-2.85-8.61-3.46-13.3-1.36a5.91,5.91,0,0,0-1.33.88,4.83,4.83,0,0,0,.23,7.78,18.46,18.46,0,0,0,4.29,2.13c2.39.87,4.87,1.48,7.26,2.33a36.43,36.43,0,0,1,5.34,2.27c5.79,3.16,7.91,8.28,7.39,14.63-.83,10.32-8,15-15,16.51A30,30,0,0,1,7,354.77a44.29,44.29,0,0,1-5.94-3.68A7.74,7.74,0,0,1,0,349.91l8.73-9.52c.7.65,1.17,1.11,1.66,1.55a13.56,13.56,0,0,0,13.25,3.12,10,10,0,0,0,2.7-1.29,5.05,5.05,0,0,0,0-8.34,28.76,28.76,0,0,0-4.64-2.33c-2.37-.91-4.82-1.61-7.23-2.41a23.69,23.69,0,0,1-8-4.16,12.8,12.8,0,0,1-4.73-9.38C1.06,306.49,8.06,300.49,15,298.41a30,30,0,0,1,20.43,1A17.55,17.55,0,0,1,41,303.09Z"/><path class="cls-2" d="M330.88,305.6l-9.26,7.55a3.16,3.16,0,0,1-.79-.46c-4.94-5.62-16.79-5.92-23,2.25-5.72,7.5-5,19.59,1.55,26.24,5.75,5.85,16.48,6.24,21.89-.71.2-.26.44-.48.8-.87l10.31,7.68c-.7.9-1.24,1.72-1.9,2.43a22.88,22.88,0,0,1-12.69,6.81,31.8,31.8,0,0,1-25.08-4.95c-7.1-4.89-10.65-12-11.59-20.44a33.21,33.21,0,0,1,1-13.12c3.29-11.23,10.94-17.76,22.22-20.17a30.69,30.69,0,0,1,18.89,1.61A17.1,17.1,0,0,1,330.88,305.6Z"/><path class="cls-6" d="M249.43,309.69H233.34V298.93c1.55-.43,40.91-.61,44.57-.22.51,1.33.65,8,.19,10.89-5.19.35-10.45,0-15.85.23-.06,1-.14,1.87-.14,2.72q0,20.18,0,40.35c0,.85-.08,1.7-.13,2.66h-12.4c0-.89-.13-1.73-.13-2.57q0-20.17,0-40.35Z"/><path class="cls-7" d="M166.49,377.21c-.1,2.69,0,5.39-.05,8.09s.11,5.45-.11,8.26h-2.85V372.62c.79-.07,1.31-.1,1.82-.17a2.9,2.9,0,0,1,3.12,1.58c2.9,4.49,5.92,8.91,8.9,13.35a7.81,7.81,0,0,0,1.45,1.69,25.91,25.91,0,0,0,.28-5.33c0-1.88,0-3.75,0-5.62v-5.51h2.5c.42,1.6.46,18.88,0,20.9l-1.3.17a2.92,2.92,0,0,1-3.13-1.58c-3-4.53-6-9-9.09-13.47-.35-.53-.76-1-1.14-1.53Z"/><path class="cls-7" d="M475.24,375l-1.79,1.7c-.72-.4-1.27-.76-1.86-1-3-1.37-6-1.51-8.76.43s-3.8,4.95-3.3,8.3a7.73,7.73,0,0,0,5.64,6.64,11.08,11.08,0,0,0,6.52-.22c.61-.19,1.09-.52,1.1-1.25v-4.93l-4.43-.25v-2.5a46.47,46.47,0,0,1,7.27,0c.06,1,.14,1.85.15,2.7,0,2.07,0,4.14,0,6.21a1.75,1.75,0,0,1-1.1,1.92c-4.06,1.57-8.15,2.2-12.26.28-4.73-2.22-7-7.32-5.75-12.81A10.49,10.49,0,0,1,467,372c2.58-.06,5.08.17,7.25,1.76a5.15,5.15,0,0,1,.61.53A4.93,4.93,0,0,1,475.24,375Z"/><path class="cls-8" d="M219.74,374.86l-2.06,2a8.69,8.69,0,0,0-6.62-2.09,7.09,7.09,0,0,0-5,2.32c-2.53,2.75-2.82,6-1.58,9.36a7.61,7.61,0,0,0,7.55,4.94,25.37,25.37,0,0,0,3.77-.46,1.54,1.54,0,0,0,1.44-1.8c-.06-1.4,0-2.8,0-4.42l-4.58-.29v-2.48a55.43,55.43,0,0,1,7.41,0v7.41c0,3.34,0,3.35-3.18,4.21a14.67,14.67,0,0,1-9.46-.18A11,11,0,0,1,200.9,381a10.47,10.47,0,0,1,10.25-9,23.92,23.92,0,0,1,4.77.43A6.62,6.62,0,0,1,219.74,374.86Z"/><path class="cls-8" d="M103.29,393.56v-20.9c.57-.07,1.08-.19,1.59-.2,2.14,0,4.28,0,6.42,0,5.54.11,9.51,3.55,10.26,8.85a10.33,10.33,0,0,1-7.45,11.76,8.12,8.12,0,0,1-2.15.47C109.16,393.59,106.36,393.56,103.29,393.56Zm3-18.21c-.48,2.32-.39,14,.12,15.52,1.56,0,3.17.1,4.75,0a8.4,8.4,0,0,0,4.62-1.75c2.72-2.17,3.39-5,2.57-8.27a6.82,6.82,0,0,0-5.78-5.41A39.71,39.71,0,0,0,106.28,375.35Z"/><path class="cls-8" d="M420.55,393.38V372.45c1.16,0,2.21,0,3.25,0a49.18,49.18,0,0,1,6.2.16c5.37.77,8.62,4.53,8.89,10a10.43,10.43,0,0,1-7.65,10.5A31.93,31.93,0,0,1,420.55,393.38Zm2.78-2.6c2.77.24,5.29.37,7.71-.63a7,7,0,0,0,4.72-6.17c.26-3.22-.69-6-3.62-7.71-2-1.17-6.39-1.49-8.81-.64Z"/><path class="cls-9" d="M297.78,393.45a8.93,8.93,0,0,1-1.16.22c-.46,0-.92-.06-1.35-.09-.5-1.43-.65-18.1-.18-20.95h2.71v8.59c3.71.12,7.16.07,10.83,0,.38-2.89,0-5.76.27-8.67h2.59v20.95l-2.57.15c-.3-3.15,0-6.21-.21-9.45-3.57-.34-7.06-.13-10.83-.15C297.85,387.35,297.82,390.38,297.78,393.45Z"/><path class="cls-9" d="M496,372.59h13.14a3.52,3.52,0,0,1,.2.83c0,.46,0,.92-.08,1.5-1.71.54-3.45.21-5.15.27s-3.46,0-5.13,0a12.28,12.28,0,0,0-.16,6.1h9.7c.07,1,.13,1.73.2,2.76h-10v6.81h11.15v2.67H496C495.55,391.9,495.5,374.68,496,372.59Z"/><path class="cls-7" d="M48.36,375.17H37.86v6c3.18.49,6.45-.08,9.68.34a7,7,0,0,1,.2,1.08A11.91,11.91,0,0,1,47.6,384H37.88v6.78H49l.11,2.47c-1.56.47-11.51.57-13.87.19-.44-1.39-.57-18.21-.1-21,4.31-.1,8.68,0,13.22,0Z"/><path class="cls-7" d="M334.69,375.29v6h9.77v2.78h-9.75v6.79h11.16v2.63h-14V372.86c1.38-.5,11.05-.61,13.39-.12v2.35C341.82,375.37,338.36,375.05,334.69,375.29Z"/><path class="cls-7" d="M388,372.56h13.35v2.61h-10.5v6c3.2.5,6.48-.08,9.72.34a8.43,8.43,0,0,1,.18,1.09c0,.39-.08.79-.14,1.42h-9.74v6.79h11c.05,1,.08,1.73.11,2.45-1.69.51-12,.55-14,.06Z"/><path class="cls-7" d="M65.34,393.48c.28-.76.46-1.32.7-1.85q3.78-8.61,7.59-17.23c.91-2.06.91-2.06,3.52-1.79l8.9,20.82-1.8.25a1.62,1.62,0,0,1-2-1.26c-.29-.88-.72-1.72-1-2.6a1.77,1.77,0,0,0-1.93-1.36q-3.7.09-7.41,0a1.72,1.72,0,0,0-1.9,1.38c-.22.7-.53,1.36-.81,2-.75,1.85-.8,1.88-2.81,1.79A9.88,9.88,0,0,1,65.34,393.48Zm14.26-7.55c-1.32-3.34-2.47-6.33-3.82-9.45-1.56,2.44-3.71,8-3.69,9.45Z"/><path class="cls-8" d="M277,372.59v2.32c-2.06.68-4.23,0-6.59.52,0,1.92-.06,3.9-.07,5.88s0,4,0,6v6.17h-2.75c-.21-2.95-.07-5.94-.09-8.92s0-6,0-9.05c-2.23-.7-4.41,0-6.64-.52v-2.42Z"/><path class="cls-7" d="M17,390.89v2.65H5c-.49-1.44-.65-17.91-.2-20.91H7.33c0,.67.12,1.38.12,2.08,0,4.6,0,9.21,0,13.81,0,.72.07,1.43.12,2.37Z"/><path class="cls-8" d="M143.18,372.59v21h-2.54v-21Z"/><path class="cls-10" d="M247.73,227.93a48.6,48.6,0,0,1-13-.93q-37.9-7.51-54.3-42.54a66.89,66.89,0,0,1-6.21-28.4c-.06-25.49,0-51,0-76.46,0-.53.05-1.06.08-1.76,1.69-.13,3.33-.28,5-.38a118,118,0,0,0,33-7.21,108.5,108.5,0,0,0,27.37-14.13c2.48-1.8,4.76-3.89,7.14-5.83a11,11,0,0,1,1-.66q0,4.82.05,9.63l-.31.82c-.54,1-1.1,2-1.62,3l-58.62,112.5a3,3,0,0,0-.3,3.13c8.06,16.44,20.38,28.29,37.49,35a59.18,59.18,0,0,0,23.32,4.16l0,.16Q247.75,222.95,247.73,227.93Zm-65.31-64.65c.73-1.27,1.3-2.22,1.83-3.2q5.1-9.56,10.17-19.13,11-20.64,21.92-41.28c2.54-4.79,5.13-9.54,7.69-14.32s5-9.33,7.42-14a13.69,13.69,0,0,0,.56-1.69,134.29,134.29,0,0,1-50.36,15c-.06.92-.15,1.7-.15,2.48q0,34.13,0,68.23c0,2.13.24,4.26.41,6.39A9,9,0,0,0,182.42,163.28Z"/><path class="cls-11" d="M247.73,227.93q0-5,.05-10c.46,0,.93-.1,1.39-.11a60.22,60.22,0,0,0,15.23-2.22c20.69-5.92,35.2-19,44.31-38.3a3.14,3.14,0,0,0-.19-3.16q-29.82-56.64-59.6-113.33a15.38,15.38,0,0,0-1.12-1.6q0-4.82-.05-9.63a2.79,2.79,0,0,1,.67.33c8,7.58,17.34,12.94,27.33,17.31a126.87,126.87,0,0,0,34,9.59c3.44.46,6.92.64,10.54,1,0,.58.09,1.16.09,1.75,0,25.36.1,50.72,0,76.08a73.2,73.2,0,0,1-58.52,71A54.69,54.69,0,0,1,247.73,227.93Zm64.52-67.32.4-.1c.19-2.43.54-4.85.55-7.28q.06-32.5,0-65a15.39,15.39,0,0,0-.07-1.8,2,2,0,0,0-1.85-2c-1.52-.18-3-.4-4.56-.59a118.63,118.63,0,0,1-20.3-4.62,117.21,117.21,0,0,1-20.76-8.52c-.6-.33-1.26-.56-1.9-.84l-.3.32a10.68,10.68,0,0,0,.5,1.41q5.88,10.83,11.78,21.65,5.36,9.87,10.68,19.75,5.49,10.14,11,20.29c4.14,7.71,8.25,15.44,12.4,23.15C310.57,157.84,311.43,159.21,312.25,160.61Z"/><path class="cls-4" d="M247.8,59.26a15.38,15.38,0,0,1,1.12,1.6q29.81,56.67,59.6,113.33a3.14,3.14,0,0,1,.19,3.16c-9.11,19.31-23.62,32.38-44.31,38.3a60.22,60.22,0,0,1-15.23,2.22c-.46,0-.93.07-1.39.11l0-.16q0-77.79,0-155.58a15.94,15.94,0,0,0-.27-2.16Z"/><path class="cls-12" d="M247.49,60.08a15.94,15.94,0,0,1,.27,2.16q0,77.79,0,155.58a59.18,59.18,0,0,1-23.32-4.16C207.33,207,195,195.14,187,178.7a3,3,0,0,1,.3-3.13l58.62-112.5C246.39,62.07,247,61.08,247.49,60.08Z"/><path class="cls-13" d="M182.42,163.28a9,9,0,0,1-.49-1.5c-.17-2.13-.41-4.26-.41-6.39q0-34.11,0-68.23c0-.78.09-1.56.15-2.48a134.29,134.29,0,0,0,50.36-15,13.69,13.69,0,0,1-.56,1.69q-3.69,7-7.42,14c-2.56,4.78-5.15,9.53-7.69,14.32q-11,20.63-21.92,41.28-5.08,9.57-10.17,19.13C183.72,161.06,183.15,162,182.42,163.28Z"/><path class="cls-14" d="M312.25,160.61c-.82-1.4-1.68-2.77-2.45-4.2-4.15-7.71-8.26-15.44-12.4-23.15q-5.46-10.16-11-20.29-5.32-9.87-10.68-19.75Q269.88,82.39,264,71.57a10.68,10.68,0,0,1-.5-1.41l.3-.32c.64.28,1.3.51,1.9.84a117.21,117.21,0,0,0,20.76,8.52,118.63,118.63,0,0,0,20.3,4.62c1.52.19,3,.41,4.56.59a2,2,0,0,1,1.85,2,15.39,15.39,0,0,1,.07,1.8q0,32.5,0,65c0,2.43-.36,4.85-.55,7.28Z"/></svg>