<?xml version="1.0" encoding="UTF-8"?><svg id="SMARTCONE" xmlns="http://www.w3.org/2000/svg" viewBox="0 0 512 379.56"><defs><style>.cls-1{fill:#f5f5f5;}.cls-2{fill:#323232;}.cls-3{fill:#a4a4a4;}.cls-4{fill:#6b6b6b;}.cls-5{fill:#d7d7d7;}.cls-6{fill:#313131;}.cls-7{fill:#333;}.cls-8{fill:#424242;}.cls-9{fill:#414141;}.cls-10{fill:#2b2b2b;}.cls-11{fill:#fdfdfd;}.cls-12{fill:#2c2c2c;}.cls-13{fill:#353535;}.cls-14{fill:#2d2d2d;}</style></defs><g><path class="cls-7" d="M210.89,155.78v42.81c-1.12,.42-7.56,.49-9.32,.08v-32.4c-.76,.44-.76,1.04-.92,1.51-3.35,9.75-6.69,19.5-10.03,29.25-.1,.29-.22,.57-.29,.86-.18,.75-.62,1.06-1.41,1.04-1.67-.04-3.34-.05-5.01,0-.93,.03-1.34-.34-1.62-1.2-1.23-3.85-2.53-7.68-3.79-11.52-2.03-6.14-4.05-12.29-6.07-18.43-.15-.46-.34-.91-.68-1.35-.18,2.66-.17,5.29-.17,7.93,0,2.73,0,5.46,0,8.19v8.04c0,2.67,0,5.35,0,7.97-1.23,.44-7.73,.51-9.35,.11v-42.64c1.17-.32,11.32-.43,14.33-.15,3.26,9.21,6.55,18.52,9.96,28.17,.32-.79,.52-1.24,.68-1.7,2.96-8.33,5.91-16.67,8.87-25q.56-1.57,2.24-1.57c3.64,0,7.28,0,10.92,0h1.67Z"/><path class="cls-2" d="M429.48,155.78c1.63,0,3.19,0,4.75,0,2.22,0,4.45,.05,6.67-.02,1-.03,1.54,.35,2.05,1.18,4.48,7.39,9,14.76,13.51,22.13,1.13,1.85,2.26,3.71,3.4,5.56,.18,.29,.4,.55,.86,.78v-29.52h9.19c.32,1.13,.44,40.52,.11,42.91-.49,.04-1.02,.12-1.55,.12-3.08,.01-6.17-.04-9.25,.03-1.11,.03-1.73-.4-2.28-1.32-5.25-8.63-10.55-17.24-15.83-25.86-.63-1.02-1.27-2.04-2.07-3.32-.39,1.67-.18,3.06-.22,4.43-.04,1.46,0,2.93,0,4.4v21.29c-1.21,.41-7.42,.5-9.3,.19-.36-1.08-.43-41.16-.04-42.99Z"/><path class="cls-7" d="M424.69,177.23c-.07,5.7-1.57,10.89-5.33,15.29-3,3.5-6.82,5.67-11.26,6.73-6.46,1.53-12.78,1.16-18.74-1.93-6.67-3.46-10.16-9.16-11.19-16.49-.44-3.14-.32-6.27,.44-9.33,2.22-9.02,8.06-14.37,17.05-16.26,5.46-1.15,10.89-.78,16.05,1.48,7.27,3.17,11.35,8.84,12.59,16.61,.21,1.29,.26,2.61,.39,3.91Zm-10.02,.2c0-.35,0-.71,0-1.06,0-.3-.01-.61-.05-.91-.62-5.16-3.07-9.02-7.98-11.08-2.04-.86-4.19-1.09-6.39-.98-5.48,.28-10.11,3.86-11.69,9.06-.89,2.92-.98,5.88-.27,8.83,.87,3.66,2.88,6.53,6.21,8.4,2.51,1.41,5.23,1.78,8.06,1.59,3.03-.2,5.71-1.26,7.94-3.34,3.04-2.84,4.24-6.43,4.18-10.5Z"/><path class="cls-2" d="M297.85,198.92c-1.41,0-2.82,0-4.23,0-1.77,0-3.54-.06-5.31,.02-1.01,.05-1.56-.33-2.01-1.21-1.92-3.78-3.9-7.54-5.86-11.3-.68-1.3-1.4-2.58-2.04-3.89-.33-.69-.79-.96-1.55-.93-1.14,.05-2.29,.03-3.61,.03v16.89c-1.22,.45-7.6,.54-9.28,.18-.28-1.11-.39-40.4-.1-42.82,.4-.04,.83-.12,1.26-.12,5.61,0,11.22-.06,16.83,.03,3.04,.05,6.02,.59,8.78,2.04,3.06,1.61,4.91,4.14,5.65,7.48,.53,2.4,.53,4.81-.1,7.2-1.05,3.98-3.48,6.65-7.46,7.83-.38,.11-.76,.24-1.36,.43,3.49,6.03,7.19,11.82,10.61,17.77-.08,.12-.16,.24-.24,.36Zm-24.55-25.35c2.97,0,5.74,.03,8.51-.02,.69-.01,1.39-.24,2.06-.46,1.79-.61,2.85-1.81,2.99-3.76,.15-2.05-.47-3.7-2.38-4.65-.67-.33-1.42-.63-2.15-.67-2.81-.15-5.63-.19-8.45-.26-.18,0-.36,.13-.57,.2v9.61Z"/><path class="cls-7" d="M479.1,155.84h28.89c.25,2.84,.11,5.63,.08,8.64-6.57,.05-13.02,0-19.42,.03-.38,1.2-.46,6.08-.15,8.11,.55,.03,1.13,.09,1.72,.09,5.01,0,10.01,0,15.02,0,.54,0,1.09,0,1.75,0v8.59h-18.53c-.24,3.02-.11,5.87-.08,8.89,3.5,.23,6.92,.08,10.33,.11,3.43,.03,6.86,0,10.51,0,.12,2.88,.04,5.62,.05,8.31-1.29,.36-28.32,.44-30.11,.14-.36-1.09-.44-41.13-.05-42.92Z"/><path class="cls-7" d="M241.27,155.79c6.22,14.31,12.42,28.55,18.71,43.01-.74,.05-1.22,.12-1.7,.12-2.43,.01-4.85,0-7.28,0q-1.7,0-2.32-1.52c-.9-2.2-1.82-4.39-2.67-6.6-.28-.72-.68-1.02-1.46-1.01-4.9,.02-9.8,.02-14.7,0-.78,0-1.17,.3-1.45,1.02-.89,2.36-1.85,4.7-2.78,7.05-.21,.52-.37,1.06-1.1,1.06-3.13,0-6.25,0-9.64,0,.23-.67,.36-1.17,.57-1.65,3.3-7.65,6.61-15.29,9.92-22.94,2.4-5.56,4.8-11.13,7.2-16.69,.18-.42,.31-.88,.58-1.23,.22-.28,.61-.58,.93-.59,2.37-.05,4.74-.03,7.19-.03Zm.8,25.97c-.12-1.43-4.4-12.17-5.12-12.93-1.51,2.98-4.83,11.87-4.81,12.93h9.93Z"/><path class="cls-2" d="M155.53,159.19c-2.17,2.37-4.24,4.63-6.37,6.95-.4-.31-.69-.58-1.01-.79-3.16-2.15-6.51-2.61-10.05-1.02-.36,.16-.7,.41-1.01,.67-1.91,1.62-1.87,4.43,.18,5.87,.98,.69,2.11,1.2,3.24,1.61,1.8,.66,3.67,1.12,5.48,1.76,1.38,.49,2.76,1.02,4.03,1.71,4.38,2.39,5.98,6.26,5.59,11.05-.63,7.8-6.02,11.31-11.34,12.48-4.93,1.08-9.77,.82-14.4-1.24-1.6-.71-3.01-1.83-4.49-2.79-.28-.18-.47-.49-.83-.89,2.21-2.41,4.37-4.77,6.59-7.2,.53,.49,.89,.84,1.26,1.17,2.91,2.6,6.27,3.36,10.01,2.36,.72-.19,1.41-.57,2.04-.98,2.27-1.46,2.18-4.99,.02-6.3-1.12-.68-2.29-1.29-3.51-1.76-1.79-.69-3.64-1.21-5.46-1.82-2.17-.72-4.24-1.65-6.01-3.14-2.2-1.85-3.37-4.18-3.57-7.09-.56-8.06,4.73-12.59,9.95-14.16,5.24-1.57,10.38-1.29,15.43,.75,1.5,.61,2.86,1.48,4.23,2.78Z"/><path class="cls-7" d="M374.51,161.09c-2.32,1.89-4.65,3.79-6.99,5.7-.26-.15-.48-.2-.6-.34-3.73-4.25-12.68-4.48-17.39,1.69-4.32,5.67-3.77,14.8,1.17,19.83,4.34,4.42,12.45,4.71,16.54-.54,.15-.19,.33-.36,.6-.66,2.57,1.91,5.1,3.8,7.78,5.81-.53,.68-.93,1.3-1.43,1.83-2.61,2.8-5.89,4.41-9.59,5.14-6.81,1.34-13.21,.21-18.94-3.74-5.37-3.7-8.05-9.06-8.76-15.45-.37-3.34-.22-6.67,.73-9.91,2.49-8.48,8.27-13.42,16.79-15.24,4.85-1.03,9.65-.78,14.27,1.21,2.5,1.08,4.64,2.77,5.81,4.65Z"/><path class="cls-6" d="M312.98,164.17h-12.15v-8.13c1.17-.32,30.9-.45,33.67-.17,.38,1.01,.49,6.06,.14,8.23-3.92,.27-7.9-.03-11.98,.17-.04,.78-.1,1.42-.1,2.06,0,10.16,0,20.32,0,30.48,0,.64-.06,1.28-.09,2.01h-9.37c-.04-.68-.1-1.31-.1-1.95,0-10.16,0-20.32,0-30.48v-2.23Z"/><path class="cls-12" d="M250.32,215.18c-.07,2.03,0,4.07-.04,6.11-.03,2.05,.08,4.12-.08,6.24h-2.16c0-5.31,0-10.53,0-15.82,.59-.05,.99-.07,1.37-.13,1.07-.16,1.75,.26,2.35,1.19,2.19,3.4,4.47,6.73,6.73,10.09,.3,.45,.63,.87,1.09,1.27,.29-1.36,.2-2.7,.21-4.03,.02-1.41,0-2.83,0-4.24v-4.16h1.89c.32,1.21,.35,14.27,.03,15.79-.31,.04-.65,.08-.98,.13-1.07,.15-1.76-.27-2.36-1.19-2.24-3.42-4.57-6.79-6.87-10.18-.27-.4-.58-.77-.87-1.15-.11,.03-.23,.05-.34,.08Z"/><path class="cls-12" d="M483.57,213.52c-.44,.42-.87,.82-1.35,1.28-.54-.3-.96-.57-1.4-.77-2.26-1.03-4.53-1.14-6.62,.33-2.15,1.51-2.87,3.74-2.49,6.27,.38,2.5,1.8,4.26,4.26,5.02,1.64,.5,3.3,.33,4.92-.17,.46-.14,.83-.39,.83-.94,0-1.2,0-2.4,0-3.73-1.19-.07-2.22-.12-3.34-.19v-1.89c1.81-.14,3.59-.14,5.5,.01,.04,.76,.1,1.4,.11,2.04,.01,1.56,0,3.13,0,4.69,0,.66-.15,1.18-.83,1.45-3.06,1.19-6.15,1.66-9.26,.21-3.58-1.67-5.28-5.53-4.35-9.67,.82-3.67,3.92-6.13,7.77-6.22,1.95-.05,3.84,.13,5.48,1.33,.16,.12,.31,.25,.46,.39,.07,.07,.1,.17,.32,.55Z"/><path class="cls-14" d="M290.55,213.41c-.55,.53-1.01,.97-1.56,1.49-1.49-1.32-3.18-1.68-5-1.58-1.5,.08-2.76,.68-3.75,1.75-1.91,2.08-2.13,4.53-1.2,7.07,.88,2.38,3.06,3.76,5.71,3.73,.95,0,1.9-.2,2.84-.35,.76-.12,1.12-.56,1.09-1.37-.04-1.06-.01-2.11-.01-3.34-1.18-.07-2.26-.14-3.46-.21v-1.88c1.86-.15,3.64-.12,5.6-.02,0,.67,0,1.16,0,1.66,0,1.31,0,2.63,0,3.94,0,2.52,0,2.53-2.41,3.18-2.39,.65-4.79,.79-7.15-.13-3.6-1.42-5.65-5.28-4.94-9.28,.71-3.99,3.81-6.76,7.74-6.81,1.2-.02,2.42,.11,3.6,.33,1.05,.2,1.97,.75,2.89,1.81Z"/><path class="cls-14" d="M202.58,227.53v-15.79c.43-.06,.81-.14,1.2-.15,1.62-.02,3.24-.03,4.85,0,4.19,.08,7.18,2.68,7.75,6.69,.59,4.15-1.63,7.67-5.63,8.88-.53,.16-1.08,.34-1.62,.35-2.11,.04-4.23,.02-6.55,.02Zm2.26-13.76c-.36,1.76-.3,10.58,.08,11.73,1.18,0,2.39,.08,3.59-.02,1.27-.11,2.48-.52,3.49-1.33,2.05-1.64,2.56-3.79,1.94-6.24-.57-2.28-2.1-3.72-4.37-4.09-1.52-.25-3.11-.05-4.74-.05Z"/><path class="cls-14" d="M442.26,227.4v-15.81c.88,0,1.67-.01,2.46,0,1.56,.02,3.15-.1,4.68,.12,4.05,.58,6.51,3.42,6.72,7.54,.18,3.62-2.18,6.87-5.78,7.93-1.65,.49-6.08,.62-8.08,.21Zm2.1-1.96c2.09,.18,3.99,.27,5.82-.48,2.08-.86,3.38-2.38,3.56-4.66,.2-2.43-.52-4.5-2.73-5.82-1.49-.89-4.83-1.13-6.65-.49v11.45Z"/><path class="cls-10" d="M349.51,227.45c-.4,.08-.64,.16-.88,.16-.35,0-.7-.04-1.02-.06-.38-1.08-.49-13.67-.14-15.83h2.04v6.49c2.81,.08,5.41,.05,8.18,.02,.29-2.19-.02-4.35,.21-6.55h1.95v15.83c-.58,.03-1.15,.07-1.94,.11-.23-2.38,0-4.69-.16-7.14-2.7-.26-5.33-.1-8.18-.11-.02,2.47-.05,4.76-.07,7.08Z"/><path class="cls-10" d="M499.22,211.69h9.93c.06,.25,.15,.44,.15,.62,0,.35-.03,.7-.06,1.14-1.3,.41-2.61,.16-3.89,.2-1.31,.04-2.62,0-3.87,0-.42,1.22-.46,2.83-.12,4.6h7.33c.06,.74,.1,1.31,.15,2.09h-7.58v5.15h8.43v2.01h-10.41c-.34-1.24-.38-14.24-.04-15.82Z"/><path class="cls-12" d="M161.08,213.64h-7.93v4.56c2.4,.37,4.87-.06,7.32,.25,.06,.34,.14,.58,.15,.82,0,.3-.05,.59-.1,1.07h-7.35v5.12h8.4c.03,.75,.06,1.33,.09,1.87-1.18,.36-8.7,.43-10.48,.15-.34-1.05-.43-13.76-.08-15.85,3.26-.08,6.56-.03,9.99-.03v2.05Z"/><path class="cls-12" d="M377.4,213.73v4.57h7.38v2.1h-7.37v5.13h8.43v1.99h-10.57v-15.63c1.05-.38,8.35-.46,10.11-.09v1.78c-2.61,.21-5.22-.03-7.99,.15Z"/><path class="cls-12" d="M417.7,211.67h10.08v1.97h-7.93v4.55c2.42,.38,4.89-.06,7.34,.26,.06,.34,.13,.59,.13,.83,0,.3-.05,.59-.11,1.07h-7.35v5.12h8.3c.03,.74,.06,1.31,.08,1.85-1.28,.39-9.07,.42-10.56,.05v-15.71Z"/><path class="cls-12" d="M173.91,227.48c.22-.58,.35-1,.53-1.4,1.91-4.34,3.82-8.68,5.73-13.01q.69-1.56,2.66-1.35c2.19,5.13,4.42,10.35,6.72,15.73-.61,.08-.98,.14-1.36,.19-.75,.09-1.24-.19-1.48-.95-.21-.67-.54-1.3-.78-1.97-.25-.71-.67-1.04-1.46-1.02-1.87,.04-3.73,.04-5.6,0-.79-.02-1.21,.32-1.43,1.04-.16,.53-.4,1.03-.61,1.55-.57,1.39-.6,1.42-2.12,1.35-.2,0-.39-.07-.81-.14Zm10.78-5.7c-1-2.53-1.87-4.79-2.89-7.14-1.18,1.85-2.8,6.06-2.79,7.14h5.68Z"/><path class="cls-14" d="M333.78,211.69v1.75c-1.56,.51-3.2-.03-4.98,.39-.02,1.46-.05,2.95-.06,4.45,0,1.52,0,3.03,0,4.55v4.66h-2.07c-.16-2.23-.05-4.49-.07-6.74-.02-2.27,0-4.53,0-6.83-1.69-.53-3.33-.02-5.01-.39v-1.83h12.2Z"/><path class="cls-12" d="M137.42,225.52v2h-9.07c-.37-1.08-.49-13.52-.15-15.79h1.88c.03,.51,.09,1.04,.09,1.57,0,3.48,0,6.96,0,10.43,0,.54,.05,1.08,.09,1.79h7.15Z"/><path class="cls-14" d="M232.72,211.69v15.83h-1.92v-15.83h1.92Z"/></g><g><path class="cls-13" d="M55.24,122.59c.33,.53,.59,1.11,.99,1.57,2.33,2.72,5.1,4.92,8.12,6.83,7.44,4.69,15.52,7.76,24.11,9.55,4.27,.89,8.58,1.35,12.95,1.2,.28,0,.56,0,.84,.02,.07,0,.15,.05,.34,.13,.02,.33,.07,.71,.07,1.09,0,16.67,0,33.33-.02,50,0,4.05-.63,8.02-1.67,11.92-.11,.42-.18,.85-.27,1.28-.06,.14-.14,.28-.19,.43-.99,3.13-2.23,6.15-3.88,8.98-7.57,13.03-18.71,21.08-33.56,23.84-2.65,.49-5.38,.54-8.08,.8-2.62-.2-5.27-.22-7.85-.65-11.93-1.97-21.77-7.65-29.5-16.94-3.97-4.78-6.81-10.18-8.72-16.08-.45-1.9-.95-3.79-1.32-5.7-.57-2.94-.79-5.92-.78-8.92,0-16.31,0-32.62,0-48.93,0-.39,.04-.78,.07-1.23,.34-.04,.61-.1,.88-.09,9.3,.38,18.14-1.68,26.71-5.07,5.59-2.21,10.9-4.96,15.53-8.84,1.55-1.3,2.89-2.84,4.3-4.3,.23-.23,.3-.61,.44-.92,.16,0,.32,0,.48,0Zm-.25,113.04c2.85,.18,5.66-.22,8.44-.77,20.06-4.02,34.81-21.87,34.91-42.35,.07-15.13,.02-30.25,.01-45.38,0-.35-.04-.7-.05-1.04-2.16-.19-4.23-.29-6.28-.57-7.04-.95-13.81-2.88-20.31-5.72-5.96-2.61-11.55-5.8-16.3-10.32-.1-.1-.27-.13-.4-.2-.19,.13-.4,.24-.58,.39-1.42,1.16-2.78,2.4-4.26,3.48-5,3.65-10.52,6.32-16.32,8.42-6.37,2.3-12.9,3.88-19.68,4.3-.98,.06-1.96,.15-2.96,.23-.02,.42-.04,.73-.04,1.05,0,15.2-.02,30.4,.01,45.61,.01,5.9,1.21,11.59,3.71,16.94,6.49,13.91,17.31,22.38,32.38,25.37,2.54,.5,5.13,.75,7.74,.56Z"/><path class="cls-4" d="M55,240.25c2.7-.26,5.43-.31,8.08-.8,14.85-2.76,26-10.82,33.56-23.84,1.65-2.84,2.89-5.86,3.88-8.98,.05-.15,.12-.29,.19-.43,2.32,2.35,4.63,4.71,7.1,7.22-.33,.26-.71,.5-1.02,.81-16.91,16.89-33.81,33.79-50.72,50.68-.33,.33-.72,.6-1.08,.9,0-5.94,0-11.88,0-17.82,0-.28-.04-.56-.05-.83-.05-2.07-.1-4.14-.14-6.2,0-.23,.13-.45,.2-.68Z"/><path class="cls-9" d="M55,240.25c-.07,.23-.2,.45-.2,.68,.03,2.07,.09,4.14,.14,6.2,0,.28,.05,.56,.05,.83,0,5.94,0,11.88,0,17.82-.31-.24-.64-.45-.91-.72-17.01-16.99-34.02-33.99-51.03-50.99-.25-.25-.49-.51-.72-.75,.03-.12,.02-.22,.07-.26,2.18-2.16,4.36-4.32,6.54-6.48,1.91,5.9,4.74,11.31,8.72,16.08,7.73,9.29,17.57,14.98,29.5,16.94,2.58,.43,5.23,.44,7.85,.65Z"/><path class="cls-5" d="M54.99,235.62c-2.61,.19-5.19-.05-7.74-.56-15.07-2.99-25.89-11.46-32.38-25.37-2.49-5.35-3.69-11.04-3.71-16.94-.04-15.2-.01-30.4-.01-45.61,0-.31,.03-.63,.04-1.05,1.01-.08,1.99-.17,2.96-.23,6.78-.42,13.31-1.99,19.68-4.3,5.8-2.1,11.32-4.78,16.32-8.42,1.48-1.08,2.84-2.32,4.26-3.48,.18-.15,.38-.26,.58-.39,.01,1.91,.02,3.83,.03,5.74-.06,.16-.12,.32-.18,.49-.32,.59-.66,1.19-.97,1.79-11.65,22.37-23.31,44.73-34.96,67.1-.31,.6-.56,1.1-.18,1.87,4.81,9.8,12.15,16.87,22.36,20.85,4.46,1.74,9.1,2.62,13.91,2.48v.09c0,1.98-.01,3.96-.02,5.94Zm-38.95-38.56c.43-.76,.78-1.32,1.09-1.91,2.03-3.8,4.05-7.6,6.07-11.41,4.36-8.21,8.71-16.42,13.07-24.63,1.52-2.85,3.06-5.69,4.59-8.54,1.48-2.78,2.96-5.56,4.43-8.35,.13-.24,.18-.53,.34-1.01-9.56,4.97-19.45,8-30.04,8.96-.03,.55-.09,1.02-.09,1.48,0,13.56-.01,27.13,0,40.69,0,1.27,.15,2.54,.25,3.81,.02,.22,.14,.44,.29,.89Z"/><path class="cls-11" d="M54.99,235.62c0-1.98,.02-3.96,.03-5.94,.28-.02,.55-.05,.83-.06,3.08-.07,6.12-.48,9.09-1.33,12.34-3.53,21-11.32,26.43-22.85,.33-.7,.23-1.22-.12-1.88-11.86-22.53-23.7-45.06-35.55-67.6-.18-.34-.45-.64-.67-.95-.01-1.91-.02-3.83-.03-5.74,.14,.06,.3,.1,.41,.2,4.75,4.52,10.34,7.72,16.3,10.32,6.5,2.84,13.27,4.77,20.31,5.72,2.05,.28,4.13,.38,6.28,.57,.02,.34,.05,.69,.05,1.04,0,15.13,.06,30.25-.01,45.38-.1,20.47-14.85,38.33-34.91,42.35-2.78,.56-5.59,.95-8.44,.77Zm38.48-40.15c.08-.02,.16-.04,.24-.06,.11-1.45,.33-2.89,.33-4.34,.03-12.93,.02-25.85,.01-38.78,0-.36,0-.72-.04-1.07-.07-.66-.39-1.11-1.11-1.2-.91-.11-1.81-.24-2.72-.35-4.12-.53-8.15-1.51-12.11-2.75-4.27-1.34-8.43-2.95-12.38-5.09-.36-.2-.76-.33-1.14-.5-.06,.06-.12,.13-.18,.19,.1,.28,.16,.58,.3,.84,2.34,4.31,4.69,8.61,7.03,12.92,2.13,3.92,4.25,7.85,6.37,11.78,2.18,4.03,4.36,8.06,6.53,12.1,2.47,4.6,4.92,9.21,7.4,13.81,.46,.85,.97,1.67,1.46,2.51Z"/><path class="cls-4" d="M55.04,135.02c.23,.32,.49,.61,.67,.95,11.85,22.53,23.69,45.07,35.55,67.6,.35,.66,.44,1.18,.12,1.88-5.43,11.52-14.09,19.32-26.43,22.85-2.96,.85-6,1.25-9.09,1.33-.28,0-.56,.04-.83,.06,0,0,0-.09,0-.09,0-30.93,0-61.86,0-92.79,0-.43-.11-.86-.16-1.29,.06-.16,.12-.32,.18-.49Z"/><path class="cls-8" d="M54.85,135.51c.06,.43,.16,.86,.16,1.29,0,30.93,0,61.86,0,92.79-4.81,.14-9.45-.74-13.91-2.48-10.21-3.98-17.56-11.05-22.36-20.85-.38-.77-.13-1.27,.18-1.87,11.65-22.37,23.31-44.73,34.96-67.1,.31-.6,.65-1.19,.97-1.79Z"/><path class="cls-3" d="M16.04,197.06c-.15-.46-.28-.67-.29-.89-.1-1.27-.25-2.54-.25-3.81-.02-13.56-.01-27.13,0-40.69,0-.47,.05-.93,.09-1.48,10.59-.96,20.47-3.99,30.04-8.96-.16,.48-.21,.77-.34,1.01-1.47,2.79-2.94,5.57-4.43,8.35-1.52,2.85-3.07,5.68-4.59,8.54-4.36,8.21-8.71,16.42-13.07,24.63-2.02,3.8-4.04,7.61-6.07,11.41-.31,.58-.66,1.15-1.09,1.91Z"/><path class="cls-1" d="M93.48,195.47c-.49-.84-1-1.66-1.46-2.51-2.47-4.6-4.93-9.21-7.4-13.81-2.17-4.04-4.35-8.07-6.53-12.1-2.12-3.93-4.24-7.86-6.37-11.78-2.34-4.31-4.69-8.61-7.03-12.92-.14-.26-.2-.56-.3-.84,.06-.06,.12-.13,.18-.19,.38,.16,.77,.3,1.14,.5,3.95,2.13,8.11,3.75,12.38,5.09,3.96,1.24,7.98,2.23,12.11,2.75,.91,.12,1.81,.25,2.72,.35,.72,.08,1.03,.53,1.11,1.2,.04,.36,.04,.72,.04,1.07,0,12.93,.01,25.85-.01,38.78,0,1.45-.21,2.89-.33,4.34-.08,.02-.16,.04-.24,.06Z"/></g></svg>