<?xml version="1.0" encoding="UTF-8"?><svg id="OTU" xmlns="http://www.w3.org/2000/svg" viewBox="0 0 512 482.33"><defs><style>.cls-1{fill:#1f3465;}.cls-2{fill:#1f4172;}.cls-3{fill:#204474;}.cls-4{fill:#234675;}.cls-5{fill:#f36c40;}.cls-6{fill:#2777bd;}.cls-7{fill:#1d4172;}.cls-8{fill:#234978;}.cls-9{fill:#f15e2e;}.cls-10{fill:#f26b3f;}.cls-11{fill:#1c4071;}.cls-12{fill:#204373;}.cls-13{fill:#1c4172;}.cls-14{fill:#214474;}.cls-15{fill:#202e60;}.cls-16{fill:#203264;}.cls-17{fill:#1d3e6f;}.cls-18{fill:#1f4273;}.cls-19{fill:#1e4171;}.cls-20{fill:#1c3d6f;}.cls-21{fill:#f15927;}</style></defs><path class="cls-11" d="M53.93,196.76c-.83,.08-1.67,.22-2.5,.22-11.78,.01-23.56,.01-35.34,.01-.92,0-1.84,0-2.94,0,0,5.9,0,11.61,0,17.31,.01,4.43,.03,8.87,.04,13.3-.02,.16-.07,.3-.15,.44-.15,.47-.42,.93-.43,1.4-.03,8.21-.03,16.43,0,24.64,0,.53,.35,1.05,.53,1.58,.44,1.98,.78,3.99,1.34,5.94,5.19,17.94,24.89,28.67,43.65,21.12,6.03-2.24,10.68-6.2,14.33-11.44,4.11-6.22,5.97-13,5.78-20.52-.25-9.81-.06-19.63-.06-29.62h12.13c.04,.79,.11,1.53,.11,2.27,0,9.73,.02,19.46,0,29.19-.04,23.13-17.43,42.14-40.71,44.51-22.18,2.26-43.26-13.43-47.79-35.6-.32-1.57-.36-3.21-.53-4.81,.15-.9,.42-1.8,.42-2.69,.02-21.95,.02-43.89,0-65.84,0-.89-.31-1.77-.48-2.66,.49-.18,.98-.51,1.47-.51,16.8-.03,33.6-.02,50.39-.01,.24,0,.49,.07,.91,.14,0,3.72,0,7.43,0,11.14-13.45,0-26.89,0-40.34,0v.49H53.93Z"/><path class="cls-7" d="M166.43,227.27c-.07,14.42-11.69,25.94-26.12,25.88-14.34-.05-26.01-11.84-25.91-26.17,.1-14.44,11.73-26.06,26.07-26.03,14.51,.03,26.04,11.71,25.97,26.31Zm-10.34-.07c.02-8.47-7.74-15.85-16.71-15.9-8.3-.05-14.64,6.77-14.63,15.73,0,8.68,7.12,15.81,15.73,15.78,8.54-.03,15.58-7.08,15.61-15.62Z"/><path class="cls-6" d="M13.19,227.61c-.01-4.43-.03-8.87-.04-13.3,8.22,.66,16.23,2.27,23.65,6.01,18.92,9.53,30.5,24.62,34.29,45.57,.33,1.83,.91,3.61,1.38,5.41-3.64,5.23-8.3,9.2-14.33,11.44,.17-.92,.41-1.84,.49-2.76,2.21-27.12-18.33-50.77-45.43-52.35Z"/><path class="cls-5" d="M488.85,252.04h-10.71v-54.13h10.64v16.01c2.69-.19,5.12-.6,7.52-.47,8.88,.46,13.67,4.73,14.21,13.59,.5,8.23,.11,16.52,.11,24.94h-10.66c0-.86,0-1.75,0-2.64-.02-6.49,.06-12.98-.1-19.46-.16-6.08-2.76-8-8.75-7.06-1.88,.29-2.3,1.13-2.29,2.88,.08,8.11,.03,16.22,.03,24.33,0,.58,0,1.17,0,2.03Z"/><path class="cls-5" d="M411.74,236.66c.26,3.42,2.39,6.25,6.26,6.61,3.99,.38,8.09-.28,12.13-.54,.65-.04,1.28-.37,2.21-.66,.48,2.72,.99,5.28,1.32,7.86,.05,.4-.66,1.17-1.15,1.31-6.99,2.07-14.07,3-21.08,.29-6.85-2.64-10.08-8.12-10.84-15.15-.45-4.19-.11-8.35,1.62-12.29,4.18-9.54,15.27-13.68,24.69-9.19,5.75,2.74,8.22,7.71,8.9,13.7,.26,2.34,0,4.74-.02,7.12-7.16,0-14.31-.04-21.47,.03-.86,0-1.71,.59-2.57,.9Zm.04-7.43h13.64c-.09-4.34-2.58-7.03-6.49-7.16-3.95-.14-6.76,2.62-7.15,7.16Z"/><path class="cls-7" d="M346.75,253.15c-11.04,.04-20.05-8.92-20.05-19.95,0-10.95,8.83-19.9,19.74-19.99,11.05-.09,20.17,8.84,20.23,19.81,.06,10.99-8.94,20.09-19.92,20.13Zm-10.33-20.03c0,5.84,4.56,10.44,10.32,10.4,5.62-.04,10.19-4.64,10.22-10.3,.03-5.78-4.6-10.41-10.37-10.37-5.69,.03-10.16,4.55-10.17,10.27Z"/><path class="cls-7" d="M263.5,228.29c.31-3.24-1.37-5.71-5.07-5.83-3.96-.13-7.93,.36-12.27,.6-.35-2.28-.78-5.1-1.23-8.05,6.22-1.59,12.24-2.42,18.4-1.27,6.33,1.18,10.31,5.41,10.53,12,.28,8.34,.07,16.7,.07,25.29-8.02,1.78-16.09,2.86-24.21,.89-5.49-1.33-8.36-5.48-8.43-11.34-.06-5.29,2.85-9.63,8.31-10.84,4.48-1,9.19-.99,13.91-1.44Zm.09,7.51c-2.8,.13-5.41,.09-7.97,.43-2.28,.3-3.63,1.82-3.55,4.22,.07,2.31,1.54,3.64,3.68,3.83,2.57,.23,5.17,.05,7.84,.05v-8.54Z"/><path class="cls-13" d="M183.16,251.6c-3.44,.25-6.89,.5-10.63,.77,0-1.71,0-2.96,0-4.21,0-10.15,.04-20.3-.03-30.44-.01-1.63,.3-2.56,2.1-2.71,5.58-.47,11.17-1.57,16.73-1.39,8.61,.27,13.35,5.05,13.77,13.68,.4,8.15,.09,16.34,.09,24.68h-10.69c0-4.04,.04-8.1-.01-12.16-.05-4,.05-8.03-.37-11.99-.42-3.95-2.44-5.38-6.46-5.28-1.44,.04-2.88,.27-4.32,.42-.2,.86-.58,1.71-.58,2.57-.05,7.65-.1,15.29,.02,22.94,.04,2.18-.69,2.82-2.76,2.66-2.14-.16-4.31-.04-6.47-.04,0,.17,0,.34,0,.51,3.21,0,6.42,0,9.63,0Z"/><path class="cls-10" d="M404.05,202.92v8.86h-14.98v39.33c-3.69,0-7.38,0-11.07,0v-39.32h-14.91v-8.86c13.65,0,27.31,0,40.96,0Z"/><path class="cls-13" d="M235.86,222.9c-3.02,.11-6.05,.23-9.07,.32-1.09,.03-2.18,0-3.46,0,0,5.32-.25,10.43,.08,15.5,.25,3.8,2.19,5.21,6,5.08,2.11-.07,4.2-.51,6.71-.84,.47,2.47,.98,5.17,1.53,8.07-5.96,2.24-11.85,2.9-17.77,.59-5.58-2.18-7.24-7.12-7.35-12.4-.26-11.84-.08-23.7-.08-35.71h10.67v10.72c3.57,0,6.94-.03,10.31,.02,.83,.01,1.66,.31,2.49,.48-.14,1.83-.42,3.66-.39,5.48,.03,1.65-.48,2.26-2.18,2.21-3.2-.11-6.41-.03-9.62-.03,0,.17,0,.34,0,.51h12.13Z"/><path class="cls-5" d="M471.33,215.46c-.74,2.82-1.45,5.52-2.18,8.33-5.5-1.28-11.1-3.22-15.09,2.68-2.5,3.7-2.43,11.2,.41,14.31,4.62,5.06,10.33,2.88,16.05,1.77,.47,2.75,.94,5.55,1.41,8.29-7.09,4.38-20.24,2.61-25.81-3.36-6-6.44-6.39-19.39-.83-26.91,5.42-7.32,16.56-9.59,26.04-5.12Z"/><path class="cls-2" d="M291.64,252.07h-10.51c-.05-.75-.15-1.47-.15-2.19,0-10.5,.03-20.99-.04-31.49-.01-1.61,.37-2.37,2.03-2.85,5.46-1.57,10.96-2.53,16.65-1.87,.83,.1,1.65,.24,2.59,.38v8.79c-2.76,0-5.51,.05-8.26-.02-1.94-.05-2.37,.85-2.35,2.67,.09,7.94,.04,15.87,.04,23.81,0,.84,0,1.68,0,2.77Z"/><path class="cls-5" d="M66.46,185.52c.15-.17,.3-.47,.45-.48,7.74-.02,15.48-.02,23.36-.02v23.84h-12.09c0-3.23,.06-6.52-.05-9.81-.02-.75-.62-1.48-.96-2.22-.87,0-1.74,0-2.6,0-2.55,0-5.09,.02-7.64,.02-.16-.19-.33-.39-.49-.58,0-3.42,0-6.85,0-10.27,.06-.04,.19-.11,.18-.13-.04-.12-.11-.24-.17-.35Z"/><path class="cls-4" d="M320.19,214.35v37.67h-10.62v-37.67h10.62Z"/><path class="cls-17" d="M150.54,273.28c2.51-.71,4.14,.3,5.53,2.19,3.01,4.11,6.12,8.15,9.5,12.63v-14.9h4.24v23.33c-2.24,.65-3.73,.13-5.09-2.11-2.94-4.83-6.28-9.41-9.46-14.1-.21,.09-.42,.18-.63,.26v16.04h-4.08v-23.34Z"/><path class="cls-3" d="M263.66,287.05c2.01,3.2,3.89,6.2,5.83,9.31-4.46,.9-4.49,.88-6.68-2.65-.72-1.16-1.59-2.22-2.22-3.42-1.1-2.11-2.67-2.92-5.19-2.09v8.4h-4.32v-23.12c4.02-.64,8.06-1,12.05,.24,2.61,.81,4.42,2.48,4.72,5.42,.31,3.1-.22,5.79-3.3,7.36-.3,.15-.57,.36-.89,.56Zm-8.18-2.59c2.84-.37,5.85,.57,7.45-2.19,.57-.98,.41-3.12-.32-3.98-1.83-2.18-4.55-1.66-7.13-1.41v7.58Z"/><path class="cls-7" d="M120.79,273.23h4.27c0,4.37-.02,8.63,.01,12.88,.01,1.27,.01,2.59,.33,3.81,.58,2.21,2.13,3.48,4.46,3.5,2.36,.02,4.19-.92,4.73-3.41,.29-1.32,.4-2.7,.42-4.05,.05-4.17,.02-8.35,.02-12.69h4.09c0,5.76,.33,11.56-.11,17.3-.34,4.49-4.23,6.81-9.69,6.65-4.8-.14-8.22-2.88-8.48-7.49-.3-5.43-.07-10.89-.07-16.5Z"/><path class="cls-14" d="M241.31,292.96v3.62h-15.74v-23.32h14.91v3.56h-10.51v5.74h9.52v3.56h-9.51v6.84h11.34Z"/><path class="cls-12" d="M276.48,295.52c.44-1.24,.8-2.27,1.1-3.1,2.52,.37,4.92,1,7.31,.95,1.14-.03,2.78-1.11,3.27-2.15,.82-1.74-.54-3.04-2.12-3.78-1.62-.75-3.32-1.32-4.94-2.05-3.04-1.38-4.36-3.58-4.1-6.66,.25-2.94,2.06-4.99,5.28-5.76,3.26-.79,6.41-.39,9.6,1.18-.41,1.12-.8,2.19-1.2,3.3-1.72-.38-3.39-1.13-4.98-.99-1.39,.12-3.31,.89-3.91,1.97-.96,1.74,.72,2.92,2.23,3.65,1.45,.7,3.01,1.19,4.48,1.86,3.51,1.61,4.88,4.1,4.38,7.79-.39,2.86-2.42,4.77-6.04,5.32-3.51,.54-6.95,.22-10.35-1.52Z"/><path class="cls-18" d="M217.17,273.31c-3.15,7.69-6.11,15.09-9.28,22.39-.28,.65-1.93,.95-2.95,.96-.72,.01-1.87-.55-2.12-1.15-3.05-7.26-5.97-14.58-9.05-22.22h5.06c2.09,5.8,4.24,11.75,6.39,17.7,.19,.02,.38,.05,.57,.07,1.53-4.15,3.06-8.3,4.58-12.46,.23-.64,.4-1.3,.62-1.95q1.27-3.78,6.18-3.35Z"/><path class="cls-19" d="M362.31,273.35c-1.96,3.41-3.64,6.84-5.79,9.94-2.05,2.96-3,6-2.62,9.55,.13,1.17,.02,2.37,.02,3.73h-4c-.09-.18-.24-.33-.22-.46,.83-5.99-1.06-11.13-4.56-15.92-1.53-2.09-2.58-4.52-3.91-6.91,4.89-.42,4.86-.41,6.87,3.49,1.12,2.16,2.35,4.26,3.77,6.81,1.53-2.73,2.85-4.98,4.07-7.28,1.85-3.48,1.82-3.49,6.37-2.95Z"/><path class="cls-14" d="M322.66,276.92h-7.11v-3.68h18.64v3.62h-7.09v19.72h-4.43v-19.66Z"/><path class="cls-2" d="M314.95,209.64c-3.87,.02-6.5-2.55-6.5-6.34,0-3.57,2.69-6.29,6.3-6.38,3.66-.1,6.6,2.69,6.67,6.32,.07,3.68-2.67,6.39-6.47,6.4Z"/><path class="cls-8" d="M302.33,273.22h4.16v23.36h-4.16v-23.36Z"/><path class="cls-20" d="M181.27,296.54v-23.34h4.04v23.34h-4.04Z"/><path class="cls-1" d="M1.33,185.51c.17,.89,.48,1.77,.48,2.66,.03,21.95,.03,43.89,0,65.84,0,.9-.27,1.8-.42,2.69-.06-1.28-.16-2.55-.16-3.83,0-21.52,0-43.04,0-64.55,0-.94,.07-1.87,.1-2.81Z"/><path class="cls-9" d="M411.74,236.66c.86-.31,1.71-.89,2.57-.9,7.16-.07,14.31-.04,21.47-.03-.01,.17-.03,.34-.04,.5-.14,.12-.28,.23-.41,.35-7.86,.03-15.73,.06-23.59,.08Z"/><path class="cls-15" d="M53.93,196.76H13.77v-.49c13.44,0,26.89,0,40.34,0-.06,.16-.12,.33-.18,.49Z"/><path class="cls-21" d="M404.05,202.92c-13.65,0-27.31,0-40.96,0,.56-.21,1.11-.6,1.67-.6,12.54-.03,25.07-.03,37.61,0,.56,0,1.12,.39,1.68,.6Z"/><path class="cls-16" d="M183.16,251.6h-9.63c0-.17,0-.34,0-.51,2.16,0,4.32-.12,6.47,.04,2.07,.15,2.8-.48,2.76-2.66-.13-7.64-.07-15.29-.02-22.94,0-.86,.38-1.71,.58-2.57-.05,9.55-.1,19.1-.16,28.64Z"/><path class="cls-9" d="M378,251.1c3.69,0,7.38,0,11.07,0-.42,.33-.84,.93-1.26,.94-2.95,.05-5.9-.02-8.85-.05-.31-.13-.63-.26-.94-.39-.08-.16-.08-.33-.01-.5Z"/><path class="cls-15" d="M235.86,222.9h-12.13c0-.17,0-.34,0-.51,3.21,0,6.42-.08,9.62,.03,1.69,.06,2.21-.56,2.18-2.21-.03-1.82,.24-3.65,.39-5.48-.02,2.72-.04,5.44-.06,8.16Z"/><path class="cls-9" d="M74.57,196.83c.87,0,1.74,0,2.6,0-.87,0-1.74,0-2.6,0Z"/><path class="cls-10" d="M378.01,251.6c.31,.13,.63,.26,.94,.39-.31-.13-.63-.26-.94-.39Z"/><path class="cls-9" d="M66.46,185.52c.06,.12,.13,.23,.17,.35,0,.02-.12,.09-.18,.13-.07-.16-.07-.32,0-.48Z"/><path class="cls-5" d="M435.33,236.58c.14-.12,.28-.23,.41-.35-.14,.12-.28,.23-.41,.35Z"/><path class="cls-9" d="M66.44,196.28c.16,.19,.33,.39,.49,.58-.16-.19-.33-.39-.49-.58Z"/><path class="cls-15" d="M13.04,228.05c.04,9.21,.07,18.41,.11,27.62-.19-.53-.53-1.05-.53-1.58-.03-8.21-.03-16.43,0-24.64,0-.47,.28-.93,.43-1.4Z"/></svg>