<?xml version="1.0" encoding="UTF-8"?><svg id="UOIT" xmlns="http://www.w3.org/2000/svg" viewBox="0 0 509.79 482.33"><defs><style>.cls-1{fill:#979797;}.cls-2{fill:#646464;}.cls-3{fill:#404040;}</style></defs><path class="cls-3" d="M368.69,373.4c13.46-16.47,21.12-35.57,25.5-56.16,2.21-10.37,2.38-20.92,2.39-31.46,.02-39.61,0-79.23,0-118.84,0-1.99,.13-4-.01-5.98-.28-3.98,1.36-5.62,5.46-5.58,13.96,.15,27.93,.12,41.89,.02,3.51-.02,5.4,1.1,5.11,4.89-.13,1.7,0,3.42,0,5.13,0,41.04,.03,82.08,0,123.12-.09,91.76-61.98,168.83-151.73,189.02-97.53,21.94-196.02-33.72-227.15-128.42-6-18.25-9.26-37.03-9.29-56.22-.13-94.9-.06-189.8-.06-284.71,0-.85,.08-1.72,0-2.56-.4-3.85,.85-6.06,5.17-5.58,1.41,.16,2.85,.01,4.27,.01,70.68,0,141.36-.01,212.03,.01,10.37,0,9.61-.96,9.63,9.71,.03,11.97-.14,23.94,.07,35.91,.08,4.44-1.53,5.95-5.94,5.91-15.96-.18-31.92-.08-47.88-.06-41.32,.05-82.64,.1-123.97,.15-3.41,2.19-2.02,5.66-2.03,8.56-.08,76.45-.07,152.91-.02,229.36,0,3.34-.76,6.86,1.38,9.94,2.05,32.8,14.49,61.2,36.68,85.26,25.91,28.1,58.37,43.06,96.27,45.73,22.12,1.56,43.66-1.99,63.95-11.52,.84-.1,1.77,0,2.52-.33,17.71-7.58,33.24-18.4,46.3-32.49,3.54-3.82,7.82-7.44,9.44-12.81Z"/><path class="cls-1" d="M368.69,373.4c-1.63,5.37-5.91,9-9.44,12.81-13.05,14.09-28.59,24.91-46.3,32.49-.75,.32-1.67,.23-2.52,.33,.08-3.13-.22-6.33,.3-9.39,2.98-17.39,1.04-34.59-1.74-51.76-9.15-56.57-37.81-101.28-83.58-135.02-30.91-22.79-66.06-35.3-104.18-39.49-6.41-.71-7.36,.06-7.4,6.81-.09,16.24,0,32.48-.04,48.72-.06,20.22-.18,40.44-.28,60.67-2.14-3.07-1.38-6.6-1.38-9.94-.05-76.45-.05-152.91,.02-229.36,0-2.9-1.38-6.37,2.03-8.56-.12,23.07-.19,46.14-.41,69.22-.04,3.8,1.32,5.42,5.15,6.28,7.28,1.64,14.69,1.37,22.03,2.45,35.43,5.2,68.34,17.07,99.02,35.39,33.3,19.88,60.92,45.97,82.7,77.86,22.61,33.09,37.43,69.48,42.97,109.49,.97,6.99,.19,14.29,3.04,21.01Z"/><path class="cls-2" d="M396.84,.08c15.08,0,30.16-.05,45.24,.02,6.73,.03,6.9,.15,6.91,6.44,.07,29.88,.07,59.75,0,89.63-.01,6.7-.17,6.86-6.58,6.92-13.09,.12-26.18,.12-39.26,0-6.31-.06-6.63-.41-6.7-6.92-.12-11.66-.02-23.33-.04-35q-.02-9.58-9.99-9.61c-11.67-.02-23.33,.07-35-.04-6.65-.06-6.79-.18-6.85-6.62-.11-12.52-.09-25.04-.01-37.56,.04-7.08,.14-7.2,7.04-7.24,15.08-.08,30.16-.02,45.24-.02Z"/></svg>