<?xml version="1.0" encoding="UTF-8"?><svg id="WMF" xmlns="http://www.w3.org/2000/svg" viewBox="0 0 512 379.56"><defs><style>.cls-1{fill:#fff;}</style></defs><g><path d="M131.61,166.5v3.97c-.86,1.43-2.34,1.52-3.62,2.44,2.13,7.89,4.29,15.87,6.48,23.98,2.78-2.58,2.29-6.28,3.05-9.41,1.17-4.84,2.31-9.68,3.69-14.53-1.15-.85-2.78-1.08-3.55-2.54v-3.58c.11-.09,.25-.34,.4-.34,3.69-.02,7.38-.02,11-.02,1.22,.92,1.96,1.98,1.59,3.59-.15,.26-.29,.84-.51,.87-3.15,.4-3.6,3.12-4.12,5.31-1.02,4.3-2.63,8.43-3.56,12.72-.9,4.16-2.21,8.15-3.34,12.21-.99,3.52-2.29,7.13-2.49,10.76-.12,2.21-2.14,3.74-1.35,6.22h-6.21c-3.24-10-5.24-20.47-8.66-30.82-3.08,10.46-5.28,20.89-8.64,30.94h-5.83c-3.78-14.59-7.57-29.21-11.61-44.77-.52-.43-1.88-1.53-2.87-2.34,.08-2.02-.36-3.39,.39-4.77h16.86c.22,.21,.48,.35,.49,.49,.03,1.18,.02,2.37,.02,3.56-1.32,.65-2.84,1.05-3.55,2.54,2.73,7.84,3.08,16.3,6.43,24.25,2.52-5.71,2.62-11.89,5.23-17.38,.95-2,.6-4.92-1.26-7.07-.83-.81-2.32-.88-3.19-2.33v-3.97h18.72Z"/><path d="M482.87,214.93c-1.51,1.81-3.26,1-5.09,.94v-17.19c.71-.86,1.78-.19,2.46-.35,3.13,1.14,3.39,4.18,4.34,6.48,2.21,5.34,1.97,5.44,5.49,7.69,1.97,0,3.95,0,5.92,0,4.09-4.23,4.12-4.31,4.1-9.65-1.63-4.72-5.79-5.99-9.2-8.05-2.18-1.32-4.57-2.29-6.8-3.59-4.92-2.89-6.77-7.18-6.47-12.66,.06-.98,0-1.97,0-2.96q3.72-6.59,10.14-10.49c4.4,.4,9.23-1.17,13.3,2.56,1.74-.92,3.6-1.98,5.98-1.07v14.73s-.1,.21-.25,.23c-1.16,.1-2.32,.16-3.47,.23-4.43-2.72-3.43-8.71-7.27-11.78-2.62-.38-5.24-.42-7.48,1.68-.68,.86,.35,2.57-1.31,3.35,1.75,3.93,4.49,6.55,8.7,8,2.9,1,5.63,2.8,8.11,4.67,3.05,2.31,5.17,5.06,5.72,9.39,.78,6.22-1.46,13.02-4.94,16.01-2.9,2.49-6.04,4.3-10.12,4.2-4.01-.09-7.98,.02-11.85-2.36Z"/><path d="M454.86,186.42c2.01-6.65,4.03-13.29,6.04-19.96h11.59c.85,.69,.19,1.76,.41,2.71-.79,.83-1.59,1.67-2.38,2.5v27.36c.66,.23,1.35,.47,2.19,.76v2.98h-12.59c-.5-.99-.3-1.93-.14-2.91,.67-.26,1.35-.53,2.12-.83v-18.18c-3.3,1.4-1.99,4.69-2.89,6.99-1.87,4.76-2.97,9.82-4.41,14.86-1.16,.79-2.57-.03-4.33,.64-2.36-7.29-4.64-14.41-6.93-21.64v17.78c.21,.6,2.42,.95,2.08,2.91-.3,.21-.59,.6-.9,.61-3.13,.05-6.26,.03-9.71,.03-.27-2.69,1.47-3.31,3.38-3.94v-27.54c-.76-1.26-3.44-2.3-1.87-5.09h11.17c2.25,6.58,4.05,13.42,7.15,19.97Z"/><path d="M233.39,171.41c-1.07-1.15-2.99-2.24-1.89-4.88h11.25c2.78,6.2,4.2,13.24,6.69,20.17,3.64-6.57,3.98-13.97,7.03-20.22h11.16c1.29,2.6-.68,3.69-2.01,5.11v27.22c.3,.86,1.21,.56,1.87,.79,.87,.82,.25,1.87,.46,2.78-.85,.96-7.93,.96-13,.01,0-.4-.16-.92,.03-1.15,.62-.76,1.37-1.42,2.19-2.24v-18.05c-3.08,6.99-4.3,14.59-7.23,21.74-1.15,.76-2.56,.16-4.11,.37-2.94-7.28-4.43-15.05-7.1-22.56-.48,3.06-.36,6.15-.38,9.22-.02,3.13,0,6.26,0,9.48,.73,.15,1.27,.26,1.95,.4,.45,.29,.45,.87,.42,1.46-.03,.56-.1,1.11-.17,1.81h-8.89c-.87-.74-.2-1.81-.41-2.67,.38-.94,1.32-.59,2.16-1v-27.78Z"/><path d="M201.61,170.24c-1.04-.54-1.97-.18-2.39-1.13-.33-1.43,1.17-1.81,1.64-2.81,3.83,0,7.57,.12,11.29-.04,3.09-.13,5.82,2.02,8.96,1.22,3.83,2.22,7.52,4.93,8.76,9.22,1.03,3.56,2.21,7.45,1.27,11.26-.73,2.98-2.07,5.81-3.3,8.66-1.78,4.13-5.61,4.52-8.64,6.39h-19.76c-.63-2.52,1.49-2.92,2.17-4.25v-28.53Z"/><path d="M430.83,199.46c.55,.09,1.21-.26,1.66,.53v2.85h-8.98c-3.62-3.87-3.81-9.67-7.38-14.57-.11,5.12-.68,9.65,1.45,14.32-2.55,.71-4.87,.37-7.14,.4-2.09,.03-4.19-.1-6.2-.15-.29-2.11,1.25-2.67,2.17-3.88v-28.76c-.63-.23-1.32-.47-2.01-.72-.85-1.49,.55-2.02,1.49-3.21,6.23,.18,12.76-.67,19.57,1.76,.84,.84,2.09,2.09,3.35,3.35q1.09,5.1,.28,9.33c-1.22,2.67-4.02,3.1-5.84,4.96,3.46,4.08,4.95,9.23,7.57,13.78Z"/><path d="M194.51,202.93h-4.06c-5.01-8.58-10.11-17.3-15.2-26.03-.35,.22-.51,.28-.62,.4-.12,.13-.25,.32-.25,.48-.01,7.08-.01,14.17-.01,20.93,.55,1.02,1.23,.64,1.82,.79,1.02,.91,.53,2.05,.29,3.26h-9.1c-.05-.62-.26-1.14-.09-1.36,.71-.92,1.54-1.75,2.32-2.6v-28.53c-.67-.23-1.35-.47-2.06-.72-1-1.45,.39-2.02,1.24-3.06h9.82c2.93,6.31,7.72,11.84,10.66,19.26,.97-5.54,.17-10.48,.6-15.44-.82-.29-1.5-.53-2.21-.78-.96-1.46,.44-2.02,1.27-3.05h7.54c1.59,2.41-.58,3.64-1.97,5.14,0,10.27,0,20.53,0,31.3Z"/><path d="M401.5,202.86h-12.32c-.86-.68-.12-1.76-.43-2.5,.37-1.4,1.92-.44,2.53-1.79-.73-1.41-1.57-3.03-2.47-4.78h-7.76c-.4,1.49-2.3,2.7-2,3.64,.52,2.23,1.39,2.02,2.1,2.1,.91,1.02,.61,2.11,.18,3.36h-8.7c-.89-.77-.2-1.84-.43-2.74,1.92-1.13,3.06-2.62,3.64-4.92,1.87-7.46,3.95-14.86,6.69-22.06,.06-.15,.18-.28,.27-.42-1.42-.91-1.22-2.26-.97-3.62,1.62-1.68,3.47-2.91,5.96-2.82,1.04,.48,1.83,1.17,2.2,2.37,2.73,8.72,5.45,17.45,8.33,26.13,.51,1.52,1.05,3.23,2.51,4.28,1.39,1,1.11,2.29,.67,3.79Z"/><path d="M293.42,214.86c2.33-2.24,4.34-4.9,7.28-5.82,2.11,2.2,4.11,4.3,5.65,5.9h160.85c-1.28,.48-.05-.11-.36,.62-.07,.17-.27,.41-.41,.41-52.5,.02-105.01,.02-157.67,.02-1.99,3.15-6.09,3.93-8.09,7.31-2.71-2.7-5.1-5.48-10.1-7.4H151.47c1.38-.45,.14,.04,.58-.62,.11-.16,.28-.4,.42-.4,46.98-.02,93.97-.02,140.95-.02Z"/><path d="M353.24,171.69c-.71-1.3-2.82-1.71-2.21-3.97,7.57-1.02,15.42,1.09,23.35-1.77,.07,2.41,.21,4.5,.16,6.6-.04,1.87,.42,3.83-.35,5.61-4.68-.33-3.59-5.15-5.85-6.97h-6.68v10.04c.23-.22,.45-.45,.68-.67,.4,.91,.8,1.83,1.07,2.44,2.26-.56,2.77-1.97,3.23-3.56h2.96v10.24c-.49,.73-1.57,.14-2.64,.33-1.1-1.74-1.63-4.48-5.19-3.33-.7,1.7-.11,3.85-.22,5.92-.12,2.14-.03,4.29-.03,6.1,.56,1.03,1.23,.64,1.83,.8,1.01,.91,.52,2.04,.28,3.27h-12.62c-.07-.61-.28-1.13-.12-1.34,.71-.92,1.53-1.75,2.34-2.65v-27.09Z"/><path d="M312.97,170.26c-1.02-.57-1.97-.19-2.38-1.13-.25-1.39,1.03-1.9,1.64-2.67h11.07c1.34,2.59-.64,3.67-1.98,5.11v25.99c2.34,3.67,5.15,1.44,7.88,.47,.83-2.73,.85-6,4.81-7.14v11.88h-23.24c-.61-2.27,1.49-2.68,2.21-3.97v-28.55Z"/><path d="M288.09,171.64c-1.27-1.38-3.2-2.46-2.09-5.11h11.11c.51,.61,1.83,1.04,1.66,2.4-.31,1.08-1.14,.94-2.13,.95v29.3q3.34,.14,6.46-1.1c2.12-1.9,.32-6.37,4.46-7.01,.27,.41,.64,.72,.64,1.03,.04,3.52,.03,7.04,.03,10.74h-22.11c-1.6-2.44,.6-3.66,1.97-5.16,0-8.68,0-17.36,0-26.04Z"/><path d="M270.31,203.02c-.04-2.55,1.6-2.98,2.35-4.18v-27.15c-.92-1.39-3.2-2.3-2.01-5.17,1.44-.62,3.39-.13,5.26-.21,1.94-.08,3.89-.02,5.52-.02,.83,.74,1.41,1.26,1.93,1.72q0,1.17-2.25,3.49v27.49c.81,.93,2.02,1.66,2.4,2.89-.37,.53-.57,1.09-.78,1.09-4.07,.05-8.15,.04-12.42,.04Z"/><path d="M162.52,197.67q2.01,2.25,2.28,5.11h-11.62v-2.86c.7-.7,1.39-1.39,2.16-2.16v-26.32c-.62-.43-1.58-1.09-2.14-1.47v-3.54h11.26c.89,.76,.21,1.82,.45,2.75-.8,.84-1.6,1.68-2.39,2.5v25.98Z"/><path class="cls-1" d="M221.78,192.91c-1.43,1.37-2.04,3.1-2.55,4.93-2.27,1.55-4.79,2.15-8.13,1.22v-27.83h6.85c5.35,6.3,3.48,14.21,3.84,21.68Z"/><path class="cls-1" d="M420.76,172.81c0,2.73,0,5.46,0,8.18-1.07,1.52-2.38,2.45-4.54,1.62v-11.45h2.89c.54,.54,1.09,1.09,1.64,1.64Z"/><path class="cls-1" d="M384.85,179.78c.67,3.78,2.84,6.32,2.74,9.96-2.03,.35-4.02,.83-5.62-1.23,.88-2.66,1.75-5.32,2.88-8.73Z"/></g><g><path d="M16.17,197.12c-.01-.96-.14-1.88,.81-2.64,.87-.7,2-1.41,1.27-3.83-1.33-1.72-2.7-4.54-5.87-7.38,7.65-.81,13.86-.3,19.65,1.14,1.18-1.65,.48-2.29-.19-3.04-6.13-6.83-13.67-12.15-20.14-18.66-2.22-2.23-4.95-4.18-7.37-6.43,2.55-2.46,5.08-4.91,7.72-7.46,1.25,.2,1.61,2.38,3.24,2.13,1.37-.38,.44-1.91,1.94-2.51,5.47,2.46,9.23,7.31,13.17,11.96-.43,.69-1.05,.7-1.72,.48-.53-.39-1.01-.83-1.47-1.3l-1.34-1.34-1.3-1.3-1.38-1.38c-.31-.31-.61-.61-.86-.88,.04,.03-.41-.26-.37-.22,.04,.04-.03-.39-.01-.36,.02,.03-.33,.13-.32,.15,0,.02,.37,.07,.38,.08,.19,.25,.39,.46,.62,.66,.25,.25,.48,.49,.73,.73,.4,.4,.79,.79,1.18,1.18l1.24,1.24c.41,.41,.82,.82,1.23,1.23,.4,.39,.77,.81,1.22,1.15,.26,.26,.56,.46,.9,.6,0,0,.45,.3,.45,.3s.44,.32,.44,.32c.3,.22,.62,.41,.95,.58,.31,.23,.61,.47,.9,.72,.27,.28,.54,.55,.82,.82l1.18,1.18c.23,.23,.47,.47,.7,.7,.21,.18,.41,.39,.56,.62-.02-.02,.38,0,.36-.02-.02-.01-.26,.25-.28,.23-.01-.02-.13-.36-.15-.37-.24-.2-.45-.4-.66-.62-.25-.25-.48-.48-.73-.73-.4-.4-.8-.8-1.2-1.2-.44-.44-.86-.89-1.37-1.24-.72-.5-1.47-.98-.69-2,.96-.01,1.82-.07,2.64,.8,2.56,2.72,5.26,5.32,7.91,7.97-.38,1.47-3.28,1.82-1.62,4.5,.72-1.05,1.36-1.98,2.11-3.07,2.26,3.12,4.23,5.83,6.34,8.74,5.16-5.84,10.56-11.64,15.83-17.53,3.21-3.59,6.58-7.03,9.5-10.39,2.15,2.15,4.29,4.29,7.16,7.16,.02,.13,.12,1.47-1.27,2.37,.79,.84,1.59,1.68,2.35,2.48,.08,1.74-1,2.44-2.37,2.88,0,0-.55,.14-.55,.14-.34,.21-.57,.5-.69,.89-.16,.35-.36,.67-.62,.96-.27,.28-.53,.56-.78,.84,0,0-.4,.41-.41,.41-.29,.26-.56,.53-.82,.82,0,0-.41,.41-.41,.41-.29,.27-.57,.55-.84,.84-.14,.14-.28,.28-.43,.43-.3,.29-.59,.58-.88,.88-.15,.15-.3,.3-.45,.45-.31,.31-.61,.62-.92,.93-.16,.16-.32,.31-.49,.46-.33,.33-.66,.65-1.02,.96-.19,.16-.37,.31-.56,.47-1.14,.94-2.45,1.68-3.34,2.86-.23,.28-.44,.59-.62,.89,.02-.03-.1,.46-.08,.44s-.36-.25-.35-.27,.44-.06,.46-.08c.14-.34,.32-.64,.55-.92,.55-.65,1.11-1.25,2.02-1.31,.19,.12,.38,.23,.57,.35,.6,2.89-2.67,3.42-3.36,5.53,1.73,1.12,3.83-.33,5.55,.78-3.78,5.63-7.84,11.07-11.07,17.29,6.16,6.77,13.73,11.41,18.89,17.98-2.15,2.15-4.39,4.39-7.03,7.03-1.05,.05-1.26-2.37-2.98-2.41-.35,1.7-2.12,2.21-2.83,3.61-1.31-1.25-2.53-2.4-3.86-3.66-.83,1.69-.2,3.28-.42,4.79-.25,.11-.51,.22-.77,.33-1.66-.08-2.31-1.33-2.95-2.57-.65-1.71,.1-3.14,.9-4.56,.26-.41,.6-.75,1.01-1.01,.61-.25,1.24-.26,1.84,0,.33,.08,.62,.26,.82,.54-.02-.02,.43-.11,.41-.13-.02-.02-.26,.33-.28,.32-.02-.02-.24-.37-.27-.4-.37-.2-.71-.38-1.07-.58-.68-.35-1.04-.9-1.2-1.6-.03-.68,.64-1.16,.55-1.84-.18-.32-.41-.62-.68-.86-.23-.18-.44-.42-.58-.66,.02,.02-.39-.04-.37-.03,.02,.01,.21-.31,.23-.29,.02,.01,.09,.38,.11,.41,.31,.25,.56,.5,.81,.79,.31,.33,.49,.7,.55,1.13-.23,.39-.49,.75-.77,1.1-.34,.34-.72,.61-1.15,.82-.48,.16-.96,.23-1.46,.23-.49-.09-.97-.23-1.43-.41-.21-.12-.43-.24-.64-.36-.37-.31-.66-.68-.88-1.1-.1-.2-.21-.41-.31-.61-.24-.37-.5-.73-.78-1.07-.14-.16-.28-.33-.42-.5-.28-.32-.57-.65-.86-.96-.14-.16-.29-.32-.43-.48-.3-.32-.6-.63-.89-.95-.15-.16-.29-.33-.44-.49-.3-.32-.59-.65-.87-.99-.13-.17-.26-.35-.4-.52-.39-.5-.79-1-1.18-1.51-.24-.32-.47-.66-.68-1.01-.17-.35-.34-.71-.52-1.07-.2-.34-.4-.69-.62-1.02-.25-.33-.5-.66-.76-.99-.15-.16-.29-.33-.44-.49-.32-.35-.62-.7-.94-1.05-.19-.18-.37-.34-.55-.52-1.37-1.08-2.37-2.67-4.87-3.06-4.57,1.12-7.12,4.8-8.82,9.36-.64,1.71-.1,4.11-2.67,4.74-.26-.09-.52-.18-.79-.27v-6.09c-6.27,4.48-9.4,11.25-15.23,15.77-3.65-.38-4.9-3.88-7.12-5.38-.69-2.69,1.06-3.61,2.2-4.87-1.11-.88-2.85-.89-3.44-2.52,.83-.44,1.06-1.69,2.27-1.64,.22-.07,.44-.14,.65-.21,.59-.37,1.01-.9,1.36-1.48,.23-.38,.46-.75,.71-1.11,.27-.33,.56-.65,.87-.95,.15-.15,.29-.31,.44-.46,.29-.29,.59-.59,.88-.89,.15-.15,.29-.29,.44-.44,.3-.28,.59-.57,.87-.88,.15-.15,.29-.29,.44-.44,.3-.29,.6-.58,.89-.88,.15-.15,.3-.3,.45-.45,.31-.31,.61-.61,.92-.92,.16-.16,.32-.31,.49-.46,.33-.33,.66-.65,1-.96,.18-.15,.36-.3,.54-.46,.84-.8,1.93-1.31,2.62-2.27,.3-.5,.64-.99,1.06-1.38,.2-.22,.43-.44,.66-.63-.02,.02,.14-.39,.12-.37-.02,.01,.2,.34,.18,.35s-.42,0-.44,.02c-.19,.3-.4,.54-.67,.76-.27,.28-.51,.57-.74,.87-.32,.56-.72,.97-1.41,.95-.17-.12-.34-.24-.5-.37Z"/><path d="M23.28,223.18c-1.22,.12-1.34-1.28-2.27-1.5v-3.94c.92-.86,1.94-.28,2.73-.46,1.29-.36,0-2.59,1.9-2.39,3.64,1.27,5.81-.54,7.25-3.59,.78-1.64,.61-3.99,3.35-3.94,.98,.12,1.51,1.06,2.43,1.34,1.23-.57,.67-2.09,1.53-2.85,1.5-1.8,3.29-2.58,5.58-1.62,.39,.39,.79,.79,1.18,1.18,.4,.39,.77,.81,1.18,1.18,.29,.26,.38,.53,.29,.79-.1,.26-.19,.39-.29,.39-.13,.32-.36,.56-.63,.74,.05,.03,.15,.49,.19,.51,.78,1.01,1.85,1.59,2.81,2.31,.39,.39,.79,.79,1.18,1.18,.39,.39,.79,.79,1.18,1.18,.39,.39,.79,.79,1.18,1.18,.39,.39,.79,.79,1.18,1.18,.39,.39,.79,.79,1.18,1.18,.39,.39,.79,.79,1.18,1.18,1,1.04,3.13,1.34,2.37,3.55-1.35,1.44-2.19,3.03-2.32,5.11-.13,2.05-1.1,3.7-3.59,3.62-8.63-7.31-9.5-7.59-19.68-6.44-2.01,1.44-2.43,4.32-4.85,5.39-2.93,.49-3.59-1.72-4.42-3.72-.08-.48-.19-.96-.32-1.43-.21-.42-.5-.8-.88-1.1-.22-.09-.44-.17-.66-.26Z"/><path d="M13.8,232.66c-.13-.74,.32-1.15,.92-1.16,2.32-.06,4.64-.02,6.92-.02,.57-2.88,2.17-5.38,1.64-8.29,3.46,.43,2.41,3.63,3.42,5.57,0,1.75-1.64,3.19-.8,5.5,2.18,1.79,4.57,1.71,7.03-.04,1.04-3.01-1.3-5.98,.69-9.34,3.43-2.66,7.37-2.24,11.18-.31,1.84,2.67,1.07,5.77,2.73,8.09,.69,.97,1.54,1.77,2.64,2.57,2.34,.23,4.78,1.09,7.12,.63,2.66-1.66,1.28-5.31,3.9-6.74,.73-.13,1.13,.31,1.16,.91,.07,1.53,.02,3.06,.02,4.96,2.21,.28,3.88-1.85,5.92-1.13,.15,.2,.31,.41,.46,.61,.2,.78,.01,1.5-.33,2.2-.04,.25-.09,.5-.13,.75-1.69,2.12-3.45,1.3-5.56,.11-.41,.57-.96,1.34-1.68,2.34-3.02-.56-6.12,1.06-8.87-1.27-2.61,.48-5.34-.83-7.95,.82-1,.63-2.63,.24-3.96,.37-7.57,.77-14.97-1.29-22.66-1.34,.3-1.74,1.73-.63,2.42-1.06,.79-.49,1.45-1.19,1.98-1.63,.35-1.5-.68-1.97-1.63-3.08h-6.58Z"/><path d="M68.29,233.84c1.79-2.3,4.06-1.43,5.9-.45,1.14,.61,2.31-.06,3.61,1-.93,.77-1.37,2.06-2.94,1.8-2.35-.38-4.2,1.82-6.57,1.2-1.13-1.18,1.17-2.37,0-3.55Z"/><path d="M4.33,210.15c.14-.71-.33-1.52,.36-2.14,3.52-3.15,6.31-7.06,10.3-9.7,.17,.16,.34,.32,.51,.48,.19,.73,.03,1.36-.51,1.89-.4,.39-.79,.79-1.18,1.18-.4,.39-.79,.79-1.18,1.18-.4,.39-.79,.79-1.18,1.18-.4,.39-.79,.79-1.18,1.18-.4,.39-.79,.79-1.18,1.18-.4,.39-.79,.79-1.18,1.18-1.05,.99-1.34,3.13-3.55,2.37Z"/><path d="M78.95,166.32c-.14,.71,.33,1.52-.37,2.15-3.1,2.77-5.56,6.23-9.11,8.51-.17-.16-.34-.32-.51-.48-.19-.73-.03-1.36,.51-1.89,.4-.39,.79-.79,1.18-1.18,.4-.39,.79-.79,1.18-1.18,.4-.39,.79-.79,1.18-1.18,.4-.39,.79-.79,1.18-1.18,.4-.39,.79-.79,1.18-1.18,.4-.39,.79-.79,1.18-1.18,.64-.69,1.02-1.92,2.37-1.18Z"/><path d="M14.18,232.51c-1.04,1.95-3.07,.64-3.17,2.54-.91-.54-.72-1.14-.76-1.71,.95-1.38,2.39-.36,3.93-.83Z"/><path d="M69.48,176.98c.03,.82-.36,1.21-1.18,1.18-.32-1.11,.05-1.53,1.18-1.18Z"/><path d="M14.99,198.3c-.03-.82,.36-1.21,1.18-1.18,.32,1.11-.05,1.53-1.18,1.18Z"/><path class="cls-1" d="M61.19,229.1c0,2.16-.12,4.32,.04,6.47,.11,1.46-.93,2.02-1.91,3.14-5.03-.66-10.24-1.86-15.75-1.24v-11.17l-1.9-1.9c-2.14,.23-4.66-.99-6.5,1.81v11.84c-4.02,2.09-7.52-1.16-11.6-.59-.61-2.64-.11-5.3-.32-7.68,.82-1.03,1.67-.51,2.4-.66,.2,.03,.4,.06,.59,.09,.35,.12,.65,.32,.9,.58-.01-.01,.39,.3,.37,.29-.01-.01,.41,.2,.4,.19-.01,0,.42,.04,.41,.03-.01,0,.39-.13,.38-.13,0,0,.3-.27,.3-.27,0,0,.16-.37,.16-.37s.05-.4,.05-.4v-2.97c1.38-1.36,2.78-2.74,4.2-4.14,5.45,0,10.94,0,16.44,0,1.76,1.41,2.97,3.52,5.39,4.1-1.63,1.06-1.09,2.71-1.15,4.19,0,0,.09,.45,.08,.43,0-.02,.13,.38,.12,.36,0-.02,.17,.31,.16,.3-.01-.02,.23,.23,.23,.21,0-.02,.3,.08,.31,.06s.33-.08,.35-.1c.02-.02,.33-.21,.35-.23s.32-.31,.34-.34c.23-.32,.41-.63,.56-.98,.57-.98,.89-2.07,1.61-2.94,.21-.11,.43-.22,.64-.33,1.11-.09,1.11,.68,1.21,1.47,.07,.59,.44,1.03,1.16,.9Z"/><path class="cls-1" d="M36.31,207.78c-1.12-.09-1.18,.68-1.18,1.48,0,2.5,0,5,0,7.75h-9.15c-.67-.57-.19-1.4-.33-2.12,.34-.14,.94-.24,.97-.42,.44-3.15-.25-6.46,2.08-9.88,2.05-2.05,4.67-4.67,7.26-7.26h8.36c.84,1.56-.41,2.24-.87,2.69-.11,2.28,2.3,2.49,2.35,4.21-1.16-.05-1.58,.98-2.16,1.64-.77,.88-1.66,.72-2.58,.73,0,0-.55,.19-.55,.19-.58,.21-.84,.81-1.34,1.12-.36,.18-.73,.29-1.13,.32-.4-.03-.78-.13-1.14-.3,0,0-.58-.14-.58-.14Z"/><path class="cls-1" d="M45.9,180.87c-1.58,1.64-2.93,3.04-4.41,4.58-2.35-.7-3.42-2.94-5.24-4.29,2.42-1.75,2.78-5.08,5.41-6.42,2.05,1.48,3.17,3.61,4.23,6.13Z"/><path class="cls-1" d="M44.05,187.78c1.67-1.72,2.53-3.28,4.41-3.8,1.87,2.76,3.71,5.47,5.64,8.33,.06,1.22-1.17,1.67-2.18,2.7-2.96-1.81-4.94-4.68-7.88-7.23Z"/><path class="cls-1" d="M57.63,194.75c-1.53-2.61-3.05-5.23-4.84-8.29,3.42,0,6.64-.03,9.86,.02,.58,0,1.03,.44,.9,1.16-.03,.25-.06,.49-.09,.74-.75,1.56-1.5,3.12-2.44,4.58-.24,.43-.51,.85-.8,1.25-.51,.6-1.14,.93-1.94,.91-.22-.12-.43-.24-.65-.37Z"/><path class="cls-1" d="M38.65,189.49c-1.29,1.15-2.72,2.44-4.31,3.86-.84-1.22-2.96-1.82-2.84-4.16,.23-2.16,3.2-2.72,2.54-5.67,2.87,1.51,4.96,2.66,4.61,5.97Z"/><path class="cls-1" d="M54.08,230.29c1.85-.64,2.17-2.57,2.22-3.88,.08-1.9,2.22-2.59,1.48-4.41h2.22c0,.94,.2,1.91-.79,2.59-.79,.54-.25,1.43-.4,2.15-1.05,1.87-1.34,4.04-2.37,5.92-.71,.63-.48,1.73-1.18,2.37-.79,.7-1.58,.7-2.37,0-.7-.79-.7-1.58,0-2.37,.7-.64,.49-1.73,1.18-2.37Z"/><path class="cls-1" d="M42.49,191.22c1.64,1.5,3.07,2.8,4.88,4.46h-7.18c-.33-.3-1.03-.92-1.64-1.46,.54-2.29,1.7-3.27,3.95-2.99Z"/><path class="cls-1" d="M17.54,185.48h12.62c-1.95,1.39-4.15,.86-6.25,.96-2.11,.1-4.22,.02-6.34,.02l-.03-.98Z"/><path class="cls-1" d="M69.48,176.98c-.82-.03-1.21,.36-1.18,1.18-1.18,.79-2.37,1.58-3.55,2.37,0-3.23,2.62-4.38,4.74-5.92v2.37Z"/><path class="cls-1" d="M57.63,197.12c-.78,.42-1.55,.84-2.2,1.19-1.36,.09-1.52-1.24-3.19-1.71,2.24-.78,4.08-.68,5.38-1.85,.66,.49,.77,1.14,.53,1.88-.18,.16-.35,.32-.53,.48Z"/><path class="cls-1" d="M45.79,207.78h2.37c.79,1.18,1.58,2.37,2.37,3.55-2.6,.18-3.7-1.65-4.74-3.55Z"/><path class="cls-1" d="M4.33,210.15c1.18-.79,2.37-1.58,3.55-2.37,.39,2.53-1.72,3.3-3.01,4.69-.87-.8-.42-1.61-.55-2.32Z"/><path class="cls-1" d="M14.99,198.3c.82,.03,1.21-.36,1.18-1.18,.79-.39,1.58-.79,2.37-1.18,.18,2.6-1.65,3.7-3.55,4.74v-2.37Z"/><path class="cls-1" d="M25.67,191.2c-1.37,.04-1.4-1.38-2.95-1.84,2.2-.73,3.62-.68,5.12-.26-.36,1.18-1.08,1.83-2.17,2.1Z"/><path class="cls-1" d="M60,222c-.79-1.18-1.58-2.37-2.37-3.55h2.37c.79,1.18,1.58,2.37,2.37,3.55h-2.37Z"/><path class="cls-1" d="M41.05,188.83c-1.49-.08-1.25-1.02-1.02-1.96,1.08-.62,2.13-.62,3.22,0,.23,.94,.48,1.88-1.02,1.96,0,0-.49-.07-.49-.07,0,0-.11-.46-.11-.46,0,0-.11,.46-.11,.47,0,0-.48,.06-.48,.06Z"/><path class="cls-1" d="M78.95,166.32c-.79,.39-1.58,.79-2.37,1.18-.53-1.83,.81-2.53,1.77-3.55,.94,.83,.47,1.65,.6,2.36Z"/><path class="cls-1" d="M63.55,187.64c.95,.15,1.17-.81,1.95-1.26,1.14,2.22-.56,2.84-1.95,3.63-.17-.16-.34-.32-.51-.48-.19-.73-.02-1.36,.51-1.89Z"/><path class="cls-1" d="M28.02,160.4h2.37c.39,.79,.79,1.58,1.18,2.37h-2.37c-.39-.79-.79-1.58-1.18-2.37Z"/><path class="cls-1" d="M58.82,197.12v2.31c-1.8-.44-.93-1.58-1.18-2.31,.2-.15,.39-.3,.59-.45,.2,.15,.39,.3,.59,.45Z"/><path class="cls-1" d="M63.55,190.01c-.18,.9,.59,2.27-1.18,2.37-.17-.21-.35-.41-.53-.62,.04-1.1,0-2.29,1.71-1.75Z"/><path class="cls-1" d="M61.19,193.57c-.18,.9,.59,2.27-1.18,2.37-.17-.16-.34-.32-.51-.48-.19-.73-.03-1.36,.51-1.89,.2-.15,.39-.3,.59-.45,.2,.15,.39,.3,.59,.45Z"/><path class="cls-1" d="M22.18,189.42c-.97,.78-1.63,.82-2.32,.17,.49-1.29,1.24-.94,2.32-.17Z"/><path class="cls-1" d="M51.8,181.13c-.97,.78-1.63,.82-2.32,.17,.49-1.29,1.24-.94,2.32-.17Z"/><path class="cls-1" d="M17.43,151.41c.83-.75,2-.79,2.19,.17,.25,1.21-1.05,.18-1.57,.5-.05,.03-.4-.42-.62-.66Z"/><path class="cls-1" d="M71.85,168.69c.03,.82-.36,1.21-1.18,1.18-.03-.82,.36-1.21,1.18-1.18Z"/><path class="cls-1" d="M75.4,168.69c.03,.82-.36,1.21-1.18,1.18-.03-.82,.36-1.21,1.18-1.18Z"/><path class="cls-1" d="M29.2,170.47c-.39,.55-.78,.55-1.17,0,.39-.55,.78-.55,1.17,0Z"/><path class="cls-1" d="M32.16,171.05c-.55-.39-.55-.78,0-1.17,.55,.39,.55,.78,0,1.17Z"/><path class="cls-1" d="M61.18,170.47c-.39,.55-.78,.55-1.17,0,.39-.55,.78-.55,1.17,0Z"/><path class="cls-1" d="M70.66,169.88c.1,.57-.16,.93-.7,1.05-.09,.02-.37-.26-.35-.35,.12-.54,.48-.8,1.05-.7Z"/><path class="cls-1" d="M74.22,169.87c.03,.82-.36,1.21-1.18,1.18-.03-.82,.36-1.21,1.18-1.18Z"/><path class="cls-1" d="M26.83,171.65c-.39,.55-.78,.55-1.17,0,.39-.55,.78-.55,1.17,0Z"/><path class="cls-1" d="M73.03,171.06c.03,.82-.36,1.21-1.18,1.18-.03-.82,.36-1.21,1.18-1.18Z"/><path class="cls-1" d="M31.56,172.83c-.39,.55-.78,.55-1.17,0,.39-.55,.78-.55,1.17,0Z"/><path class="cls-1" d="M34.53,173.42c-.55-.39-.55-.78,0-1.17,.55,.39,.55,.78,0,1.17Z"/><path class="cls-1" d="M58.22,172.25c.55,.39,.55,.78,0,1.17-.55-.39-.55-.78,0-1.17Z"/><path class="cls-1" d="M71.85,172.24c.03,.82-.36,1.21-1.18,1.18-.03-.82,.36-1.21,1.18-1.18Z"/><path class="cls-1" d="M28.02,174.02c.39-.55,.78-.55,1.17,0-.39,.55-.78,.55-1.17,0Z"/><path class="cls-1" d="M64.15,174.61c-.55-.39-.55-.78,0-1.17,.55,.39,.55,.78,0,1.17Z"/><path class="cls-1" d="M70.66,173.43c.03,.82-.36,1.21-1.18,1.18-.03-.82,.36-1.21,1.18-1.18Z"/><path class="cls-1" d="M32.76,175.79c-.1-.57,.16-.93,.7-1.05,.09-.02,.37,.26,.35,.35-.12,.54-.48,.8-1.05,.7Z"/><path class="cls-1" d="M38.09,174.62c.55,.39,.55,.78,0,1.17-.55-.39-.55-.78,0-1.17Z"/><path class="cls-1" d="M56.44,175.2c-.39,.55-.78,.55-1.17,0,.39-.55,.78-.55,1.17,0Z"/><path class="cls-1" d="M59.41,175.79c-.55-.39-.55-.78,0-1.17,.55,.39,.55,.78,0,1.17Z"/><path class="cls-1" d="M32.75,175.8c.1,.57-.16,.93-.7,1.05-.09,.02-.37-.26-.35-.35,.12-.54,.48-.8,1.05-.7Z"/><path class="cls-1" d="M61.78,175.8c.55,.39,.55,.78,0,1.17-.55-.39-.55-.78,0-1.17Z"/><path class="cls-1" d="M52.9,177.57c.39-.55,.78-.55,1.17,0-.39,.55-.78,.55-1.17,0Z"/><path class="cls-1" d="M57.63,177.57c-.39,.55-.78,.55-1.17,0,.39-.55,.78-.55,1.17,0Z"/><path class="cls-1" d="M34.53,178.17c.55,.39,.55,.78,0,1.17-.55-.39-.55-.78,0-1.17Z"/><path class="cls-1" d="M59.41,178.17c.55,.39,.55,.78,0,1.17-.55-.39-.55-.78,0-1.17Z"/><path class="cls-1" d="M54.67,180.53c-.55-.39-.55-.78,0-1.17,.55,.39,.55,.78,0,1.17Z"/><path class="cls-1" d="M57.04,180.54c.55,.39,.55,.78,0,1.17-.55-.39-.55-.78,0-1.17Z"/><path class="cls-1" d="M60.01,181.71c-.1-.57,.16-.93,.7-1.05,.09-.02,.37,.26,.35,.35-.12,.54-.48,.8-1.05,.7Z"/><path class="cls-1" d="M64.74,180.53c.03,.82-.36,1.21-1.18,1.18-.03-.82,.36-1.21,1.18-1.18Z"/><path class="cls-1" d="M60,181.72c.03,.82-.36,1.21-1.18,1.18-.03-.82,.36-1.21,1.18-1.18Z"/><path class="cls-1" d="M62.37,182.9c-.03-.82,.36-1.21,1.18-1.18,.03,.82-.36,1.21-1.18,1.18Z"/><path class="cls-1" d="M52.3,184.08c-.55-.39-.55-.78,0-1.17,.55,.39,.55,.78,0,1.17Z"/><path class="cls-1" d="M54.67,184.08c-.55-.39-.55-.78,0-1.17,.55,.39,.55,.78,0,1.17Z"/><path class="cls-1" d="M58.81,182.91c.1,.57-.16,.93-.7,1.05-.09,.02-.37-.26-.35-.35,.12-.54,.48-.8,1.05-.7Z"/><path class="cls-1" d="M62.36,182.91c.1,.57-.16,.93-.7,1.05-.09,.02-.37-.26-.35-.35,.12-.54,.48-.8,1.05-.7Z"/><path class="cls-1" d="M42.23,188.83c.04,.58-.08,1.1-.78,.94-.19-.04-.27-.61-.4-.94,.39-.39,.79-.39,1.18,0Z"/><path class="cls-1" d="M22.1,192.38c-.1-.57,.16-.93,.7-1.05,.09-.02,.37,.26,.35,.35-.12,.54-.48,.8-1.05,.7Z"/><path class="cls-1" d="M20.91,193.57c-.03-.82,.36-1.21,1.18-1.18,.03,.82-.36,1.21-1.18,1.18Z"/><path class="cls-1" d="M62.37,192.38c.03,.82-.36,1.21-1.18,1.18-.4-1.19,.07-1.51,1.18-1.18Z"/><path class="cls-1" d="M19.72,194.75c-.03-.82,.36-1.21,1.18-1.18,.03,.82-.36,1.21-1.18,1.18Z"/><path class="cls-1" d="M23.28,194.74c-.1-.57,.16-.93,.7-1.05,.09-.02,.37,.26,.35,.35-.12,.54-.48,.8-1.05,.7Z"/><path class="cls-1" d="M31.57,194.74c-.57,.1-.93-.16-1.05-.7-.02-.09,.26-.37,.35-.35,.54,.12,.8,.48,.7,1.05Z"/><path class="cls-1" d="M19.72,194.75c.03,.82-.36,1.21-1.18,1.18-.03-.82,.36-1.21,1.18-1.18Z"/><path class="cls-1" d="M23.27,194.75c.1,.57-.16,.93-.7,1.05-.09,.02-.37-.26-.35-.35,.12-.54,.48-.8,1.05-.7Z"/><path class="cls-1" d="M25.65,195.34c.39-.55,.78-.55,1.17,0-.39,.55-.78,.55-1.17,0Z"/><path class="cls-1" d="M31.58,194.75c.57-.1,.93,.16,1.05,.7,.02,.09-.26,.37-.35,.35-.54-.12-.8-.48-.7-1.05Z"/><path class="cls-1" d="M28.61,195.94c.55,.39,.55,.78,0,1.17-.55-.39-.55-.78,0-1.17Z"/><path class="cls-1" d="M25.64,163.36c-.39,.55-.78,.55-1.17,0,.39-.55,.78-.55,1.17,0Z"/><path class="cls-1" d="M24.46,197.71c-.39,.55-.78,.55-1.17,0,.39-.55,.78-.55,1.17,0Z"/><path class="cls-1" d="M19.72,152.1c.82-.03,1.21,.36,1.18,1.18-.82,.03-1.21-.36-1.18-1.18Z"/><path class="cls-1" d="M10.24,153.88c-.39,.55-.78,.55-1.17,0,.39-.55,.78-.55,1.17,0Z"/><path class="cls-1" d="M14.39,154.47c-.55-.39-.55-.78,0-1.17,.55,.39,.55,.78,0,1.17Z"/><path class="cls-1" d="M22.09,154.47c-.82,.03-1.21-.36-1.18-1.18,.82-.03,1.21,.36,1.18,1.18Z"/><path class="cls-1" d="M26.24,198.31c.55,.39,.55,.78,0,1.17-.55-.39-.55-.78,0-1.17Z"/><path class="cls-1" d="M46.98,198.9c.39-.55,.78-.55,1.17,0-.39,.55-.78,.55-1.17,0Z"/><path class="cls-1" d="M21.5,200.67c-.55-.39-.55-.78,0-1.17,.55,.39,.55,.78,0,1.17Z"/><path class="cls-1" d="M13.8,201.86c-.03-.82,.36-1.21,1.18-1.18,.03,.82-.36,1.21-1.18,1.18Z"/><path class="cls-1" d="M24.46,201.26c-.39,.55-.78,.55-1.17,0,.39-.55,.78-.55,1.17,0Z"/><path class="cls-1" d="M26.84,201.26c.39-.55,.78-.55,1.17,0-.39,.55-.78,.55-1.17,0Z"/><path class="cls-1" d="M45.79,201.26c.39-.55,.78-.55,1.17,0-.39,.55-.78,.55-1.17,0Z"/><path class="cls-1" d="M49.93,200.68c.55,.39,.55,.78,0,1.17-.55-.39-.55-.78,0-1.17Z"/><path class="cls-1" d="M12.62,203.04c-.03-.82,.36-1.21,1.18-1.18,.03,.82-.36,1.21-1.18,1.18Z"/><path class="cls-1" d="M19.13,201.86c.55,.39,.55,.78,0,1.17-.55-.39-.55-.78,0-1.17Z"/><path class="cls-1" d="M11.43,204.23c-.03-.82,.36-1.21,1.18-1.18,.03,.82-.36,1.21-1.18,1.18Z"/><path class="cls-1" d="M21.5,203.05c.55,.39,.55,.78,0,1.17-.55-.39-.55-.78,0-1.17Z"/><path class="cls-1" d="M25.06,204.22c-.55-.39-.55-.78,0-1.17,.55,.39,.55,.78,0,1.17Z"/><path class="cls-1" d="M48.16,203.63c.39-.55,.78-.55,1.17,0-.39,.55-.78,.55-1.17,0Z"/><path class="cls-1" d="M52.3,203.05c.55,.39,.55,.78,0,1.17-.55-.39-.55-.78,0-1.17Z"/><path class="cls-1" d="M10.25,205.41c-.03-.82,.36-1.21,1.18-1.18,.03,.82-.36,1.21-1.18,1.18Z"/><path class="cls-1" d="M23.28,155.66c-.82,.03-1.21-.36-1.18-1.18,.82-.03,1.21,.36,1.18,1.18Z"/><path class="cls-1" d="M46.97,205.41c-.82,.03-1.21-.36-1.18-1.18,.82-.03,1.21,.36,1.18,1.18Z"/><path class="cls-1" d="M9.06,206.6c-.03-.82,.36-1.21,1.18-1.18,.03,.82-.36,1.21-1.18,1.18Z"/><path class="cls-1" d="M12.62,206.59c-.1-.57,.16-.93,.7-1.05,.09-.02,.37,.26,.35,.35-.12,.54-.48,.8-1.05,.7Z"/><path class="cls-1" d="M23.27,206c-.39,.55-.78,.55-1.17,0,.39-.55,.78-.55,1.17,0Z"/><path class="cls-1" d="M73.62,154.48c.55,.39,.55,.78,0,1.17-.55-.39-.55-.78,0-1.17Z"/><path class="cls-1" d="M48.16,206.6c-.82,.03-1.21-.36-1.18-1.18,.82-.03,1.21,.36,1.18,1.18Z"/><path class="cls-1" d="M50.53,206c.39-.55,.78-.55,1.17,0-.39,.55-.78,.55-1.17,0Z"/><path class="cls-1" d="M55.26,206c-.39,.55-.78,.55-1.17,0,.39-.55,.78-.55,1.17,0Z"/><path class="cls-1" d="M59.99,206c-.39,.55-.78,.55-1.17,0,.39-.55,.78-.55,1.17,0Z"/><path class="cls-1" d="M7.88,207.78c-.03-.82,.36-1.21,1.18-1.18,.03,.82-.36,1.21-1.18,1.18Z"/><path class="cls-1" d="M12.62,206.6c.03,.82-.36,1.21-1.18,1.18-.03-.82,.36-1.21,1.18-1.18Z"/><path class="cls-1" d="M19.13,206.6c.55,.39,.55,.78,0,1.17-.55-.39-.55-.78,0-1.17Z"/><path class="cls-1" d="M12.62,156.25c.39-.55,.78-.55,1.17,0-.39,.55-.78,.55-1.17,0Z"/><path class="cls-1" d="M48.16,207.78v-1.18c.58-.04,1.1,.08,.94,.78-.04,.19-.61,.27-.94,.4Z"/><path class="cls-1" d="M16.18,156.25c.39-.55,.78-.55,1.17,0-.39,.55-.78,.55-1.17,0Z"/><path class="cls-1" d="M10.25,208.96c-.03-.82,.36-1.21,1.18-1.18,.03,.82-.36,1.21-1.18,1.18Z"/><path class="cls-1" d="M20.9,156.84c-.57,.1-.93-.16-1.05-.7-.02-.09,.26-.37,.35-.35,.54,.12,.8,.48,.7,1.05Z"/><path class="cls-1" d="M53.49,207.79c.55,.39,.55,.78,0,1.17-.55-.39-.55-.78,0-1.17Z"/><path class="cls-1" d="M58.81,208.37c-.39,.55-.78,.55-1.17,0,.39-.55,.78-.55,1.17,0Z"/><path class="cls-1" d="M62.36,208.37c-.39,.55-.78,.55-1.17,0,.39-.55,.78-.55,1.17,0Z"/><path class="cls-1" d="M10.24,208.97c.1,.57-.16,.93-.7,1.05-.09,.02-.37-.26-.35-.35,.12-.54,.48-.8,1.05-.7Z"/><path class="cls-1" d="M16.76,208.97c.55,.39,.55,.78,0,1.17-.55-.39-.55-.78,0-1.17Z"/><path class="cls-1" d="M24.46,156.84c-.82,.03-1.21-.36-1.18-1.18,.82-.03,1.21,.36,1.18,1.18Z"/><path class="cls-1" d="M75.99,156.84c-.55-.39-.55-.78,0-1.17,.55,.39,.55,.78,0,1.17Z"/><path class="cls-1" d="M22.09,158.03c-.82,.03-1.21-.36-1.18-1.18,.82-.03,1.21,.36,1.18,1.18Z"/><path class="cls-1" d="M60.01,210.74c.39-.55,.78-.55,1.17,0-.39,.55-.78,.55-1.17,0Z"/><path class="cls-1" d="M64.15,210.16c.55,.39,.55,.78,0,1.17-.55-.39-.55-.78,0-1.17Z"/><path class="cls-1" d="M13.81,211.93c.39-.55,.78-.55,1.17,0-.39,.55-.78,.55-1.17,0Z"/><path class="cls-1" d="M51.71,212.52c-.82,.03-1.21-.36-1.18-1.18,.82-.03,1.21,.36,1.18,1.18Z"/><path class="cls-1" d="M57.64,211.93c.39-.55,.78-.55,1.17,0-.39,.55-.78,.55-1.17,0Z"/><path class="cls-1" d="M17.35,213.11c-.39,.55-.78,.55-1.17,0,.39-.55,.78-.55,1.17,0Z"/><path class="cls-1" d="M24.46,156.84c.82-.03,1.21,.36,1.18,1.18-.82,.03-1.21-.36-1.18-1.18Z"/><path class="cls-1" d="M71.25,156.85c.55,.39,.55,.78,0,1.17-.55-.39-.55-.78,0-1.17Z"/><path class="cls-1" d="M52.89,213.7c-.82,.03-1.21-.36-1.18-1.18,.82-.03,1.21,.36,1.18,1.18Z"/><path class="cls-1" d="M56.44,213.7c-.57,.1-.93-.16-1.05-.7-.02-.09,.26-.37,.35-.35,.54,.12,.8,.48,.7,1.05Z"/><path class="cls-1" d="M62.38,213.11c.39-.55,.78-.55,1.17,0-.39,.55-.78,.55-1.17,0Z"/><path class="cls-1" d="M12.02,213.71c.55,.39,.55,.78,0,1.17-.55-.39-.55-.78,0-1.17Z"/><path class="cls-1" d="M15.58,158.03c.55,.39,.55,.78,0,1.17-.55-.39-.55-.78,0-1.17Z"/><path class="cls-1" d="M56.45,213.7c.82-.03,1.21,.36,1.18,1.18-.82,.03-1.21-.36-1.18-1.18Z"/><path class="cls-1" d="M19.13,159.21c-.55-.39-.55-.78,0-1.17,.55,.39,.55,.78,0,1.17Z"/><path class="cls-1" d="M22.1,158.03c.57-.1,.93,.16,1.05,.7,.02,.09-.26,.37-.35,.35-.54-.12-.8-.48-.7-1.05Z"/><path class="cls-1" d="M55.26,216.07c-.82,.03-1.21-.36-1.18-1.18,.82-.03,1.21,.36,1.18,1.18Z"/><path class="cls-1" d="M58.82,216.07c-.82,.03-1.21-.36-1.18-1.18,.82-.03,1.21,.36,1.18,1.18Z"/><path class="cls-1" d="M65.92,215.48c-.39,.55-.78,.55-1.17,0,.39-.55,.78-.55,1.17,0Z"/><path class="cls-1" d="M10.24,216.66c-.39,.55-.78,.55-1.17,0,.39-.55,.78-.55,1.17,0Z"/><path class="cls-1" d="M56.45,217.26c-.82,.03-1.21-.36-1.18-1.18,.82-.03,1.21,.36,1.18,1.18Z"/><path class="cls-1" d="M58.82,216.07c.82-.03,1.21,.36,1.18,1.18-.82,.03-1.21-.36-1.18-1.18Z"/><path class="cls-1" d="M5.52,217.85c.39-.55,.78-.55,1.17,0-.39,.55-.78,.55-1.17,0Z"/><path class="cls-1" d="M57.63,218.44c-.82,.03-1.21-.36-1.18-1.18,.82-.03,1.21,.36,1.18,1.18Z"/><path class="cls-1" d="M60,218.44v-1.18c.58-.04,1.1,.08,.94,.78-.04,.19-.61,.27-.94,.4Z"/><path class="cls-1" d="M71.85,217.85c.39-.55,.78-.55,1.17,0-.39,.55-.78,.55-1.17,0Z"/><path class="cls-1" d="M26.83,159.21c-.82,.03-1.21-.36-1.18-1.18,.82-.03,1.21,.36,1.18,1.18Z"/><path class="cls-1" d="M65.93,219.03c.39-.55,.78-.55,1.17,0-.39,.55-.78,.55-1.17,0Z"/><path class="cls-1" d="M75.39,220.22c-.39,.55-.78,.55-1.17,0,.39-.55,.78-.55,1.17,0Z"/><path class="cls-1" d="M9.66,221.99c-.55-.39-.55-.78,0-1.17,.55,.39,.55,.78,0,1.17Z"/><path class="cls-1" d="M68.89,221.99c-.55-.39-.55-.78,0-1.17,.55,.39,.55,.78,0,1.17Z"/><path class="cls-1" d="M13.21,160.39c-.55-.39-.55-.78,0-1.17,.55,.39,.55,.78,0,1.17Z"/><path class="cls-1" d="M26.83,159.21c.82-.03,1.21,.36,1.18,1.18-.82,.03-1.21-.36-1.18-1.18Z"/><path class="cls-1" d="M62.37,222c.82-.03,1.21,.36,1.18,1.18-.82,.03-1.21-.36-1.18-1.18Z"/><path class="cls-1" d="M73.04,222.59c.39-.55,.78-.55,1.17,0-.39,.55-.78,.55-1.17,0Z"/><path class="cls-1" d="M63.55,223.18c.82-.03,1.21,.36,1.18,1.18-.82,.03-1.21-.36-1.18-1.18Z"/><path class="cls-1" d="M68.29,224.36c-.57,.1-.93-.16-1.05-.7-.02-.09,.26-.37,.35-.35,.54,.12,.8,.48,.7,1.05Z"/><path class="cls-1" d="M71.84,223.77c-.39,.55-.78,.55-1.17,0,.39-.55,.78-.55,1.17,0Z"/><path class="cls-1" d="M64.74,224.37c.57-.1,.93,.16,1.05,.7,.02,.09-.26,.37-.35,.35-.54-.12-.8-.48-.7-1.05Z"/><path class="cls-1" d="M70.66,159.8c-.39,.55-.78,.55-1.17,0,.39-.55,.78-.55,1.17,0Z"/><path class="cls-1" d="M60,195.93c.03,.82-.36,1.21-1.18,1.18-.4-1.19,.07-1.51,1.18-1.18Z"/><path class="cls-1" d="M73.62,160.39c-.55-.39-.55-.78,0-1.17,.55,.39,.55,.78,0,1.17Z"/><path class="cls-1" d="M18.53,160.99c-.39,.55-.78,.55-1.17,0,.39-.55,.78-.55,1.17,0Z"/><path class="cls-1" d="M21.5,160.4c.55,.39,.55,.78,0,1.17-.55-.39-.55-.78,0-1.17Z"/><path class="cls-1" d="M75.41,160.99c.39-.55,.78-.55,1.17,0-.39,.55-.78,.55-1.17,0Z"/><path class="cls-1" d="M67.11,162.17c.39-.55,.78-.55,1.17,0-.39,.55-.78,.55-1.17,0Z"/><path class="cls-1" d="M71.84,162.17c-.39,.55-.78,.55-1.17,0,.39-.55,.78-.55,1.17,0Z"/><path class="cls-1" d="M20.9,163.36c-.39,.55-.78,.55-1.17,0,.39-.55,.78-.55,1.17,0Z"/><path class="cls-1" d="M29.2,162.77v1.18c-.58,.04-1.1-.08-.94-.78,.04-.19,.61-.27,.94-.4Z"/><path class="cls-1" d="M31.57,162.77c.82-.03,1.21,.36,1.18,1.18-.82,.03-1.21-.36-1.18-1.18Z"/><path class="cls-1" d="M73.62,163.94c-.55-.39-.55-.78,0-1.17,.55,.39,.55,.78,0,1.17Z"/><path class="cls-1" d="M29.21,163.96c.57-.1,.93,.16,1.05,.7,.02,.09-.26,.37-.35,.35-.54-.12-.8-.48-.7-1.05Z"/><path class="cls-1" d="M33.94,165.13c-.82,.03-1.21-.36-1.18-1.18,.82-.03,1.21,.36,1.18,1.18Z"/><path class="cls-1" d="M69.47,164.54c-.39,.55-.78,.55-1.17,0,.39-.55,.78-.55,1.17,0Z"/><path class="cls-1" d="M27.42,166.31c-.55-.39-.55-.78,0-1.17,.55,.39,.55,.78,0,1.17Z"/><path class="cls-1" d="M33.94,165.13c.82-.03,1.21,.36,1.18,1.18-.82,.03-1.21-.36-1.18-1.18Z"/><path class="cls-1" d="M71.84,165.73c-.39,.55-.78,.55-1.17,0,.39-.55,.78-.55,1.17,0Z"/><path class="cls-1" d="M20.92,166.91c.39-.55,.78-.55,1.17,0-.39,.55-.78,.55-1.17,0Z"/><path class="cls-1" d="M36.31,167.5c-.82,.03-1.21-.36-1.18-1.18,.82-.03,1.21,.36,1.18,1.18Z"/><path class="cls-1" d="M66.52,167.5c-.55-.39-.55-.78,0-1.17,.55,.39,.55,.78,0,1.17Z"/><path class="cls-1" d="M73.04,167.5c-.1-.57,.16-.93,.7-1.05,.09-.02,.37,.26,.35,.35-.12,.54-.48,.8-1.05,.7Z"/><path class="cls-1" d="M26.24,168.68c-.55-.39-.55-.78,0-1.17,.55,.39,.55,.78,0,1.17Z"/><path class="cls-1" d="M29.21,168.1c.39-.55,.78-.55,1.17,0-.39,.55-.78,.55-1.17,0Z"/><path class="cls-1" d="M36.31,167.5c.82-.03,1.21,.36,1.18,1.18-.82,.03-1.21-.36-1.18-1.18Z"/><path class="cls-1" d="M69.47,168.1c-.39,.55-.78,.55-1.17,0,.39-.55,.78-.55,1.17,0Z"/><path class="cls-1" d="M71.85,168.69c-.03-.82,.36-1.21,1.18-1.18,.03,.82-.36,1.21-1.18,1.18Z"/><path class="cls-1" d="M76.59,167.5c.03,.82-.36,1.21-1.18,1.18-.03-.82,.36-1.21,1.18-1.18Z"/><path class="cls-1" d="M23.28,169.28c.39-.55,.78-.55,1.17,0-.39,.55-.78,.55-1.17,0Z"/><path class="cls-1" d="M34.53,169.87c-.55-.39-.55-.78,0-1.17,.55,.39,.55,.78,0,1.17Z"/><path class="cls-1" d="M37.5,168.69c.57-.1,.93,.16,1.05,.7,.02,.09-.26,.37-.35,.35-.54-.12-.8-.48-.7-1.05Z"/><path class="cls-1" d="M64.15,169.87c-.55-.39-.55-.78,0-1.17,.55,.39,.55,.78,0,1.17Z"/><path class="cls-1" d="M54.08,214.89c-.82,.03-1.21-.36-1.18-1.18,.82-.03,1.21,.36,1.18,1.18Z"/><path class="cls-1" d="M41.05,206.6c.21,1.27,1.46,2.06,1.25,3.63-.28,2.12-.07,4.3-.07,6.54-1.8,1.04-3.71,.13-5.92,.7v-9.69c.43-.36,.78-.8,1.18-1.18,1.18-.83,2.37-.83,3.55,0Z"/><path class="cls-1" d="M47.47,213.77c2.95-.69,3.9,1.56,5.66,3.23h-9.57v-7.53c2.17,1.48,2.69,2.02,3.91,4.3Z"/><path class="cls-1" d="M25.65,229.1c-.25-1.65-1.65-5.15-2.37-5.92,.29-1.63,1.16-1.44,2.23-.74,.42,.28,.88,.49,1.32,.74-.11,2.33,.11,4.54,2.37,5.92,.69,.64,.48,1.73,1.18,2.37,.89,.99,.46,2.07,.48,2.98-1.53,1.29-2.17,.28-2.85-.61-.7-.64-.48-1.74-1.18-2.37-.71-.63-.45-1.75-1.18-2.37Z"/><path class="cls-1" d="M45.78,207.77c-.57,.1-.93-.16-1.05-.7-.02-.09,.26-.37,.35-.35,.54,.12,.8,.48,.7,1.05Z"/><path class="cls-1" d="M26.84,223.17c-.1-.57,.16-.93,.7-1.05,.09-.02,.37,.26,.35,.35-.12,.54-.48,.8-1.05,.7Z"/><path class="cls-1" d="M55.85,223.17c-.55-.39-.55-.78,0-1.17,.55,.39,.55,.78,0,1.17Z"/><path class="cls-1" d="M40.49,225.57c.51,.52,1.05,1.08,1.64,1.68v11.13h-5.42c.07,.07-.19-.07-.19-.2-.02-3.66-.02-7.33-.02-11.07,.89-1.38,2.24-1.89,3.98-1.54Z"/><path class="cls-1" d="M68.29,233.84h3.21c.29,2.68-3.11,1.49-3.21,3.55h-3.21c-.29-2.68,3.11-1.49,3.21-3.55Z"/><path d="M28.02,233.84c.92-.15,1.15,.76,1.77,1.15,1.2-.99,.34-2.36,.6-3.52,2.53,.86,.57,2.87,1.13,4.2-.99,1.14-2.13,.05-2.87,.57-.95-.89-.5-1.69-.63-2.4Z"/><path d="M56.45,232.66c-.11-2.33,.11-4.54,2.37-5.92,.11,2.33-.11,4.54-2.37,5.92Z"/><path d="M25.65,229.1c1.77,.1,1.01,1.47,1.18,2.37-1.77-.1-1.01-1.47-1.18-2.37Z"/><path d="M30.39,231.47c-1.77-.1-1.01-1.47-1.18-2.37,1.77,.1,1.01,1.47,1.18,2.37Z"/><path d="M54.08,230.29c-.18,.9,.59,2.27-1.18,2.37,.18-.9-.59-2.27,1.18-2.37Z"/><path d="M26.83,231.47c1.77,.1,1.01,1.47,1.18,2.37-1.77-.1-1.01-1.47-1.18-2.37Z"/><path d="M52.89,232.66v2.37c-1.11,.09-1.25-.68-1.16-1.47,.07-.59,.44-1.03,1.16-.9Z"/><path d="M55.26,235.03c.18-.9-.59-2.27,1.18-2.37-.18,.9,.59,2.27-1.18,2.37Z"/><path d="M52.89,235.03h2.37c.09,1.11-.68,1.25-1.47,1.16-.59-.07-1.03-.44-.9-1.16Z"/><path d="M28.03,209.07h1.79c.81,.5,.48,1.14,.58,1.78-1.5,.88-2.48,.86-2.38-1.78Z"/><path d="M41.05,206.6h-3.55c1.19-1.62,2.36-1.62,3.55,0Z"/><path d="M32.01,208.04c.59,1.65,.9,2.52,1.05,2.92q-1.24,.3-1.05-2.92Z"/><path d="M28.01,213.11c.8-.86,1.59-.86,2.39,0-.8,.86-1.59,.86-2.39,0Z"/><path d="M31.56,213.11c.8-.86,1.59-.86,2.39,0-.8,.86-1.59,.86-2.39,0Z"/><path d="M30.46,215.45c-.91,.85-1.57,.8-2.3,.22,.45-1.31,1.21-.94,2.3-.22Z"/><path d="M37.49,206.6c.03,.82-.36,1.21-1.18,1.18-.03-.82,.36-1.21,1.18-1.18Z"/><path d="M32.16,216.07c-.55-.39-.55-.78,0-1.17,.55,.39,.55,.78,0,1.17Z"/><path d="M62.37,192.38c-.82-.03-1.21,.36-1.18,1.18h-1.18c.42-2.43,.87-4.85,3.55-5.92v2.37c-1.77,.1-1.01,1.47-1.18,2.37Z"/><path d="M60,195.93c-.82-.03-1.21,.36-1.18,1.18h-1.18v-2.37c.79-.39,1.58-.79,2.37-1.18v2.37Z"/><path d="M42.23,188.83h-1.18c-.04-.58,.08-1.1,.78-.94,.19,.04,.27,.61,.4,.94Z"/><path d="M49.5,215.51c-1.44,.75-2.49,.8-3.87-.05,1.31-.7,2.37-.87,3.87,.05Z"/></g></svg>