<?xml version="1.0" encoding="UTF-8"?><svg id="MOBILEINNO" xmlns="http://www.w3.org/2000/svg" viewBox="0 0 509.79 432.63"><defs><style>.cls-1{fill:#555;}.cls-2{fill:#565656;}.cls-3{fill:#5f5f5f;}.cls-4{fill:#aaa;}.cls-5{fill:#383838;}.cls-6{fill:#545454;}.cls-7{fill:#525252;}.cls-8{fill:#595959;}</style></defs><path class="cls-5" d="M65.93,159.95c11.5,0,23.01-.04,34.51,.02,5.08,.03,5.02,.12,5.51,5.29,1.68,17.63,3.41,35.26,5.08,52.9,.25,2.68,.23,5.39,.44,8.08,.08,1.03,.45,2.05,.69,3.07,.6-.82,1.45-1.56,1.76-2.47,2.61-7.87,5.22-15.75,7.66-23.68,4.95-16.06,9.51-32.25,14.74-48.22,7.01-21.38,22.36-33.52,44.14-38.08,13.29-2.78,25.7-.25,36.62,7.47,12.75,9.01,18.27,21.62,16.53,37.35-1.55,14.03-8.52,24.89-19.12,33.67-2.56,2.12-4.11,4.05-4.5,7.63-1.97,18.27-4.37,36.49-6.62,54.73-2.28,18.46-4.63,36.91-6.76,55.39-.41,3.56-2.43,3.67-5.11,3.66-13.08-.05-26.17-.02-39.25-.02-2.26,0-4.51-.08-6.77,0-2.37,.09-3.28-1.05-3.04-3.28,.47-4.24,.9-8.48,1.44-12.71,2.54-20.01,5.17-40.01,7.66-60.03,.78-6.23,1.25-12.49,1.8-18.75,.05-.56-.36-1.17-.55-1.75-.35,.54-.83,1.04-1.03,1.64-3.57,10.86-7.12,21.74-10.65,32.62-6.3,19.4-12.65,38.79-18.82,58.23-.88,2.79-2.11,4.11-5.15,4.08-10.15-.12-20.3-.11-30.45,0-2.79,.03-4-.88-4.25-3.75-.59-6.7-1.61-13.36-2.19-20.06-1.08-12.29-1.91-24.61-2.97-36.91-.87-10.05-1.9-20.08-2.92-30.12-.18-1.78-.65-3.53-1.07-5.28-.11-.47-.5-.87-.77-1.3-.09,.44-.22,.87-.27,1.31-.97,7.79-1.91,15.58-2.91,23.36-1.2,9.32-2.51,18.63-3.67,27.96-1.08,8.68-2.04,17.38-3.04,26.07-.56,4.9-1.15,9.8-1.61,14.71-.29,3.12-1.93,4.04-4.95,4.02-15.11-.11-30.23-.11-45.34-.01-2.94,.02-4.12-1-3.77-3.93,.6-5.12,1.03-10.27,1.66-15.39,2.14-17.34,4.32-34.68,6.53-52.02,1.65-12.9,3.46-25.77,5.06-38.68,1.57-12.68,2.95-25.38,4.41-38.08,.05-.45,.04-.9,.09-1.35q.77-7.34,8.04-7.36c11.05-.01,22.11,0,33.16,0Zm115.87,33.67c1.96-.33,5.38-.53,8.57-1.5,12.98-3.94,22.85-11.47,27.15-24.84,3.69-11.46,.81-21.41-8.35-29.04-7.56-6.31-16.53-8.77-26.47-7.03-11.61,2.04-21.27,7.31-27.77,17.29-4.52,6.93-6.93,14.45-4.78,22.96,3.63,14.34,15.96,21.63,31.65,22.16Z"/><path class="cls-7" d="M225.29,235.75c-.74,6.23-1.53,12.46-2.21,18.7-.41,3.79-.66,7.59-.97,11.39-.22,2.75,.28,4.92,3.71,5.2,.64,.05,1.2,1.05,1.8,1.62-.8,.6-1.58,1.68-2.4,1.72-4.05,.17-8.11,.13-12.17-.02-.73-.03-1.44-.85-2.16-1.31,.48-.65,.85-1.74,1.44-1.88,3.58-.84,4.29-3.5,4.68-6.56,1.5-11.77,2.94-23.55,4.67-35.29,.46-3.13-.99-3.98-3.43-4.61-.42-.11-.98-1.02-.88-1.41,.12-.46,.87-1.06,1.37-1.07,4.96-.12,9.91-.15,14.87-.15,2.63,0,3.18,1.85,3.68,3.98,1.87,8.08,3.83,16.14,5.87,24.18,.4,1.57,1.26,3.02,1.91,4.52,.85-1.28,1.86-2.48,2.53-3.84,3.74-7.68,7.68-15.27,10.96-23.14,1.85-4.42,4.32-6.34,9.13-5.81,3.56,.4,7.2,.11,10.81,.24,.51,.02,1.29,.58,1.4,1.03,.1,.38-.55,1.38-.9,1.4-4.58,.24-5.05,3.28-5.45,6.97-1.24,11.36-2.66,22.7-4.33,34-.44,2.98-.25,4.77,2.98,5.5,.59,.13,.95,1.22,1.42,1.86-.68,.48-1.35,1.36-2.03,1.37-6.08,.1-12.17,.09-18.25-.04-.69-.01-1.35-.96-2.03-1.47,.61-.58,1.16-1.59,1.84-1.68,3.35-.45,4.25-2.43,4.6-5.54,1.09-9.56,2.54-19.08,3.77-28.63,.14-1.07-.2-2.19-.31-3.29-.68,.82-1.55,1.54-2.01,2.47-5.01,10.06-9.94,20.15-14.91,30.23-.79,1.61-1.42,3.37-2.55,4.71-.75,.89-2.36,1.75-3.37,1.55-.94-.18-2.03-1.68-2.3-2.79-2.4-9.57-4.64-19.17-6.9-28.78-.61-2.61-1.12-5.25-1.68-7.88-.24-.79-.48-1.57-.71-2.36-.54,.54-1.42,1-1.56,1.63-.23,1.04,.02,2.18,.07,3.27Z"/><path class="cls-7" d="M346.61,275.06c-2.65-.39-5.29-.89-7.96-1.15-1.72-.17-3.5-.2-5.19,.1-3.58,.62-4.41,.03-3.96-3.66,.54-4.44,1.35-8.85,1.92-13.28,1.18-9.1,2.34-18.21,3.37-27.33,.26-2.33,.95-4.85-1.86-6.61-1.65-1.03-.64-2.73,.72-2.98,3.96-.74,7.98-1.14,12-1.42,.39-.03,1.37,1.69,1.29,2.52-.5,5.58-1.23,11.13-1.83,16.7-.09,.81,.13,1.66,.2,2.49,.84-.21,1.82-.21,2.49-.67,2.86-1.96,5.86-3.15,9.45-3.01,6.31,.26,10.83,3.98,11.27,10.23,.26,3.76,.14,7.7-.71,11.34-2.76,11.86-8.9,16.44-21.19,16.72Zm10.55-21.75l-.51-.11c0-1.35,.07-2.7-.01-4.04-.26-4.02-1.64-6-4.49-6.57-3.15-.63-6.62,.83-7.41,4.33-1.47,6.51-2.59,13.17-2.92,19.82-.22,4.5,5.38,6.64,8.91,3.65,1.64-1.38,3.13-3.38,3.79-5.39,1.23-3.78,1.8-7.78,2.65-11.69Z"/><path class="cls-7" d="M304.69,236.46c2.41,.44,4.88,.67,7.22,1.36,5.86,1.73,8.85,5.83,9.19,11.87,.08,1.34,.1,2.7,.01,4.04-1.22,17.87-13.62,23.89-29.14,20.03-6.36-1.58-10.1-7.06-9.73-13.6,.18-3.32,.75-6.7,1.7-9.89,2.81-9.43,9.32-13.55,20.76-13.8Zm-11.26,24.06l.7,.13c0,1.57-.15,3.15,.03,4.7,.33,2.82,1.45,5.23,4.42,6.17,3.23,1.02,4.98-1.27,6.77-3.27,.58-.65,.91-1.54,1.29-2.34,2.68-5.6,2.77-11.71,3.24-17.7,.13-1.67-.67-3.53-1.42-5.12-1.66-3.5-5.46-4.37-8.34-1.71-1.57,1.45-2.97,3.47-3.57,5.5-1.33,4.46-2.11,9.09-3.11,13.65Z"/><path class="cls-7" d="M450.15,254.87c-2.48,0-4.96,.05-7.43-.02-2.42-.07-3.78,.7-3.8,3.42-.02,3.74,.35,7.28,3.81,9.5,3.95,2.53,7.82,1.29,11.43-.82,1.52-.89,2.66-2.41,4.08-3.49,.36-.28,1.38-.2,1.72,.12,.37,.35,.64,1.42,.39,1.73-1.66,2.09-3.19,4.45-5.3,6-5.9,4.31-12.63,4.53-19.31,2.38-6.53-2.09-8.53-7.72-8.8-13.8-.28-6.46,1.95-12.32,6.08-17.4,6.06-7.45,20.97-6.94,26.24-3.16,3.51,2.52,5.34,8.68,3.88,12.81-.71,2.02-2.26,2.65-4.22,2.65-2.93,0-5.85,0-8.78,0v.05Zm-5.42-3.23v.06c1.12,0,2.26,.09,3.37-.02,3.36-.32,4.33-1.34,4.27-4.68-.02-1.31-.25-2.69-.72-3.91-1.2-3.14-3.49-3.98-6.43-2.54-2.7,1.32-5.87,6.53-5.53,9.45,.07,.6,1.01,1.4,1.68,1.57,1.06,.26,2.23,.07,3.35,.07Z"/><path class="cls-7" d="M408.9,274.42c-2.48,0-4.96,.1-7.43-.06-.76-.05-1.47-.79-2.21-1.21,.44-.66,.78-1.79,1.34-1.91,3.81-.82,3.99-4.04,4.38-6.79,1.49-10.65,2.9-21.31,4-32,.34-3.29,2.08-7.25-2.1-9.8-.11-.07,.62-2.38,1.16-2.47,3.97-.69,7.98-1.15,11.99-1.48,.44-.04,1.35,1.17,1.4,1.85,.14,1.78,.07,3.6-.17,5.38-1.63,11.98-3.34,23.94-4.98,35.92-.24,1.77-.36,3.59-.29,5.38,.04,1.05,.37,2.23,.96,3.07,.7,.98,1.82,1.66,2.77,2.48-1.58,.58-3.11,1.43-4.74,1.66-1.99,.29-4.05,.07-6.08,.07v-.07Z"/><path class="cls-6" d="M391.19,236.71c2.48-.06,3.28,1.18,2.97,3.41-1.14,8.19-2.26,16.37-3.42,24.56-.38,2.68-1.2,5.43,2.5,6.61,.45,.14,1.07,1.3,.91,1.53-.43,.65-1.21,1.48-1.88,1.5-5.39,.13-10.79,.15-16.18,.04-.67-.01-1.33-.91-1.99-1.4,.49-.65,.87-1.71,1.5-1.88,2.96-.8,3.56-2.91,3.86-5.58,.67-5.99,1.67-11.94,2.33-17.93,.18-1.68-.15-3.5-.62-5.15-.37-1.29-3.63-1.17-2.26-3.22,.61-.91,2.85-.77,4.36-1.06,2.64-.5,5.28-.97,7.92-1.45Z"/><path class="cls-1" d="M470.93,316.56c-.23,0-.45,0-.68,0-4.29-.05-3.89,.04-2.79-4.45,1.11-4.52,1.52-9.24,1.85-13.9,.17-2.45-2.6-3.97-4.83-2.89-.94,.46-2.09,1.32-2.36,2.22-1.62,5.47-3.84,11.01-1.5,16.75,.91,2.24-.19,2.18-1.62,2.21-2.25,.05-4.5,.09-6.75,.02-3.16-.09-3.13-.11-1.36-3.22,.55-.96,1.06-2.02,1.24-3.09,.62-3.75,1.23-7.51,1.53-11.29,.11-1.43-.7-2.91-.99-4.39-.13-.67-.13-1.98,0-2,2.63-.48,6.3-2.08,7.72-.93,2.9,2.33,4.73,.95,7.13,.01,4.7-1.84,10.45,.25,9.47,7.07-.38,2.65-.72,5.3-.98,7.97-.25,2.56-1.44,5.2,.89,7.56,1.73,1.75,.23,2.19-1.26,2.29-1.57,.1-3.15,.02-4.72,.02v.03Z"/><path class="cls-1" d="M231.4,316.56c-.68,0-1.36,.06-2.02-.01-1.1-.12-2.18-.32-3.28-.49,.66-.77,1.52-1.46,1.92-2.35,.61-1.37,1.15-2.87,1.26-4.35,.39-5.13,3.46-10.23,.33-15.45-.16-.26,.08-1.11,.21-1.13,2.8-.36,6.15-1.71,8.25-.64,1.94,1,2.97,1.11,4.63,.3,1-.49,2.05-1,3.13-1.22,5.54-1.15,9.3,2.2,8.75,7.86-.35,3.56-.96,7.09-1.44,10.64-.15,1.09-.77,2.64-.28,3.21,3.39,3.92,.35,3.58-2.25,3.61-1.13,.01-2.25,.03-3.38,0-3.57-.07-3.23,0-2.36-3.88,.96-4.35,1.29-8.84,1.76-13.29,.23-2.22-.46-4.06-3.1-4.31-2.32-.22-4.31,.79-4.64,2.98-.76,5.05-1.83,10.27-1.24,15.23,.4,3.39-.67,3.24-2.85,3.26-1.13,0-2.25,0-3.38,0v.02Z"/><path class="cls-1" d="M365.72,291.05c1.01,0,1.92-.07,2.81,.01,5.3,.51,7.15,2.72,6.57,7.95-.36,3.33-.88,6.64-1.23,9.96-.11,1.09-.1,2.28,.22,3.31,1.33,4.39,1.34,4.78-2.91,4.38-4.36-.41-8.57-.74-12.98,.03-3.66,.64-5.62-1.14-6.6-4.32-.9-2.91,.43-6.3,3.59-7.85,2.59-1.28,5.46-2.01,8.21-2.96,2.23-.76,4.24-1.84,4.46-4.43,.08-.96-.34-2.37-1.04-2.88-.71-.52-2.12-.42-3.1-.14-.77,.22-1.46,1.02-1.99,1.71-.68,.88-1.06,1.99-1.76,2.85-1.52,1.89-3.6,2.04-5.2,.49-1.51-1.45-1.23-3.56,.95-5.09,3-2.1,6.34-3.36,10-3.02Zm1.73,14.23c-.79-.75-1.45-1.94-2.19-1.99-2.95-.21-6.36,2.94-6.09,5.78,.12,1.23,1.25,3.02,2.3,3.34,1.15,.35,3.32-.28,3.98-1.23,1.09-1.55,1.31-3.69,2-5.9Z"/><path class="cls-7" d="M430.25,316.85c-4.48,.08-8.75-.57-10.59-5.34-2.08-5.39-1.07-10.67,2.25-15.22,3.95-5.41,12.29-7.07,18.24-3.75,1.62,.9,3.38,2.67,3.82,4.36,2.8,10.87-2.48,20.62-13.72,19.96Zm-3.71-11.25c.21,2.86-.05,4.58,.55,5.94,.57,1.29,1.91,2.87,3.12,3.07,1.16,.2,3.13-.88,3.8-1.98,2.76-4.52,3.71-9.59,2.93-14.83-.29-1.96-1.21-4.45-3.69-4.02-1.68,.29-3.8,1.81-4.46,3.32-1.31,3.02-1.75,6.41-2.26,8.48Z"/><path class="cls-7" d="M306.17,316.85c-8.33-.01-10.99-3.01-10.97-11.52,.02-10.9,7.9-15.21,16.9-14.19,5.65,.64,8.72,4.26,8.94,9.96,.4,9.95-5.09,15.76-14.87,15.75Zm7.37-16.09l-.48-.11c0-.67,.03-1.34,0-2.01-.14-2.32-.47-4.63-3.36-5.01-2.66-.35-4.43,1.29-5.01,3.55-1,3.85-1.81,7.8-2.1,11.76-.18,2.38,.59,5.29,3.5,5.78,2.87,.48,4.51-1.82,5.25-4.26,.96-3.17,1.49-6.47,2.2-9.71Z"/><path class="cls-6" d="M213.28,316.51c-1.35,0-2.7,.07-4.04-.03-.83-.06-1.64-.37-2.46-.57,.53-.65,1.1-1.27,1.57-1.96,.6-.88,1.5-1.76,1.63-2.73,1.04-7.51,2.04-15.04,2.77-22.59,.15-1.54-.57-3.39-1.45-4.74-1.39-2.15,.03-2.23,1.4-2.27,3.14-.1,6.29-.09,9.44-.01,.81,.02,1.61,.46,2.41,.71-.53,.58-1.14,1.12-1.57,1.76-.69,1.04-1.65,2.09-1.83,3.24-1.02,6.39-1.87,12.81-2.69,19.23-.23,1.77-.45,3.63-.12,5.35,.26,1.36,1.34,2.57,2.06,3.84-1.92,.26-3.84,.53-5.76,.78-.44,.06-.9,0-1.35,0h0Z"/><path class="cls-1" d="M491.57,316.89c-1.12-.06-2.25-.05-3.36-.2-4.24-.55-6.32-4.51-4.35-8.32,.12-.22,1.27-.28,1.42-.06,.99,1.48,1.6,3.29,2.82,4.53,1,1.02,2.66,1.86,4.04,1.89,1.03,.02,2.58-1.18,3-2.21,.38-.92-.07-2.76-.83-3.46-1.45-1.32-3.36-2.16-5.13-3.11-2.52-1.36-4.37-3.12-4.27-6.25,.11-3.43,1.44-6.39,4.76-7.4,2.9-.89,6.15-1.19,9.18-.96,3.25,.24,4.01,1.73,3.56,5.19-.1,.74-.78,1.41-1.19,2.1-.57-.56-1.33-1.03-1.69-1.7-1.12-2.12-2.36-3.88-5.17-3.2-2.29,.55-3.13,3.02-1.4,4.59,1.13,1.03,2.6,1.72,3.97,2.45,5.25,2.78,6.59,4.94,5.68,9.3-.78,3.73-4.18,6.28-9.02,6.72-.67,.06-1.35,0-2.02,0v.1Z"/><path class="cls-1" d="M346.02,292.12c1.06,0,1.96-.06,2.86,.01,1.54,.13,1.7,.58,.83,2.02-3.13,5.14-6.07,10.4-9.03,15.64-.88,1.56-1.59,3.22-2.41,4.82-1,1.94-2.89,2.4-4.6,1.73-1.2-.47-2.45-1.86-2.84-3.1-1.13-3.62-1.83-7.38-2.72-11.08-.47-1.96-.86-3.96-1.55-5.85-1.52-4.2-1.59-4.19,2.46-4.25,1.35-.02,2.71,.09,4.05,0,3.09-.22,4.13,.57,1.77,3.25-.12,.14-.09,.43-.11,.66-.29,3.24,2.93,12.4,3.3,11.68,2.09-4.15,3.85-8.48,5.72-12.74-3.58-4.69,1.47-2.02,2.28-2.79Z"/><path class="cls-6" d="M389.1,316.79c-4.79,.14-7.15-2.39-6.56-7.05,.48-3.77,1.09-7.52,1.46-11.3,.12-1.19,0-2.69-.66-3.59-1.09-1.5-.92-2.01,.63-3,1.85-1.18,3.28-2.98,4.98-4.4,.8-.67,1.81-1.09,2.73-1.62,.43,.9,.94,1.77,1.26,2.71,.21,.61-.11,1.59,.25,1.94,1.22,1.17,2.63,2.14,3.98,3.18-1.59,.56-3.21,1.08-4.77,1.72-.28,.12-.43,.77-.48,1.2-.53,4.21-1.16,8.42-1.47,12.66-.09,1.19,.69,2.47,1.21,3.66,.67,1.55,3.94-.8,3.31,1.62-.29,1.12-3.38,1.53-5.21,2.24-.2,.08-.45,.03-.67,.04Z"/><path class="cls-8" d="M277.83,294.74c-3.48,.1-5.43,1.95-5.87,5.31-.55,4.22-1.25,8.44-1.35,12.68-.08,3.75,.24,3.76-3.14,3.82-.9,.02-1.8,0-2.7,0-4.11-.04-3.38,.13-2.48-3.69,1.36-5.78,3.16-11.75,1.44-17.8-.46-1.62-.71-2.51,1.21-2.83,2.91-.48,5.97-2.57,8.52,1,.25,.36,2.05-.38,3.12-.61,.41,.71,.83,1.42,1.24,2.12Z"/><path class="cls-1" d="M406.32,316.55c-.67,0-1.35,.02-2.02,0-3.74-.1-3.62-.05-1.9-3.73,.74-1.58,.97-3.42,1.26-5.16,.44-2.64,.74-5.3,1.09-7.95,.12-.88,.05-1.81,.3-2.65,.55-1.81-3.72-2.76-1.24-4.23,2.14-1.27,5.15-1.26,7.8-1.39,.49-.02,1.65,2.01,1.54,3-.47,4.42-1.31,8.81-1.95,13.22-.22,1.54-.56,3.15-.32,4.65,.65,4.18,.76,4.17-3.21,4.23-.45,0-.9,0-1.35,0h0Z"/><path class="cls-2" d="M277.83,294.74c-.41-.71-.83-1.42-1.24-2.12,1.89-.52,3.79-1.52,5.66-1.47,4.19,.12,6.41,2.99,5.93,7.16-.46,3.97-1.12,7.92-1.59,11.89-.12,1.05-.3,2.55,.27,3.14,2.66,2.73,1.14,3.16-1.52,3.19-.89,.01-1.79,0-2.69,.01-4.87,0-4.72,.03-3.74-4.95,.73-3.7,1.05-7.48,1.49-11.24,.27-2.35-.09-4.48-2.58-5.61Z"/><path class="cls-1" d="M388.68,233c-3.55-.06-6.13-2.51-6.01-5.7,.14-3.71,3.62-6.77,7.71-6.77,3.84,0,6.41,2.13,6.35,5.28-.09,4-3.75,7.27-8.04,7.2Z"/><path class="cls-3" d="M414.63,284.33c-.13,2.75-2.71,5.18-5.26,4.95-2.23-.2-4.16-2.41-4.01-4.56,.18-2.48,3.03-4.67,5.76-4.43,2.24,.2,3.61,1.78,3.5,4.05Z"/><path class="cls-4" d="M225.29,235.75c-.05-1.1-.3-2.24-.07-3.27,.14-.63,1.01-1.09,1.56-1.63,.24,.79,.48,1.57,.71,2.36l-2.2,2.55Z"/></svg>