<?xml version="1.0" encoding="UTF-8"?><svg id="NSERC" xmlns="http://www.w3.org/2000/svg" viewBox="0 0 509.79 432.63"><defs><style>.cls-1{fill:#5a5a5a;}</style></defs><path class="cls-1" d="M104.46,115.34c55.65-.16,100.99,45.05,101.17,100.85,.17,55.47-45.15,100.97-100.68,101.1-56.05,.12-101.46-45.04-101.51-100.96-.05-55.66,45.13-100.83,101.02-100.98Zm-22.78,94.68c-8.83-6.72-17.12-12.97-25.34-19.33-1.24-.96-1.73-.87-2.41,.48-1.61,3.21-3.36,6.35-5,9.54-.5,.97-1.06,1.44-2.24,1.24-2.67-.46-5.37-.81-8.06-1.18-4.48-.62-8.95-1.21-13.68-1.85,2.14,8.45,4.16,16.49,6.24,24.52,.36,1.37,.28,2.36-1,3.27-1.62,1.16-2.99,2.67-4.61,3.83-1.55,1.12-1.38,1.71,.07,2.86,12.02,9.56,23.95,19.23,35.96,28.8,1.27,1.01,1.34,1.71,.59,3.1-2.28,4.21-4.28,8.57-6.59,12.76-1.1,1.99-.47,2.13,1.38,2.11,5.6-.09,11.21-.12,16.8,.02,1.79,.05,2.33-.59,2.55-2.21,1.75-12.74,3.56-25.48,5.36-38.22,.07-.51-.13-1.18,.88-1.34,.52,3.61,1.04,7.22,1.55,10.83,1.41,9.81,2.61,19.65,4.33,29.4,.6,3.39,3.88,.78,5.83,1.42,.99,.32,2.42,.51,2.55-1.45,.18-2.79,.55-5.57,.85-8.35,1.72-15.81,3.45-31.63,5.18-47.44,.42-3.86,.89-7.72,1.34-11.59,.6,.67,.81,1.33,.89,2.01,.7,6.36,1.37,12.72,2.07,19.07,1.54,14.15,3.08,28.29,4.66,42.43,.19,1.73-.41,4.16,.88,5.01,1.31,.86,3.56,.16,5.37,.4,1.97,.27,2.62-.53,2.86-2.37,1.28-9.58,2.65-19.15,4-28.73,.5-3.55,1.05-7.09,1.65-11.17,.46,.75,.65,.92,.68,1.11,1.64,11.55,3.32,23.09,4.86,34.66,.86,6.44,.75,6.46,7.18,6.46h2.16c4.2,0,8.39,0,12.95,0-2.59-5.06-4.91-9.77-7.41-14.38-.9-1.67-.9-2.55,.74-3.86,11.99-9.47,23.85-19.1,35.79-28.63,1.23-.98,1.37-1.48,.1-2.56-2.11-1.79-5.39-3.13-5.9-5.65-.5-2.47,1.12-5.36,1.79-8.07,1.47-5.91,2.93-11.83,4.48-18.08-7.22,1.02-14.09,1.95-20.95,2.97-1.53,.23-2.46,0-3.2-1.55-1.5-3.17-3.29-6.2-4.88-9.33-.58-1.15-1.04-1.33-2.09-.47-1.97,1.63-4.05,3.13-6.08,4.68-6.35,4.83-12.7,9.66-19.49,14.83,3.53-15.79,6.95-31.06,10.46-46.74-4.26,1.84-8.05,3.48-11.84,5.13q-5.02,2.2-7.8-2.63c-4.5-7.82-9-15.63-13.62-23.66-.58,.95-1.05,1.67-1.48,2.41-4.41,7.69-8.82,15.37-13.23,23.06q-1.73,3.01-4.96,1.62c-4.42-1.92-8.84-3.86-13.69-5.97,3.52,15.73,6.93,30.95,10.47,46.76Z"/><path d="M272.68,191.9c1.43-6.71,2.73-12.79,4.03-18.86,.23-1.09,.49-2.18,.74-3.27q1.32-5.7,7.29-5.7c2.24,0,4.48,.06,6.72-.02,1.63-.05,2.06,.47,1.69,2.13-2.29,10.45-4.47,20.92-6.7,31.38-.8,3.75-1.69,7.48-2.4,11.24-.26,1.38-.82,1.87-2.2,1.86-6.16-.05-12.32-.04-18.48,0-1.39,0-1.89-.48-2.08-1.92-1.04-8.06-2.2-16.1-3.33-24.15-.04-.29-.16-.57-.69-.93-.4,1.63-.83,3.25-1.18,4.89-1.37,6.48-2.76,12.96-4.02,19.47-.4,2.05-1.34,2.77-3.41,2.67-3.35-.15-6.72-.09-10.08-.02-1.54,.03-2.14-.3-1.76-2.04,2.99-13.81,5.95-27.63,8.79-41.47,.5-2.45,1.58-3.23,4.03-3.15,5.35,.17,10.72,.16,16.08,0,2.3-.07,3.06,.81,3.32,2.96,.89,7.44,1.92,14.86,2.93,22.28,.09,.68,.34,1.34,.69,2.65Z"/><path d="M413.28,249.49c-1.17,5.51-2.34,11.02-3.51,16.53-.58,2.73-1.23,5.45-1.72,8.2-.29,1.63-1.04,2.31-2.74,2.26-3.36-.09-6.72-.1-10.08,0-2.03,.06-2.53-.78-2.13-2.63,2.5-11.63,4.97-23.27,7.45-34.91,.5-2.34,1.05-4.68,1.49-7.03,.26-1.4,.93-2.07,2.42-2.06,6.08,.04,12.16,.07,18.24-.01,1.67-.02,2.06,.95,2.24,2.19,.73,5.21,1.4,10.43,2.11,15.64,.43,3.14,.89,6.27,1.86,9.41,1.29-6.05,2.58-12.09,3.87-18.14,.5-2.34,1.05-4.68,1.46-7.04,.25-1.44,.93-2.07,2.41-2.05,3.68,.05,7.36,.05,11.04,0,1.53-.02,1.9,.5,1.57,2.03-2.28,10.46-4.46,20.93-6.69,31.4-.81,3.83-1.72,7.64-2.45,11.48-.25,1.31-.84,1.71-2.08,1.71-6.16-.03-12.32-.03-18.49,0-1.33,0-1.98-.35-2.17-1.84-1.03-7.98-2.19-15.95-3.3-23.92-.05-.38-.12-.77-.18-1.15l-.62-.07Z"/><path d="M440.61,186.88c5.39,2.53,5.65,3.24,5.25,9.63-.26,3.97-.87,7.95-.54,11.95,.14,1.67-.58,2.25-2.23,2.23-4.64-.07-9.28-.06-13.91,0-1.54,.02-2.23-.54-2.11-2.1,.25-3.42,.33-6.85,.72-10.25,.34-3.04-2.16-5.34-5.05-4.42-1.05,.34-1.16,1.25-1.35,2.08-.86,3.98-1.75,7.95-2.5,11.95-.36,1.91-1.04,2.88-3.26,2.78-4.31-.2-8.64-.16-12.95-.02-2.09,.07-2.4-.69-2-2.51,1.92-8.73,3.75-17.48,5.62-26.22,1.14-5.31,2.37-10.6,3.41-15.92,.3-1.52,.98-1.99,2.4-1.99,9.76,.03,19.51,0,29.27,.05,1.18,0,2.37,.31,3.54,.58,5.05,1.19,7.31,4.94,6.42,10.04-1.02,5.82-4,9.81-9.79,11.49-.37,.11-.78,.21-.92,.66Zm-14.4-12.25c-1.75-.44-2.6,.56-2.81,2.49-.1,.94-.45,1.85-.63,2.78-.65,3.36,.1,4.05,3.52,3.22,.46-.11,.93-.25,1.35-.46,2.25-1.11,3.79-3.88,3.16-5.86-.67-2.11-2.49-2.16-4.59-2.17Z"/><path d="M324.54,252.83c5.43,1.73,6.33,4.91,5.67,9.52-.54,3.76-.96,7.61-.63,11.46,.16,1.9-.44,2.75-2.52,2.69-4.32-.13-8.64-.13-12.96,0-2.31,.07-3.18-.96-2.75-3.01,.67-3.15,.15-6.37,.77-9.53,.36-1.83-.27-3.38-2.35-3.78-2.88-.55-3.76,.02-4.28,2.56-.79,3.83-1.61,7.66-2.39,11.49-.28,1.39-.78,2.3-2.48,2.27-4.72-.09-9.44-.07-14.16,0-1.56,.02-1.91-.48-1.58-1.98,3.08-14.28,6.11-28.57,9.11-42.87,.24-1.12,.7-1.76,1.86-1.74,10.22,.21,20.46-.53,30.67,.4,3.87,.35,7.4,1.51,8.73,5.56,1.47,4.47-.07,8.48-2.85,12.05-1.87,2.41-4.51,3.73-7.87,4.93Zm-7.47-9.14c.09-1.17-.23-2.26-1.61-2.74-1.69-.58-3.4-.95-5.08-.04-.27,.15-.39,.67-.48,1.04-.44,1.94-.85,3.9-1.28,5.84-.17,.77-.18,1.4,.77,1.69,3.38,1.02,7.68-2.14,7.68-5.81Z"/><path d="M492.51,250.52c3.28,0,6.56,.03,9.85-.01,1.57-.02,2.14,.45,1.75,2.15-1.52,6.7-2.95,13.42-4.32,20.15-.3,1.49-1.04,2.12-2.48,2.42-7.51,1.6-15.09,2.72-22.78,2.61-4.26-.06-8.37-1.01-12.17-3.16-4.71-2.67-6.9-6.98-7.32-12-.98-11.77,4.31-24.87,16.13-30.57,8.97-4.33,18.39-4.57,27.75-1.35,5.18,1.78,7.57,6.92,6.4,12.26-.23,1.04-.85,1.24-1.72,1.24-4.64,0-9.29,0-13.93,0-.66,0-1.18-.13-1.58-.82-1.97-3.45-5.53-4-8.6-1.4-.99,.84-1.86,1.85-2.3,3.04-1.89,5.2-3.39,10.51-3.54,16.08-.09,3.46,1.27,4.7,4.81,4.73,.64,0,1.28,.01,1.92,0,2.83-.09,4.68-2.32,4.24-5.09-.23-1.43-1.35-1.11-2.25-1.14-3.71-.13-3.71-.11-3.01-3.8q1-5.33,6.42-5.33c2.24,0,4.48,0,6.72,0Z"/><path d="M349.18,262.05c2.16,0,4.32,.04,6.48-.02,1.42-.04,2.18,.3,2.28,1.96,.15,2.24,2.14,3.58,4.42,3.28,2.39-.32,4.79-2.64,4.57-4.5-.14-1.23-.86-1.97-2.08-2.35-3.36-1.04-6.69-2.18-10.05-3.22-4.18-1.29-8.84-2.43-9.7-7.45-1.1-6.43,1.1-12,6.49-16.02,4.52-3.38,9.72-4.74,15.28-4.83,4.79-.07,9.59-.34,14.2,1.52,4.77,1.93,7.36,6.67,6.2,11.34-.3,1.21-.88,1.54-1.98,1.53-4.16-.02-8.32-.02-12.48,0-1.09,0-1.67-.32-2.09-1.46-1.06-2.81-5.84-3.34-7.69-.94-1.35,1.75-.44,3.47,2.29,4.26,3.46,1,6.97,1.81,10.36,2.99,3.3,1.14,6.67,2.31,8.3,5.95,1.22,2.72,1.13,5.5,.42,8.2-2.44,9.3-9.55,13.61-19.03,15.06-6.15,.94-12.26,.81-18.19-1.38-5.92-2.19-7.61-6.97-7.01-12.44,.14-1.25,1.01-1.5,2.06-1.5,2.32,0,4.64,0,6.96,0Z"/><path d="M307.18,196.25c2.32,0,4.64,.03,6.96-.01,1.24-.02,1.82,.37,2.03,1.73,.43,2.76,1.37,3.28,4.63,3.08,2.22-.14,4.22-1.8,4.37-3.72,.15-1.76-.96-2.62-2.45-3.09-3.96-1.26-7.95-2.45-11.89-3.76-2.34-.78-4.68-1.61-6.24-3.77-1.93-2.65-1.76-5.63-1.22-8.53,1.38-7.3,6.32-11.5,13.01-13.73,6.89-2.3,13.98-2.43,21.03-.66,4.56,1.15,7.58,3.91,8.34,8.81,.49,3.17-.46,4.45-3.59,4.45-3.52,0-7.04-.04-10.56,.02-1.41,.02-2.35-.15-2.82-1.82-.6-2.13-2.52-2.22-4.35-1.94-1.87,.28-3.38,1.23-3.81,3.17-.31,1.41,.92,1.98,1.98,2.31,2.97,.93,5.98,1.76,8.98,2.61,1.85,.53,3.66,1.13,5.39,2,5.22,2.63,7.04,6.46,5.85,12.24-1.38,6.67-5.36,11.24-11.58,13.65-8.22,3.19-16.72,3.44-25.15,.95-5.95-1.76-8.49-6.24-7.76-12.37,.15-1.28,.78-1.6,1.89-1.59,2.32,.02,4.64,0,6.96,0Z"/><path d="M497.4,181.35c-2.16,0-4.32-.03-6.48,.01-1.28,.02-1.93-.44-1.92-1.8,.02-1.9,.3-3.98-2.28-4.64-1.9-.48-4.68,.51-5.79,2.92-2.76,5.97-4.49,12.29-3.89,18.95,.27,2.93,3.51,3.91,5.81,2.01,1.19-.99,2.22-2.18,2.56-3.69,.35-1.55,1.27-1.77,2.61-1.76,4.16,.05,8.32,0,12.48,.02,2.52,.01,2.75,.29,1.96,2.62-2.79,8.26-8.8,12.91-17.07,14.81-5.51,1.26-11.08,1.48-16.57-.23-6.41-2-10-6.37-10.55-13.07-.88-10.65,1.93-20.05,9.8-27.61,3.81-3.66,8.5-5.66,13.61-6.61,6.33-1.18,12.53-.92,18.45,2.02,5.82,2.89,6.78,9.35,5.96,14.42-.2,1.23-.98,1.69-2.22,1.66-2.16-.06-4.32-.02-6.48-.02Z"/><path d="M270.67,247.15c-2.24,0-4.48,0-6.72,0-1.07,0-1.6-.32-1.38-1.59,.33-1.98-.26-3.73-2.26-4.51-2.11-.82-4.48,.22-5.72,2.39-2.19,3.82-2.83,8.12-3.78,12.33-.46,2.05-.51,4.11-.53,6.19-.01,1.53,.52,2.64,1.88,3.32,1.52,.76,2.95,.52,4.26-.5,1.17-.92,1.95-2.15,2.38-3.54,.48-1.57,1.48-2.11,3.05-2.09,4.16,.05,8.33,.12,12.48-.03,2.3-.08,2.3,.94,1.77,2.59-1.94,5.94-5.75,10.37-11.34,12.97-8.24,3.82-16.72,4.63-25.24,.69-5.1-2.36-7.44-6.7-7.88-12.02-.6-7.24,.68-14.23,4.33-20.58,4.9-8.53,12.46-13.08,22.21-13.81,3.4-.25,6.87-.4,10.27,.43,9.6,2.34,11.87,7.55,11.14,16.12-.12,1.39-1.03,1.65-2.18,1.64-2.24,0-4.48,0-6.72,0Z"/><path d="M369.49,210.65c-5.04,0-10.08,0-15.12,0-2.82,0-2.92-.19-2.36-2.85,2.94-13.74,5.87-27.48,8.75-41.24,.37-1.76,1.03-2.56,2.99-2.54,10.16,.09,20.32,.09,30.48,0,2.08-.02,2.72,.5,2.09,2.61-.68,2.29-1.1,4.66-1.53,7.02-.32,1.77-1.1,2.53-3.04,2.46-4.23-.15-8.48,.06-12.72-.09-2.03-.07-2.87,.71-3.21,2.61-.28,1.56,.11,2.27,1.76,2.25,3.68-.04,7.36-.02,11.04,0,2.8,.02,3.13,.41,2.58,3.08-.47,2.27-1.16,4.51-1.4,6.8-.24,2.24-1.36,2.69-3.35,2.63-3.76-.12-7.52-.05-11.28-.03-2.2,.01-3.83,2.27-3.23,4.4,.31,1.08,1.23,.86,1.98,.86,4.56,.02,9.12,.09,13.68-.02,1.83-.04,2.46,.44,1.99,2.3-.64,2.55-1.17,5.14-1.65,7.73-.28,1.55-1.06,2.07-2.62,2.04-5.28-.08-10.56-.03-15.84-.03Z"/></svg>