<?xml version="1.0" encoding="UTF-8"?><svg id="RTEMSOFT_RESDESIGNED" xmlns="http://www.w3.org/2000/svg" xmlns:xlink="http://www.w3.org/1999/xlink" viewBox="0 0 509.79 482.33"><defs><style>.cls-1{letter-spacing:-.03em;}.cls-2{fill:url(#Orange__Yellow);}.cls-3{fill:#231f20;font-family:Aspira-Bold, Aspira;font-size:92.18px;}.cls-4{letter-spacing:0em;}</style><linearGradient id="Orange__Yellow" x1="106.21" y1="189.91" x2="403.59" y2="189.91" gradientTransform="matrix(1, 0, 0, 1, 0, 0)" gradientUnits="userSpaceOnUse"><stop offset="0" stop-color="#fff33b"/><stop offset=".04" stop-color="#fee62d"/><stop offset=".12" stop-color="#fdd51b"/><stop offset=".2" stop-color="#fdca0f"/><stop offset=".28" stop-color="#fdc70c"/><stop offset=".67" stop-color="#f3903f"/><stop offset=".89" stop-color="#ed683c"/><stop offset="1" stop-color="#e93e3a"/></linearGradient></defs><path class="cls-2" d="M391.42,159.2c6.71,0,12.17-5.46,12.17-12.16s-5.46-12.16-12.17-12.16-12.16,5.46-12.16,12.16c0,1.94,.47,3.77,1.28,5.4l-24.26,21.67c-.83-.34-1.74-.53-2.7-.53-1.93,0-3.67,.77-4.96,2.02l-34.76-21.18c.27-.98,.42-2,.42-3.07,0-6.43-5.23-11.66-11.66-11.66-2.66,0-5.11,.91-7.07,2.41l-31.82-25.12c.4-1.09,.62-2.26,.62-3.49,0-5.66-4.6-10.26-10.26-10.26s-10.26,4.6-10.26,10.26c0,2.91,1.23,5.54,3.18,7.41l-15.95,33.71c-1.1-.26-2.24-.41-3.42-.41-4.51,0-8.55,2.03-11.28,5.21l-40.22-21.41c.29-1.11,.46-2.27,.46-3.48,0-7.65-6.22-13.87-13.87-13.87s-13.87,6.22-13.87,13.87,6.22,13.87,13.87,13.87c4.13,0,7.83-1.82,10.37-4.69l40.22,21.41c-.35,1.26-.55,2.59-.55,3.96,0,3.02,.91,5.82,2.46,8.17l-21.49,22.19c-3.55-2.54-7.89-4.05-12.58-4.05-7.74,0-14.53,4.09-18.36,10.21l-32.9-14.25c.1-.61,.16-1.22,.16-1.86,0-6.58-5.35-11.93-11.93-11.93s-11.93,5.35-11.93,11.93,5.35,11.93,11.93,11.93c3.63,0,6.88-1.64,9.07-4.2l33.03,14.3c-.47,1.77-.75,3.63-.75,5.55,0,5.99,2.44,11.42,6.39,15.35l-16.87,24.49s-.93-.11-1.44-.11c-4.31,0-7.81,3.5-7.81,7.81s3.5,7.81,7.81,7.81,7.81-3.5,7.81-7.81c0-1.52-1.04-4.03-1.04-4.03l16.75-24.33c3.02,1.59,6.44,2.5,10.09,2.5,6.05,0,11.52-2.49,15.45-6.5l17.97,13.67s-.72,2.85-.72,4.41c0,7.59,6.18,13.77,13.77,13.77s13.77-6.18,13.77-13.77c0-.42-.03-.83-.06-1.24l.28,1.29,45.78-9.85c3.22,4.85,8.73,8.05,14.99,8.05,4.26,0,8.17-1.49,11.26-3.97l19.79,17.13c-.56,1.29-.87,2.71-.87,4.21,0,5.88,4.78,10.66,10.66,10.66s10.66-4.78,10.66-10.66-4.78-10.66-10.66-10.66c-2.04,0-3.94,.59-5.56,1.58l-19.81-17.14c1.58-2.68,2.5-5.79,2.5-9.12,0-8.75-6.25-16.03-14.52-17.64v-50.4c1.75-.51,3.33-1.42,4.65-2.62l36.08,21.98c.58,3.34,3.47,5.88,6.97,5.89l27.55,39.64c-.54,1-.84,2.13-.84,3.34,0,3.89,3.17,7.06,7.06,7.06s7.06-3.17,7.06-7.06-3.17-7.06-7.06-7.06c-.3,0-.59,.02-.88,.06l-26.9-39.2c.74-1.12,1.17-2.46,1.17-3.9,0-.58-.08-1.14-.21-1.68l24.35-21.76c1.9,1.23,4.16,1.95,6.58,1.95Zm-106.59,75.2l-44.67,9.61,.39,1.81c-1.86-5.41-6.98-9.31-13.01-9.31-3.72,0-7.09,1.49-9.57,3.89l-17.67-13.43c1.55-2.98,2.44-6.36,2.44-9.95,0-4.94-1.68-9.48-4.47-13.13l21.5-22.2c2.26,1.39,4.92,2.21,7.76,2.21,3.45,0,6.61-1.19,9.14-3.16l49.99,41.15c-1.43,2.58-2.25,5.54-2.25,8.7,0,1.31,.15,2.58,.41,3.81Zm14.45-21.51c-3.21,.56-6.13,1.97-8.52,4l-49.98-41.14c1.03-2.02,1.62-4.3,1.62-6.72,0-4.71-2.21-8.91-5.64-11.64l15.97-33.76c.41,.05,.82,.08,1.24,.08,2.08,0,4.02-.63,5.64-1.7l31.97,25.24c-.47,1.27-.74,2.63-.74,4.06,0,5.31,3.57,9.79,8.43,11.2v50.39Z"/><text class="cls-3" transform="translate(2.69 352.36) scale(1.06 1)"><tspan class="cls-4" x="0" y="0">R</tspan><tspan x="57.33" y="0">TEMSOF</tspan><tspan class="cls-1" x="423.94" y="0">T</tspan></text></svg>